<svg xmlns="http://www.w3.org/2000/svg" viewBox="0 0 596 440.5">
  <defs>
    <style>
      .cls-1 {
        fill: #baa360;
      }
    </style>
  </defs>
  <g id="Layer_2" data-name="Layer 2">
    <g id="Layer_1-2" data-name="Layer 1">
      <g>
        <g>
          <path class="cls-1" d="M153.42,421.71h0a1.75,1.75,0,0,0-.56-1.29,1.77,1.77,0,0,0-1.31-.54h-.35v-.3h2.34Zm0,16.18V440h-2.34v-.3h.38a1.81,1.81,0,0,0,1.3-.54,1.87,1.87,0,0,0,.57-1.29Zm1.8-18.3V440h-1.85V419.6Zm3.48,0a6.84,6.84,0,0,1,3.21.67A4.79,4.79,0,0,1,164,422.2a6,6,0,0,1,.73,3,5.46,5.46,0,0,1-.53,2.41,5.31,5.31,0,0,1-1.4,1.79,6.11,6.11,0,0,1-2,1.1,5.76,5.76,0,0,1-4.58-.4v-.29a9.4,9.4,0,0,0,1.76.1,6.53,6.53,0,0,0,1.64-.32,4.14,4.14,0,0,0,2.72-2.93,5.62,5.62,0,0,0,.15-.8,6.36,6.36,0,0,0-1-4.19,3.51,3.51,0,0,0-2.89-1.22h-3.44c-.1-.29-.2-.59-.29-.88Zm-3.56,18.3h.08a1.87,1.87,0,0,0,.57,1.29,1.81,1.81,0,0,0,1.3.54h.38v.3h-2.33Z"/>
          <path class="cls-1" d="M169.61,424.35h-.06a1.5,1.5,0,0,0-.5-1.11,1.61,1.61,0,0,0-1.16-.44h-.41v-.29H170Zm0,13.79L170,440h-2.48v-.3h.41a1.63,1.63,0,0,0,1.66-1.57Zm1.76-15.64V440H169.5V422.5Zm-.09,15.64h.09a1.63,1.63,0,0,0,1.66,1.57h.38v.3H170.9Zm3.5-15.64a9.35,9.35,0,0,1,2.47.32,5.65,5.65,0,0,1,1.87.93,4.48,4.48,0,0,1,1.18,1.49,4.78,4.78,0,0,1,.41,2,4.75,4.75,0,0,1-2.21,4,5.22,5.22,0,0,1-2.35.82,4.07,4.07,0,0,1,1.16.9,14.68,14.68,0,0,1,1.12,1.38c.51.68,1,1.27,1.36,1.76a16.15,16.15,0,0,0,1.18,1.42c.39.42.78.83,1.12,1.16a3.72,3.72,0,0,0,1.11.78,3.17,3.17,0,0,0,1.39.27v.3h-.91a7,7,0,0,1-2.64-.41,5,5,0,0,1-1.68-1,13.31,13.31,0,0,1-1.1-1.15q-.12-.15-.54-.75c-.29-.39-.59-.83-.92-1.29l-.91-1.27-.49-.69a8.27,8.27,0,0,0-1.35-1.36,2.67,2.67,0,0,0-1.6-.59v-.3h1.66a12.8,12.8,0,0,0,1.64-.13,3.08,3.08,0,0,0,1.53-.62,3.54,3.54,0,0,0,1.12-1.76,3.16,3.16,0,0,0,.18-.75,6.91,6.91,0,0,0,0-.91,4.45,4.45,0,0,0-.21-1.44,3.22,3.22,0,0,0-.79-1.11,3.73,3.73,0,0,0-1.21-.73,5.31,5.31,0,0,0-1.58-.29c-.91,0-1.71-.05-2.39,0a5.57,5.57,0,0,1-1,0,2.17,2.17,0,0,0-.07-.24l-.22-.66Z"/>
          <path class="cls-1" d="M187.93,424.35h-.06a1.53,1.53,0,0,0-.49-1.11,1.67,1.67,0,0,0-1.2-.44h-.41v-.29h2.54Zm0,13.79.38,1.87h-2.54v-.3h.41a1.62,1.62,0,0,0,1.69-1.56h.06Zm1.81-15.64V440h-1.87V422.5Zm7.82,0v.9h-7.88v-.9Zm-1.34,8.31v.88h-6.54v-.88Zm1.37,8.29-.06.91h-7.85v-.87Zm1.63-3.27-1.6,4.18h-4.44l1-.91a5.42,5.42,0,0,0,2.35-.42,3.72,3.72,0,0,0,1.44-1.17,8.11,8.11,0,0,0,1-1.68ZM197.56,422v.76l-3.32-.29a13.69,13.69,0,0,0,1.92-.16,8.33,8.33,0,0,0,1.4-.31Zm-1.34,7.17v1.67H194.7v-.06a1.15,1.15,0,0,0,.91-.36,1.35,1.35,0,0,0,.29-.86v-.38Zm0,2.43v1.67h-.32v-.38a1.42,1.42,0,0,0-.29-.87,1.09,1.09,0,0,0-.91-.36v-.09Zm1.34-8.31v2h-.32v-.44a1.46,1.46,0,0,0-.39-1,1.36,1.36,0,0,0-1.07-.44v-.08Z"/>
          <path class="cls-1" d="M203.37,438.05v2h-3v-.29h.44a2.18,2.18,0,0,0,1.33-.43,1.78,1.78,0,0,0,.66-1.23Zm1.66-16h.34l.59,1.72L204.15,440h-1.61Zm-.79,16.4a1.33,1.33,0,0,0,.21.83,1,1,0,0,0,.87.42h.41V440h-1.66v-1.52Zm1.08-16.4,7.94,15.27-.67,3.06-7.82-15.08Zm15.15,0,.26,1.9L213.9,437.4c-.29.67-.51,1.22-.67,1.68a10,10,0,0,0-.35,1.3h-.29l-.41-1.83Zm.26,0,2.64,18h-2.21l-1.9-14.67,1.23-3.24Zm.2,16.4h.21V440h-1.69v-.27h.43a1,1,0,0,0,.89-.43,1.3,1.3,0,0,0,.16-.78Zm1.55-.44h.58a1.8,1.8,0,0,0,.7,1.23,2,2,0,0,0,1.32.43h.43v.3h-3Z"/>
          <path class="cls-1" d="M229.8,424.38h-.08a1.51,1.51,0,0,0-.6-1.14,2.25,2.25,0,0,0-1.39-.45h-.36v-.29h2.48Zm0,13.76V440h-2.43v-.3h.41a2.11,2.11,0,0,0,1.39-.45,1.55,1.55,0,0,0,.6-1.11Zm1.75-15.64V440h-1.83V422.5Zm-.08,1.87V422.5H234v.29h-.38a2.25,2.25,0,0,0-1.39.45,1.51,1.51,0,0,0-.6,1.14Zm0,13.77h.08a1.51,1.51,0,0,0,.6,1.11,2.07,2.07,0,0,0,1.39.46h.38v.3h-2.45Z"/>
          <path class="cls-1" d="M238.58,422.5v1.55h-.05a1.24,1.24,0,0,0-.43-.89,1.37,1.37,0,0,0-1-.37h-.44v-.29Zm1.81,0v11a6.49,6.49,0,0,0,1.45,4.46,5,5,0,0,0,4,1.64,6,6,0,0,0,4.36-1.55,5.57,5.57,0,0,0,1.59-4.23V422.5h1.35v11.35a6.15,6.15,0,0,1-1.94,4.8,9,9,0,0,1-10.65,0,6,6,0,0,1-2-4.78V422.5Zm1.84,0v.29h-.44a1.46,1.46,0,0,0-1,.37,1.16,1.16,0,0,0-.43.89h0v-1.54Zm9.57,0v1.55h-.06a1.14,1.14,0,0,0-.4-.89,1.46,1.46,0,0,0-1-.37h-.43v-.29Zm3.12,0v.29h-.43a1.46,1.46,0,0,0-1,.37,1.24,1.24,0,0,0-.43.89H253v-1.54Z"/>
          <path class="cls-1" d="M259.07,438.05v2h-3v-.29h.44a2.18,2.18,0,0,0,1.33-.43,1.78,1.78,0,0,0,.66-1.23Zm1.66-16H261l.59,1.72L259.78,440h-1.61Zm-.79,16.4a1.33,1.33,0,0,0,.21.83,1,1,0,0,0,.87.42h.41V440h-1.66v-1.52Zm1.08-16.4,8,15.27-.67,3.06-7.82-15.08Zm15.15,0,.26,1.9L269.6,437.4c-.29.67-.51,1.22-.67,1.68a10,10,0,0,0-.35,1.3h-.29l-.41-1.83Zm.26,0L279.06,440h-2.22l-1.9-14.68,1.23-3.24Zm.2,16.4h.21V440h-1.69v-.27h.43a1,1,0,0,0,.89-.43,1.3,1.3,0,0,0,.16-.78Zm1.55-.44h.58a1.8,1.8,0,0,0,.7,1.23,2,2,0,0,0,1.32.43h.43v.3h-3Z"/>
          <path class="cls-1" d="M296,419.14c.33,0,.67,0,1,.06a6.72,6.72,0,0,1,1,.16l.94.21c.22.06.44.13.65.21V423h-.26a2.73,2.73,0,0,0-1-2.2A3.61,3.61,0,0,0,296,420a3.57,3.57,0,0,0-2.59,1,3.28,3.28,0,0,0-1,2.35,4.35,4.35,0,0,0,.25,1.3,3.36,3.36,0,0,0,.92,1.39l5.75,5.31a4.23,4.23,0,0,1,1.17,1.75,6.23,6.23,0,0,1,.29,1.81,5.37,5.37,0,0,1-1.48,3.94,5.23,5.23,0,0,1-4,1.51,9.19,9.19,0,0,1-1.65-.14,7.78,7.78,0,0,1-1.83-.51,4.47,4.47,0,0,1-1.48-1,6.1,6.1,0,0,1-.06-1.21,10.39,10.39,0,0,1,.11-1.47,10,10,0,0,1,.32-1.42H291a4.82,4.82,0,0,0,.37,2.6,3.59,3.59,0,0,0,1.54,1.68,4.07,4.07,0,0,0,2.29.51,4.28,4.28,0,0,0,2.75-1.12,3.55,3.55,0,0,0,1.16-2.79,3.85,3.85,0,0,0-.29-1.53,3.3,3.3,0,0,0-.85-1.18l-5.6-5.2a4.46,4.46,0,0,1-1.23-1.79,5.41,5.41,0,0,1-.35-1.83,5.27,5.27,0,0,1,.58-2.36,4.76,4.76,0,0,1,1.74-1.85A5.27,5.27,0,0,1,296,419.14Zm3.64.29v.62h-2.21v-.62Z"/>
          <path class="cls-1" d="M313.86,422.14a11.16,11.16,0,0,1,3.84.66,9.43,9.43,0,0,1,3.15,1.88,8.9,8.9,0,0,1,2.12,2.9,9.51,9.51,0,0,1,0,7.44,8.74,8.74,0,0,1-2.12,2.91,9.73,9.73,0,0,1-3.15,1.89,11.69,11.69,0,0,1-7.66,0,9.93,9.93,0,0,1-3.13-1.89,8.74,8.74,0,0,1-2.12-2.91,9.51,9.51,0,0,1,0-7.44,8.9,8.9,0,0,1,2.12-2.9A9.51,9.51,0,0,1,310,422.8,11,11,0,0,1,313.86,422.14Zm0,17.46a7.49,7.49,0,0,0,6.69-4,9.68,9.68,0,0,0,0-8.65,7.52,7.52,0,0,0-2.78-2.9,7.75,7.75,0,0,0-7.79,0,7.57,7.57,0,0,0-2.77,2.9,9.68,9.68,0,0,0,0,8.65,7.62,7.62,0,0,0,2.77,2.92,7.44,7.44,0,0,0,3.88,1Z"/>
          <path class="cls-1" d="M328.48,424.38h-.06a1.58,1.58,0,0,0-.52-1.14,1.9,1.9,0,0,0-1.23-.45h-.3v-.29h2.16Zm0,13.76.38,1.87h-2.49v-.3h.41a1.62,1.62,0,0,0,1.69-1.56h0Zm1.81-15.64V440h-1.87V422.5Zm-.09,1.87V422.5h2.17v.29H332a1.73,1.73,0,0,0-1.21.45,1.47,1.47,0,0,0-.51,1.14Zm7.94,14.77-.06.91h-7.85v-.91Zm1.63-3.26-1.6,4.17h-4.44l1-.91a5.37,5.37,0,0,0,2.34-.42,3.75,3.75,0,0,0,1.45-1.17,8.11,8.11,0,0,0,1-1.68Z"/>
          <path class="cls-1" d="M342.66,422.5v1.55h-.06a1.27,1.27,0,0,0-.42-.89,1.41,1.41,0,0,0-1-.37h-.43v-.29Zm1.81,0v11a6.44,6.44,0,0,0,1.45,4.46,4.93,4.93,0,0,0,3.95,1.64,6,6,0,0,0,4.36-1.55,5.57,5.57,0,0,0,1.59-4.23V422.5h1.34v11.35a6.15,6.15,0,0,1-1.94,4.8,7.54,7.54,0,0,1-5.32,1.76,7.72,7.72,0,0,1-5.33-1.75,6,6,0,0,1-2-4.78V422.5Zm1.84,0v.29h-.44a1.46,1.46,0,0,0-1,.37,1.15,1.15,0,0,0-.42.89h-.08v-1.54Zm9.57,0v1.55h-.06a1.11,1.11,0,0,0-.41-.89,1.46,1.46,0,0,0-1-.37H354v-.29Zm3.12,0v.29h-.44a1.41,1.41,0,0,0-1,.37,1.29,1.29,0,0,0-.44.89h-.05v-1.54Z"/>
          <path class="cls-1" d="M360.46,422c.18.06.44.13.8.21a9.83,9.83,0,0,0,1.21.19,8.87,8.87,0,0,0,1.26.07l-3.27.29Zm16,.47v.88h-16v-.88Zm-14.24.82v.06a1.51,1.51,0,0,0-1.06.45,1.44,1.44,0,0,0-.4,1v.47h-.32v-2Zm5.34,14.85V440h-2.13v-.3h.35a1.65,1.65,0,0,0,1.2-.45,1.55,1.55,0,0,0,.52-1.11Zm1.86-15.54V440h-1.9V422.6Zm-.05,15.54h.09a1.52,1.52,0,0,0,.52,1.11,1.62,1.62,0,0,0,1.2.46h.32v.3h-2.13ZM376.52,422v.76l-3.27-.29a8.59,8.59,0,0,0,1.24-.07,5,5,0,0,0,1.21-.19l.78-.21Zm0,1.29v2h-.32v-.47a1.44,1.44,0,0,0-.4-1,1.51,1.51,0,0,0-1.06-.45v-.06Z"/>
          <path class="cls-1" d="M381,424.38h-.08a1.51,1.51,0,0,0-.6-1.14,2.25,2.25,0,0,0-1.39-.45h-.41v-.29H381Zm0,13.76V440h-2.48v-.3h.41a2.11,2.11,0,0,0,1.39-.45,1.55,1.55,0,0,0,.6-1.11Zm1.75-15.64V440h-1.83V422.5Zm-.08,1.87V422.5h2.48v.29h-.38a2.25,2.25,0,0,0-1.39.45,1.51,1.51,0,0,0-.6,1.14Zm0,13.77h.08a1.51,1.51,0,0,0,.6,1.11,2.07,2.07,0,0,0,1.39.46h.38v.3h-2.48Z"/>
          <path class="cls-1" d="M397.55,422.14a11.1,11.1,0,0,1,3.83.66,9.43,9.43,0,0,1,3.15,1.88,8.9,8.9,0,0,1,2.12,2.9,9.51,9.51,0,0,1,0,7.44,8.74,8.74,0,0,1-2.12,2.91,9.73,9.73,0,0,1-3.15,1.89,11.69,11.69,0,0,1-7.66,0,9.93,9.93,0,0,1-3.13-1.89,8.74,8.74,0,0,1-2.12-2.91,9.51,9.51,0,0,1,0-7.44,8.9,8.9,0,0,1,2.12-2.9,9.51,9.51,0,0,1,3.13-1.88A11.1,11.1,0,0,1,397.55,422.14Zm0,17.46a7.26,7.26,0,0,0,6.68-3.93,9.68,9.68,0,0,0,0-8.65,7.71,7.71,0,0,0-2.77-2.9,8.1,8.1,0,0,0-7.79,0,7.66,7.66,0,0,0-2.78,2.9,9.68,9.68,0,0,0,0,8.65,7.09,7.09,0,0,0,6.66,3.87Z"/>
          <path class="cls-1" d="M411.9,438.2V440h-2.19v-.3h.5a1.6,1.6,0,0,0,1.14-.42,1.44,1.44,0,0,0,.46-1.08Zm-.06-16.14,1.26,1.64V440h-1.32v-14.3a29.56,29.56,0,0,0-.26-3.64Zm0,0L428,437.29l.29,3.12-16.15-15.27Zm1.29,16.14a1.38,1.38,0,0,0,.48,1.08,1.56,1.56,0,0,0,1.12.43h.5v.3H413V438.2ZM427,424.32a1.47,1.47,0,0,0-.5-1.08,1.62,1.62,0,0,0-1.14-.44h-.49v-.29h2.18v1.81Zm1.28-1.81v14.17q0,.9.06,1.8c.06.57.1,1.23.2,1.94h-.26L427,438.88V422.5Zm-.09,1.81v-1.81h2.16v.29h-.5a1.55,1.55,0,0,0-1.12.44,1.38,1.38,0,0,0-.48,1.08Z"/>
          <path class="cls-1" d="M438.25,422.14a11.32,11.32,0,0,1,1.43.06c.43.06.76.08,1.06.13a5.32,5.32,0,0,1,.79.18l.6.18v2.89h-.35a2.35,2.35,0,0,0-.82-1.88,4.66,4.66,0,0,0-5,.12,2.35,2.35,0,0,0-1,2,3.32,3.32,0,0,0,.1.77,2.84,2.84,0,0,0,.35.77,3.57,3.57,0,0,0,.69.76l5.89,4.55a3.38,3.38,0,0,1,1,1.42,5.32,5.32,0,0,1,.35,1.71,4.09,4.09,0,0,1-.68,2.36,4.9,4.9,0,0,1-1.88,1.71,5.4,5.4,0,0,1-2.61.62,11.07,11.07,0,0,1-1.82-.14,8.9,8.9,0,0,1-1.83-.45,4.49,4.49,0,0,1-1.4-.78,4.71,4.71,0,0,1-.08-1,8.51,8.51,0,0,1,.1-1.33,8.14,8.14,0,0,1,.28-1.26h.35a3.87,3.87,0,0,0,.38,2.25,3.23,3.23,0,0,0,1.45,1.36,4.72,4.72,0,0,0,2.25.46,4.57,4.57,0,0,0,2.84-.93,2.82,2.82,0,0,0,1-2.29,3.13,3.13,0,0,0-.25-1.27,3.07,3.07,0,0,0-.8-1.06l-5.83-4.5A3.37,3.37,0,0,1,433.7,428a4.89,4.89,0,0,1-.3-1.61,3.81,3.81,0,0,1,.65-2.16,4.56,4.56,0,0,1,1.73-1.53A5.27,5.27,0,0,1,438.25,422.14Zm3.85.26v.53H440v-.53Z"/>
        </g>
        <g>
          <path class="cls-1" d="M5.89,347.8H5.67a4.69,4.69,0,0,0-1.43-3.25A4.4,4.4,0,0,0,1,343.2H0v-.73H5.84Zm0,40.41v5.32H.05v-.73h1a4.46,4.46,0,0,0,3.19-1.38,4.75,4.75,0,0,0,1.43-3.24Zm4.48-45.74v51.06H5.67V342.47ZM40.86,367.2v2.22H9.68v-2.19ZM10.15,347.8v-5.33H16v.73H15a4.42,4.42,0,0,0-3.25,1.35,4.68,4.68,0,0,0-1.42,3.25Zm0,40.41h.22a4.67,4.67,0,0,0,1.46,3.21,4.42,4.42,0,0,0,3.25,1.35h1v.73H10.19ZM40.42,347.8H40.2a4.35,4.35,0,0,0-1.38-3.25,4.53,4.53,0,0,0-3.29-1.35h-.94v-.73h5.83Zm0,40.41v5.32H34.63v-.73h.94a4.53,4.53,0,0,0,3.29-1.38,4.41,4.41,0,0,0,1.38-3.24Zm4.52-45.74v51.06h-4.7V342.47Zm-.21,5.33v-5.33h5.83v.73h-1a4.39,4.39,0,0,0-3.19,1.35,4.69,4.69,0,0,0-1.43,3.25Zm0,40.41h.21a4.72,4.72,0,0,0,1.43,3.21,4.4,4.4,0,0,0,3.24,1.35h1v.73H44.77Z"/>
          <path class="cls-1" d="M81.75,348.74a27.45,27.45,0,0,1,9.62,1.68,23.83,23.83,0,0,1,7.88,4.7,21.72,21.72,0,0,1,5.29,7.26,23.83,23.83,0,0,1,0,18.6,21.82,21.82,0,0,1-5.29,7.26,23.83,23.83,0,0,1-7.88,4.7,28.85,28.85,0,0,1-19.15,0,24.1,24.1,0,0,1-7.84-4.7A21.9,21.9,0,0,1,59.09,381a23.83,23.83,0,0,1,0-18.6,21.67,21.67,0,0,1,5.28-7.29,23.93,23.93,0,0,1,7.84-4.7A27.23,27.23,0,0,1,81.75,348.74Zm0,43.63a18.63,18.63,0,0,0,16.7-9.93,24.12,24.12,0,0,0,0-21.62,18.88,18.88,0,0,0-6.93-7.26,19.32,19.32,0,0,0-19.47,0,18.88,18.88,0,0,0-6.93,7.26,24.12,24.12,0,0,0,0,21.62,18.78,18.78,0,0,0,6.93,7.3,18.51,18.51,0,0,0,9.7,2.68Z"/>
          <path class="cls-1" d="M117.42,388.64v4.89h-7.59v-.73h1.1a5.27,5.27,0,0,0,3.31-1.09,4.3,4.3,0,0,0,1.65-3.07Zm4.16-39.9h.73l1.45,4.31-4.52,40.48h-4Zm-2,41a3.55,3.55,0,0,0,.51,2.08,2.5,2.5,0,0,0,2.19,1.06h1v.65h-4.11v-3.79Zm2.7-41,19.84,38.15-1.68,7.66-19.55-37.78Zm37.85,0,.66,4.75-17.07,33.62c-.73,1.66-1.29,3.05-1.68,4.2a22.43,22.43,0,0,0-.87,3.24h-.73l-1-4.59Zm.66,0,6.58,44.79h-5.55l-4.74-36.69,3.06-8.1Zm.51,41h.51v3.79h-4.23v-.65h1.09a2.43,2.43,0,0,0,2.23-1.1,3.27,3.27,0,0,0,.47-2Zm3.87-1.1h1.46a4.45,4.45,0,0,0,1.75,3.07,5.33,5.33,0,0,0,3.28,1.09h1.09v.73h-7.58Z"/>
          <path class="cls-1" d="M182.7,354.36h-.14a3.88,3.88,0,0,0-1.24-2.77,4.16,4.16,0,0,0-3-1.1h-1v-.72h6.34Zm0,34.5,1,4.67h-6.34v-.73h1a4.11,4.11,0,0,0,4.23-3.94Zm4.53-39.09v43.76h-4.67V349.77Zm19.55,0V352h-19.7v-2.26Zm-3.36,20.78v2.19H187.08v-2.19Zm3.43,20.72-.15,2.26H187.08v-2.26Zm4.08-8.17-4,10.43h-11.1l2.48-2.26a13.79,13.79,0,0,0,5.88-1.06,9.64,9.64,0,0,0,3.61-2.91,21.31,21.31,0,0,0,2.4-4.2Zm-4.15-34.5v1.89l-8.32-.72a31,31,0,0,0,4.81-.41,20,20,0,0,0,3.51-.76Zm-3.36,17.94v4.16h-3.79v-.15a2.77,2.77,0,0,0,2.26-.91,3.41,3.41,0,0,0,.73-2.15v-.95Zm0,6.06v4.15h-.8v-.94a3.44,3.44,0,0,0-.73-2.16,2.74,2.74,0,0,0-2.26-.91v-.14Zm3.36-20.79v5H206v-1.09a3.87,3.87,0,0,0-1-2.63,3.39,3.39,0,0,0-2.66-1.09v-.22Z"/>
          <path class="cls-1" d="M274.37,369.53a25.58,25.58,0,0,1,.44,7.66A21,21,0,0,1,273,384a17.25,17.25,0,0,1-9.66,9,21.37,21.37,0,0,1-7.51,1.27,38.24,38.24,0,0,1-7.77-.73,23.42,23.42,0,0,1-6.24-2.15,16.23,16.23,0,0,1-4.56-3.5,14.15,14.15,0,0,1-2.81-4.74,17.73,17.73,0,0,1-.94-6,15,15,0,0,1,.47-3.9,13.31,13.31,0,0,1,1.35-3.32,12.89,12.89,0,0,1,2.08-2.73,19.52,19.52,0,0,1,2.66-2.23,18.22,18.22,0,0,1,3.14-1.75l1,1.61a12.9,12.9,0,0,0-2.48,2.58,15.47,15.47,0,0,0-1.68,3,15,15,0,0,0-1,3.28,21.07,21.07,0,0,0-.29,3.46,15.64,15.64,0,0,0,1.13,6,13.06,13.06,0,0,0,3.28,4.7,15.13,15.13,0,0,0,5.33,3.07,22.36,22.36,0,0,0,7.26,1.09,14,14,0,0,0,6.6-1.49,14.69,14.69,0,0,0,4.81-3.94,16.85,16.85,0,0,0,2.88-5.44,17.21,17.21,0,0,0,.81-6,14.09,14.09,0,0,0-1.46-5.66,7.39,7.39,0,0,0-1.86-2.4,4.25,4.25,0,0,0-2.88-1h-1.1v-.7H278.1v.73H277a2.62,2.62,0,0,0-2.29.95A2.89,2.89,0,0,0,274.37,369.53Zm-20.11-28.11a17.85,17.85,0,0,1,4.82.66,18.58,18.58,0,0,1,4.3,1.78,11.67,11.67,0,0,1,3.28,2.74l-1.29,8.27h-.73a13,13,0,0,0-1.31-6,9.52,9.52,0,0,0-3.61-3.86,10.57,10.57,0,0,0-5.44-1.35,9,9,0,0,0-6.89,2.92,10.31,10.31,0,0,0-2.74,7.36,13.87,13.87,0,0,0,3,8.54,68.46,68.46,0,0,0,8.61,9c1.07.92,2.25,2,3.54,3.17s2.77,2.53,4.45,4,3.56,3.06,5.65,4.81c1.56,1.26,3.15,2.6,4.78,4a35.68,35.68,0,0,0,5,3.64,12.31,12.31,0,0,0,5.36,1.75v.73c-.92,0-2.25,0-4-.07a22.29,22.29,0,0,1-5.73-1A18.63,18.63,0,0,1,269,389q-2.78-2.26-5.07-4.2l-4.23-3.57c-1.29-1.1-2.49-2.14-3.61-3.14l-3.28-3q-4.24-3.94-7.19-7.12a25.21,25.21,0,0,1-4.52-6.49,17.41,17.41,0,0,1-1.57-7.55,11.92,11.92,0,0,1,1-5,11.27,11.27,0,0,1,3-3.94,14,14,0,0,1,4.63-2.62,18.14,18.14,0,0,1,6.06-1Z"/>
          <path class="cls-1" d="M348.43,373.11v12a24.4,24.4,0,0,1-11.49,8,29.31,29.31,0,0,1-9.66,1.42,28,28,0,0,1-13.64-3.39,23.62,23.62,0,0,1-9.23-9.26,30.8,30.8,0,0,1,0-27.83,23.39,23.39,0,0,1,9.23-9.3,27.28,27.28,0,0,1,13.64-3.33,36.47,36.47,0,0,1,7.22.66,28.8,28.8,0,0,1,5.8,1.78,32.16,32.16,0,0,1,4.7,2.52l1.46,10.29h-.65a17.32,17.32,0,0,0-3.61-7.12,16.41,16.41,0,0,0-6.31-4.41,22.81,22.81,0,0,0-8.61-1.53,19.31,19.31,0,0,0-10.8,3.06,20.55,20.55,0,0,0-7.29,8.54,32.27,32.27,0,0,0,0,25.53,20.28,20.28,0,0,0,7.29,8.49,20.05,20.05,0,0,0,10.8,3.11,24.46,24.46,0,0,0,11.74-3,21.94,21.94,0,0,0,4.67-3.39l.07-12.91c0-2.19-1.24-3.29-3.72-3.28h-1.16V369h14.29v.73h-1.09C349.55,369.83,348.37,371,348.43,373.11Z"/>
          <path class="cls-1" d="M363.9,388.21c-.54,1.46-.47,2.59.22,3.39a3,3,0,0,0,2.33,1.2H367v.73H353.1v-.73h.58a5.64,5.64,0,0,0,3.14-1.06,8.28,8.28,0,0,0,2.77-3.53ZM378,348.74l.51,5L361.8,393.27h-4.59l17.28-37q.81-1.75,1.35-3c.36-.83.69-1.67,1-2.52a8.77,8.77,0,0,0,.51-2Zm8.6,27.8v2.18H367.25v-2.18Zm-8.6-27.8,20,44.35h-5.77L376.7,355.24Zm12.32,39.47h5.55a7.85,7.85,0,0,0,2.7,3.53,5.54,5.54,0,0,0,3.06,1.06h.58v.73h-15v-.73h.58a2.93,2.93,0,0,0,2.26-1.2c.68-.8.76-1.93.22-3.39Z"/>
          <path class="cls-1" d="M411.17,354.36H411a3.88,3.88,0,0,0-1.24-2.77,4.1,4.1,0,0,0-2.92-1.1h-1v-.72H412Zm0,34.5.87,4.67h-6.2v-.73h1a4,4,0,0,0,2.92-1.16,4.07,4.07,0,0,0,1.24-2.78Zm4.44-39.09v43.76H411V349.77Zm-.24,39.09h.21a4.13,4.13,0,0,0,1.24,2.78,4,4,0,0,0,2.92,1.16h1l.07.73h-6.27Zm8.75-39.09a21.71,21.71,0,0,1,6.16.8A13.31,13.31,0,0,1,435,352.9a10.15,10.15,0,0,1,3,3.72,11.94,11.94,0,0,1-4.49,15,13.22,13.22,0,0,1-5.87,2,9.17,9.17,0,0,1,2.88,2.26,29.8,29.8,0,0,1,2.81,3.43q1.89,2.55,3.39,4.41t2.95,3.54c1,1.12,2,2.09,2.81,2.92a10.44,10.44,0,0,0,2.77,1.93,8.44,8.44,0,0,0,3.47.69v.73h-2.3a18.08,18.08,0,0,1-6.6-1,13,13,0,0,1-4.2-2.52,31.4,31.4,0,0,1-2.77-2.88c-.19-.24-.65-.86-1.35-1.86s-1.47-2.08-2.3-3.24l-2.26-3.18c-.68-1-1.09-1.52-1.24-1.71a19.54,19.54,0,0,0-3.35-3.39,6.42,6.42,0,0,0-4-1.5v-.73c1.56.05,2.95.05,4.16,0s2.72-.15,4.09-.33a8.13,8.13,0,0,0,3.83-1.56,8.66,8.66,0,0,0,2.8-4.38,8.88,8.88,0,0,0,.44-1.9,12.21,12.21,0,0,0,.08-2.26,10.15,10.15,0,0,0-.77-3.65,8,8,0,0,0-2-2.77,9,9,0,0,0-3-1.82,12.05,12.05,0,0,0-3.94-.73c-2.28-.1-4.28-.13-6-.07a15.51,15.51,0,0,1-2.55,0,3.38,3.38,0,0,0-.18-.62c-.13-.37-.31-.92-.55-1.64Z"/>
          <path class="cls-1" d="M456.83,354.51h-.15a4.09,4.09,0,0,0-1.31-2.89,4.17,4.17,0,0,0-3-1.13h-.87v-.72h5.25Zm0,34.28v4.74h-5.25v-.73h.94a3.91,3.91,0,0,0,2.92-1.2,4.2,4.2,0,0,0,1.24-2.81Zm4.59-39v43.76h-4.74V349.77Zm14.52,0a27.64,27.64,0,0,1,12.43,2.63,18.87,18.87,0,0,1,8.1,7.55,25.4,25.4,0,0,1,0,23.38,19.22,19.22,0,0,1-8.1,7.55,27.28,27.28,0,0,1-12.47,2.66H460.37l-.14-2.19h15.68q8.46,0,13.31-5.28t4.85-14.41q0-9.12-4.85-14.41T475.91,352H459.53v-2.18Z"/>
          <path class="cls-1" d="M511.37,354.36h-.15a3.88,3.88,0,0,0-1.24-2.77,4.16,4.16,0,0,0-3-1.1h-1v-.72h6.35Zm0,34.5,1,4.67H506v-.73h1a4.11,4.11,0,0,0,4.23-3.94Zm4.52-39.09v43.76h-4.72V349.77Zm19.55,0V352h-19.7v-2.26Zm-3.36,20.78v2.19H515.69v-2.19Zm3.43,20.72-.14,2.26H515.69v-2.26Zm4.09-8.17-4,10.43H524.45l2.48-2.26a13.75,13.75,0,0,0,5.87-1.06,9.64,9.64,0,0,0,3.61-2.91,21.36,21.36,0,0,0,2.41-4.2Zm-4.23-34.5v1.89l-8.32-.72a31.15,31.15,0,0,0,4.82-.41,19.85,19.85,0,0,0,3.5-.76ZM532,366.54v4.16h-3.79v-.15a2.77,2.77,0,0,0,2.26-.91,3.3,3.3,0,0,0,.73-2.15v-.95Zm0,6.06v4.15h-.8v-.94a3.31,3.31,0,0,0-.73-2.16,2.74,2.74,0,0,0-2.26-.91v-.14Zm3.36-20.79v5h-.8v-1.09a3.74,3.74,0,0,0-1-2.63A3.39,3.39,0,0,0,530.9,352v-.22Z"/>
          <path class="cls-1" d="M549.76,389v4.52h-5.47v-.73h1.24a4,4,0,0,0,2.84-1.09,3.57,3.57,0,0,0,1.17-2.7Zm-.15-40.34,3.14,4.09.07,40.77h-3.28V357.79a77.22,77.22,0,0,0-.66-9.12Zm0,0L590,386.75l.73,7.8-40.36-38.29ZM552.82,389a3.54,3.54,0,0,0,1.21,2.7,4.06,4.06,0,0,0,2.81,1.09h1.24v.73H552.6V389Zm34.73-34.72a3.82,3.82,0,0,0-1.25-2.7,4,4,0,0,0-2.84-1.1h-1.24v-.72h5.47v4.52Zm3.2-4.52v35.45a41.91,41.91,0,0,0,.15,4.48c.15,1.43.27,3.05.51,4.85h-.66l-3.2-3.86V349.77Zm-.21,4.52v-4.52H596v.72h-1.24a4,4,0,0,0-2.81,1.1,3.52,3.52,0,0,0-1.21,2.7Z"/>
        </g>
        <g>
          <polygon class="cls-1" points="454.5 291.28 454.5 120.11 337.21 237.4 337.21 291.28 272.9 291.28 272.9 174.59 155.62 57.31 155.62 291.28 73.15 291.28 73.15 313.98 178.32 313.98 178.32 112.12 194.21 128 194.21 316.25 216.92 316.25 216.92 150.71 250.21 184 250.21 313.98 359.92 313.98 359.92 246.8 394.91 211.8 394.91 316.25 417.61 316.25 417.61 189.1 431.8 174.91 431.8 313.98 521.08 313.98 521.08 291.28 454.5 291.28"/>
          <polygon class="cls-1" points="304.5 32.11 407.69 135.3 423.74 119.25 304.5 0 216.45 88.05 232.5 104.09 304.5 32.11"/>
          <rect class="cls-1" x="278.11" y="88.32" width="20.08" height="20.07"/>
          <rect class="cls-1" x="311.46" y="88.32" width="20.07" height="20.07"/>
          <rect class="cls-1" x="278.11" y="119.91" width="20.08" height="20.07"/>
          <rect class="cls-1" x="311.46" y="119.91" width="20.07" height="20.07"/>
        </g>
      </g>
    </g>
  </g>
</svg>
