<?xml version="1.0" encoding="utf-8"?>
<!-- Generator: Adobe Illustrator 25.1.0, SVG Export Plug-In . SVG Version: 6.00 Build 0)  -->
<svg version="1.1"
	 id="svg11" sodipodi:docname="aacecc99b2737620098d9ef2093350e7.svg" xmlns:inkscape="http://www.inkscape.org/namespaces/inkscape" xmlns:sodipodi="http://sodipodi.sourceforge.net/DTD/sodipodi-0.dtd" xmlns:svg="http://www.w3.org/2000/svg"
	 xmlns="http://www.w3.org/2000/svg" xmlns:xlink="http://www.w3.org/1999/xlink" x="0px" y="0px" viewBox="0 0 97.2 61"
	 style="enable-background:new 0 0 97.2 61;" xml:space="preserve">
<style type="text/css">
	.st0{fill-rule:evenodd;clip-rule:evenodd;fill:#BABABA;}
	.st1{fill-rule:evenodd;clip-rule:evenodd;fill:#ADADAD;}
	.st2{fill-rule:evenodd;clip-rule:evenodd;fill:#E6E6E6;}
</style>
<sodipodi:namedview  bordercolor="#666666" borderopacity="1.0" id="namedview13" inkscape:pagecheckerboard="0" inkscape:pageopacity="0.0" inkscape:pageshadow="2" pagecolor="#ffffff">
	</sodipodi:namedview>
<g id="Symbols" transform="translate(-6.728972e-5,-2.0186916e-4)">
	<g id="General_x2F_Logo_x2F_Color">
		<g id="Page-1">
			<path id="Fill-1" class="st0" d="M62.9,30.7H52.8c-2.2-7.4-4.3-14.8-6.6-22.3c-2.2,7.4-4.3,14.8-6.5,22.3H29.6L40,0h12.5
				L62.9,30.7z"/>
			<polygon id="Fill-3" class="st1" points="16.3,22.1 25.2,22.1 31.4,4.1 37.8,4.1 29.2,29.2 13.8,29.2 			"/>
			<polygon id="Fill-5" class="st1" points="76.3,22.1 67.3,22.1 61.1,4.1 54.7,4.1 63.3,29.2 78.7,29.2 			"/>
			<path id="Fill-7" class="st2" d="M34.6,60.5H22.5V41h6v14.6h6.1V60.5z M21,60.5h-6.4c-1.4-4.7-2.8-9.4-4.2-14.1
				c-1.4,4.7-2.7,9.4-4.1,14.1H0L6.5,41h7.9L21,60.5z M46.9,45.9h-4.2v14.5h-6V45.9h-4.2v-5h14.4V45.9z M61.2,60.5H48.9V41h12.3v4.9
				h-6.3v2.5h5.8V53h-5.8v2.6h6.3V60.5z M77.7,54.1c0,2.2-0.7,3.9-2.1,5.1c-1.4,1.2-3.3,1.8-5.7,1.8c-2.6,0-5-0.7-7.3-2.2l2.1-4.7
				c1.7,1.3,3.2,2,4.6,2c0.7,0,1.3-0.1,1.7-0.4c0.3-0.2,0.5-0.5,0.5-0.9c0-0.5-0.3-1-0.8-1.3c-0.5-0.4-1.6-0.8-3.1-1.3
				c-1.4-0.5-2.4-1.1-3.1-1.8c-0.8-0.9-1.1-2.1-1.1-3.5c0-2,0.7-3.6,2.1-4.8c1.3-1.1,3.1-1.7,5.3-1.7s4.2,0.6,6.3,1.7l-1.9,4.6
				c-1.2-1-2.5-1.5-3.8-1.5c-0.5,0-0.9,0.1-1.3,0.3s-0.5,0.5-0.5,0.8c0,0.4,0.2,0.7,0.6,0.9c0.4,0.3,1.5,0.7,3,1.4
				c1.6,0.6,2.7,1.4,3.4,2.2C77.4,51.8,77.7,52.9,77.7,54.1z M92.5,45.9h-4.2v14.5h-6V45.9h-4.2v-5h14.4L92.5,45.9z"/>
			<path id="Fill-9" class="st2" d="M97.2,41c0,0.4-0.1,0.7-0.4,1c-0.3,0.3-0.6,0.4-1,0.4c-0.4,0-0.7-0.1-1-0.4
				c-0.3-0.3-0.4-0.6-0.4-1c0-0.4,0.1-0.8,0.4-1.1c0.3-0.3,0.6-0.4,1-0.4c0.4,0,0.8,0.1,1,0.4C97.1,40.3,97.2,40.6,97.2,41 M96.9,41
				c0-0.3-0.1-0.6-0.3-0.8c-0.2-0.2-0.5-0.3-0.8-0.3c-0.3,0-0.6,0.1-0.8,0.3c-0.2,0.2-0.3,0.5-0.3,0.8c0,0.3,0.1,0.6,0.3,0.8
				c0.2,0.2,0.5,0.3,0.8,0.3c0.3,0,0.6-0.1,0.8-0.3C96.8,41.6,96.9,41.3,96.9,41 M96.5,40.7c0,0.2-0.1,0.4-0.4,0.4l0.4,0.7H96
				l-0.3-0.6h-0.1v0.6h-0.4v-1.6h0.7C96.3,40.2,96.5,40.4,96.5,40.7 M96.1,40.7c0-0.1-0.1-0.2-0.3-0.2h-0.2v0.4h0.3
				C96,40.9,96.1,40.8,96.1,40.7"/>
			<path id="Fill-13" class="st1" d="M51.3,29.2H41.2c1.5-5.2,3-10.5,4.6-15.7l0.4-1.4l0.4,1.4C48.2,18.7,49.8,24,51.3,29.2"/>
		</g>
	</g>
</g>
</svg>
