<svg xmlns="http://www.w3.org/2000/svg" xmlns:xlink="http://www.w3.org/1999/xlink" width="98px" height="62px" viewBox="0 0 98 62" version="1.1">
    <!-- Generator: Sketch 49.3 (51167) - http://www.bohemiancoding.com/sketch -->
    <g id="Symbols" stroke="none" stroke-width="1" fill="none" fill-rule="evenodd">
        <g id="General/Logo/Color">
            <g id="Page-1">
                <path d="M62.8613383,30.7392673 L52.7824598,30.7392673 C50.6249271,23.3102579 48.4337495,15.8933607 46.2174505,8.48162243 C44.0267215,15.8940336 41.8842168,23.3190056 39.7204037,30.7392673 L29.6484785,30.7392673 L39.9853009,0.000201869159 L52.5242916,0.000201869159 L62.8613383,30.7392673 Z" id="Fill-1" fill="#005C83"/>
                <polygon id="Fill-3" fill="#B5272D" points="29.2092561 29.1888897 13.8261533 29.1888897 16.2568822 22.0604411 25.2458916 22.0604411 31.3714991 4.09677757 37.7655925 4.09677757"/>
                <polygon id="Fill-5" fill="#B5272D" points="63.3005159 29.1888897 78.6836187 29.1888897 76.2528897 22.0604411 67.2638804 22.0604411 61.1382729 4.09677757 54.7441794 4.09677757"/>
                <path d="M34.6419364,60.4741009 L22.5125159,60.4741009 L22.5125159,40.9852037 L28.5320299,40.9852037 L28.5320299,55.6137645 L34.6419364,55.6137645 L34.6419364,60.4741009 Z M21.0135252,60.4743252 L14.6369271,60.4743252 C13.2716187,55.7741383 11.8852262,51.0813533 10.4831327,46.3923813 C9.09696449,51.0818019 7.74130093,55.7795215 6.37240374,60.4743252 L6.72897196e-05,60.4743252 L6.53995514,41.0260262 L14.4734131,41.0260262 L21.0135252,60.4743252 Z M46.939357,45.9446804 L42.7727776,45.9446804 L42.7727776,60.4741009 L36.7532636,60.4741009 L36.7532636,45.9446804 L32.5608897,45.9446804 L32.5608897,40.9852037 L46.939357,40.9852037 L46.939357,45.9446804 Z M61.1845907,60.4741009 L48.8784224,60.4741009 L48.8784224,40.9852037 L61.1845907,40.9852037 L61.1845907,45.8455402 L54.8979364,45.8455402 L54.8979364,48.3792224 L60.7191701,48.3792224 L60.7191701,52.972643 L54.8979364,52.972643 L54.8979364,55.6137645 L61.1845907,55.6137645 L61.1845907,60.4741009 Z M77.7046654,54.1358579 C77.7046654,56.3247925 76.9936374,58.0352972 75.5718056,59.2635589 C74.1842916,60.4483065 72.2925533,61.0429234 69.9013009,61.0429234 C67.2942729,61.0429234 64.8514318,60.3191103 62.580628,58.8712598 L64.6746841,54.2134654 C66.350871,55.5276336 67.8933757,56.1825869 69.2981607,56.1825869 C70.0047028,56.1825869 70.5562542,56.0489047 70.952815,55.7777271 C71.2973383,55.536157 71.4696,55.2302131 71.4696,54.8684187 C71.4696,54.355671 71.1981981,53.9162692 70.6553944,53.5497645 C70.1125907,53.1837084 69.0826093,52.7440822 67.570385,52.2313346 C66.1871327,51.7701757 65.1701607,51.1540262 64.5154318,50.3871477 C63.7568523,49.5038579 63.3775626,48.336157 63.3775626,46.8797832 C63.3775626,44.884643 64.0670579,43.2990729 65.4458243,42.1183626 C66.7860112,40.9852037 68.5353196,40.4163813 70.6984598,40.4163813 C72.8616,40.4163813 74.9469084,40.9852037 76.9590953,42.1183626 L75.0936,46.7503626 C73.856815,45.7506617 72.5987215,45.2511477 71.3190953,45.2511477 C70.8061234,45.2511477 70.3839925,45.3545495 70.0565159,45.5613533 C69.7290393,45.768157 69.5650766,46.0352972 69.5650766,46.3627738 C69.5650766,46.7330916 69.767843,47.0480075 70.1727028,47.3104374 C70.6165907,47.5950729 71.6290766,48.0474841 73.2061234,48.6636336 C74.7831701,49.2840449 75.9293383,50.029615 76.6403664,50.8998953 C77.3513944,51.7701757 77.7046654,52.8519701 77.7046654,54.1358579 Z M92.5097495,45.9446804 L88.3431701,45.9446804 L88.3431701,60.4741009 L82.3236561,60.4741009 L82.3236561,45.9446804 L78.1312822,45.9446804 L78.1312822,40.9852037 L92.5097495,40.9852037 L92.5097495,45.9446804 Z" id="Fill-7" fill="#1A1919"/>
                <path d="M97.2443888,41.0174804 C97.2443888,41.4194243 97.1021832,41.7608075 96.8188935,42.0418542 C96.5246131,42.3343402 96.1760523,42.4801346 95.7747813,42.4801346 C95.3739589,42.4801346 95.0301084,42.3370318 94.7427813,42.0497047 C94.4552299,41.7621533 94.3121271,41.4180785 94.3121271,41.0174804 C94.3121271,40.6061159 94.4579215,40.2557607 94.7501832,39.9661907 C95.0287626,39.6898542 95.3703701,39.5514617 95.7747813,39.5514617 C96.1848,39.5514617 96.532015,39.6943402 96.8168748,39.9789757 C97.1017346,40.2640598 97.2443888,40.609929 97.2443888,41.0174804 M96.9227439,41.0136673 C96.9227439,40.6989757 96.8117159,40.4304897 96.590557,40.2091065 C96.3642393,39.9827888 96.0919402,39.8695178 95.7747813,39.8695178 C95.458071,39.8695178 95.1913794,39.9789757 94.9751551,40.1978916 C94.7488374,40.4264523 94.6353421,40.6989757 94.6353421,41.0136673 C94.6353421,41.3240972 94.7463701,41.5923589 94.9688748,41.818228 C95.1909308,42.0438729 95.4594168,42.1566953 95.7747813,42.1566953 C96.0876785,42.1566953 96.359529,42.0418542 96.590557,41.8135178 C96.8117159,41.5946019 96.9227439,41.3279103 96.9227439,41.0136673 M96.5053234,40.6689196 C96.5053234,40.9113869 96.3830804,41.0549383 96.1381458,41.1002467 L96.4920897,41.7684336 L96.0410243,41.7684336 L95.7274542,41.140172 L95.5848,41.140172 L95.5848,41.7684336 L95.1682766,41.7684336 L95.1682766,40.2126953 L95.8640523,40.2126953 C96.2913421,40.2126953 96.5053234,40.3647701 96.5053234,40.6689196 M96.0852112,40.6857421 C96.0852112,40.5632748 95.9968374,40.5013682 95.820314,40.5013682 L95.5848,40.5013682 L95.5848,40.8826766 L95.8382579,40.8826766 C96.0028935,40.8826766 96.0852112,40.8174056 96.0852112,40.6857421" id="Fill-9" fill="#1A1919"/>
                <path d="M51.2891439,29.198086 L41.2035364,29.198086 C42.7233869,23.970572 44.2450318,18.7435065 45.7882093,13.5227215 L46.211686,12.0894505 L46.6398729,13.5213757 C48.2012187,18.7435065 49.7520224,23.9687776 51.2891439,29.198086" id="Fill-13" fill="#B5272D"/>
            </g>
        </g>
    </g>
</svg>