<?xml version="1.0" encoding="utf-8"?>
<!-- Generator: Adobe Illustrator 25.1.0, SVG Export Plug-In . SVG Version: 6.00 Build 0)  -->
<svg version="1.1" id="Layer_1" xmlns="http://www.w3.org/2000/svg" xmlns:xlink="http://www.w3.org/1999/xlink" x="0px" y="0px"
	 viewBox="0 0 64.6 8.3" style="enable-background:new 0 0 64.6 8.3;" xml:space="preserve">
<style type="text/css">
	.st0{fill:#FFFFFF;}
	.st1{fill:#B5B5B5;}
</style>
<path class="st0" d="M62.8,0.2v1.3h-0.2V0.2h-0.4V0h1v0.2H62.8L62.8,0.2z"/>
<path class="st0" d="M64.4,1.4v-1l0,0l-0.1,0.3l-0.2,0.5h-0.2l-0.2-0.6l-0.1-0.3l0,0v1h-0.2V0h0.2l0.3,0.7L64,1l0,0l0.1-0.3L64.4,0
	h0.2v1.4H64.4L64.4,1.4z"/>
<polygon class="st1" points="16.9,1.3 19.3,4 15.1,6.7 "/>
<path class="st0" d="M5,0.3H4.6c-1,0-1.8,0.5-2.3,1.4C2.1,1.8,2.1,1.9,2,2L0,8.3h1.3c1.4-0.1,2.5-1.1,2.9-2.4L4.5,5H11L9.9,8.3h3.5
	l2.6-8L5,0.3L5,0.3z M11.5,3.3H5.1l0.4-1.2h6.4L11.5,3.3z"/>
<path class="st0" d="M31.4,2L30,6c-0.4,0.8,0,1.7,0.8,2.1c0.2,0.1,0.4,0.1,0.6,0.1H41c1.3-0.2,2.3-1,2.8-2.2V5.9L45,2.6
	c0.4-1.3-0.3-2.3-1.5-2.3H34C32.9,0.3,31.8,0.9,31.4,2z M40.3,6.5h-7L34.7,2h7L40.3,6.5z"/>
<path class="st0" d="M44.6,8.3H46c1.4-0.1,2.5-1.1,2.9-2.4L50.1,2H57l-0.5,1.3h-5.1l3.4,4.9h4.1L56.7,5h0.7h0.7
	c0.3,0,0.6-0.1,0.8-0.3c0.4-0.2,0.8-0.5,1-0.9s0.4-0.8,0.5-1.3l0.1-0.3c0-0.1,0.1-0.2,0.1-0.4c0.1-0.8-0.4-1.5-1.2-1.7
	c-0.1,0-0.2,0-0.3,0H47.2L44.6,8.3z"/>
<path class="st0" d="M24.6,8.3h4.2l-3.5-4l6.2-4h-2.7c-1.2,0-1.5,0.1-3.5,1.3l-1.5,1l-0.9-1c-1-1.2-1.3-1.3-2.3-1.3h-2.9l3.5,4
	l-6.1,4h3.2C19,8.3,19.5,8,21.1,7l1.5-1L24.6,8.3L24.6,8.3L24.6,8.3z"/>
</svg>
