<?xml version="1.0" encoding="utf-8"?>
<!-- Generator: Adobe Illustrator 25.1.0, SVG Export Plug-In . SVG Version: 6.00 Build 0)  -->
<svg version="1.1" id="Layer_1" xmlns="http://www.w3.org/2000/svg" xmlns:xlink="http://www.w3.org/1999/xlink" x="0px" y="0px"
	 viewBox="0 0 234.8 58.8" style="enable-background:new 0 0 234.8 58.8;" xml:space="preserve">
<style type="text/css">
	.st0{fill:#FFFFFF;}
	.st1{fill:#8A8A8A;}
	.st2{fill:#828282;}
	.st3{fill:#545454;}
</style>
<g id="Layer_2_1_">
	<g id="Layer_1-2">
		<polygon class="st0" points="60.2,0.7 234.1,0.7 234.1,58.1 60.2,58.1 60.2,0.7 		"/>
		<polygon class="st0" points="0.3,0.7 58.1,0.7 58.1,58.1 0.3,58.1 0.3,0.7 		"/>
		<path class="st1" d="M60.3,58.1h174V0.7h-174V58.1z M59.5,0h175.4v58.8H59.5V0z"/>
		<path class="st1" d="M0,58.8h58.9V0H0V58.8z M0.3,0.7h57.8v57.4H0.3V0.7z"/>
		<path class="st1" d="M110.6,29.3c0,3.7-1.5,6.2-4.5,6.2s-4.5-2.5-4.5-6.2s1.5-6.2,4.5-6.2S110.6,25.6,110.6,29.3
			C110.6,29.3,110.6,29.3,110.6,29.3z M94.3,29.3c-0.4,6.1,4.2,11.4,10.3,11.9c0.5,0,1,0,1.5,0c6.1,0.4,11.4-4.3,11.8-10.4
			c0-0.5,0-1,0-1.5c0.3-6.5-4.8-12-11.3-12.3c-6.5-0.3-12,4.8-12.3,11.3C94.3,28.6,94.3,28.9,94.3,29.3L94.3,29.3L94.3,29.3z
			 M71.8,29.3c-0.4,6.1,4.2,11.4,10.3,11.9c0.5,0,1,0,1.5,0c4.1,0,9.5-2.4,9.5-6.5c0-1.8-1.5-3.3-3.3-3.2c-1.1,0-2.1,0.6-2.7,1.5
			c-1.5,2-2.2,2.4-3.4,2.4c-3,0-4.5-2.5-4.5-6.2s1.8-6.2,4.1-6.2c1.5-0.1,2.9,0.6,3.6,2c1,1.6,1.4,1.9,2.8,1.9
			c1.7,0.2,3.3-1.1,3.4-2.9c0,0,0-0.1,0-0.1c0-3.3-4.1-6.5-9.4-6.5c-6.2-0.3-11.5,4.6-11.8,10.8c0,0,0,0,0,0
			C71.8,28.5,71.8,28.9,71.8,29.3L71.8,29.3L71.8,29.3z M127.6,27.9v-4.3h3.6c2.2,0,3,0.7,3,2.2s-0.8,2.2-3,2.2L127.6,27.9z
			 M120.5,37.3c-0.2,2,1.3,3.7,3.3,3.8c2,0.2,3.7-1.3,3.8-3.3c0-0.2,0-0.4,0-0.6v-4.7h2.9c1.7,0,3,0.5,3.2,2.4l0.3,3
			c0.3,2.2,1.9,3.1,4,3.1c1.7,0.1,3.1-1.1,3.3-2.8c0-1.1-0.1-2.1-0.3-3.2l-0.3-1.9c-0.3-2.4-1.9-3.2-4.2-3.4
			c2.7-0.4,4.7-2.8,4.6-5.5c0-3.5-2.5-6.5-8.1-6.5h-8c-3.1,0-4.5,1.3-4.5,4.3V37.3z M198.1,29.4c-0.3,6.5,4.7,12,11.2,12.3
			c6.5,0.3,12-4.7,12.3-11.2c0,0,0,0,0,0c0-0.3,0-0.7,0-1c0.3-6.5-4.8-12-11.3-12.3c-6.5-0.3-12,4.8-12.3,11.3c0,0,0,0,0,0
			C198.1,28.7,198.1,29,198.1,29.4z M214.3,29.4c0,3.7-1.5,6.2-4.5,6.2s-4.5-2.5-4.5-6.2s1.5-6.2,4.5-6.2S214.3,25.7,214.3,29.4z
			 M185.4,35.1l9.8-10.8c0.9-0.8,1.4-1.9,1.5-3.1c0.1-1.6-1.1-3.1-2.7-3.2c-0.2,0-0.4,0-0.6,0h-13.8c-2.4,0-3.5,1.1-3.5,2.8
			s1.1,2.8,3.5,2.8h7.1l-9.1,10.1c-1.6,1.7-2,2.6-2,3.8c-0.1,1.7,1.3,3.2,3,3.2c0.2,0,0.4,0,0.6,0h14.6c2.2,0,3.3-1,3.3-2.8
			s-1.1-2.9-3.3-2.9L185.4,35.1L185.4,35.1z M165.9,37.2c-0.2,2,1.2,3.8,3.2,4s3.8-1.2,4-3.2c0-0.3,0-0.5,0-0.8V21.5
			c0.2-2-1.2-3.8-3.3-4c-2-0.2-3.8,1.2-4,3.2c0,0.3,0,0.5,0,0.8V37.2L165.9,37.2z M149.2,23.8v13.4c-0.2,2,1.2,3.8,3.2,4
			c2,0.2,3.8-1.2,4-3.2c0-0.3,0-0.5,0-0.8V23.8h4.3c1.5,0.2,2.8-0.9,3-2.3c0-0.2,0-0.4,0-0.6c0-1.7-0.9-2.9-3.2-2.9h-15.5
			c-2.3,0-3.2,1.2-3.2,2.9c-0.2,1.5,0.9,2.8,2.4,2.9c0.2,0,0.4,0,0.6,0H149.2z"/>
		<path class="st1" d="M23.3,9.6c4-7.5,15.2-1.5,11.2,6l-18,33.7c-4,7.5-15.2,1.5-11.2-6L23.3,9.6L23.3,9.6z"/>
		<path class="st2" d="M41.5,49.2l-7.2-13.4H23.7l6.8-12.7h11.4l10.8,20.1C56.7,50.7,45.5,56.7,41.5,49.2z"/>
		<path class="st3" d="M14,26.9l0.7-1.3c1.2-1.7,3.1-2.6,5.2-2.5h10.6l-6.8,12.7h-3.8c-3.5,0.1-6.4-2.7-6.4-6.2
			C13.4,28.7,13.6,27.8,14,26.9L14,26.9z"/>
	</g>
</g>
</svg>
