<svg xmlns="http://www.w3.org/2000/svg" width="234.8476" height="58.7733" viewBox="0 0 234.8476 58.7733"><defs><style>.cls-1{fill:#fff;}.cls-2{fill:#8a8a8d;}.cls-3{fill:#5e8ab5;}.cls-4{fill:#266092;}</style></defs><g id="Layer_2" data-name="Layer 2"><g id="Layer_1-2" data-name="Layer 1"><polygon class="cls-1" points="60.176 0.694 234.133 0.694 234.133 58.058 60.176 58.058 60.176 0.694 60.176 0.694"/><polygon class="cls-1" points="0.298 0.694 58.139 0.694 58.139 58.058 0.298 58.058 0.298 0.694 0.298 0.694"/><path class="cls-2" d="M60.2847,58.0581H234.2409V.6936H60.2847V58.0581ZM59.483,0H234.8476V58.7733H59.483V0Z"/><path class="cls-2" d="M0,58.7733H58.8546V0H0V58.7733ZM.2982.6936H58.1176V58.0581H.2982V.6936Z"/><path class="cls-2" d="M110.6059,29.3216c0,3.7057-1.4519,6.241-4.5079,6.241s-4.5074-2.5353-4.5074-6.241,1.4518-6.2411,4.5074-6.2411,4.5294,2.5569,4.5294,6.2629l-.0215-.0218Zm-16.2751,0A11.0981,11.0981,0,0,0,106.12,41.1763a11.1177,11.1177,0,0,0,11.7893-11.9412,11.7892,11.7892,0,0,0-23.5568-1.0108q-.0217.5051,0,1.0108l-.0215.0865Zm-22.5168,0A11.0982,11.0982,0,0,0,83.6031,41.1763c4.0526,0,9.4923-2.4275,9.4923-6.5018a3.2722,3.2722,0,0,0-6.0463-1.69C85.5969,35,84.882,35.39,83.6031,35.39c-3.0337,0-4.4862-2.5356-4.4862-6.241s1.8426-6.2416,4.1179-6.2416a3.64,3.64,0,0,1,3.5759,1.972c.9749,1.6254,1.43,1.9072,2.7955,1.9072a3.1641,3.1641,0,0,0,3.4391-2.8627c.0025-.0281.0051-.0567.0065-.0851,0-3.2939-4.0524-6.5012-9.4487-6.5012a11.2906,11.2906,0,0,0-11.776,10.7838,11.1647,11.1647,0,0,0,.0088,1.1571l-.0219.0434ZM127.618,27.87V23.5355h3.6408c2.1671,0,2.969.6718,2.969,2.1671s-.845,2.1671-2.969,2.1671ZM120.5314,37.34a3.5541,3.5541,0,1,0,7.0866,0v-4.703h2.86c1.7121,0,2.97.5418,3.1864,2.3837l.303,2.9912c.26,2.1667,1.9071,3.1421,4.0306,3.1421a3.0779,3.0779,0,0,0,3.2729-2.7955,23.6049,23.6049,0,0,0-.3254-3.1855l-.26-1.9072c-.3249-2.4055-1.9071-3.1859-4.204-3.359a5.374,5.374,0,0,0,4.6153-5.5049c0-3.489-2.4919-6.501-8.0832-6.501H124.996c-3.1431,0-4.4646,1.3-4.4646,4.3339V37.34Zm77.5406-7.975a11.7889,11.7889,0,1,0,23.5561,1.01c.0151-.3365.0151-.6741,0-1.01a11.7889,11.7889,0,1,0-23.5561-1.0108q-.0221.5052,0,1.0108Zm16.2751,0c0,3.7054-1.4519,6.2414-4.508,6.2414s-4.5073-2.536-4.5073-6.2414,1.4519-6.2416,4.5073-6.2416,4.508,2.5356,4.508,6.2416Zm-28.9752,5.7,9.7523-10.836a4.3341,4.3341,0,0,0,1.4519-3.077,2.9913,2.9913,0,0,0-3.3159-3.2077H179.4775c-2.3842,0-3.4894,1.1487-3.4894,2.8392s1.1052,2.8387,3.4894,2.8387h7.0864l-9.1233,10.1423c-1.5823,1.7337-2.0376,2.5572-2.0376,3.7706a3.12,3.12,0,0,0,3.5762,3.2075H193.542c2.1676,0,3.3372-.9754,3.3372-2.8389s-1.1483-2.8605-3.3372-2.8605l-8.17.0218Zm-19.504,2.1668a3.6625,3.6625,0,1,0,7.2816,0V21.4549a3.6625,3.6625,0,0,0-7.2816-.7957,3.7263,3.7263,0,0,0,0,.7957V37.2316ZM149.2464,23.8385V37.2316a3.6623,3.6623,0,1,0,7.2813.796,3.7291,3.7291,0,0,0,0-.796V23.8385h4.3342a2.6864,2.6864,0,0,0,2.99-2.9472c0-1.7336-.91-2.9472-3.23-2.9472H145.1072c-2.32,0-3.23,1.1923-3.23,2.9472a2.6654,2.6654,0,0,0,2.9259,2.9472Z"/><path class="cls-2" d="M23.3133,9.5791c3.9874-7.4551,15.17-1.4737,11.1826,5.9814L16.4653,49.2375c-3.9875,7.4554-15.17,1.474-11.1824-5.9811l18.03-33.6773Z"/><path class="cls-3" d="M41.5173,49.2375,34.2791,35.8013H23.66l6.8049-12.6995H41.9074L52.7431,43.2349c3.9444,7.4548-7.2386,13.4577-11.2258,6.0026Z"/><path class="cls-4" d="M14.0164,26.9161l.6937-1.3a6.0463,6.0463,0,0,1,5.1792-2.5138H30.4651l-6.8052,12.7H19.8893a6.3062,6.3062,0,0,1-5.8729-8.8855Z"/></g></g></svg>