<?xml version="1.0" encoding="utf-8"?>
<!-- Generator: Adobe Illustrator 25.1.0, SVG Export Plug-In . SVG Version: 6.00 Build 0)  -->
<svg version="1.1" id="Layer_1" xmlns="http://www.w3.org/2000/svg" xmlns:xlink="http://www.w3.org/1999/xlink" x="0px" y="0px"
	 viewBox="0 0 245.5 174" style="enable-background:new 0 0 245.5 174;" xml:space="preserve">
<style type="text/css">
	.st0{fill:#C7C7C7;}
	.st1{fill:#C8C8C8;}
	.st2{fill:#CBCBCB;}
	.st3{fill:#C9C9C9;}
	.st4{fill:#C4C4C4;}
</style>
<g id="Layer_2_1_">
	<g id="Layer_1-2">
		<path class="st0" d="M12.2,174c-0.3-0.1-0.6-0.3-0.8-0.4c-5.5-1.6-8.7-7.4-7-12.9c1.1-3.9,4.4-6.7,8.4-7.3
			c2.8-0.5,5.6-0.1,8.1,1.2c0.2,0.1,0.4,0.3,0.6,0.5l-1.8,2.9c-1.2-0.5-2.5-0.8-3.8-1.1c-4.6-0.7-7.6,2.1-7.5,6.7
			c0,0.9,0.2,1.7,0.4,2.6c0.9,3.2,4.2,5.1,7.5,4.2c0.4-0.1,0.7-0.2,1.1-0.4c0.3-0.2,0.5-0.5,0.6-0.9c0.1-1,0-2.1,0-3.2h-3.5v-3.3
			h7.7v7.4c0,2.5-0.1,2.6-2.4,3.3c-0.8,0.3-1.6,0.5-2.5,0.7L12.2,174z"/>
		<path class="st1" d="M150.3,174c-0.3-0.1-0.5-0.3-0.8-0.4c-3.1-0.8-4.9-2.9-5.1-5.9c-0.2-4.6-0.1-9.3-0.1-14h4.2
			c0,0.5,0,0.9,0,1.3c0,3.8-0.1,7.7,0.1,11.5c0.1,3.4,3.5,5.2,6.5,3.5c1.6-0.9,1.9-2.4,1.9-4c0-3.6,0-7.3,0-10.9v-1.4h3.8
			c0,0,0.1,0.1,0.1,0.1c0,4.2,0.1,8.5,0,12.7c-0.1,4-2.2,6.5-6.1,7.5L150.3,174z"/>
		<path class="st0" d="M80.1,174c-1-0.4-2-0.8-2.9-1.2c-0.4-0.2-0.8-0.5-1.1-0.8l1.7-2.7c1.4,0.4,2.6,0.9,3.8,1.2
			c0.5,0.1,1,0.1,1.5,0c1.1,0,2-0.8,2.2-1.9c0.2-1.1-0.5-1.8-1.4-2.3c-1.2-0.6-2.5-1.2-3.8-1.9c-1.9-0.8-3.2-2.5-3.5-4.5
			c-0.5-2.6,1-5.2,3.5-6.1c2.7-1.1,6.8-0.5,8.8,1.2l-1.6,2.8c-0.9-0.4-1.8-0.7-2.7-0.9c-0.7-0.2-1.4-0.2-2.1-0.1
			c-0.9,0-1.7,0.7-1.8,1.6c-0.2,0.9,0.3,1.7,1.1,2.1c1.5,0.8,3,1.5,4.5,2.3c1.4,0.7,2.5,1.9,3,3.4c1,3-0.5,6.3-3.5,7.3
			c-0.2,0.1-0.4,0.1-0.6,0.2c-0.3,0.1-0.6,0.2-1,0.4L80.1,174z"/>
		<path class="st0" d="M236.2,174c-1-0.4-2-0.8-2.9-1.2c-0.4-0.2-0.8-0.5-1.1-0.8l1.7-2.7c1.4,0.4,2.6,0.9,3.9,1.2
			c0.6,0.1,1.2,0.1,1.8-0.1c1-0.1,1.8-0.9,2-1.8c0.1-1-0.4-1.9-1.3-2.2c-1.4-0.7-2.8-1.3-4.2-2.1c-1.5-0.7-2.7-2.1-3.1-3.8
			c-0.8-3.4,0.8-6.1,4.2-7c2.8-0.7,5.7-0.2,8.1,1.4l-1.7,2.9c-0.9-0.4-1.9-0.7-2.8-0.9c-0.7-0.2-1.4-0.2-2.1,0
			c-0.7,0.3-1.3,0.8-1.6,1.5c0,0.8,0.3,1.5,0.9,2c0.7,0.5,1.5,0.9,2.3,1.2c2.4,1,4.5,2.3,5.5,4.8v3.1c-0.5,3-2.5,4.2-5.3,4.6
			L236.2,174z"/>
		<path class="st0" d="M100,174c-0.2-0.1-0.5-0.2-0.7-0.3c-5.2-1.5-7.9-6.1-7.2-11.8c0.6-4.9,4.8-8.7,9.8-8.6
			c2.3-0.2,4.6,0.4,6.5,1.6l-1.8,3c-1.1-0.4-2.2-0.7-3.4-0.9c-2.9-0.6-5.7,1.2-6.3,4.1c0,0,0,0.1,0,0.1c-0.3,1.4-0.4,2.9-0.1,4.4
			c0.8,4.5,5.1,6.4,9.1,4.1c0.3-0.2,0.6-0.4,1.1-0.7l1.9,3.2l-4.5,1.9L100,174z"/>
		<path class="st2" d="M93.2,77.4h-1.4c-8.9,0-17.8,0-26.7,0c-7.1,0-12.9-5.8-12.9-12.9c0-6.8,5.3-12.4,12-12.9
			c0.6,0,1.2-0.1,1.8-0.1c19.7,0,39.5,0,59.2,0h1.5c0.3,3.3,0.9,6.5,1,9.7c0.7,18.3-4.9,34.5-17.5,47.9
			c-11.3,12.3-27.2,19.5-43.9,19.9c-17.5,0.6-32.9-5-45.7-16.9C9.1,101.9,1.9,87.5,0.4,72.1c-2.1-19.6,3.3-37,16.6-51.6
			C27.7,8.4,42.7,1.1,58.8,0.2C82-1.4,100.7,7.3,115,25.6c0.3,0.4,0.5,0.8,0.9,1.3L90.5,45.8c-1.4-1.7-2.6-3.4-4.1-4.9
			c-12.1-12.5-32-12.8-44.5-0.6c-2.2,2.1-4.1,4.6-5.5,7.2c-8.1,14.4-4.9,33,7.5,43.2c13.4,11,33.3,9.1,44.3-4.4
			c2-2.4,3.6-5.1,4.7-7.9C93,78.2,93.1,77.9,93.2,77.4z"/>
		<path class="st2" d="M213.2,3.6h31.6v1.4c0,26.3,0.2,52.6-0.1,79c-0.1,18.4-8.8,32-25,40.5c-16.9,8.8-37.5,5.9-51.3-7.2
			c-9.4-8.5-14.6-20.5-14.5-33.1c0-2.1,0-4.2,0-6.3c0-0.1-0.1-0.2-0.1-0.4h-21.1c1.5-8.5,1.5-17.3,0-25.8h21.3v-48h31.6V5
			c0,24.7,0,49.4,0,74.2c0,2,0.1,4.1,0.2,6.1c0.7,7.3,7,12.8,14.3,12.4c7.3-0.3,13.2-6.3,13.3-13.6c0-26.3-0.1-52.6-0.1-79
			C213.2,4.7,213.2,4.3,213.2,3.6z"/>
		<path class="st0" d="M183.3,173.6c-1.2,0-2.3,0.1-3.5,0c-0.4-0.1-0.7-0.4-1-0.7c-2.9-4.1-5.7-8.3-8.6-12.4
			c-0.1-0.1-0.2-0.2-0.4-0.5v13.6H166v-20c1.3,0,2.6-0.1,3.9,0c0.3,0,0.7,0.4,1,0.7c2.8,4,5.6,8.1,8.3,12.1c0.1,0.1,0.2,0.2,0.4,0.5
			v-13.3h3.8L183.3,173.6z"/>
		<path class="st3" d="M125.1,165h-8.9v8.5H112v-19.9h4.2v7.7h8.9v-7.7h4.3v19.9h-4.2L125.1,165z"/>
		<path class="st1" d="M45.3,153.6h11.5v3.5h-7.2v4.4H56v3.3h-6.3v5.2h7.4v3.4H45.3V153.6z"/>
		<path class="st0" d="M69.1,173.5h-4.3v-16.4h-5.5v-3.5h15.2v3.4h-5.4V173.5z"/>
		<path class="st1" d="M211.4,153.6v3.4H206v16.4h-4.4v-16.4h-5.5v-3.5L211.4,153.6z"/>
		<path class="st0" d="M192.8,173.5h-4.2v-19.9h4.2V173.5z"/>
		<path class="st4" d="M140.2,166.7h-6.7v-3.2h6.7V166.7z"/>
		<path class="st1" d="M36.4,164.7c3.1-1.1,4.4-2.8,4.3-5.7c-0.1-2.6-1.5-4.7-4.2-5.1c-3.2-0.5-6.5-0.4-9.9-0.6v20.1l4.3,0v-8
			l0.3-0.3c0.6,0.4,1.2,0.8,1.7,1.4c1.4,2.1,2.8,4.2,4.2,6.3c0.2,0.3,0.5,0.7,0.8,0.7c1.4,0.1,2.8,0,4.4,0
			C40.3,170.5,38.3,167.6,36.4,164.7z M34.3,162.2c-0.4,0.1-0.7,0.1-1.1,0.1c-0.7,0-1.5,0-2.3,0V157c1.1-0.1,2.2-0.1,3.4,0
			c1.3,0.1,2.2,1.2,2.1,2.4c0,0,0,0.1,0,0.1C36.5,160.9,35.6,162,34.3,162.2z"/>
		<path class="st1" d="M230.4,172.6c-2.1-5.4-4.2-10.8-6.4-16.3c-1.1-2.8-1.1-2.8-4.2-2.8c-0.7-0.1-1.4,0.4-1.5,1.1
			c-2.2,5.9-4.5,11.9-6.8,17.8c-0.1,0.4-0.2,0.7-0.4,1.2c0.5,0,0.9,0,1.3,0c2.9,0,2.9,0,3.9-2.7c0.3-0.7,0.6-1,1.3-1
			c1.2,0.1,2.5,0,3.7,0c1.1,0,2.3-0.3,3.1,0.2c0.7,0.4,0.8,1.7,1.1,2.7c0,0,0,0.1,0,0.1c0.3,0.2,0.6,0.6,0.9,0.7c1.3,0.1,2.5,0,4,0
			C230.5,173.1,230.5,172.9,230.4,172.6z M218,166.4l2.7-7.9c0.9,2.7,1.8,5.3,2.7,7.9H218z"/>
	</g>
</g>
</svg>
