<svg xmlns="http://www.w3.org/2000/svg" width="245.5142" height="173.9587" viewBox="0 0 245.5142 173.9587"><defs><style>.cls-1{fill:#06447d;}.cls-2{fill:#05437d;}.cls-3{fill:#01407b;}.cls-4{fill:#04427c;}.cls-5{fill:#06457e;}.cls-6{fill:#09477f;}.cls-7{fill:#f9fafc;}.cls-8{fill:#eff3f6;}</style></defs><g id="Layer_2" data-name="Layer 2"><g id="Layer_1-2" data-name="Layer 1"><path class="cls-1" d="M12.2208,173.9587a6.8891,6.8891,0,0,0-.8375-.3623,10.3985,10.3985,0,0,1,1.35-20.2534,12.4335,12.4335,0,0,1,8.1293,1.2171,5.7715,5.7715,0,0,1,.6249.4862l-1.755,2.9227a26.8342,26.8342,0,0,0-3.7521-1.1059c-4.5773-.6519-7.6059,2.0966-7.4773,6.7174a10.9244,10.9244,0,0,0,.3884,2.5933,6.0634,6.0634,0,0,0,8.5435,3.7948,1.2462,1.2462,0,0,0,.5572-.89c.07-1.0307.0263-2.0691.0263-3.2415H14.4694v-3.2783h7.6914v7.37c0,2.4588-.0642,2.557-2.4327,3.316-.8165.2617-1.6477.4774-2.4722.7141Z"/><path class="cls-2" d="M150.3266,173.9587a5.8142,5.8142,0,0,0-.8369-.3648c-3.07-.8114-4.9233-2.87-5.0729-5.9437-.2264-4.6487-.0591-9.3165-.0591-14.0346h4.1717c0,.4529-.0022.8831,0,1.3132.0225,3.8328-.0524,7.6694.0981,11.4971.1349,3.4332,3.4526,5.1713,6.4947,3.5213,1.5778-.8558,1.922-2.3693,1.9328-3.9866.0241-3.634.0077-7.2683.0078-10.9024v-1.4048h3.8354c.021.0248.1158.0845.1159.1442.0047,4.2317.0863,8.4656-.0247,12.6944-.1047,3.99-2.1878,6.5177-6.1075,7.4667Z"/><path class="cls-1" d="M80.0749,173.9587c-.9816-.4016-1.9732-.781-2.94-1.2159a8.549,8.549,0,0,1-1.1409-.7548l1.6787-2.7471c1.3658.4276,2.5923.8591,3.847,1.18a4.0031,4.0031,0,0,0,1.5415-.03,2.3344,2.3344,0,0,0,2.2024-1.8857c.205-1.1234-.5266-1.7954-1.4137-2.2627-1.2339-.65-2.5176-1.205-3.7537-1.8509a6.0282,6.0282,0,0,1-3.5046-4.5495,5.4043,5.4043,0,0,1,3.4685-6.1259c2.7186-1.0814,6.7515-.54,8.8222,1.2455l-1.6256,2.8222a24.9623,24.9623,0,0,0-2.6519-.9267,6.3366,6.3366,0,0,0-2.1287-.1064A1.9248,1.9248,0,0,0,80.64,158.37a1.8805,1.8805,0,0,0,1.0951,2.0744c1.4737.7912,3.01,1.4661,4.4865,2.2518a5.63,5.63,0,0,1,2.9764,3.4276,5.7449,5.7449,0,0,1-4.0824,7.4811c-.3276.0979-.6435.235-.9648.3539Z"/><path class="cls-1" d="M236.1632,173.9587c-.9838-.4013-1.978-.78-2.9465-1.2153a8.2755,8.2755,0,0,1-1.134-.7592l1.6812-2.74c1.37.4289,2.594.8763,3.8526,1.1762a4.3381,4.3381,0,0,0,1.7757-.08,2.2453,2.2453,0,0,0,1.9731-1.8357,2.0438,2.0438,0,0,0-1.3215-2.1985c-1.3709-.7322-2.8043-1.3486-4.1664-2.0957a5.7305,5.7305,0,0,1-3.0778-3.781c-.7738-3.3756.7975-6.1056,4.1545-6.962a9.8782,9.8782,0,0,1,8.0827,1.3832l-1.6851,2.9124a26.2083,26.2083,0,0,0-2.8177-.9408,3.8085,3.8085,0,0,0-2.1112-.0025,2.7374,2.7374,0,0,0-1.5843,1.5057,2.6256,2.6256,0,0,0,.8733,1.9833,7.657,7.657,0,0,0,2.3087,1.2216c2.3565.99,4.4556,2.256,5.4937,4.7582v3.116c-.5085,2.9648-2.4915,4.2228-5.2749,4.5542Z"/><path class="cls-1" d="M99.9755,173.9587a5.51,5.51,0,0,0-.719-.3278c-5.1551-1.53-7.9185-6.0945-7.1593-11.8387a9.7567,9.7567,0,0,1,9.7714-8.6239,10.9026,10.9026,0,0,1,6.531,1.613l-1.782,2.9559a28.9173,28.9173,0,0,0-3.3979-.9111,5.3129,5.3129,0,0,0-6.3,4.1942,11.1606,11.1606,0,0,0-.1434,4.3723c.81,4.4872,5.0793,6.3612,9.0728,4.1177.3123-.1754.6112-.3749,1.0734-.66l1.8939,3.23-4.5251,1.8781Z"/><path class="cls-3" d="M93.2181,77.4492H91.8268q-13.367,0-26.7338-.001a12.8728,12.8728,0,0,1-.8374-25.7188c.5975-.0407,1.1972-.0677,1.7959-.0678q29.6109-.0053,59.2219-.0029h1.453c.3474,3.26.8759,6.4517.9983,9.6593.7,18.348-4.8824,34.51-17.5053,47.9407a61.3132,61.3132,0,0,1-43.885,19.9135c-17.5259.6459-32.8735-4.97-45.7345-16.8866A62.3467,62.3467,0,0,1,.4356,72.0537c-2.09-19.6026,3.32-36.97,16.63-51.5868A60.3487,60.3487,0,0,1,58.8023.18C81.9833-1.3864,100.73,7.292,115.0139,25.6044c.2918.3741.5447.7785.9038,1.2956L90.4955,45.82c-1.4054-1.6973-2.6416-3.4218-4.1062-4.9235A31.4729,31.4729,0,0,0,36.3467,47.47C28.2421,61.8442,31.49,80.5165,43.8673,90.7a31.4665,31.4665,0,0,0,49.0185-12.294C92.9874,78.1593,93.0621,77.9012,93.2181,77.4492Z"/><path class="cls-3" d="M213.2439,3.6474h31.593v1.405c0,26.3224.1571,52.646-.0535,78.9668-.1473,18.4044-8.8424,32.0048-25.0228,40.467a44.8141,44.8141,0,0,1-51.3434-7.1607A44.17,44.17,0,0,1,153.89,84.1916c-.0212-2.1167-.01-4.2336-.0179-6.35a1.6636,1.6636,0,0,0-.1263-.3565H132.5987a72.9991,72.9991,0,0,0-.0151-25.82h21.264V3.6889h31.6476V5.0435q0,37.0871.0108,74.174c.0014,2.0337.096,4.0718.25,6.1A13.6765,13.6765,0,0,0,200.06,97.7653a13.8787,13.8787,0,0,0,13.3027-13.5876q-.0528-39.4811-.1188-78.9622C213.2433,4.7414,213.2439,4.2673,213.2439,3.6474Z"/><path class="cls-1" d="M183.2947,173.5884c-1.1767,0-2.3291.0582-3.4689-.0354a1.67,1.67,0,0,1-.9609-.7457c-2.8841-4.1195-5.742-8.2573-8.6093-12.3886-.0818-.1179-.1928-.2155-.4427-.49v13.5927h-3.8238V153.5581c1.32,0,2.5907-.0532,3.8518.0355.3371.0237.7272.4234.9516.748,2.7913,4.0376,5.5563,8.0934,8.33,12.1435.0806.1177.1779.2239.3689.462V153.614h3.8037Z"/><path class="cls-4" d="M125.0992,164.9719h-8.8978v8.5432h-4.2305V153.6207H116.14v7.7216h8.8866v-7.6982h4.2743v19.8514h-4.2015Z"/><path class="cls-2" d="M26.6178,173.5167V153.396c3.3163.1772,6.6266.1275,9.8617.5969,2.706.3926,4.1276,2.435,4.2348,5.0607.1164,2.8514-1.1984,4.5722-4.3241,5.6582,1.94,2.8846,3.8791,5.77,5.966,8.8748-1.6382,0-3.021.0419-4.3974-.0332-.2975-.0163-.6439-.4057-.8454-.7054-1.4018-2.0853-2.73-4.2215-4.1777-6.2735A7.8772,7.8772,0,0,0,31.2218,165.2l-.3193.2683v8.048Z"/><path class="cls-2" d="M230.7033,173.59c-1.4653,0-2.7412.0457-4.01-.0318-.3215-.02-.62-.4308-.9259-.6662-.0272-.0209-.0314-.072-.0459-.1092-.3609-.9248-.4725-2.2516-1.1475-2.67-.789-.4888-2.0689-.2031-3.1364-.2206-1.2377-.02-2.4787.0448-3.7131-.0225-.7835-.0428-1.0961.2591-1.347.9778-.963,2.7588-.9921,2.7485-3.8986,2.7432-.3916-.0007-.7831,0-1.3327,0,.1551-.4882.2516-.8535.3854-1.2046,2.2582-5.9271,4.5383-11.8459,6.7624-17.7857a1.3624,1.3624,0,0,1,1.5353-1.0655c3.0483.045,3.0465.0109,4.1514,2.835q3.1833,8.1363,6.37,16.2712C230.45,172.8936,230.5405,173.15,230.7033,173.59Z"/><path class="cls-2" d="M45.3439,153.5978H56.8691v3.4828H49.6565v4.4156h6.35v3.3345h-6.34v5.2436h7.401v3.4269H45.3439Z"/><path class="cls-5" d="M69.12,173.5443H64.86V157.15H59.3365v-3.5063H74.53v3.4308H69.12Z"/><path class="cls-2" d="M211.4117,153.6312v3.4374h-5.3825v16.4333H201.67V157.131h-5.5041v-3.5Z"/><path class="cls-1" d="M192.7633,173.5192H188.558V153.6466h4.2053Z"/><path class="cls-6" d="M140.1772,166.7225h-6.7357v-3.2211h6.7357Z"/><path class="cls-7" d="M30.9431,162.2992v-5.3353a27.34,27.34,0,0,1,3.3643.0272,2.2956,2.2956,0,0,1,2.1233,2.58A2.4576,2.4576,0,0,1,34.3141,162.2a5.97,5.97,0,0,1-1.07.0954C32.4968,162.309,31.7494,162.2992,30.9431,162.2992Z"/><path class="cls-8" d="M220.6865,158.44c.9235,2.6866,1.8117,5.27,2.7317,7.9466H217.97Z"/></g></g></svg>