<?xml version="1.0" encoding="utf-8"?>
<!-- Generator: Adobe Illustrator 25.1.0, SVG Export Plug-In . SVG Version: 6.00 Build 0)  -->
<svg version="1.1" id="Layer_1" xmlns="http://www.w3.org/2000/svg" xmlns:xlink="http://www.w3.org/1999/xlink" x="0px" y="0px"
	 viewBox="0 0 683.1 204.1" style="enable-background:new 0 0 683.1 204.1;" xml:space="preserve">
<style type="text/css">
	.st0{fill:#C4C4C4;}
	.st1{fill:#909090;}
	.st2{fill:#8F8F8F;}
	.st3{fill:#BEBEBE;}
	.st4{fill:#C2C2C2;}
	.st5{fill:#B8B8B8;}
	.st6{fill:#C3C3C3;}
	.st7{fill:#BFBFBF;}
	.st8{fill:#8E8E8E;}
	.st9{fill:#B9B9B9;}
	.st10{fill:#A6A6A6;}
	.st11{fill:#B0B0B0;}
	.st12{fill:#ACACAC;}
	.st13{fill:#B2B2B2;}
	.st14{fill:#C1C1C1;}
	.st15{fill:#C0C0C0;}
	.st16{fill:#767676;}
	.st17{fill:#BDBDBD;}
	.st18{fill:#8C8C8C;}
	.st19{fill:#737373;}
	.st20{fill:#8D8D8D;}
	.st21{fill:#323232;}
	.st22{fill:#858585;}
	.st23{fill:#353535;}
	.st24{fill:#B7B7B7;}
	.st25{fill:#A8A8A8;}
	.st26{fill:#9E9E9E;}
	.st27{fill:#989898;}
	.st28{fill:#B1B1B1;}
	.st29{fill:#131313;}
	.st30{fill:#646464;}
	.st31{fill:#AAAAAA;}
	.st32{fill:#727272;}
	.st33{fill:#AFAFAF;}
	.st34{fill:#363636;}
	.st35{fill:#4B4B4B;}
	.st36{fill:#505050;}
	.st37{fill:#3E3E3E;}
	.st38{fill:#A7A7A7;}
	.st39{fill:#272727;}
	.st40{fill:#757575;}
	.st41{fill:#2F2F2F;}
	.st42{fill:#171717;}
	.st43{fill:#838383;}
	.st44{fill:#4D4D4D;}
	.st45{fill:#626262;}
	.st46{fill:#2B2B2B;}
	.st47{fill:#B5B5B5;}
	.st48{fill:#BCBCBC;}
	.st49{fill:#B3B3B3;}
	.st50{fill:#ADADAD;}
	.st51{fill:#9C9C9C;}
	.st52{fill:#020202;}
	.st53{fill:#1D1D1D;}
	.st54{fill:#0F0F0F;}
	.st55{fill:#262626;}
	.st56{fill:#828282;}
	.st57{fill:#676767;}
	.st58{fill:#161616;}
	.st59{fill:#4A4A4A;}
	.st60{fill:#3C3C3C;}
	.st61{fill:#6A6A6A;}
	.st62{fill:#747474;}
	.st63{fill:#ABABAB;}
	.st64{fill:#A5A5A5;}
	.st65{fill:#343434;}
	.st66{fill:#202020;}
	.st67{fill:#111111;}
	.st68{fill:#414141;}
	.st69{fill:#4E4E4E;}
	.st70{fill:#5E5E5E;}
	.st71{fill:#868686;}
	.st72{fill:#818181;}
	.st73{fill:#181818;}
	.st74{fill:#686868;}
	.st75{fill:#545454;}
	.st76{fill:#777777;}
	.st77{fill:#B4B4B4;}
	.st78{fill:#525252;}
	.st79{fill:#A1A1A1;}
	.st80{fill:#666666;}
</style>
<g id="Layer_2_1_">
	<g id="Layer_1-2">
		<path class="st0" d="M7,121.2c-9.1-19.9-9-40.1-1.5-60.5C10.4,47.4,17.3,35.5,28.1,26c2.9,2,6.1,0.7,9.1,0.9
			c2.5,0.2,3.3,1.2,2.6,3.5c-1,3-0.5,7.2-5.7,7.2c0.9,1.2,2.2,0.7,2.7,1.8c1.6,3.8-0.1,8.2-3.9,9.8c-0.4,0.2-0.8,0.3-1.2,0.4
			c-1.6,0.3-3.3,0.4-4.9,0.3c-4.3,0-8.5,0-12.8,0v1H34l0,10c-7.4-0.3-14.8,0.4-22.1,2H34c1.6,3.5,0.9,7.4,2,11l-2,0
			c-0.4-0.3-0.8-0.8-1.1-0.8c-8.7,0-17.4,0-26,0l0,0.9h14.2c2.3,1.9,5.1,0.9,7.6,0.9c7.6,0.2,9.6,1.9,10,9.7c0,0.8,0.2,1.6,0.4,2.3
			c2.1,2.8,4.1,5.6,5,9l-6,0H4c5.8,0.4,11.4,2.3,17.2,2c7-0.3,14,0.2,21-0.2c4.8-0.3,5.2,3.8,7.5,6c2.5,2.4-0.9,3.4-0.7,5.1
			c-13.4,0-26.8-2.1-40.5-0.6c1.3,2.2,3.1,1.6,4.6,1.6c11.6,0,23.2,0,34.8,0c1.4,0,3,0.6,4.1-1l2,0c0.4,0.9,1.2,1,2,1
			c0.6,4,5,5.1,6.5,9H42c-4.1-0.6-8-2.8-12.4-2.1c-2,0.3-3.5,0.7-3.6,3.1l0,0c-4.9,0-9.8,0-14.6,0C9.9,120.1,8.1,119.4,7,121.2z
			 M35.1,86.8l0-0.5H5.9v0.5H35.1z"/>
		<path class="st0" d="M7,121.2c1.1-1.8,2.9-1.1,4.4-1.2c4.9-0.1,9.8,0,14.6,0c0.1,0.7,0.1,1.5,1,1.4c14-1.6,28,1.5,42,0.6
			c1-0.1,2,0,3,0c-0.1,1.7,1.5,2,2.4,2.8c2.5,2.1,6.2,2.6,8.8,6.2c-8.6,0-16.4-0.1-24.1,0c-1.7,0-3.7-0.8-5.1,0.9l-19,0H16.6l0,1.3
			c1.5,1.2,3.3,0.6,5,0.6c18.1,0,36.2-0.2,54.4,0.1c8.2,0.1,16.8-2,24.5,2.9c2.8,1.8,6.2,1.1,9.2,1.6c8.2,1.2,16.8,1,24.4-2.1
			c4.7-1.8,9.8-2.7,14.8-2.5c3,0,6,0,9,0c1.1,0,2.4-0.2,3.1,1.1c-1.7,3.5-3.2,7-6.9,8.9l-27.9,0c-1.5,0.7-3.1,1-4.8,1
			c-11.1-0.2-22.2-0.4-33.3-0.3c-1.9,0-4.3-0.6-6,1.3c-5.2,1.8-10.5,2-16,2.1c-11.9,0.3-23.7-1.7-35.6-1.2c-2.6,0.1-5.2,0.9-7.8,0.2
			C15.6,139.7,10.3,130.8,7,121.2z M24.9,144.2l0,0.5h24.2l0-0.5H24.9z"/>
		<path class="st0" d="M141,156.1c1.2,2.1-0.6,2.8-1.8,3.7c-9.2,6.9-19.6,11.9-30.7,14.7c-27.1,6.8-51.5,0.7-73.8-15.6
			c-0.6-0.5-1.2-1.1-1.7-1.8c15.3,0,30.7,0.1,46-0.1c10.2-0.1,20.4-0.2,30.5-0.2c8.5,0,17.1-0.3,25.7,0.3
			C137.2,157.3,139.2,156.9,141,156.1z"/>
		<path class="st1" d="M600,140.2c-18.5,0-36.9-0.5-55.4,0.1c-28.8,0.9-57.5,0.2-86.2,0.7c-5.1,0.1-4.9,0-5-4.7
			c-0.1-2.7,1-3.3,3.5-3.3c18.8,0.1,37.6,0.1,56.4,0.1c3.6,0,6.7,1.8,10.1,2.3c4.3,0.8,8.7,0.5,12.8-0.8c3.6-1.2,7.4-1.7,11.2-1.6
			c18,0,35.9,0.2,53.9,0.1c4,0,7.5,1.5,11.2,2.2c4.1,0.9,8.3,0.8,12.3-0.4c6-2,12.1-1.7,18.2-1.6c6.3,0.1,12.6-0.1,18.9,0
			c1.2,0,3.2-0.5,3.3,1.3c0.1,1.9-0.5,4.2-2.9,4.7c-1.9,0.4-3.9,0.6-5.9,0.6c-18.8,0-37.6,0.1-56.4,0L600,140.2z"/>
		<path class="st0" d="M141,156.1c-1.8,0.9-3.8,1.2-5.8,0.9c-8.6-0.5-17.1-0.3-25.7-0.3c-10.2,0-20.3,0.1-30.5,0.2
			c-15.3,0.2-30.7,0.1-46,0.1c-4.1-2.6-7.6-6-10.4-9.9c2.6,0.7,5.2-0.1,7.8-0.2c11.9-0.5,23.7,1.5,35.6,1.2c5.4-0.1,10.8-0.3,16-2.1
			l71.1,0.1C149.7,150.3,147.1,155.3,141,156.1z"/>
		<path class="st1" d="M566.2,38.9c-3.5,5.6-7.9,7.6-13.8,7.1c-4.6-0.4-9.1-0.4-13.7-1.8c-7.5-2.5-15.7-2.1-23,0.9
			c-1.9,0.7-3.9,1-5.8,0.8c-14.8,0.1-29.6-0.1-44.4,0.3c-9.4,0.3-18.9-0.7-28.3,0.5c-1.7,0.2-3.6-0.2-5.4-0.4
			c2.7-7.6,4.1-8.5,11.4-8.3c10.8,0.3,21.6,0.3,32.4,0.1c7.1-0.1,14.3,0.5,21.4,0.4c13.6,0,27.3-0.6,40.9-0.3
			C547.2,38.6,556.5,38.3,566.2,38.9z"/>
		<path class="st1" d="M409.2,132.7c-0.5,2.6-2,3.9-2.7,5.5c-1.1,2.5-3.1,3-5.6,3c-9.1,0-18.2-0.3-27.3,0.3
			c-10.1,0.6-20.2,0.3-30.4,0.4c-13.8,0.1-27.6,0.1-41.4,0.1c-2.4,0-4.5,0.3-4.4-3.4c0.2-5.6-0.1-6.1,3.9-5.9
			c7.1,0.2,14.3-0.9,21.3,0.3c16.8,2.8,33.7,1.9,50.4,0.9C385,133.1,396.8,133.9,409.2,132.7z"/>
		<path class="st2" d="M264.3,156.3H394c-1.7,6.1-2.3,6.6-8,6.6c-37.1,0-74.2-0.1-111.3,0.1C269.4,163,266.4,161.2,264.3,156.3z"/>
		<path class="st1" d="M297.6,151.8c-0.1-7.9-0.1-7.7,7.6-7.6c20.1,0.3,40.2,0.8,60.3,0.3c10.1-0.2,20.2,1.3,30.3-0.2
			c1.7-0.3,3.6,0.4,5.4,0.7c-2.5,7.5-3.4,8.3-10.6,8.2c-13.9-0.2-27.8,0.7-41.7-0.1c-15.4,0-30.9,0-46.3-0.1
			C300.9,153,298.9,153.8,297.6,151.8z"/>
		<path class="st1" d="M478.4,128.8c-20.1,0.1-40.2,0.3-60.3,0.4c-12.9,0.1-25.8,0-39,0c0.4-2.6,2.5-4.6,3.9-7c1.2-2,3.3-1.2,5-1.2
			c26.4,0,52.8,0,79.2,0.1c3.3,0,6.6-0.1,10-0.1c4.3,0,4.4,0.1,4.4,4.4c0,0.8-0.1,1.7-0.1,2.5C480.5,128.1,479.3,127.7,478.4,128.8z
			"/>
		<path class="st1" d="M386.6,117.3c0.9-2.7,2.6-4.8,4-6.9c1.5-2.2,4-1.3,6-1.3c18.6,0,37.2,0.1,55.8,0.1c8.3,0,16.6-0.1,24.9-0.1
			c2.4,0,4.6,0,4.4,3.6c-0.2,4.2,0.1,4.3-4.5,4.3c-18.1,0.1-36.2,0.2-54.3,0.2C411,117.3,399.1,117.3,386.6,117.3z"/>
		<path class="st3" d="M56,110c-0.8,0-1.6-0.1-2-1c1.2-0.8,2.6-1.1,4-1l11,0l11,0c19.3-0.4,38.6,0.7,57.9,0c1,2,2.9,1.1,4.4,1.1
			c8.9,0.1,17.9,0,26.8,0c1.2,0,3.6-0.6,1.9,2.2c-0.7-1.5-2.1-1.3-3.5-1.3c-3.5,0-7,0-10.5,0c-4.6-0.1-9.1-0.4-13,3.2
			c-1.6,1.5-4,2.3-6.3,2.9c-1.2,0.4-3.1,0.5-3.2,2.8h33.9c-0.2,0.9-1.2,0.6-1.7,1l-36.9,0c-1.4,0.5-2.9,0.8-4.3,0.9
			c-8.3,0.2-16.7,0.2-25-0.2c-8.9-0.4-17.8-0.7-26.6-0.8l1-1h23.3c-2.7-3.5-7.3-2.8-9.6-5.4c-3.7-4-8.1-3.7-12.7-3.6
			c-3.3,0-6.6,0-9.9,0L56,110z"/>
		<path class="st1" d="M514.4,69.9c-13.3,0-26.5,0-39.8,0c-5.6,0-11.3-0.1-16.9,0.1c-3.4,0.1-5.1-0.9-4.5-5c-2.6,6.2-7.6,5-12.3,5
			c-8,0-15.9,0-23.9,0c2.1-7,3.3-8,10.1-8c25.1,0,50.2,0,75.2,0c3.4,0,6.5,0.2,8.7,3.4c0.9,1.3,2.4,2.1,3.7,3.2
			C514.6,69,514.5,69.4,514.4,69.9z"/>
		<path class="st1" d="M508.4,50.8c-1.7,7.3-1.7,7.2-8.4,7.2c-21.6,0-43.2,0.1-64.7,0.2c-3.6,0-7.2,1-10.8-0.3
			c2.5-7.3,3.4-7.9,10.6-7.9c22.6,0,45.1,0.1,67.7,0.1C504.7,49.9,506.6,50.2,508.4,50.8z"/>
		<path class="st1" d="M244.7,108.8c4.1,0,8.3,0.3,12.4,0.1c2.8-0.4,5.6,1,7.1,3.4c1.3,1.9,2.8,3.6,4.5,5.7c-2.1,1-4.1,0.8-6,0.8
			c-8.3,0.1-16.6-0.1-24.9,0.2c-3.7,0.1-6.4-0.9-8.4-4c-0.7-1.1-1.3-3.2-3.1-2.5c-1.4,0.6-2.4,2-2.4,3.5c0.2,3.1-1.7,3-3.8,3
			c-7.1,0-14.3-0.1-21.4,0.1c-2.4,0-3.3-0.7-3.1-3.1c0.2-2.3,0.1-4.6,0.2-7L244.7,108.8z"/>
		<path class="st1" d="M256.8,74.2c-2.3,2.8-4.5,5.6-6.8,8.4c-1.1,1.3-2.6,1.3-4.1,1.3c-15.8,0.1-31.6,0.1-47.4,0.2
			c-2.1,0-3-0.6-2.9-2.8c0.3-9.2-1.4-8.1,7.7-8.1c15.1,0,30.2,0,45.4,0c2.5,0,5,0,7.5,0L256.8,74.2z"/>
		<path class="st1" d="M223.8,68.6c1.3-0.2,2.5-1.1,2.9-2.3c2.5-4.9,7-5.2,11.5-4.9c6.9,0.6,13.9,0.6,20.8,0.1
			c2.1-0.2,4.2,0.4,6.4,0.6c-3.3,7.8-5.4,9.3-13.2,9.2c-11.1-0.1-22.2,0.4-33.2,0.4c-6.4,0-12.9,0.2-19.3,0.3
			c-3.1,0-4.3-0.9-4.2-4.3c0.2-6.1,0.8-6.9,6.8-6.2c4.8,0.5,9.6,0.5,14.4,0.1c1-0.1,2-0.1,3-0.1c2.8,0,4.8,0.9,4.1,4.3
			C223.7,66.7,223.7,67.6,223.8,68.6z"/>
		<path class="st2" d="M394,105.7c0.7-2.7,2.6-4.7,3.9-7c0.5-0.9,1.4-1.4,2.5-1.4c10.2,0,20.5,0,30.5,0c0.8,2-1.1,2.9-0.6,4.3
			c0.4,0.1,0.9,0.2,1.3,0.2c6.2,0,12.3,0.1,18.5,0c1.2,0,3.1,0.7,3.2-1.3c0.2-4.4,3.7-3.4,5.8-3.2c5.6,0.4,11.3,0.4,16.9-0.1
			c4.4-0.4,5.5,0.6,5.8,3.9c0.3,3.1-0.8,4.1-3.9,4.1c-27.4,0.1-54.8,0.4-82.2,0.6C395.1,105.9,394.6,105.8,394,105.7z"/>
		<path class="st1" d="M195.8,107.2c-2.1-2.7-0.8-5.7-0.9-8.6c-0.1-2.4,2.1-1.6,3.4-1.6c10.8-0.1,21.6,0,32.4,0
			c5.1,0,10.3,0.2,15.4-0.1c4.1-0.2,7.1,0.9,9.1,4.5c1,1.7,2.7,2.9,3.7,5.7h-53.1L195.8,107.2z"/>
		<path class="st1" d="M486.1,34.1c2.7-4.4,5.1-7.4,10.6-7.3c22.1,0.3,44.2,0.2,66.4,0.2c4.6,0,6.2,3.6,9.5,7.1H486.1z"/>
		<path class="st1" d="M569.3,145.2c-3.3,5.1-7.1,7.1-12.8,7c-15.4-0.4-30.9,0-46.3,0.1c-4.3,0-8.6,0.3-12.9,0.4
			c-5.7,0-8.6-3.2-12-7.4L569.3,145.2z"/>
		<path class="st2" d="M658.9,145.4c-2.5,3.2-4.3,5.9-8.8,5.9c-16.4,0-32.8,0.3-49.2,0.5c-4.5,0.1-9-0.3-13.4,0.2
			c-5.7,0.7-8.9-2.2-12.3-6.7L658.9,145.4z"/>
		<path class="st1" d="M661.1,33.2c-28.5-0.4-56.4,0.7-84.4,0.7c2-5.3,4-6.9,8.9-6.9c21.5,0,42.9,0.2,64.4-0.1
			C654.8,26.9,658.2,28.2,661.1,33.2z"/>
		<path class="st1" d="M260.9,24c2-2.5,3.5-4.4,5-6.4c0.9-1.2,2.4-1.8,3.9-1.7c17.6,0,35.2,0.1,52.7,0c2.7,0,3.5,1,3.3,3.5
			c-0.2,2.2,0.6,4.7-3.2,4.6c-9.8-0.2-19.6,0-29.4,0C282.7,24,272.2,24,260.9,24z"/>
		<path class="st1" d="M570.8,45.4c1-6.4,1-6.6,5.8-6.6c26.3-0.1,52.5,0,79.5,0c-2.9,4.2-5.7,6.7-10.7,6.4
			c-6.8-0.5-13.5,0.3-20.2-1.8c-4.2-1.3-8.7-1.3-12.9-0.1c-10.4,3.4-21.1,1.5-31.6,2.3C577.4,45.9,574.1,46.3,570.8,45.4z"/>
		<path class="st2" d="M565.4,92.2c-1.8,1.2-3.1,0.8-4.4,0.8c-18.9,0.1-37.9,0.1-56.8,0.3c-5.1,0.1-8-3.3-11.5-5.9
			c0.6-1.8,2-1.1,3-1.1c19.8,0,39.5,0.1,59.3,0C559.6,86.2,562,89.5,565.4,92.2z"/>
		<path class="st1" d="M247,85.7c-3.4,4.6,1.4,6,2.2,9.3c-2.6,0-5.1,0-7.5,0c-13.6,0.3-27.2-0.3-40.8,0.5c-4.6,0.3-7.5-4.6-5-8.7
			c1.1-1.9,3.6-1.5,5.4-1.3c5.3,0.5,10.6,0.2,15.9,0.2C226.8,85.7,236.4,85.7,247,85.7z"/>
		<path class="st1" d="M481.4,74.3c3.9-0.9,7.9-0.4,11.9-0.4c9.1,0,18.3,0.2,27.4,0c9.5-0.3,17.8,3.4,26.2,6.7
			c0.2,0.1,0.3,0.5,0.6,1.4c-19.4,0-38.6,0-57.8,0c-2.1,0-3.3-1-4.5-2.5c-1.2-1.5-1.5-3.8-3.8-4.3C481.5,74.9,481.4,74.6,481.4,74.3
			z"/>
		<path class="st2" d="M297.6,151.8c1.3,2,3.3,1.1,5,1.1c15.4,0.1,30.9,0.1,46.3,0.1c-3.2,1.2-6.6,0.5-9.9,0.6
			c-23.6,0.2-47.3,0.1-70.9,0.5c-5,0.1-8.2-1.5-10.8-5.4c-0.8-1.2-1.8-2.4-2.6-3.6c1.1-1.8,2.8-1.1,4.1-1.1c8.8-0.1,17.6,0,26.4-0.1
			c3.6,0,6.4,0.7,8.4,4.1C294.6,149.6,295.6,151.3,297.6,151.8z"/>
		<path class="st4" d="M237.7,191.5c1.6-3.4,2.7-5.8,3.8-8.1c1-2.7,4-4.1,6.7-3.1c1.3,0.3,1.5,1.1,1.5,2.2c0,6.3,0,12.6,0,18.9
			c0,2.7-1.8,2.2-3.4,2.3c-2,0.2-2.6-0.8-2.5-2.7c0.1-3.7,0-7.4-0.6-11.1c-0.9,2.1-1.8,4.1-2.7,6.2c-0.4,1.3-1.6,2.2-3,2
			c-1.3,0-2.5-0.9-2.9-2.2c-0.8-1.7-1.1-3.8-3.1-5.6c0,3.8-0.1,7.1,0,10.4c0.1,2.1-0.7,3-2.9,3c-2.1,0-2.9-0.7-2.9-2.9
			c0.1-5.6,0-11.3,0.1-16.9c0-1.3-0.9-3.4,1.4-3.6c2.3-0.1,5.1-1.2,6.4,2.1C234.7,185.2,236,187.8,237.7,191.5z"/>
		<path class="st1" d="M581.7,86.9c7-1.2,12.9-0.6,18.8-0.4c11.6,0.3,23.2,0.5,34.8-0.1c4-0.1,8,0,11.9,0.5c3,0.3,4.7,2.6,7.5,4.9
			c-5.9,0.9-10.9,0.4-15.9,0.5c-14.8,0.1-29.5,0.2-44.3,0.7C589.1,93.1,586.1,90.1,581.7,86.9z"/>
		<path class="st1" d="M572.2,74.1c15.2,0,29.9-0.4,44.5,0.2c6.6,0.3,12.7,3.4,18.9,6.6c-1.1,0.1-2.3,0.2-3.4,0.2
			c-13.6,0.1-27.3,0.2-40.9,0.1c-3.3,0-6.6,0.6-9.9,0.5C576.1,81.7,574,78.8,572.2,74.1z"/>
		<path class="st2" d="M512.9,98.1c3.7-0.2,7.4-0.8,11.1-0.7c14.1,0.5,28.2,0.4,42.3,0.5c5.6,0,5.7,0.3,7.7,6.3
			c-1.4,1.1-3.2,0.7-4.7,0.7c-11.8,0.1-23.6,0.4-35.3-0.1C526.5,104.6,519.7,101.3,512.9,98.1z"/>
		<path class="st5" d="M137.9,108c-19.3,0.7-38.6-0.4-57.9,0c3.8-2.5,8.3,0.1,12.7-1.6C89.8,102.9,85,102,83,98l10,0
			c0.3,0.8,0.9,1.4,1.6,1.8c12.8,6.2,25.9,7.2,39.3,2.1c2.2-0.8,4.9-1.2,6-3.9l13,0c0.1,1.2-0.5,2.3-1.5,2.9
			c-4,2.4-7.1,6.6-12.4,6.7L137.9,108z"/>
		<path class="st2" d="M242.5,47.6c3.4-7.9,9-10.4,17.1-9.7c8.2,0.8,16.6,0.2,25,0.2c-3,7.7-6.2,10-13.8,9.9c-8.5-0.1-17,0-25.5,0
			C244.4,47.9,243.2,48.3,242.5,47.6z"/>
		<path class="st2" d="M295.3,26.1c-2.7,3.4-4.6,5.8-6.5,8.3c-0.7,1-1.8,1.5-3,1.5c-11.2,0-22.4,0-34.4,0c2.6-3.3,4.7-6,6.8-8.7
			c1-1.2,2.3-1.1,3.6-1.1C272.6,26.1,283.3,26.1,295.3,26.1z"/>
		<path class="st1" d="M275.7,49.8c-1.8,3.5-4,5.5-5.8,7.9c-1.9,2.6-4.9,1.9-7.3,2c-9.8,0.3-19.5,0.1-29.4,0.1
			c2.1-6.8,6.1-10,12.5-10C255.6,49.8,265.3,49.8,275.7,49.8z"/>
		<path class="st4" d="M581.3,187.9c0,5.2,0,9.1,0,13c0,1.7-0.2,2.8-2.4,2.8c-2.2,0-2.9-0.7-2.9-2.9c0.1-5.5,0-11,0.1-16.5
			c0-1.4-1-3.8,1.5-4c2.3-0.2,5-1.3,6.6,1.8c1.7,3.3,3.7,6.4,6.2,9.3c0-2.5,0-5.1,0-7.6c0-1.9-0.1-3.6,2.7-3.6
			c2.6,0,2.9,1.3,2.9,3.4c-0.1,5.5,0,11,0,16.5c0,1.4,0.6,3.3-1.7,3.5c-1.9,0.2-3.9,0.6-5.1-1.8c-1.6-3.3-3.5-6.4-5.3-9.6
			C583.3,191,582.6,190,581.3,187.9z"/>
		<path class="st6" d="M160.9,135.1c-0.7-1.3-1.9-1.1-3.1-1.1c-3,0-6,0-9,0c-5.1-0.1-10.1,0.7-14.8,2.5c-7.6,3.1-16.2,3.3-24.4,2.1
			c-3.1-0.5-6.4,0.2-9.2-1.6c-7.7-5-16.3-2.8-24.5-2.9c-18.1-0.3-36.2-0.1-54.4-0.1c-1.7,0-3.5,0.5-5-0.6l0-1.3H35
			c1.3,1.7,3.1,0.9,4.6,1c8.8,0.1,17.6,0,26.3,0c7.6-1.3,15.3-1,23-1c0.5,0.7,1.3,1.1,2.1,1c7-0.1,14.1,0,21.1-0.2
			c2.5-0.1,5.3,1.2,7.6-0.7l0.3,0.1c1.2,1.7,3,0.8,4.6,0.9c12.4,0.1,24.8,0.1,37.2,0.1C161.9,134,161.8,134.7,160.9,135.1z"/>
		<path class="st1" d="M235,121.3c4-1.2,7.7-0.7,11.5-0.6c6.6,0.2,13.3,0.1,19.9,0c3.4-0.1,6.1,0.7,7.9,3.9c1.2,1.8,2.5,3.5,4,5.1
			c-4.7,1.5-9.2,0.5-13.6,0.6c-5.8,0.2-11.6,0.3-17.4,0.6c-3.4,0.1-6.1-0.9-8-3.9C238.1,125,236.6,123.3,235,121.3z"/>
		<path class="st1" d="M244.8,133.3c4.6-1.7,8.8-0.6,12.9-0.6c6.3,0,12.6,0,18.9-0.2c3.2-0.2,6.3,1.5,7.7,4.3
			c0.9,1.6,2.6,2.6,3.2,4.4c-0.7,1.4-2,0.8-3.1,0.8c-9.1,0.1-18.3,0-27.4,0.3c-3.7,0.1-6.4-0.9-8.4-4.1
			C247.6,136.6,246.3,135.1,244.8,133.3z"/>
		<path class="st2" d="M500.1,21c19-9.2,38.1-8.8,57.3-0.2l0,1.2h-57.1L500.1,21z"/>
		<path class="st4" d="M315.8,203.1c-4.9,1.6-7.8-0.1-10.1-3.7c-1.1-1.7-2-3.8-4.6-4.4c-0.8,2.1-0.5,4.1-0.4,6c0.1,2.3-1,2.8-3,2.8
			c-2,0-3-0.4-3-2.7c0.1-6,0.1-12,0-18c0-2.2,0.8-2.9,2.9-2.8c3,0.2,6-0.2,9,0.2c6.3,0.9,8.6,6.8,4.2,11.3c-1.9,2-1.7,3-0.2,4.7
			C312.3,198.5,313.8,200.6,315.8,203.1z M300.6,188.2c0.2,0.9-0.7,2.8,1.8,2.6c2.1-0.1,4-0.6,4.1-3.2c0.1-2.5-1.7-2.8-3.6-2.9
			C300.5,184.5,300.5,186,300.6,188.2z"/>
		<path class="st0" d="M34,51H13.9v-1c4.3,0,8.5,0,12.8,0c1.7,0.1,3.3,0,4.9-0.3c4-1,6.4-5,5.4-9c-0.1-0.4-0.2-0.8-0.4-1.2
			c-0.5-1.1-1.7-0.7-2.7-1.8c5.1,0,4.7-4.2,5.7-7.2c0.7-2.2,0-3.3-2.6-3.5c-3-0.2-6.3,1.1-9.1-0.9l0,0c1.2,0,2.3,0,3.5,0
			c6.2,0.1,11.7-0.6,14.1-7.8c0.7-2.1,1.1-4.4,2.2-6.4C51.3,9.5,55.1,8,59,7.1c-3.9,6.8-6.7,14.4-13.5,19.2c0.6,0.9,1.6,0.6,2.5,0.7
			c-2.2,3.4-1.2,8.3-5.5,10.8c-0.7,0.4,0.8,1,1.5,1.2c-0.7,4.1,0.3,9-5,11C37.4,50.3,35.4,49.2,34,51L34,51z"/>
		<path class="st2" d="M439.1,34.6c3.6-8.4,3.6-8.4,12.5-8.1c7.6,0.3,15.2,0.3,22.8,0.1c0.5,0,1-0.2,1.5-0.3
			c4.9-0.3,5.9,0.4,5.8,4.2c0,3.5-1.4,4.5-6,4.1c-2.5-0.2-4.9-0.2-7.4-0.2C458.6,34.7,448.9,34.6,439.1,34.6z"/>
		<path class="st1" d="M663.9,104.1c-14.8,0-29.2,0.3-43.7-0.1c-6.3-0.2-12-3.2-17.9-6.1c5.7,0,11.3,0,17,0c12.1,0,24.3,0.3,36.4,0
			C660.1,97.8,662.5,99.3,663.9,104.1z"/>
		<path class="st7" d="M74.9,2.9c5.6-1.7,11.3-0.7,17-0.7c1.3,2.2-0.5,3-1.9,3.7c-6.6,3.7-11.8,9-16.9,14.3
			c-1.6,1.5-2.4,3.6-2.2,5.8h-3h-8c-0.1-3,1.6-5.3,3.2-7.7c2.6-3.9,6-7,9.3-10.3C73.9,6.6,75.4,5.2,74.9,2.9z"/>
		<path class="st6" d="M541,191.9c0-7.6,4-11.9,10.9-12c7.2-0.1,11.4,4.4,11.4,12c0,7.6-4.3,12.2-11.5,12.1
			C545,203.9,541,199.4,541,191.9z M557.3,191.7c-0.1-1-0.2-1.9-0.4-2.9c-0.7-2.6-2.2-4.7-5.1-4.5c-2.8,0.2-4.3,2.3-4.6,5.1
			c-0.2,1.6-0.2,3.3,0,4.9c0.4,3.3,2.4,5.4,4.9,5.2c3-0.2,4.2-2.3,4.9-4.8C557.2,193.7,557.3,192.7,557.3,191.7L557.3,191.7z"/>
		<path class="st6" d="M415.7,192.4c-0.1,7.4-4.3,11.7-11.3,11.7c-7-0.1-11.1-4.7-11-12.5c0.1-7.4,4.3-11.7,11.3-11.6
			C411.8,180,415.8,184.5,415.7,192.4z M409.7,192.3c0-1.2-0.2-2.5-0.4-3.7c-0.7-2.4-2.1-4.3-4.8-4.3c-2.7,0-4.2,1.9-4.8,4.3
			c-0.6,2.4-0.6,5,0.2,7.4c0.5,2,2.2,3.5,4.3,3.6c2.4,0.1,4-1.3,4.8-3.6C409.4,194.8,409.6,193.6,409.7,192.3z"/>
		<path class="st2" d="M589.7,22c12.7-9.9,43.8-9.7,56.2-0.8C627.2,22.6,608.8,21.7,589.7,22z"/>
		<path class="st8" d="M209.9,132.3c3.5,0,7,0.1,10.4,0c2.4-0.1,3.9,0.7,3.4,3.4c0,0.2,0,0.3,0,0.5c0.2,6.8,0.1,6.8-6.7,6.7
			c-6-0.1-11.9-0.1-17.9,0.1c-2.8,0.1-3.7-0.9-3.7-3.8c0-7.2-0.1-7.3,6.9-7C205,132.2,207.5,132.2,209.9,132.3L209.9,132.3z"/>
		<path class="st9" d="M71,26c-0.3-2.2,0.5-4.3,2.2-5.8c5.2-5.4,10.3-10.7,16.9-14.3c1.3-0.7,3.2-1.5,1.9-3.7c6.3-0.6,12.1,1.5,18,3
			c0.6,1.1,0.5,1.5-1,1.9c-7.6,1.8-15,4.4-21.2,9.2C84.5,18.8,80.3,21,80,26h-3L71,26z"/>
		<path class="st4" d="M272.7,199.1c-2.8-0.3-4.6-0.2-5.2,2.8c-0.6,2.7-3.2,2.1-5,1.5c-1.8-0.6-0.5-2.3-0.2-3.4
			c1.9-5.7,3.8-11.3,5.6-17c0.6-2,1.6-2.9,3.9-2.8c2.2,0.1,3.7,0.3,4.5,2.8c1.7,5.7,3.8,11.3,5.6,17c0.4,1.2,2,3-0.4,3.5
			c-1.7,0.4-4.2,1.1-4.9-1.8C276,199.4,274.8,198.1,272.7,199.1z"/>
		<path class="st4" d="M455.5,189.1c0-1.8,0.1-3.7,0-5.5c-0.1-2.1,0.1-3.4,2.8-3.5c3-0.1,3.2,1.4,3.1,3.6c-0.1,3.5,0,7,0,10.5
			c0,2.7,0.5,5.2,4,5.1c3.5-0.1,3.8-2.7,3.8-5.3c0-3.7,0.1-7.3,0-11c-0.1-2.1,0.6-3,2.9-2.9c1.9,0.1,3.2,0.3,3.2,2.7
			c-0.1,4.3,0.2,8.7-0.2,13c-0.5,5.8-4,8.4-10.3,8.2c-5.9-0.2-8.9-3.1-9.2-8.9C455.5,193.1,455.6,191.1,455.5,189.1z"/>
		<path class="st1" d="M210.1,144.1c3.5,0,7,0.1,10.5,0c2.7-0.1,3.3,1,3.4,3.5c0.1,6.9-0.5,7.6-7.4,6.9c-5.2-0.5-10.3,0.3-15.4,0.3
			c-1.7,0-4.3,0.8-5-1c-1-2.8-0.7-5.9-0.1-8.8c0.2-1.1,1.7-0.8,2.6-0.8C202.4,144.1,206.2,144.1,210.1,144.1L210.1,144.1z"/>
		<path class="st2" d="M596.5,128.2h-49c3.3-7.3,3.3-7.2,10.6-7c5.1,0.1,10.3,0,15.4-0.1c3.2-0.1,5.6,0.5,4.8,4.9
			c3.7-1.3,6.9-2.5,10.2-3.7c4.5-1.6,4.8-1.5,6.8,2.7C595.8,125.8,596.7,126.5,596.5,128.2z"/>
		<path class="st1" d="M220.9,37.8c1.4,0.2,2.8-0.1,3,2.2c0.8,7.5,0.5,7.9-7.2,8c-4.6,0-9.2,0.1-13.8,0.1l-7.1,0c-2-2.8-0.9-6-0.8-9
			c0.1-2,2.5-0.7,3.7-1.3C206.1,38.2,213.5,38.2,220.9,37.8z"/>
		<path class="st10" d="M173.6,95c-1.2,1.9-3,0.9-4.4,0.9C157.1,96,145,96,132.9,96c-14.7,1.9-29.3-0.6-44,0c2.1-2,4.7-0.6,7-1h12.1
			c-4-2.4-8.3-4.4-12.7-6c-1.5-0.6-3.3-0.8-3.4-3l3.2,0.1c0.9,1.7,2.6,0.5,3.9,1.1c4.3,2.1,9,1.1,13.3,2.1c7.5,1.6,14.5,0,21.5-2
			l10,0c-7.2,0.3-12.4,5.9-19.3,6.8l0.2,1h13.2l10,0l10,0L173.6,95z"/>
		<path class="st1" d="M446.7,74c-0.6,1.2-1,1.8-1.2,2.4c-2.3,5.8-6.8,6.8-12.4,6.1c-5.1-0.5-10.3-0.4-15.4,0.2
			c-2.8,0.2-5.7,0.2-8.5-0.1c1.5-6.3,3.8-8.6,9.5-9.1c0.5-0.1,1-0.1,1.5-0.1C428.7,74.5,437.4,73.3,446.7,74z"/>
		<path class="st1" d="M209.2,130.9c-3.7,0-7.3-0.1-11,0c-1.9,0-2.8-0.7-2.6-2.6c0-0.2,0-0.3,0-0.5c-0.4-7.3,0.3-7.9,7.6-7.2
			c4.5,0.4,9,0.4,13.4-0.1c1.7-0.2,3.3,0.3,4.9,0.3c1.8,0,2.3,0.8,2.2,2.5c0,0.3,0,0.7,0,1c0.2,6.8,0.2,6.8-6.6,6.7
			C214.5,130.9,211.9,130.9,209.2,130.9L209.2,130.9z"/>
		<path class="st2" d="M555.1,156.9c-14.5,10.1-42.3,8.8-54.3,0C518.9,156,536.7,157,555.1,156.9z"/>
		<path class="st11" d="M88.9,96c14.7-0.6,29.3,1.9,44,0c1.1,1.9,3,1,4.5,1c10.9,0.1,21.8,0,32.7,0c3.9,0,3.9,0.1,2.8,4.1
			c0.1-2.2-0.7-3.3-3.2-3.2c-4.6,0.2-9.2,0.1-13.8,0.1l-3,0l-13,0c-2.1,0.2-4.2-0.4-6.3,0.7c-10.9,6.1-22.1,4.9-33.1,0.7
			c-2.4-0.9-4.9-1.4-7.5-1.5l-10,0l-13,0c-0.3,0-0.7,0-1,0l0-2l4,0l6,0L88.9,96z"/>
		<path class="st4" d="M195.6,197c2.1,0.6,3.8,2,5.9,2.4c1.3,0.3,2.6,0.3,3.9-0.1c1-0.3,1.9-0.8,2.1-1.9c0.1-1.2-0.8-1.8-1.8-2.1
			c-1.6-0.5-3.2-0.8-4.8-1.3c-3.9-1.3-5.7-3.3-5.6-6.6c0-3.2,1.9-5.6,5.6-6.8c2.2-0.7,4.6-0.8,6.9-0.4c5,0.5,5.2,1,4.6,6.4
			c-2.4-0.8-4.4-2.4-7-2.3c-1.5,0.1-3.2,0.2-3.6,2c-0.5,2.1,1.5,2.3,2.8,2.7c1.6,0.5,3.2,0.8,4.8,1.3c2.5,0.7,4.2,2.9,4.4,5.5
			c0.3,2.7-1.1,5.4-3.5,6.7c-4.4,2.5-9,2-13.5,0.4C194.8,202.1,194.8,201.6,195.6,197z"/>
		<path class="st2" d="M311.7,83.3c-3.6,0-7.3-0.1-10.9,0c-2.5,0.1-3.3-0.9-3.4-3.5c-0.1-6.7,0.1-6.9,6.7-6.7
			c5.8,0.1,11.6,0.1,17.4,0c3.1-0.1,4.3,0.9,4.2,4.3c-0.2,5.7,0,5.7-5.6,5.7c-1.5,0-3-0.1-4.5-0.1c-1.3,0-2.7,0-4,0L311.7,83.3z"/>
		<path class="st4" d="M626,186.6c-2.7-1-5-2.7-7.8-2.4c-1.3,0.2-2.8,0.4-3.1,2c-0.4,1.8,1.2,2.2,2.4,2.6c1.7,0.6,3.6,0.9,5.3,1.5
			c2.5,0.7,4.2,2.9,4.3,5.5c0.3,2.6-1,5-3.2,6.4c-4.5,2.8-9.3,2.3-13.9,0.6c-2.5-0.9-1.4-3.3-1.3-5.2c1.4-0.9,2.2,0.5,3.2,0.8
			c2,0.8,4,1.6,6.2,1.2c1.3-0.3,2.8-0.6,2.8-2.3c0-1.3-1.2-1.9-2.4-2.2c-1.6-0.4-3.2-0.7-4.8-1.3c-2.9-1-4.9-2.9-5-6.1
			c-0.1-3.4,1.7-5.5,4.7-6.9c2.6-1.1,5.2-1,7.8-0.7C626,180.6,626.2,181,626,186.6z"/>
		<path class="st4" d="M364.2,196.9c2.3,0.8,4.1,2.2,6.2,2.5c1.3,0.3,2.6,0.3,3.9-0.1c1-0.3,1.9-0.8,2-1.9c0.1-1.2-0.9-1.8-1.8-2.1
			c-1.7-0.6-3.6-0.8-5.3-1.4c-3.1-1-5.1-3-5.1-6.5c0-3.5,2-5.4,5.1-6.6c2.4-0.8,4.9-1,7.4-0.6c5,0.5,5.2,0.9,4.6,6.4
			c-2.4-0.8-4.4-2.4-7-2.3c-1.5,0-3.2,0.2-3.7,1.9c-0.5,2.1,1.4,2.3,2.7,2.8c1.6,0.6,3.2,0.8,4.8,1.3c2.5,0.9,4.2,2.6,4.4,5.5
			c0.3,2.7-1,5.4-3.5,6.7c-4.4,2.5-9,2.1-13.5,0.4C362.8,201.7,363.9,199.3,364.2,196.9z"/>
		<path class="st1" d="M223.7,50.1c0.3,9.8,0.3,9.8-9.7,9.8c-5.1,0-10.2,0-15.3,0.1c-2.3,0.1-3.3-0.7-3.1-3.1
			c0.2-2.3,0.2-4.6,0.2-6.9L223.7,50.1z"/>
		<path class="st2" d="M195.9,26c7.7,0,15.5,0,23.2,0c4.6,0,4.6,0,4.7,4.5c0,1.8,0,3.6-0.1,5.4c-7.5,0.1-15,0.2-22.4,0.4
			c-5.6,0.1-5.6,0.1-5.6-5.7C195.7,29,195.9,27.5,195.9,26z"/>
		<path class="st2" d="M311.7,26.1c3.2,0,6.3,0,9.5,0c4.5,0.1,4.5,0.1,4.5,4.9c0,0.5,0,1,0,1.5c0.3,2.4-1,3.3-3.2,3.3
			c-7.5,0-14.9,0-22.4,0.1c-1.9,0-2.8-0.8-2.6-2.7c0-0.3,0-0.7,0-1c-0.2-6.1-0.2-6.2,5.8-6.1c1.5,0,3,0.1,4.5,0.1
			C309.1,26.2,310.4,26.2,311.7,26.1L311.7,26.1z"/>
		<path class="st1" d="M591.1,157.1h53C626.5,166.6,608.9,166,591.1,157.1z"/>
		<path class="st12" d="M125.9,11.9c7.2,2.8,13.6,7.3,18.8,13l-3.9,0c-1.4-1.5-3.6-1-5.3-2.3c-6-4.8-13.5-4.6-20.6-5.6
			c-2.3-0.3-3.5,2-5.5,1.7c-6.2-1-10.5,2.4-14.5,6.3l-7,0c5.3-7.7,13.7-9.7,21.9-11.9c4.3-1.2,8.7-1.7,13.1-0.1
			C124.1,13.5,125.4,13,125.9,11.9z"/>
		<path class="st0" d="M74.9,2.9c0.5,2.3-1,3.7-2.4,5.1c-3.3,3.3-6.7,6.4-9.3,10.3C61.6,20.7,59.9,23,60,26h-2
			c-3.3,0.8-6.6,1.1-10,1c-0.9-0.1-2,0.2-2.5-0.7c6.9-4.8,9.6-12.4,13.5-19.2C64,4.5,69.5,3.8,74.9,2.9z"/>
		<path class="st2" d="M438.5,86.1c-2.9,7.6-3.3,7.9-9.9,7.9c-8.9,0-17.8,0-27,0c0.5-2.6,2.1-4.1,3.1-6c0.8-1.5,2-2,3.6-2
			C418.2,86.1,428.1,86.1,438.5,86.1z"/>
		<path class="st13" d="M125.9,11.9c-0.6,1.1-1.9,1.6-3,1c-4.4-1.6-8.8-1-13.1,0.1C101.7,15.3,93.2,17.3,88,25c-1.4,0.2-3-0.6-4,1
			l-4,0c0.3-5.1,4.5-7.2,7.7-9.7c6.2-4.8,13.6-7.4,21.2-9.2c1.5-0.4,1.6-0.8,1-1.9C115.6,6.7,121.2,8.3,125.9,11.9z"/>
		<path class="st14" d="M168.5,119h-33.9c0.2-2.3,2-2.4,3.2-2.8c2.3-0.7,4.7-1.4,6.3-2.9c3.9-3.6,8.4-3.3,13-3.2c3.5,0,7,0,10.5,0
			c1.3,0,2.7-0.2,3.5,1.3C170.8,114.1,170,116.7,168.5,119z"/>
		<path class="st2" d="M311.8,97.1c3.6,0,7.3,0.1,10.9,0c2.4-0.1,3.3,0.9,3,3.2c-0.1,1.2-0.1,2.3,0,3.5c0.1,1.6-0.5,2.4-2.2,2.4
			c-1.6,0-3.2,0.4-4.9,0.3c-4.6-0.5-9.2-0.4-13.8,0.1c-6.4,0.8-7.6-0.3-7.3-6.6c0.1-2.1,0.7-3,2.9-2.9
			C304.2,97.2,308,97.1,311.8,97.1L311.8,97.1z"/>
		<path class="st1" d="M311.5,38.1c3.6,0,7.3,0.1,10.9,0c2.2-0.1,3.2,0.4,3.3,3c0.2,5.9-0.6,6.9-6.5,6.5c-5.3-0.4-10.6-0.4-15.8,0.2
			c-5.4,0.5-8-3.5-5.8-8.5c0.7-1.5,1.9-1.1,3-1.1c1.8-0.1,3.6,0,5.5,0S309.7,38.1,311.5,38.1z"/>
		<path class="st1" d="M311.6,130.1c-2.8,0-5.6,0-8.5,0c-6,0-6.1-0.3-5.7-6.6c0.1-1.9,0.6-2.7,2.6-2.7c7.8,0.1,15.6,0.1,23.4,0.1
			c1.8,0,2.3,0.9,2.2,2.5c-0.1,1.3-0.1,2.7,0,4c0.1,1.9-0.7,2.7-2.6,2.6c-3.8-0.1-7.6,0-11.5,0L311.6,130.1z"/>
		<path class="st1" d="M311.7,59.2c-2.8,0-5.6,0-8.5,0c-5.9,0-6.1-0.4-5.7-6.6c0.1-1.8,0.6-2.7,2.6-2.7c7.8,0.1,15.6,0.1,23.4,0
			c1.8,0,2.3,0.9,2.2,2.5c-0.1,1.3-0.1,2.7,0,4c0.1,1.9-0.6,2.7-2.6,2.6c-3.8-0.1-7.6,0-11.5,0L311.7,59.2z"/>
		<path class="st1" d="M311.2,109c3.8,0,7.6,0.1,11.5,0c2.4-0.1,3.4,0.8,3.1,3.1c-0.1,1.2-0.1,2.3,0,3.5c0.1,1.6-0.4,2.5-2.2,2.5
			c-7.8,0-15.6,0-23.4,0.1c-2,0-2.6-0.8-2.5-2.7c0.1-1.3,0.1-2.7,0-4c-0.1-2,0.8-2.6,2.7-2.5C303.8,109.1,307.5,109,311.2,109
			L311.2,109z"/>
		<path class="st1" d="M311.7,61.9c3.6,0,7.3,0.1,10.9,0c2.3-0.1,3.1,0.7,3.2,3.1c0.1,5.8,0.1,6.1-5.8,6c-6.3,0-12.6-0.1-18.9,0.1
			c-2.8,0.1-3.6-0.9-3.6-3.7c0.1-5.6-0.1-5.7,5.8-5.6c2.8,0,5.6,0,8.4,0L311.7,61.9z"/>
		<path class="st2" d="M311.9,86c3.7,0,7.3,0.1,11,0c2.2-0.1,3.2,0.8,2.8,2.9c-0.4,2.1,1.7,5.7-2.5,5.8c-7.8,0.3-15.6,0.1-23.4,0.2
			c-1.4,0-2-0.6-2.2-2.1c-1-5.8-0.1-6.9,5.9-6.9C306.2,85.9,309.1,85.9,311.9,86L311.9,86z"/>
		<path class="st1" d="M210.3,15.9c3.7,0,7.3,0.1,11,0c1.9,0,2.9,0.7,2.5,2.6c-0.4,2,1.6,4.7-1.8,5.8c-3.3,1.1-6.6-0.2-9.9,0.1
			c-4.5,0.4-8.9,0.3-13.4,0.4c-4.3,0.1-2.7-3.2-3-5.3c-0.3-2.3,0.3-3.8,3.2-3.6C202.6,16.1,206.4,15.9,210.3,15.9z"/>
		<path class="st2" d="M446.7,22.8c2.4-6.8,2.5-6.9,8.6-6.9c7.6,0,15.3,0,22.9,0c1.9,0,3.7-0.1,3.6,2.7c-0.1,2.3,0.1,4.3-3.2,4.3
			C468,22.8,457.4,22.8,446.7,22.8z"/>
		<path class="st2" d="M467.3,152.8c-3.8,0-7.6,0-11.5,0c-3.5,0-2.2-2.6-2.4-4.3c-0.1-1.7-0.6-3.8,2.4-3.7c7.6,0.1,15.3,0.1,23,0
			c3.2-0.1,2.8,1.9,2.9,4c0,2.1,0.1,4.1-2.9,4C475,152.7,471.2,152.8,467.3,152.8L467.3,152.8z"/>
		<path class="st1" d="M481.4,74.3c0,0.3,0,0.6,0.1,0.9c0.5,8.3,0.5,6.6-6.2,6.8c-6.1,0.2-12.3-0.1-18.4,0.2
			c-3.5,0.1-3.6-1.8-3.5-4.4c0.1-2.2-0.3-4.4,3.1-4.1C464.8,74.3,473.1,73.3,481.4,74.3z"/>
		<path class="st8" d="M604.4,69c-11.2,0-21.4-0.1-31.6,0.1c-3.5,0.1-3.5-2.1-3.7-4.5c-0.3-3.2,2.2-2.4,3.8-2.4
			c7.1-0.1,14.2-0.1,21.3,0C597.4,62.2,597.4,62.3,604.4,69z"/>
		<path class="st8" d="M467.2,86.1c3.8,0,7.6,0.1,11.4,0c2.4-0.1,3.2,0.9,3.1,3.2c-0.1,2,0.2,3.8-2.7,4.3c-2.5,0.4-4.9-0.2-7.4,0
			c-5.1,0.3-10.2,0.1-15.4,0.3c-3.6,0.1-2.7-2.4-2.9-4.4c-0.2-2.1,0.3-3.5,2.9-3.3C459.9,86.3,463.6,86.1,467.2,86.1z"/>
		<path class="st8" d="M543.4,110.1c7.3-1.7,14.2-0.1,21.1-0.4c3.3-0.1,6.5-0.6,9.9-0.2c3.5,0.4,3.3,2.9,3.6,4.9
			c0.4,2.8-2.5,2.1-3.6,2.1c-7.6-0.5-15.2,0.6-22.8,0.2c-1.4-0.1-2.6-0.4-3.4-1.7C547.2,113.2,545.2,112.2,543.4,110.1z"/>
		<path class="st15" d="M334.6,180.2c2.5,0,5,0,7.5,0c1.7,0,2.3,0.8,2.3,2.5c0,1.8-0.9,2.1-2.5,2.3c-4.4,0.4-4.4,0.5-4.4,5.1
			c0,3.3-0.1,6.7,0,10c0.1,2.4-0.4,3.7-3.2,3.7c-2.8,0-2.9-1.4-2.8-3.5c0.1-3.8-0.2-7.7,0.1-11.5c0.2-3-0.6-4.4-3.8-4
			c-1.1,0.1-2.9,0.6-3.1-1.4c-0.2-1.8-0.2-3.4,2.4-3.2C329.6,180.3,332.1,180.2,334.6,180.2z"/>
		<path class="st16" d="M98,75l36.9,0.1C126.8,84.8,108.2,86.7,98,75z"/>
		<path class="st7" d="M495.9,180.2c2.7,0,5.3,0,8,0c1.8,0,2.2,1,2.2,2.6c0,1.4-0.7,2.3-2.1,2.1c-4.8-0.9-5,1.9-4.7,5.5
			c0.2,3.1-0.1,6.3,0.1,9.5c0.1,2.5-0.3,4-3.4,4c-3.4-0.1-2.5-2.4-2.6-4.2c-0.1-3.5-0.2-7,0-10.5c0.2-3-0.4-4.8-4-4.2
			c-1.9,0.3-3.2-0.2-3-2.6c0.1-1.4,0.6-2.1,2.1-2.1C490.9,180.2,493.4,180.2,495.9,180.2z"/>
		<path class="st17" d="M523.1,180.2c1.3,0,2.7,0,4,0c1,0,2.1,0.2,2.1,1.5c0,0.9,0.3,2.3-1,2.5c-2.7,0.4-2.2,2.4-2.3,4.2
			c0,2.3,0,4.7,0,7c0,1.8-0.5,3.7,2.2,4.2c1.2,0.2,1.1,1.5,1,2.5c-0.1,1.3-1,1.6-2.1,1.6c-2.8,0-5.7,0-8.5,0c-1,0-2.1-0.2-2.2-1.5
			c-0.1-1.2-0.3-2.5,1.4-2.7c2.1-0.2,2.1-1.7,2.1-3.2c0-2.5,0-5,0-7.5c0-1.9,0.6-4.1-2.5-4.5c-1.3-0.2-1-1.5-1-2.4
			c0-1.4,1-1.5,2.1-1.6C520.1,180.2,521.6,180.2,523.1,180.2z"/>
		<path class="st3" d="M74,120c8.9,0,17.8,0.4,26.6,0.8c8.3,0.4,16.7,0.4,25,0.2c1.5-0.2,2.9-0.5,4.3-0.9c0.4,1.3,1.6,1,2.5,1
			c11.5,0,23-0.1,34.5-0.1c1.2,0.7,1.1,1.5,0.1,2.4c-1.7-2.3-4.1-0.8-6.1-1.2l-12,0L85,122l-13,0c-1,0-2-0.1-3,0
			c-14,0.9-28-2.2-42-0.6c-0.8,0.1-0.9-0.8-1-1.4l0,0l16,0L74,120z"/>
		<path class="st8" d="M209.8,162.9c-3.8,0-7.6-0.1-11.5,0c-2.8,0.1-2.7-1.7-2.7-3.6c-0.1-2.1,0.2-3.4,2.9-3.4
			c7.5,0.2,14.9,0.2,22.4,0c2.6-0.1,3,1.1,3,3.3c0,2.2-0.1,3.9-3.1,3.7C217.1,162.7,213.4,162.9,209.8,162.9z"/>
		<path class="st14" d="M428.4,191.8c0-2.3-0.1-4.7,0-7c0.1-2.1-1-4.7,3.1-4.7c4.2,0.1,2.7,2.9,2.8,4.9c0.2,3.7,0.2,7.3,0,11
			c-0.1,2.5,0.8,3.3,3.1,3c1.5-0.2,3,0,4.5,0c1.5,0,2,0.8,2,2.2c0,1.3-0.3,2.4-1.8,2.4c-4,0.1-8,0-12,0c-1.6,0-1.8-1.1-1.8-2.4
			C428.4,198.1,428.4,194.9,428.4,191.8z"/>
		<path class="st18" d="M467.2,162.9c-3.6,0-7.3,0-10.9,0c-1.7,0-3-0.3-2.8-2.4c0.1-1.7-0.7-3.7,2.3-3.9c7.9-0.6,15.9-0.6,23.8,0.1
			c2.6,0.2,2.2,1.9,2.3,3.5c0.1,1.9-0.7,2.7-2.6,2.7C475.1,162.8,471.2,162.9,467.2,162.9z"/>
		<path class="st2" d="M667.7,116c-9.3,0-18.5,0.2-27.8-0.1c-3-0.1-3.7-3.9-6.7-5.1c1.3-1.2,2.5-0.9,3.5-0.9
			c8.4,0,16.9-0.1,25.3-0.1C667,109.9,667,109.9,667.7,116z"/>
		<path class="st4" d="M155.9,98c4.6,0,9.2,0.1,13.8-0.1c2.5-0.1,3.3,1,3.2,3.2c0,2,0.4,4.1-1.2,5.8h-24.2
			C150.4,103,154.4,101.7,155.9,98z"/>
		<path class="st2" d="M598,51.3c-1.4,6-1.4,6-7.2,6c-5.6-0.2-11.3-0.1-16.9,0.3c-4.9,0.5-6.1-1.1-5.1-5c0.4-1.5,0.9-2.2,2.6-2.2
			c5.1,0.2,10.2,0.2,15.4,0.3C590.5,50.8,594.1,49.4,598,51.3z"/>
		<path class="st19" d="M683.1,12.8c0.1,7.1-5.6,13.1-12.7,13.2c0,0,0,0,0,0c-7.1-0.1-12.9-5.7-13.2-12.8c-0.1-7.2,5.6-13,12.8-13.1
			C677.2-0.1,683,5.6,683.1,12.8L683.1,12.8z M670.3,23.2c5.7,0,10.6-4.8,10.6-10.3c0-5.6-5.5-11-11-10.7
			c-5.2,0.3-10.4,4.8-10.1,10.8C660.2,19.1,664.2,23.3,670.3,23.2z"/>
		<path class="st20" d="M637.6,127.9c2.7-7,3.1-7.1,9.9-6.4c4.4,0.4,8.9,0.4,13.4,0c1.6-0.1,3.3-0.1,4.9,0.2
			c1.5,0.2,2.6,0.5,2.3,2.3c-0.2,1.6,0,3.5-2.3,3.7c-0.8,0.1-1.6,0.2-2.5,0.2C654.9,127.9,646.5,127.9,637.6,127.9z"/>
		<path class="st5" d="M172.5,76c1.1,2.9,1.5,5.9,1.2,9c-5.6,0.3-11.3,0.2-16.9,0c-0.8-1.4-1.3-2.7-0.1-4.4c1.2-1.7,2.2-3.5,3.1-5.4
			C164.1,75.4,168.4,74.1,172.5,76z"/>
		<path class="st21" d="M156.9,84.9c5.6,0.3,11.3,0.3,16.9,0l0,2.2l-8.9,0.1l-9,0l-7,0l-5,0l-10,0L99,87.1c-1.2-0.6-2.9,0.6-3.9-1.1
			c0.3,0,0.6-0.1,0.8-0.2l6,0l7,0c3-0.9,6.1-0.8,9.2-0.8c3.9,0,7.9-0.1,11.8-0.2l7.9,0l6,0l7,0C152.9,85.2,154.9,85.2,156.9,84.9z"
			/>
		<path class="st22" d="M130,84.9c-3.9,0.1-7.9,0.1-11.8,0.2c-3.1,0-6.2-0.1-9.2,0.8c0.1-1.9-1.6-1.7-2.7-2.2
			c-4.4-2.1-8.9-4.1-11.2-8.9L98,75c10.3,11.7,28.8,9.9,36.9,0.1c1.6-0.3,3.3-0.3,5-0.1C137.3,79,133.3,81.6,130,84.9z"/>
		<path class="st18" d="M478.4,128.8c0.8-1.1,2.1-0.7,3.2-0.9c5.5-0.6,10.3-3.4,15.5-5.1c6.3-2.1,6.2-2.2,9.6,3.6
			c0.3,0.6,0.6,1.1,1.3,2.2C497.8,129.3,488.1,128.9,478.4,128.8z"/>
		<path class="st14" d="M47.9,11.8c-1.1,2-1.5,4.3-2.2,6.4c-2.5,7.2-8,7.9-14.1,7.8c-1.2,0-2.3,0-3.5,0
			C33.8,20.1,40.5,15.3,47.9,11.8z"/>
		<path class="st23" d="M128,71.9l-20.1,0c-1.9-3.3-5.8-5-6.9-9l2.9,0.1c2,2.4,3.7,5,6.9,6.1c7.7,2.7,12.1,1.2,18.1-6.1l6,0
			C133.1,66.4,130.2,68.9,128,71.9z"/>
		<path class="st24" d="M167.9,62.7c3.8,1.6,3.3,5.3,3.8,8.3c0.3,1.7-1.5,1.4-2.5,1.4c-3.8,0-7.6-0.1-11.4-0.2
			c0.4-3.1,2.5-5.9,2-9.2l2.9-0.3C164.4,63.2,166.2,63.2,167.9,62.7z"/>
		<path class="st25" d="M145,26.8c5.7,1.1,7.9,5.9,10.8,10.1l-9.9,0c-2.5-3.7-6.2-6.2-8.9-9.7L145,26.8z"/>
		<path class="st7" d="M164.8,87.2l8.9-0.1c0.2,2.6,0.2,5.3-0.1,7.9L157.9,95C159.2,91.5,162,89.3,164.8,87.2z"/>
		<path class="st26" d="M130,84.9c3.3-3.3,7.4-5.8,9.9-9.9c10-1.2,20-0.6,30-0.8c1.2,0,2.8-0.4,2.6,1.8c-4.1-1.9-8.4-0.6-12.7-0.8
			l-4,0l-5,0c-1.9,0-4.3-1-5.5,1.2c-1.9,3.4-5.4,5.3-7.5,8.6L130,84.9z"/>
		<path class="st4" d="M160.9,122c2,0.4,4.5-1.1,6.1,1.2c-0.6,2.9-1.9,5.6-3.8,7.8l-13.3-0.1c0.8-2.9,3.5-3.6,5.7-4.8
			C157.6,125.1,159.8,124.3,160.9,122z"/>
		<path class="st27" d="M168.1,58.7c1,0.9,0.9,1.7-0.2,2.5l-20-0.3c-2.1-0.9-3.5-2.1-3.1-4.7c0.2-1.6,0.2-3.3,0.1-4.9l5.9,0
			c-0.1,8.9-0.1,8.9,9,8.9C162.6,59.5,165.7,61.2,168.1,58.7z"/>
		<path class="st6" d="M153,146.1L82,146c1.7-1.9,4.1-1.3,6-1.3c11.1-0.1,22.2,0.1,33.3,0.3c1.6,0,3.3-0.3,4.8-1
			c1.2,1.8,3,0.9,4.5,0.9c7.7,0.2,15.5,0.2,23.2,0.2C153.8,145.7,153.6,146.1,153,146.1z"/>
		<path class="st12" d="M156,38.8c4.3,1.6,5.6,5.2,6.2,9.3c-1.5,1.8-3.5,0.8-5.4,0.8c-0.4-0.8-1.2-0.9-2-0.9c-0.3-3.2-2.3-5.8-3-8.9
			L156,38.8z"/>
		<path class="st8" d="M95,74.7c2.3,4.8,6.7,6.8,11.2,8.9c1.1,0.5,2.8,0.3,2.7,2.2l-7,0c-0.1-0.8-0.5-1.5-1.2-2
			c-2.5-2.1-5.8-3.4-7.5-6.3C91.6,75,89.5,74.8,87,75l-1-1c1-0.4,1.8-1.1,3-1l2,0l2.8,0l0.3,0C93.8,73.9,94.8,74.1,95,74.7z"/>
		<path class="st28" d="M168.1,58.7c-2.4,2.6-5.5,0.8-8.2,1.3c0-3,0-6,0-9l5,0C166.3,53.4,167.4,56,168.1,58.7z"/>
		<path class="st5" d="M155.9,98c-1.5,3.6-5.5,5-8.3,8.9h24.2c-0.5,0.9-1.3,0.8-2.1,0.8c-10.2,0-20.4-0.1-30.6-0.1
			c5.2-0.1,8.3-4.3,12.4-6.7c1-0.6,1.6-1.7,1.5-2.9L155.9,98z"/>
		<path class="st29" d="M156.8,48.9c1.8,0,3.8,1,5.4-0.8c0.7,0.5,0.7,1.2,0.7,1.9c-6.5,0-13,0-19.4,0.2c-1.5,0-3.4-0.8-4.5,1.1
			c-0.7,1.2-1.8,2.2-3.1,2.8c0-1.4,0.3-3-2-2.9c-2.3-0.2-1.9,1.6-2.1,2.9l-2-1c-0.1-1.8,0.3-3.1,2.5-3c1.2,0,2.6,0.4,3.5-0.9l4-0.3
			l3,0l2,0l3,0L156.8,48.9z"/>
		<path class="st30" d="M128,71.9c2.2-3.1,5.2-5.5,6.9-8.9l0-0.1l4,0.2c-1.1,3.2-2.8,6.2-5,8.8L128,71.9z"/>
		<path class="st26" d="M147.9,72.1c-1.8,0.1-3.6,0.9-5.1-0.8l3.2-7.2c1.4-1.2,3.3-1.6,5-1.1C150.8,66.3,148.7,69,147.9,72.1z"/>
		<path class="st31" d="M159.9,62.9c0.5,3.3-1.6,6.1-2,9.2c-1.6,0.4-3.4,0.4-5,0c1.2-2.9,1.9-6,2-9.2
			C156.5,62.6,158.2,62.6,159.9,62.9z"/>
		<path class="st32" d="M100,72L94,73l-0.3,0c0.8-1.1,1.4-2.1,0.3-3.5c-1.9-2.5-2.2-5.4-2.1-8.5l1,0l2,0c0,0.3,0,0.6,0,0.8
			C95.1,66,97.9,68.9,100,72z"/>
		<path class="st33" d="M149.9,131l13.3,0.1l-1.2,1l-41.8,0l-0.3-0.1c2.9-2,6.1-0.6,9.1-1L149.9,131z"/>
		<path class="st34" d="M145,26.8l-8,0.4l-7,0l-8,0l-11.2,0l-7,0c-0.8-0.2-1.7-0.2-2.1-1.2l1-0.1l42.1,0.1
			C144.9,26.3,145,26.5,145,26.8z"/>
		<path class="st35" d="M144.9,26l-42.1-0.1c1.4-1.2,3.2-0.7,4.8-0.8c8.4-0.1,16.9-0.2,25.3-0.3l8,0l3.9,0L144.9,26z"/>
		<path class="st36" d="M101,63c1.1,3.9,5,5.7,6.9,9l-5,0c-1.9-3.2-5.5-5.4-5-9.8C99,62,100.2,61.8,101,63z"/>
		<path class="st37" d="M120.1,132.1l41.8,0l-0.1,1c-12.4,0-24.8,0-37.2-0.1C123.1,133,121.3,133.8,120.1,132.1z"/>
		<path class="st38" d="M154.9,62.9c-0.1,3.2-0.8,6.3-2,9.2c-1.6,0.3-3.3,0.3-5,0c0.9-3.1,3-5.7,3-9.1L154.9,62.9z"/>
		<path class="st39" d="M166.9,120.9c-11.5,0-23,0.1-34.5,0.1c-0.9,0-2,0.3-2.5-1l36.9,0C166.9,120.3,166.9,120.6,166.9,120.9z"/>
		<path class="st40" d="M133.9,71.9c2.2-2.6,3.9-5.6,5-8.8l3,0c0.3,3.4-2.8,5.7-3,8.9L133.9,71.9z"/>
		<path class="st41" d="M156,38.8l-4.1,0.4l-4,0l-4,0l-3.9,0.1c-0.7-0.2-1.8,0-2-1.2c0.3,0,0.6-0.1,0.9-0.2l3-1l4,0l9.9,0L156,38.8z
			"/>
		<path class="st42" d="M147.9,60.8l20,0.3l0,1.5c-1.7,0.5-3.5,0.5-5.1-0.1c-1.4-1.2-3.2-0.6-4.7-0.6c-6.1-0.1-12.1,0-18.2,0
			l0.1-1.1L147.9,60.8z"/>
		<path class="st43" d="M138.9,72c0.2-3.2,3.3-5.5,3-8.9c1.4-0.4,2.9,0,4,0.9l-3.2,7.2C141.7,72.1,140.2,72.4,138.9,72z"/>
		<path class="st44" d="M153.7,145.2c-7.7-0.1-15.5-0.1-23.2-0.2c-1.5,0-3.3,0.9-4.5-0.9l27.9,0L153.7,145.2z"/>
		<path class="st45" d="M97.9,62.2c-0.5,4.4,3.2,6.7,5,9.8l-3,0c-2.1-3.2-4.9-6-4.9-10.2L97.9,62.2z"/>
		<path class="st46" d="M139,51.1c1.2-1.8,3-1,4.5-1.1c6.5-0.1,13-0.1,19.4-0.2c0.8,0.2,1.6,0.3,1.9,1.2l-5,0c-3-0.3-6-0.2-9,0.1
			l-5.9,0L139,51.1z"/>
		<path class="st0" d="M58,108c-1.4-0.1-2.8,0.2-4,1l-2,0l-3,0c-0.2-1.7,3.1-2.7,0.7-5.1c-2.3-2.3-2.8-6.3-7.5-6
			c-7,0.4-14-0.1-21,0.2C15.4,98.3,9.8,96.4,4,96h34.1c5.8,1.9,12,0.7,17.9,2c-0.2,1.9,1.2,3.1,2.2,4.2
			C60.3,104.4,59.7,106.1,58,108z"/>
		<path class="st6" d="M74,120l-32,0c0-0.3,0-0.7,0-1h20.5c-1.5-3.9-5.9-5-6.5-9l10,0c2,4,6.9,5.1,9,9L74,120z"/>
		<path class="st0" d="M34.1,74l2,0l3,0c4.3,0.9,5.3,4.2,6.1,8c0.5,2.5-0.8,3-2.1,4l-4,1c-0.2-0.8-0.4-1.5-0.4-2.3
			c-0.4-7.8-2.4-9.6-10-9.7c-2.5-0.1-5.3,1-7.6-0.9L34.1,74z"/>
		<path class="st0" d="M39,74l-3,0c-1.1-3.6-0.4-7.5-2-11c1.4-0.2,3,0.6,4-1l4,0c0,0.3,0,0.7,0,1c1.1,3.6,1.7,7.3,2,11L39,74z"/>
		<path class="st0" d="M42,62l-4,0c-1.2-0.8-2.6-1.1-4-1l0-10l0,0l8,0l0,10C42,61.4,42,61.7,42,62z"/>
		<path class="st6" d="M49,109l3,0c-1.1,1.5-2.7,1-4.1,1c-11.6,0-23.2,0-34.8,0c-1.5,0-3.3,0.6-4.6-1.6C22.3,106.9,35.6,109,49,109z
			"/>
		<path class="st0" d="M39,87l4-1c0.4,0.9,1.2,1,2,1c1.9,2.8,3.6,5.8,5,9l-6,0C43.1,92.6,41.1,89.8,39,87z"/>
		<path class="st47" d="M44,96l6,0l12,0l7,0l0,2l-13,0c-5.9-1.3-12.1-0.1-17.9-2L44,96z"/>
		<path class="st6" d="M34,61c1.4-0.1,2.8,0.2,4,1c-1,1.6-2.6,0.8-4,1H11.9C19.2,61.4,26.6,60.7,34,61z"/>
		<path class="st0" d="M42,119c0,0.3,0,0.7,0,1l-16,0c0.1-2.3,1.6-2.7,3.6-3.1C34.1,116.2,37.9,118.4,42,119z"/>
		<path class="st4" d="M35.1,86.8H5.9v-0.5H35L35.1,86.8z"/>
		<path class="st4" d="M34.1,74l-13,0H6.9l0-0.9c8.7,0,17.4,0,26,0C33.3,73.2,33.7,73.7,34.1,74z"/>
		<path class="st0" d="M72,122l13,0c2.2,3,5.4,4.1,8.8,5c4.1,1.1,8.2,2.3,12.3,3.4c-3.6,0.6-7.1,0.4-10.5,0.6
			c-2.2,0.1-4.6-1-6.6,0.9c-7.7,0-15.3-0.3-23,1c-3.8-2.1-8-0.4-12-1c1.4-1.7,3.4-0.9,5.1-0.9c7.7-0.1,15.5,0,24.1,0
			c-2.7-3.6-6.3-4.1-8.8-6.2C73.4,124,71.9,123.7,72,122z"/>
		<path class="st48" d="M54,132c4,0.6,8.1-1.1,12,1c-8.8,0-17.6,0-26.3,0c-1.6,0-3.4,0.7-4.6-1L54,132z"/>
		<ellipse class="st4" cx="37" cy="144.5" rx="17.1" ry="0.3"/>
		<path class="st0" d="M75,119c-2.1-3.9-7-5-9-9c3.3,0,6.6,0,9.9,0c4.6-0.1,9-0.4,12.7,3.6c2.3,2.5,6.9,1.9,9.6,5.4L75,119z"/>
		<path class="st3" d="M70,98l13,0c2,4,6.8,4.9,9.7,8.4c-4.4,1.7-8.9-0.9-12.7,1.6l-11,0c1.4-2.2,4.2,0.1,5.8-2
			c-0.5-1.6-1.9-2.6-3-3.6C70.5,101.3,69.8,99.7,70,98z"/>
		<path class="st0" d="M70,98c-0.2,1.7,0.5,3.3,1.8,4.3c1.1,1.1,2.5,2.1,3,3.6c-1.6,2.1-4.4-0.1-5.8,2l-11,0
			c1.7-1.9,2.2-3.6,0.2-5.8c-1-1.1-2.4-2.3-2.2-4.2l13,0C69.3,98,69.7,98,70,98z"/>
		<path class="st47" d="M93,98c2.6,0,5.1,0.5,7.5,1.5c11,4.2,22.3,5.4,33.1-0.7c2.1-1.2,4.2-0.6,6.3-0.7c-1.1,2.7-3.8,3.1-6,3.9
			c-13.4,5.1-26.5,4-39.3-2.1C93.8,99.5,93.3,98.8,93,98z"/>
		<path class="st0" d="M89,132c2-2,4.4-0.8,6.6-0.9c3.5-0.2,6.9-0.1,10.5-0.6c-4.1-1.1-8.2-2.3-12.3-3.4c-3.4-0.9-6.6-2-8.8-5
			l63.9,0c-2.4,2.8-5.8,3.9-9.2,5.1c-3.6,1.3-7.7,1.2-10.8,3.9c-3,0.4-6.3-0.9-9.1,1c-2.4,2-5.1,0.6-7.6,0.7
			c-7,0.3-14.1,0.2-21.1,0.2C90.2,133.1,89.4,132.7,89,132z"/>
		<path class="st0" d="M48,27c3.4,0.1,6.7-0.2,10-1c-0.6,5-1.2,10-7,12c-2.2,1.4-4.6,0.9-7,1c-0.7-0.2-2.2-0.8-1.5-1.2
			C46.8,35.4,45.8,30.4,48,27z"/>
		<path class="st0" d="M44,39c2.4-0.1,4.8,0.4,7-1c0.7,1.3,1.9,0.9,3,1l-2,10c-4.3,0.5-8.6,1.4-13,1C44.3,48,43.4,43.1,44,39z"/>
		<path class="st47" d="M39,50c4.4,0.4,8.7-0.5,13-1c2.6,0.5,5.6-1.1,8,1c-1.7,1.9-4,0.6-6,1l-12,0l-8,0C35.4,49.2,37.4,50.3,39,50z
			"/>
		<path class="st3" d="M54,39c-1.1-0.1-2.3,0.3-3-1c5.8-2,6.4-7,7-12h2h8c0.2,2.1-0.3,4.2-1.5,6c-1.2,1.8-1.7,3.9-1.5,6h-1
			C60.8,39.2,57.4,39.1,54,39z"/>
		<path class="st9" d="M65,38c-0.2-2.1,0.3-4.2,1.5-6c1.2-1.8,1.7-3.9,1.5-6h3l6,0c0.1,1.3-0.9,2-1.4,3.1C74.3,32,71.3,34.3,72,38
			l-1,0L65,38z"/>
		<path class="st13" d="M72,38c-0.7-3.7,2.3-6,3.6-8.9c0.4-1,1.5-1.8,1.4-3.1h3l4,0l0,0c-0.2,2.1-1.4,3.6-2.6,5.2
			C80,32.9,78.3,34.6,78,37c-0.8,0-1.6,0.1-2,1c-0.3,0.1-0.6,0.1-0.8,0.1L72,38z"/>
		<path class="st49" d="M88.9,96l-10,0c1.7-2.1,4.4-0.1,6.6-1.6c-1.4-2-3.2-3.7-5.1-5.1c-1.3-0.9-2.5-1.5-2.5-3.3l5,0h2
			c0,1.1,0.7,1.5,1.6,2.1c3.3,1.9,7.1,3.4,9.3,6.9C93.6,95.4,91,94.1,88.9,96z"/>
		<path class="st50" d="M95.9,95c-2.3-3.5-6-4.9-9.3-6.9c-1-0.6-1.6-1-1.6-2.1l5,0h2c0.1,2.2,1.9,2.4,3.4,3c4.4,1.6,8.7,3.6,12.7,6
			L95.9,95z"/>
		<path class="st9" d="M164.8,87.2c-2.9,2.1-5.6,4.3-6.9,7.8l-10,0c0.9-4.3,5-5.5,7.9-7.8L164.8,87.2z"/>
		<path class="st50" d="M143.8,87.2l5,0c-4.1,1.9-8.5,3.4-10.9,7.8h-13.2l-0.2-1C131.5,93.1,136.6,87.5,143.8,87.2z"/>
		<path class="st51" d="M99,87.1l34.9,0.1c-7.1,2-14,3.6-21.5,2C108,88.3,103.2,89.2,99,87.1z"/>
		<path class="st49" d="M137.9,95c2.4-4.3,6.8-5.8,10.9-7.8l7,0c-3,2.3-7,3.4-7.9,7.8L137.9,95z"/>
		<path class="st38" d="M92,86h-2c0.1-1.7-1.4-2.5-2.2-3.7c-1.7-2.7-5-4.5-4.8-8.3l3,0l1,1c0.9,1.8,2.7,2.9,3.9,4.4
			c1.7,2.1,4.6,3.3,5.1,6.4c-0.3,0.1-0.5,0.2-0.8,0.2L92,86z"/>
		<path class="st3" d="M69,96l-7,0c0.7-3.9-2-6.3-4-9c4-0.6,8.1,0.6,12-1c0,2.3,1.8,3.4,3.2,4.6c2.2,2,2.3,3.7-0.2,5.4L69,96z"/>
		<path class="st9" d="M73,96c2.5-1.7,2.3-3.4,0.2-5.4c-1.4-1.3-3.2-2.3-3.2-4.6h6h2c-0.1,1.8,1.2,2.4,2.5,3.3
			c2,1.4,3.7,3.1,5.1,5.1c-2.2,1.5-4.9-0.5-6.6,1.6L73,96z"/>
		<path class="st10" d="M140.9,24.9l-8,0c-3.6-1-7.1-1.9-10.7-3c-3.8-1.2-7.8-1.2-11.6,0c-5.1,1.5-10.1,3.9-15.7,3.1
			c4.1-3.8,8.3-7.3,14.5-6.3c2,0.3,3.2-2,5.5-1.7c7.1,1,14.6,0.8,20.6,5.6C137.3,23.9,139.4,23.4,140.9,24.9z"/>
		<path class="st51" d="M94.9,25c5.6,0.9,10.6-1.6,15.7-3.1c3.8-1.2,7.8-1.2,11.6,0c3.5,1.1,7.1,2,10.7,3
			c-8.4,0.1-16.9,0.1-25.3,0.3c-1.6,0-3.3-0.4-4.8,0.8l-1,0.1c-1.3,1.6-3.3,0.3-4.8,1l-7,0c-1.9-0.9-4.1,0.2-6-1l0,0
			c1-1.6,2.6-0.8,4-1L94.9,25z"/>
		<path class="st0" d="M128.9,131c3.1-2.8,7.2-2.6,10.8-3.9c3.4-1.2,6.7-2.2,9.2-5.1l12,0c-1,2.3-3.3,3-5.3,4.1
			c-2.2,1.2-4.9,2-5.7,4.8L128.9,131z"/>
		<path class="st50" d="M155.8,75.1l4,0c-0.9,1.9-1.9,3.7-3.1,5.4c-1.3,1.6-0.8,2.9,0.1,4.4c-2,0.3-4,0.3-6,0
			C151.8,81.3,155,78.8,155.8,75.1z"/>
		<path class="st50" d="M155.8,75.1c-0.9,3.6-4.1,6.1-5,9.8l-7,0l6.9-9.7L155.8,75.1z"/>
		<path class="st26" d="M95.9,85.9c-0.4-3.1-3.4-4.3-5.1-6.4c-1.2-1.5-3-2.6-3.9-4.4c2.5-0.2,4.7-0.1,6.3,2.6c1.7,2.8,5,4.1,7.5,6.3
			c0.7,0.4,1.1,1.2,1.2,2L95.9,85.9z"/>
		<path class="st10" d="M150.9,75.2l-6.9,9.7l-6,0c2-3.3,5.5-5.2,7.5-8.6C146.6,74.2,148.9,75.2,150.9,75.2z"/>
		<path class="st52" d="M140,60.9l-0.1,1.1c-1.7,0.3-3.6-0.7-5,1l0,0.1l-6,0l-4,0c-5.3,0.7-10.7,1.4-16,0l-2,0c-1.1-2-3.8,0-5-1.9
			c1.3,0,2.6,0,4-0.1c1.9,0,4.2,0.6,3.1-2.9c-0.4-1.6-0.3-3.3,0.3-4.9c1-2.7-1.1-2-2.4-2.2l-3.9,0c-0.1-2.2,1.5-2,2.9-2
			c7,0.2,14-0.6,21,0l7-0.1l1.9,0.2c-0.9,1.3-2.3,0.9-3.5,0.9c-2.2-0.1-2.6,1.2-2.5,3c-1.6-0.8-2.8-2.8-4.8-1.7
			c-2.1,1.2,0.5,2.9-0.1,4.4c-0.2,0.8-0.2,1.7,0,2.5c0,1.2-0.1,2.5,1.5,2.7c1.3,0.2,2.6,0.5,3.5-1c0.6-1,0.8-2.2,1.9-2.8
			c0.1,2,0.2,4,3.1,3.9c1.1,0.1,2.3,0.5,3.1-0.8C138.8,60,139.5,60,140,60.9z"/>
		<path class="st53" d="M106.9,63l2,0c4.8,5.6,10.2,5.6,16,0l4,0c-6,7.3-10.4,8.8-18.1,6.1c-3.2-1.1-5-3.7-6.9-6.1L106.9,63z"/>
		<path class="st54" d="M106.9,63l-3,0L101,63c-0.8-1.2-2-0.9-3.1-0.8L95,61.9c0-0.3,0-0.6,0-0.8l0,0.1l1.9-0.2l2,0l2,0l1.1,0.1
			C103.1,63,105.8,61,106.9,63z"/>
		<path class="st55" d="M134.9,63c1.4-1.7,3.3-0.7,5-1c6.1,0,12.1,0,18.2,0c1.6,0,3.3-0.6,4.7,0.6l-2.9,0.3c-1.7-0.3-3.3-0.3-5,0
			l-4,0.1c-1.7-0.5-3.6-0.1-5,1.1c-1.1-1-2.6-1.3-4-0.9l-3,0L134.9,63z"/>
		<path class="st26" d="M145.9,36.8l-4,0c-3.6-3.7-7.6-6.9-11.9-9.6l7,0C139.6,30.7,143.4,33.2,145.9,36.8z"/>
		<path class="st32" d="M140,60.9c-0.4-0.9-1.2-0.8-1.9-0.7c-3.9-1-1.4-4.1-2.1-6.2c1.3-0.6,2.4-1.6,3.1-2.8l6,0
			c0.1,1.6,0,3.3-0.1,4.9c-0.4,2.6,0.9,3.9,3.1,4.7L140,60.9z"/>
		<path class="st12" d="M150.9,51.1c3-0.3,6-0.3,9-0.1c0,3,0,6,0,9C150.8,60,150.8,60,150.9,51.1z"/>
		<path class="st26" d="M143.9,39.1l4,0c1.2,7.5,2.1,8.6,7,8.9c0.8,0,1.5,0.1,2,0.9l-9,0C146,45.8,144.7,42.6,143.9,39.1z"/>
		<path class="st10" d="M154.9,48c-4.9-0.3-5.8-1.4-7-8.9l4,0C152.5,42.2,154.6,44.8,154.9,48z"/>
		<path class="st26" d="M86,74l-3,0l0,0c1.5-2,1.8-4.8,0.8-7.1c-0.6-1.2-0.8-2.5-0.9-3.8c0.8-0.1,1.7-0.1,2-1.1l0.5,0l0.5,0
			c0.1,3.9,2,7.3,3,11C87.8,72.9,86.9,73.6,86,74z"/>
		<path class="st56" d="M91.9,61c-0.2,3,0.2,6,2.1,8.5c1.1,1.4,0.5,2.4-0.3,3.5l-2.8,0c0.9-1.4,0.7-3.3-0.4-4.5
			c-1.7-2-1.6-4.2-1.6-6.5c0.8,0,1.6-0.1,2-1C91.3,61,91.6,61,91.9,61z"/>
		<path class="st1" d="M89,62c0,2.3-0.1,4.4,1.6,6.5c1.1,1.3,1.3,3.1,0.4,4.5l-2,0c-0.9-3.7-2.9-7.1-3-11l2,0C88.3,62,88.6,62,89,62
			z"/>
		<path class="st57" d="M135.9,49.1l-1.9-0.2c-1.7-4.3-4.8-7.7-8.9-9.8c2-0.4,4.3,0.8,6-1.1l2.8,0c1.2,4,4.5,6.9,6,10.8L135.9,49.1z
			"/>
		<path class="st58" d="M131.8,57.1c-1.1,0.6-1.3,1.9-1.9,2.8c-0.9,1.5-2.3,1.2-3.5,1c-1.6-0.2-1.4-1.6-1.5-2.7
			c-0.1-0.8-0.1-1.7,0-2.5c0.6-1.5-2.1-3.3,0.1-4.4c2-1.1,3.3,1,4.8,1.7l2,1L131.8,57.1z"/>
		<path class="st16" d="M139.9,48.8c-1.5-3.9-4.8-6.8-6-10.8l1,0l2,0c1.6,3.9,4,7.2,6,10.8L139.9,48.8z"/>
		<path class="st2" d="M143.9,39.1c0.8,3.4,2.1,6.7,4,9.7l-3,0c-1.4-3.3-2.5-6.8-4.9-9.6L143.9,39.1z"/>
		<path class="st43" d="M140,39.2c2.4,2.8,3.5,6.3,4.9,9.6l-2,0c-2-3.6-4.4-7-6-10.8l1.1,0C138.2,39.2,139.2,39,140,39.2z"/>
		<path class="st59" d="M135.9,54c0.7,2.1-1.8,5.2,2.1,6.2c-0.8,1.3-2,0.8-3.1,0.8c-1.8-3.1-0.7-6.5-1-9.8
			C136.2,50.9,135.9,52.5,135.9,54z"/>
		<path class="st60" d="M133.9,51.1c0.3,3.3-0.9,6.7,1,9.8c-2.9,0.2-3-1.8-3.1-3.9l0-3C132,52.6,131.6,50.9,133.9,51.1z"/>
		<path class="st61" d="M95,61l-2,0l0-10c0.3,0,0.7,0,1,0l1,0C95,54.4,95,57.8,95,61L95,61z"/>
		<path class="st62" d="M93,51l0,10l-1,0c-0.3,0-0.7,0-1,0l0-10L93,51z"/>
		<path class="st43" d="M138,38l-1.1,0l-2,0c0-0.7-0.3-1.3-0.7-1.8c-6.8-6.1-14.9-7.5-23.4-5.8c-4.6,0.9-9.6,2.5-11.8,7.6l-3,0l-1,0
			c0-1.9,1.4-2.8,2.6-3.9c3.8-3.5,8.7-4.9,13.2-7l11.2,0c0.4,0.6,1,0.6,1.7,0.8c6,1.8,11.5,4.4,15.2,9.8C138.6,38,138.3,38,138,38z"
			/>
		<path class="st51" d="M96.9,27c1.5-0.8,3.5,0.6,4.8-1c0.4,1,1.3,1,2.1,1.2c-1.1,1.3-2.8,1.5-4.2,2.5C96.5,31.9,93.2,34,92,38l-2,0
			l-1.1,0L84,38L76,38c0.4-0.8,1.2-0.9,2-1l5,0c1.9-0.1,4.2,0.8,5.6-1.1C90.9,32.4,94.4,30.2,96.9,27z"/>
		<path class="st2" d="M138.9,37.9c-3.7-5.4-9.2-8-15.2-9.8c-0.6-0.2-1.3-0.3-1.7-0.8l8,0c4.3,2.8,8.3,6,11.9,9.6L138.9,37.9z"/>
		<path class="st2" d="M92,38c1.2-4,4.6-6.1,7.8-8.4c1.3-0.9,3.1-1.2,4.2-2.5l7,0c-4.6,2-9.4,3.4-13.2,7c-1.2,1.1-2.7,2-2.6,3.9
			l-2,0L92,38z"/>
		<path class="st6" d="M45,87c-0.8,0-1.6-0.1-2-1c1.4-1,2.7-1.5,2.1-4c-0.8-3.8-1.8-7.1-6.1-8l5,0l11,0c-0.3,4,3,7.1,3,11
			c-1.1,0.1-2.3-0.3-3,1L45,87z"/>
		<path class="st6" d="M55,74l-11,0c-0.2-3.7-0.9-7.4-2-11l12,0c1.3,3.5,1.6,7.3,2,11L55,74z"/>
		<path class="st9" d="M54,63l-12,0c0-0.3,0-0.7,0-1c0-0.3,0-0.7,0-1l12,0l6.1,0.1c2.3,2.1,5.6,0,7.9,1.9c0,3.4,1.9,6.5,2,9.8
			c-1.7,0.1-3.3,0.2-5,0.3l-2-0.2c-0.1-0.8-0.1-1.6-0.3-2.4c-0.2-0.8-0.5-1.5-0.7-2.3C61.1,63.2,60.9,63,54,63z"/>
		<path class="st6" d="M54,61l-12,0l0-10l12,0C54,54.3,54,57.7,54,61z"/>
		<path class="st0" d="M45,87l10-1c1,0.4,1.8,1.1,3,1c2,2.7,4.7,5.1,4,9l-12,0C48.6,92.8,46.9,89.8,45,87z"/>
		<path class="st3" d="M54,39c3.4,0,6.7,0.2,10-1c-0.9,4-2.5,7.8-2,12l-2,0c-2.5-2.1-5.4-0.5-8-1L54,39z"/>
		<path class="st48" d="M60,50l2,0h4l0,11L60.1,61L54,61c0-3.3,0-6.6,0-10C56,50.6,58.3,51.9,60,50z"/>
		<path class="st9" d="M66,50h-4c-0.5-4.2,1.1-8,2-12h1h6c-0.8,4-2.2,7.9-2,12H66z"/>
		<path class="st28" d="M69,50c-0.2-4.1,1.2-8,2-12l1,0l3.1,0c1.3,1.8,3.3,0.5,4.8,1.1c-0.3,3.8-3.5,6.8-3,10.9h-4L69,50z"/>
		<path class="st50" d="M83,37l-5,0c0.4-2.4,2-4.1,3.4-5.8c1.2-1.6,2.4-3.1,2.6-5.2c1.8,1.3,4.1,0.2,6,1C87.5,30.2,84.6,33.2,83,37z
			"/>
		<path class="st61" d="M80,39.1c-1.6-0.6-3.5,0.7-4.8-1.1c0.3,0,0.6,0,0.8-0.1l8,0.1c0,0.3,0,0.6,0,0.9L80,39.1z"/>
		<path class="st49" d="M78,86h-2c0-1.5-0.4-2.9-1.4-4.1c-1.5-2.3-3-4.8-2.6-7.8l6-0.2c-0.4,2.6,1.6,4.3,2.8,6.2
			c1.2,1.8,2.4,3.6,2.2,5.9L78,86z"/>
		<path class="st63" d="M83,86c0.2-2.3-1.1-4-2.2-5.9c-1.2-1.9-3.2-3.5-2.8-6.2l0,0l2.1,0l3,0l0,0c-0.1,3.8,3.1,5.6,4.8,8.3
			c0.8,1.2,2.3,2,2.2,3.7l-5,0L83,86z"/>
		<path class="st9" d="M72,74.1c-0.4,3,1.1,5.5,2.6,7.8c0.9,1.1,1.4,2.6,1.4,4.1h-6c-3.9,1.6-8,0.4-12,1c-1.2,0.1-2-0.6-3-1
			c0.7-1.3,1.9-0.9,3-1c2.1,0,4.2,0,6.4,0c3.8-0.1,4.1-0.4,2.7-3.9c-0.9-2.2-2.1-4.4-2-6.9L65,73.9l5.1,0L72,74.1z"/>
		<path class="st64" d="M83,37c1.6-3.8,4.5-6.7,7-9.9l7,0c-2.5,3.2-6.1,5.4-8.4,8.8C87.2,37.7,84.9,36.9,83,37z"/>
		<path class="st18" d="M675.7,18.8c-4.2,1.7-3.9-3.8-6.7-4.4c-0.2,0.2-0.5,0.5-0.7,0.7c-0.7,1.2,1,4-1.8,3.8
			c-2.5-0.2-1.1-2.6-1.4-4.1c-0.1-1.2-0.1-2.3,0-3.5c0-5.2,3-7,7.8-4.8c1.6,0.6,2.6,2.3,2.2,4C674.4,15.3,674.4,16.1,675.7,18.8z"/>
		<path class="st65" d="M125,39.1c4.1,2,7.3,5.5,8.9,9.8l-7,0.1c-6.1-7.3-14.7-7.3-21,0c-1.4,0-3-0.2-2.9,2l-2,0l-0.1,0
			c0-2.1,0.9-4.2,2.3-5.8c2.3-2.8,5.6-4.3,8.6-6.1L125,39.1z"/>
		<path class="st54" d="M105.9,49c6.3-7.3,15-7.3,21,0C119.9,48.4,112.9,49.2,105.9,49z"/>
		<path class="st66" d="M101,51l2,0l3.9,0c-1.2,3.2-1,6.6-1,10c-1.3,0-2.6,0-4,0.1c-0.4,0-0.7-0.1-1.1-0.1
			C100.9,57.6,101,54.3,101,51z"/>
		<path class="st67" d="M124.9,63c-5.8,5.6-11.2,5.6-16,0C114.3,64.5,119.6,63.7,124.9,63z"/>
		<path class="st54" d="M105.9,61c0-3.4-0.2-6.7,1-10c1.3,0.2,3.5-0.5,2.4,2.2c-0.6,1.5-0.7,3.3-0.3,4.9
			C110.1,61.6,107.8,61,105.9,61z"/>
		<path class="st68" d="M101,51c0,3.3-0.1,6.6-0.1,9.9l-2,0l0-9.9l1.9,0L101,51z"/>
		<path class="st69" d="M99,51l0,9.9l-2,0l0-9.9l0,0L99,51z"/>
		<path class="st70" d="M96.9,51l0,9.9L95,61.1c0-3.4,0-6.7-0.1-10.1L96.9,51z"/>
		<path class="st38" d="M83,74l-3,0c1.4-3.8-1.8-7.2-1-10.9l4,0.1c0,1.3,0.3,2.6,0.9,3.8C84.8,69.3,84.5,72,83,74z"/>
		<path class="st71" d="M82.9,63.1l-4-0.1L73,63l-5,0c-2.3-2-5.6,0.2-7.9-1.9c2,0,3.9,0,5.9-0.1c2.3,0,4.7-0.1,7-0.1l8,0.1
			c1,1.6,2.6,0.7,4,1l0,0C84.6,63,83.8,63,82.9,63.1z"/>
		<path class="st1" d="M88,62l-2,0l-0.5,0L85,62l0,0c0-4,0-8,0-12c0.3,0,0.7,0,1,0h2C88,54,88,58,88,62z"/>
		<path class="st72" d="M88,62c0-4,0-8,0-12c0.3,0,0.7,0,1,0l2,0l0,1c0,3.3,0,6.7,0,10c-0.4,0.9-1.2,1-2,1C88.6,62,88.3,62,88,62z"
			/>
		<path class="st16" d="M98.9,38c2.3-5.1,7.2-6.7,11.8-7.6c8.5-1.6,16.7-0.3,23.4,5.8c0.5,0.5,0.7,1.1,0.7,1.8l-1,0l-2.8,0
			c-0.1-0.3-0.2-0.6-0.2-0.9c-5.9-4.8-12.7-5.5-19.8-4c-3.1,0.7-6.4,1.4-8.1,4.8l-1.8,0.2L100,38L98.9,38z"/>
		<path class="st73" d="M130.9,37.1c0,0.3,0.1,0.6,0.2,0.9c-1.7,1.9-4,0.8-6,1.1l-13.2,0l-7.9,0c-0.9-0.3-2.2,0.4-2.8-1l1.8-0.2
			C112.2,36.5,121.5,36.9,130.9,37.1z"/>
		<path class="st74" d="M101.1,38.1c0.5,1.4,1.8,0.7,2.8,1c-2.5,3.8-6.8,6.7-6.9,11.9l0,0l-2,0l-1,0c0.4-3.9,1.5-7.3,4.5-10
			c0.9-0.7,1.5-1.8,1.5-3L101.1,38.1z"/>
		<path class="st40" d="M100,38c0,1.2-0.6,2.3-1.5,3c-3,2.7-4.2,6.2-4.5,10c-0.3,0-0.7,0-1,0h-2l0-1c0.3-4.6,4.1-7.7,5-12l3,0
			L100,38z"/>
		<path class="st43" d="M96,38c-0.9,4.3-4.7,7.4-5,12l-2,0c0-1.8,0.3-3.6,0.9-5.3c0.7-2.4,3.1-4,3.1-6.7l2,0L96,38z"/>
		<path class="st26" d="M86,50c-0.3,0-0.7,0-1,0l-2,0c-0.4-4,2.2-7.2,3-10.9c1-0.4,2.4,0.4,2.9-1.1l1.1,0C88.8,42.1,86.4,45.7,86,50
			z"/>
		<path class="st2" d="M86,50c0.4-4.3,2.9-7.9,4-12l2,0l1,0c0,2.7-2.4,4.3-3.1,6.7c-0.7,1.7-1,3.5-0.9,5.3c-0.3,0-0.7,0-1,0L86,50z"
			/>
		<path class="st75" d="M88.9,38c-0.5,1.5-1.9,0.8-2.9,1.1L84,38.9c0-0.3,0-0.6,0-0.9L88.9,38z"/>
		<path class="st3" d="M65,74.2c-0.1,2.5,1.1,4.7,2,6.9c1.4,3.4,1.1,3.8-2.7,3.9c-2.1,0.1-4.2,0-6.4,0c0-3.9-3.2-7-3-11l1,0l2.2-0.1
			L65,74.2z"/>
		<path class="st48" d="M58.2,74L56,74c-0.4-3.7-0.7-7.4-2-11c6.9,0,7.1,0.1,8,5.1c0.1,0.8,0.5,1.5,0.7,2.3c0.2,0.8,0.2,1.6,0.3,2.4
			C61.4,73.5,59.5,72.2,58.2,74z"/>
		<path class="st49" d="M68,63l5,0c0.8,3.3,2.6,6.3,3,9.8l-6,0.4l0.1-0.4C69.9,69.4,68,66.4,68,63z"/>
		<path class="st76" d="M58.2,74c1.3-1.8,3.3-0.5,4.8-1.1c0.7,0.1,1.4,0.1,2,0.2c0,0.3,0,0.5-0.1,0.8l0.1,0.3L58.2,74z"/>
		<path class="st45" d="M65,73.9c0-0.3,0-0.5,0.1-0.8c1.7-0.1,3.3-0.2,5-0.3L70,73.2c0,0.2,0.1,0.4,0.1,0.6L65,73.9z"/>
		<path class="st77" d="M73,60.9c-2.3,0-4.7,0.1-7,0.1c0-3.7,0-7.3,0-11h3h4C73.9,53.6,74.9,57.3,73,60.9z"/>
		<path class="st12" d="M73,60.9c1.9-3.6,0.9-7.3,0-10.9h4h3c1.3,3.6,1,7.3,1,11L73,60.9z"/>
		<path class="st38" d="M80,50h-3c-0.5-4,2.7-7.1,3-10.9l4.1-0.2l1.9,0.2c-0.8,3.7-3.4,6.8-3,10.9L80,50z"/>
		<path class="st35" d="M70,73.8c0-0.2,0-0.4-0.1-0.6l6-0.4c0.7,0.2,1.8,0,1.9,1.2l0,0l-6,0.2L70,73.8z"/>
		<path class="st50" d="M77.9,74c-0.2-1.2-1.2-0.9-1.9-1.2c-0.4-3.5-2.2-6.5-3-9.8l6,0.1c-0.8,3.7,2.4,7.1,1,10.9L77.9,74z"/>
		<path class="st78" d="M97,51c0.1-5.3,4.4-8.1,6.9-11.9l7.9,0c-3,1.8-6.3,3.3-8.6,6.1c-1.5,1.6-2.3,3.6-2.3,5.8L99,51L97,51z"/>
		<path class="st79" d="M80,50l3,0l2,0c0,4,0,8,0,12c-1.3-0.3-3,0.6-4-1C80.9,57.3,81.3,53.6,80,50z"/>
		<path class="st80" d="M130.9,37.1c-9.3-0.3-18.7-0.6-27.9,0.8c1.6-3.4,5-4.2,8.1-4.8C118.1,31.6,125,32.3,130.9,37.1z"/>
	</g>
</g>
</svg>
