<svg xmlns="http://www.w3.org/2000/svg" width="683.1292" height="204.113" viewBox="0 0 683.1292 204.113"><defs><style>.cls-1{fill:#183d91;}.cls-2{fill:#183d92;}.cls-3{fill:#6e6f70;}.cls-4{fill:#6f7071;}.cls-5{fill:#0051a0;}.cls-6{fill:#1a3f92;}.cls-7{fill:#005aa7;}.cls-8{fill:#6f7070;}.cls-9{fill:#1b3f93;}.cls-10{fill:#0c4496;}.cls-11{fill:#084496;}.cls-12{fill:#004f9f;}.cls-13{fill:#193e92;}.cls-14{fill:#707171;}.cls-15{fill:#0058a5;}.cls-16{fill:#0173ba;}.cls-17{fill:#0364ae;}.cls-18{fill:#1a3f93;}.cls-19{fill:#707071;}.cls-20{fill:#016ab3;}.cls-21{fill:#004899;}.cls-22{fill:#0062ad;}.cls-23{fill:#044b9b;}.cls-24{fill:#707172;}.cls-25{fill:#1d4194;}.cls-26{fill:#499cd6;}.cls-27{fill:#1e4294;}.cls-28{fill:#204395;}.cls-29{fill:#1c4093;}.cls-30{fill:#727374;}.cls-31{fill:#014a9a;}.cls-32{fill:#8b8c8d;}.cls-33{fill:#717273;}.cls-34{fill:#0258a5;}.cls-35{fill:#aed7f0;}.cls-36{fill:#2e91cf;}.cls-37{fill:#174294;}.cls-38{fill:#a9d3f1;}.cls-39{fill:#015ba7;}.cls-40{fill:#0270b8;}.cls-41{fill:#017fc3;}.cls-42{fill:#154194;}.cls-43{fill:#0e82c5;}.cls-44{fill:#0b4496;}.cls-45{fill:#036ab3;}.cls-46{fill:#1a8ccc;}.cls-47{fill:#0363ae;}.cls-48{fill:#0856a3;}.cls-49{fill:#e0f0fa;}.cls-50{fill:#64aade;}.cls-51{fill:#076bb3;}.cls-52{fill:#4e9fd7;}.cls-53{fill:#0a62ac;}.cls-54{fill:#a7d4ee;}.cls-55{fill:#82c3ea;}.cls-56{fill:#82bce7;}.cls-57{fill:#98cdec;}.cls-58{fill:#0073ba;}.cls-59{fill:#bfe0f4;}.cls-60{fill:#4a9dd6;}.cls-61{fill:#b1d9f1;}.cls-62{fill:#d8edf9;}.cls-63{fill:#3392d0;}.cls-64{fill:#85bfe3;}.cls-65{fill:#68acdf;}.cls-66{fill:#b8ddf2;}.cls-67{fill:#0b4295;}.cls-68{fill:#0a4496;}.cls-69{fill:#0c4294;}.cls-70{fill:#0a4395;}.cls-71{fill:#094395;}.cls-72{fill:#0f4194;}.cls-73{fill:#035ca8;}.cls-74{fill:#00499a;}.cls-75{fill:#024a9b;}.cls-76{fill:#03499a;}.cls-77{fill:#074496;}.cls-78{fill:#0053a2;}.cls-79{fill:#00489a;}.cls-80{fill:#0050a0;}.cls-81{fill:#005daa;}.cls-82{fill:#0061ac;}.cls-83{fill:#0069b3;}.cls-84{fill:#0058a6;}.cls-85{fill:#006ab3;}.cls-86{fill:#0481c4;}.cls-87{fill:#0074bb;}.cls-88{fill:#0766b0;}.cls-89{fill:#fcfdfe;}.cls-90{fill:#cde9fa;}.cls-91{fill:#e5f3fc;}.cls-92{fill:#c0e1f4;}.cls-93{fill:#4d9fd7;}.cls-94{fill:#006bb4;}.cls-95{fill:#3393d0;}.cls-96{fill:#178bcb;}.cls-97{fill:#5fa8dc;}.cls-98{fill:#d9eefb;}.cls-99{fill:#489cd5;}.cls-100{fill:#1a8bcc;}.cls-101{fill:#8ac1e9;}.cls-102{fill:#a1cdee;}.cls-103{fill:#5ba5db;}.cls-104{fill:#4c9dd6;}.cls-105{fill:#0381c4;}.cls-106{fill:#1a8bcb;}.cls-107{fill:#014899;}.cls-108{fill:#024698;}.cls-109{fill:#0063ae;}.cls-110{fill:#52aadd;}.cls-111{fill:#0060ac;}.cls-112{fill:#026cb4;}.cls-113{fill:#0274bb;}.cls-114{fill:#acd4f2;}.cls-115{fill:#c7e6f9;}.cls-116{fill:#e2f2fc;}.cls-117{fill:#9bc8ec;}.cls-118{fill:#84bde7;}.cls-119{fill:#6eb0e0;}.cls-120{fill:#2693d0;}.cls-121{fill:#198acb;}.cls-122{fill:#3693d0;}.cls-123{fill:#d6ecfa;}.cls-124{fill:#5ea7dc;}.cls-125{fill:#3292d0;}.cls-126{fill:#188bcb;}.cls-127{fill:#73bde7;}.cls-128{fill:#429dd5;}.cls-129{fill:#61afde;}.cls-130{fill:#005fab;}.cls-131{fill:#0072b9;}.cls-132{fill:#84c3e8;}.cls-133{fill:#0069b2;}.cls-134{fill:#7ebae6;}.cls-135{fill:#007cc1;}.cls-136{fill:#61a9dd;}</style></defs><g id="Layer_2" data-name="Layer 2"><g id="Layer_1-2" data-name="Layer 1"><path class="cls-1" d="M6.9872,121.1971c-9.132-19.95-8.9729-40.1451-1.5012-60.4941,4.8738-13.2739,11.8579-25.2,22.5792-34.6694,2.8508,2.022,6.0707.71,9.1061.9189,2.534.1746,3.3188,1.2327,2.5775,3.4713-1.01,3.0493-.5446,7.1981-5.6711,7.2154.933,1.17,2.1655.682,2.6633,1.8275A7.4663,7.4663,0,0,1,31.6885,49.681a19.8639,19.8639,0,0,1-4.934.3151c-4.2717.0389-8.544.013-12.816.013l0,1.0143H34.0337l.0045,9.9854a87.0609,87.0609,0,0,0-22.0952,2.01H34.0375c1.62,3.49.8583,7.4152,1.9987,10.9931l-1.984.0006c-.3774-.2955-.7533-.8467-1.1323-.8489-8.6756-.0487-17.3516-.0375-26.0275-.0375l-.0107.8937H21.0551c2.3218,1.9445,5.0661.8881,7.5969.9382,7.583.15,9.556,1.8992,9.97,9.7154a9.9278,9.9278,0,0,0,.4149,2.3388c2.0786,2.76,4.082,5.5622,4.985,8.977l-5.9556.0377H3.9861c5.7883.4144,11.3755,2.2543,17.1963,2.0446,6.9792-.2514,13.9919.2426,20.9567-.1616,4.7744-.2771,5.2,3.7613,7.5381,6.0159,2.4657,2.3772-.8545,3.37-.6614,5.0837-13.3919.0358-26.7649-2.1031-40.4653-.5922,1.2767,2.1586,3.089,1.5638,4.6123,1.57q17.3751.0681,34.75.004c1.4084-.0048,3.0321.5668,4.1075-.9767l1.9988-.0008c.382.8955,1.1661.9892,1.9911,1.001.5654,3.9516,5.023,5.0641,6.5119,9H42.034c-4.1312-.618-7.965-2.7761-12.3814-2.066-2.0313.3265-3.4992.7375-3.5947,3.0709l.0025-.002c-4.8818-.0014-9.7643-.0493-14.645.0233C9.8845,120.0634,8.0882,119.3964,6.9872,121.1971Zm28.0652-34.43-.0081-.5048H5.8947l0,.5048Z"/><path class="cls-2" d="M6.9872,121.1971c1.101-1.8007,2.8973-1.1337,4.4282-1.1565,4.8807-.0726,9.7632-.0247,14.645-.0233.0746.6516.1313,1.5116.9757,1.4133,14.0181-1.6327,27.9668,1.5088,41.9716.59.9882-.0648,1.9845-.0049,2.977-.003-.0908,1.73,1.4576,1.9574,2.4334,2.77,2.52,2.0984,6.1589,2.6412,8.8221,6.2292-8.6229,0-16.3706-.0507-24.1166.0393-1.7167.02-3.6819-.7888-5.1183.945l-18.9562.0161H16.5643l-.029,1.3226c1.4582,1.18,3.3147.6417,4.9782.6457,18.1184.0438,36.24-.1606,54.3541.1141,8.2251.1248,16.81-2.0457,24.5257,2.93,2.7712,1.7871,6.1551,1.1161,9.2057,1.5716,8.2285,1.2285,16.8,1.0255,24.4228-2.063a38.3639,38.3639,0,0,1,14.8319-2.5166c2.992-.019,5.9841-.01,8.9761-.001,1.1477.0036,2.3718-.17,3.0722,1.1012-1.6573,3.4812-3.2135,7.0414-6.94,8.9055l-27.933.0181a10.5857,10.5857,0,0,1-4.7718.9815c-11.1031-.1834-22.2083-.4167-33.31-.3257-1.9171.0158-4.3119-.5585-5.97,1.3113-5.1847,1.8337-10.539,1.9518-15.9884,2.0931-11.9025.3087-23.7052-1.7158-35.6111-1.1686-2.5893.119-5.1981.9349-7.8164.1934A72.2969,72.2969,0,0,1,6.9872,121.1971Zm17.9405,23.0391.0021.4765h24.163l-.0024-.4765Z"/><path class="cls-2" d="M140.984,156.0806c1.223,2.1387-.6392,2.8369-1.8312,3.72a86.3923,86.3923,0,0,1-30.7394,14.6543c-27.13,6.7811-51.5277.6833-73.7677-15.6254a12.5831,12.5831,0,0,1-1.6628-1.7976c15.3354-.0063,30.6726.1327,46.0054-.07,10.1719-.1346,20.36-.2261,30.5173-.2217,8.5394.0038,17.1246-.261,25.6765.27A10.579,10.579,0,0,0,140.984,156.0806Z"/><path class="cls-3" d="M600.0222,140.1576c-18.4564,0-36.9271-.4626-55.3659.1068-28.75.8878-57.5011.16-86.2461.7281-5.1225.1013-4.9425-.0012-5.0365-4.7337-.0542-2.7318.9669-3.3049,3.4579-3.2912,18.79.1037,37.58.0987,56.37.0975,3.5614,0,6.6864,1.7685,10.1423,2.3283a26.2065,26.2065,0,0,0,12.8-.7711,33.4916,33.4916,0,0,1,11.2324-1.5791c17.9557.0259,35.9123.1882,53.8667.05,3.9592-.03,7.4578,1.4735,11.1824,2.167a24.838,24.838,0,0,0,12.3295-.3987c6.0166-1.9656,12.0788-1.7141,18.2087-1.64,6.3152.0763,12.6332-.0685,18.9483.0113,1.1788.0149,3.2288-.4732,3.2783,1.2925.0529,1.8851-.4883,4.1583-2.8843,4.6862a28.0364,28.0364,0,0,1-5.927.6184q-28.1781.0661-56.3566.0263Z"/><path class="cls-2" d="M140.984,156.0806a10.579,10.579,0,0,1-5.8019.9292c-8.5519-.5305-17.1371-.2657-25.6765-.27-10.1577-.0044-20.3454.0871-30.5173.2217-15.3328.2028-30.67.0638-46.0054.07a38.1958,38.1958,0,0,1-10.4216-9.902c2.6183.7415,5.2271-.0744,7.8164-.1934,11.9059-.5472,23.7086,1.4773,35.6111,1.1686,5.4494-.1413,10.8037-.2594,15.9884-2.0931l71.06.1C149.7036,150.2646,147.1239,155.3311,140.984,156.0806Z"/><path class="cls-3" d="M566.1987,38.9083c-3.4852,5.6174-7.8926,7.64-13.7751,7.1225-4.6-.4044-9.1122-.3828-13.7019-1.8012a32.9693,32.9693,0,0,0-22.9527.9312,14.5341,14.5341,0,0,1-5.8445.8468c-14.8077.0739-29.6225-.1247-44.4208.2824-9.4421.26-18.9037-.7277-28.3327.5248-1.73.23-3.5523-.232-5.3969-.38,2.7338-7.5762,4.0613-8.4965,11.4251-8.31,10.81.2737,21.6189.2654,32.4335.1053,7.1293-.1055,14.2666.4647,21.4.4479,13.6321-.0322,27.2737-.6446,40.8923-.2871C547.1877,38.6345,556.4738,38.3182,566.1987,38.9083Z"/><path class="cls-3" d="M409.1724,132.6953c-.4825,2.65-1.9864,3.8892-2.7066,5.5273-1.111,2.5274-3.0806,3.0351-5.6493,3.0221-9.1024-.046-18.226-.2579-27.3035.2609-10.1284.5789-20.2439.302-30.3633.4076-13.786.144-27.5743.0621-41.3615.1128-2.4222.0089-4.4661.2513-4.3624-3.4472.1563-5.5753-.1046-6.0574,3.946-5.9326,7.1056.2191,14.3375-.8871,21.273.2555,16.8129,2.77,33.7382,1.8605,50.4376.8869C384.9909,133.0942,396.8341,133.9069,409.1724,132.6953Z"/><path class="cls-4" d="M264.26,156.27H393.9749c-1.6863,6.0941-2.3117,6.6073-7.9547,6.6077-37.098.0027-74.1968-.1154-111.293.1325C269.4147,163.0458,266.3567,161.1782,264.26,156.27Z"/><path class="cls-3" d="M297.5822,151.8384c-.1471-7.8828-.1495-7.696,7.6359-7.5976,20.1079.2543,40.2283.7626,60.323.29,10.1053-.2378,20.21,1.3043,30.3065-.1916,1.7158-.2542,3.5669.4079,5.3962.6521-2.46,7.4736-3.4253,8.3275-10.6458,8.2021-13.9026-.2414-27.8062.7018-41.7059-.0876-15.4286-.0309-30.8574-.0357-46.2856-.13C300.9051,152.9656,298.8924,153.7936,297.5822,151.8384Z"/><path class="cls-3" d="M478.4455,128.81q-30.1454.1958-60.2908.3808c-12.9137.0576-25.8279.0108-38.968.0108.3806-2.6086,2.5077-4.6163,3.8873-6.9751,1.1783-2.0145,3.2925-1.1811,5.005-1.182q39.624-.0209,79.2482.0625c3.3223.0033,6.6453-.0961,9.967-.06,4.347.0474,4.3538.085,4.4009,4.4047.009.83-.0628,1.6606-.0973,2.4909C480.5136,128.11,479.265,127.6785,478.4455,128.81Z"/><path class="cls-3" d="M386.5609,117.3132c.8925-2.7084,2.5646-4.7774,4.0252-6.9186,1.5-2.2,3.9926-1.29,6.0182-1.294,18.6127-.0347,37.2257.081,55.8386.1105,8.3079.0132,16.616-.0822,24.9241-.1029,2.42-.006,4.5774.0134,4.4136,3.6255-.1926,4.25.0655,4.3065-4.4664,4.3313q-27.1719.1489-54.344.2414C411.022,117.3421,399.0735,117.3132,386.5609,117.3132Z"/><path class="cls-5" d="M56.0106,110.0146c-.825-.0118-1.6091-.1055-1.9911-1.001a6.3948,6.3948,0,0,1,3.9894-1.0011l10.98-.0024,10.9784.0028c19.3046-.3574,38.6089.7316,57.9136.0149,1.03,2.0319,2.9121,1.0988,4.39,1.1123,8.9441.0817,17.89,0,26.8343.0415,1.2345.0058,3.6165-.6211,1.935,2.167-.745-1.5113-2.148-1.3247-3.4631-1.3284-3.4911-.01-6.9828.0331-10.4735-.0114-4.6144-.059-9.1482-.368-12.9985,3.2458-1.5983,1.5-3.9872,2.2719-6.2536,2.946-1.2474.371-3.0516.5467-3.2416,2.8043h33.9341c-.2078.9129-1.1815.5748-1.6717,1.0264l-36.9366-.0048a22.4448,22.4448,0,0,1-4.325.9373c-8.33.17-16.6943.1621-24.9839-.1921-8.8808-.38-17.7525-.7184-26.64-.7583l.9971-1H98.2352c-2.7277-3.5148-7.2766-2.8356-9.62-5.376-3.7211-4.0333-8.1093-3.6945-12.6987-3.63-3.3068.0461-6.6147.0107-9.9221.0116Z"/><path class="cls-3" d="M514.4046,69.9q-19.8763,0-39.7528.0037c-5.6466.005-11.2987-.09-16.9376.1317-3.3625.1325-5.0565-.8755-4.49-5.0248-2.5868,6.2025-7.65,4.9739-12.29,4.9672-7.9662-.0115-15.9323-.0032-23.9394-.0032,2.0554-7.0314,3.2514-7.9636,10.06-7.9619,25.0831.0064,50.1663.0459,75.2492-.0219,3.4367-.0093,6.484.2061,8.6852,3.3932.8918,1.291,2.4489,2.1212,3.7032,3.1611Q514.5487,69.2223,514.4046,69.9Z"/><path class="cls-3" d="M508.38,50.7936c-1.699,7.2548-1.6991,7.1884-8.3895,7.201q-32.3643.0609-64.7285.211c-3.6065.0133-7.2362,1.0133-10.81-.2735,2.5168-7.2575,3.44-7.9054,10.6135-7.8947q33.8472.0507,67.6945.0662A13.1185,13.1185,0,0,1,508.38,50.7936Z"/><path class="cls-3" d="M244.7225,108.84c4.1435.0442,8.3015.319,12.4258.0584a7.12,7.12,0,0,1,7.0877,3.4184c1.2678,1.9133,2.8284,3.6321,4.4823,5.72-2.1184.9908-4.1235.7769-5.9966.8043-8.2861.121-16.5787-.0624-24.86.1749-3.6686.1051-6.3523-.9017-8.3683-4.041-.7119-1.1085-1.3221-3.2053-3.1384-2.5389a3.9116,3.9116,0,0,0-2.4293,3.5319c.1608,3.09-1.7213,3.0043-3.8,3.0033-7.1307-.0033-14.263-.0521-21.3915.0837-2.3526.0449-3.346-.6666-3.1381-3.1.1973-2.3091.1485-4.6392.2079-6.96Z"/><path class="cls-3" d="M256.78,74.185q-3.3987,4.1757-6.7946,8.3537c-1.0892,1.3476-2.607,1.2989-4.1039,1.3046-15.7844.0605-31.569.0876-47.353.2013-2.085.015-2.9982-.5681-2.9344-2.806.2611-9.1613-1.3783-8.1231,7.6728-8.114q22.6755.0227,45.3511-.0347,3.7287-.0035,7.4572,0Z"/><path class="cls-3" d="M223.803,68.558a3.7106,3.7106,0,0,0,2.937-2.3347c2.4712-4.9394,7.0138-5.1643,11.4694-4.8583a134.6343,134.6343,0,0,0,20.839.0678c2.092-.18,4.2461.3647,6.4308.5833-3.2509,7.7573-5.3609,9.2616-13.1543,9.1939-11.0783-.0963-22.1515.3954-33.2165.414-6.4491.0108-12.8935.2115-19.3388.2923-3.09.0388-4.3475-.9339-4.2365-4.3155.1993-6.0717.8126-6.9123,6.8293-6.2256a85.3007,85.3007,0,0,0,14.386.1458c.9824-.0538,1.9679-.0815,2.9516-.0741,2.8388.0215,4.7927.8755,4.1258,4.3151A16.4324,16.4324,0,0,0,223.803,68.558Z"/><path class="cls-4" d="M394.0021,105.6612c.7052-2.728,2.6129-4.6781,3.8647-6.9639a2.6451,2.6451,0,0,1,2.4711-1.3895c10.2467.0164,20.4935.01,30.5382.01.8128,1.99-1.0795,2.8538-.5911,4.3355a7.1868,7.1868,0,0,0,1.3173.2373c6.1561.0189,12.3127.05,18.4682-.0116,1.1853-.0118,3.1305.6644,3.2266-1.2708.2181-4.3893,3.6832-3.39,5.808-3.25a104.9734,104.9734,0,0,0,16.8962-.0841c4.4287-.42,5.4648.6457,5.7541,3.9378.2681,3.0507-.8413,4.0846-3.8537,4.1-27.4107.1435-54.8208.3878-82.2312.5914A12.4324,12.4324,0,0,1,394.0021,105.6612Z"/><path class="cls-3" d="M195.7809,107.1982c-2.0555-2.6722-.7681-5.73-.8556-8.5908-.0727-2.3792,2.1355-1.5509,3.4191-1.5576,10.7922-.0556,21.5848-.0148,32.3773-.011,5.1472.0018,10.3069.2047,15.4375-.091,4.0533-.2336,7.0655.9271,9.1143,4.4986.9563,1.6669,2.6746,2.8511,3.7411,5.7493h-53.14Z"/><path class="cls-3" d="M486.0707,34.063c2.6914-4.427,5.1382-7.402,10.6319-7.325,22.1142.31,44.2345.21,66.3525.1858,4.6151-.005,6.1765,3.6313,9.4915,7.1392Z"/><path class="cls-3" d="M569.2942,145.1644c-3.3186,5.1463-7.0858,7.1275-12.7779,6.9943-15.4325-.361-30.8816-.0338-46.3239.0515-4.29.0238-8.5736.33-12.87.3588-5.7394.0379-8.5849-3.17-11.99-7.4046Z"/><path class="cls-4" d="M658.94,145.3554c-2.48,3.2456-4.3217,5.9449-8.7612,5.9429-16.4078-.0073-32.8157.33-49.2236.5328-4.4842.0553-9.0208-.32-13.44.2406-5.6924.7218-8.9433-2.23-12.2584-6.7163Z"/><path class="cls-3" d="M661.0851,33.2088c-28.4916-.38-56.3894.66-84.3967.6744,2.0039-5.3221,4.0335-6.8939,8.9255-6.8951,21.4541-.0054,42.91.1606,64.3609-.0793C654.8305,26.8545,658.2488,28.2448,661.0851,33.2088Z"/><path class="cls-3" d="M260.867,23.974c1.9672-2.5341,3.5132-4.4367,4.9559-6.4149a4.2671,4.2671,0,0,1,3.8827-1.6671c17.5822.0322,35.1648.0763,52.7463-.0373,2.7407-.0177,3.4535,1.0151,3.2657,3.4825-.17,2.2382.6028,4.6718-3.2445,4.6092-9.7807-.1593-19.5666.01-29.35.0242C282.6811,23.9858,272.24,23.974,260.867,23.974Z"/><path class="cls-3" d="M570.7937,45.3955c1.0214-6.3677,1.021-6.5526,5.7834-6.5642,26.2715-.0642,52.5432-.0307,79.48-.0307-2.8878,4.1952-5.6506,6.7012-10.6946,6.3524-6.7527-.4669-13.5193.2929-20.2312-1.7808a22.1011,22.1011,0,0,0-12.8578-.08c-10.4318,3.3583-21.09,1.4728-31.6066,2.3276C577.3944,45.8861,574.0648,46.2755,570.7937,45.3955Z"/><path class="cls-4" d="M565.41,92.1537c-1.7739,1.16-3.1189.7856-4.3769.792-18.9344.0962-37.87.06-56.8028.274-5.11.0578-8.0243-3.2993-11.5279-5.9062.6393-1.8336,2.0266-1.0842,2.9786-1.085,19.7615-.0169,39.5232.0959,59.2842.0243C559.5643,86.2361,561.977,89.4529,565.41,92.1537Z"/><path class="cls-3" d="M247.0187,85.7388c-3.3544,4.5831,1.3673,6.0418,2.18,9.2784-2.6386,0-5.0658-.0439-7.4909.0073-13.6083.2873-27.2252-.317-40.8314.5286-4.65.289-7.46-4.5553-5.0382-8.6785,1.1162-1.9,3.6358-1.5241,5.4355-1.35,5.3159.5132,10.615.2138,15.9209.2144C226.8121,85.74,236.43,85.7388,247.0187,85.7388Z"/><path class="cls-3" d="M481.4084,74.3388c3.9486-.9014,7.9469-.3564,11.9217-.3747,9.1393-.042,18.2865.2422,27.4166-.0488,9.4676-.3018,17.78,3.3768,26.231,6.7471.2085.0832.2693.5377.6446,1.3519-19.4389,0-38.6333-.0351-57.8271.0492-2.1458.0094-3.2819-.9567-4.47-2.4924-1.169-1.5112-1.4723-3.8445-3.8115-4.3264A4.9458,4.9458,0,0,1,481.4084,74.3388Z"/><path class="cls-4" d="M297.5822,151.8384c1.31,1.9552,3.3229,1.1272,5.0243,1.1376,15.4282.0939,30.857.0987,46.2856.13-3.2315,1.1658-6.5905.5427-9.8747.5713-23.6273.2058-47.2588.11-70.8811.5407-4.9569.09-8.2005-1.4624-10.7538-5.3652-.81-1.2381-1.7632-2.3822-2.6477-3.565,1.1345-1.7807,2.8262-1.0678,4.1391-1.0862,8.8141-.124,17.6314-.0114,26.4457-.1273,3.5673-.0469,6.4225.7409,8.38,4.0856C294.57,149.6486,295.6375,151.3092,297.5822,151.8384Z"/><path class="cls-6" d="M237.6791,191.4876c1.5738-3.3744,2.6678-5.7576,3.7942-8.1254a5.3049,5.3049,0,0,1,6.7266-3.1209c1.2721.342,1.46,1.142,1.4611,2.1873.0036,6.3132-.0342,12.6266.019,18.9393.0224,2.6649-1.8486,2.1722-3.4467,2.3126-2.0109.1767-2.5641-.8077-2.5194-2.66a62.131,62.131,0,0,0-.5587-11.0869c-.894,2.0542-1.8141,4.0977-2.6729,6.1667a2.7754,2.7754,0,0,1-2.9765,2.0237,2.9863,2.9863,0,0,1-2.9048-2.1608c-.7823-1.7334-1.1007-3.7563-3.1113-5.6459,0,3.8454-.0784,7.1259.0281,10.4.0689,2.1187-.7249,2.956-2.875,2.9971-2.1386.041-2.9311-.6663-2.8862-2.8586.1155-5.6463-.0133-11.2974.0765-16.9446.0207-1.3024-.85-3.4278,1.4389-3.563,2.2665-.1338,5.0531-1.2452,6.3689,2.0953C234.7211,185.1864,236.0359,187.836,237.6791,191.4876Z"/><path class="cls-3" d="M581.689,86.864c6.9673-1.2222,12.8956-.5991,18.78-.44,11.61.3148,23.2057.5189,34.8164-.0953a80.2643,80.2643,0,0,1,11.9064.5132c2.9606.2863,4.7456,2.6057,7.4573,4.8963-5.8664.9464-10.9049.4444-15.9276.49-14.7688.135-29.544.1561-44.3012.667C589.1038,93.08,586.0747,90.0686,581.689,86.864Z"/><path class="cls-3" d="M572.1573,74.0839c15.2489,0,29.9-.3883,44.5146.1763,6.5537.2532,12.7193,3.367,18.8759,6.5639-1.1426.0724-2.2848.2026-3.4277.2083-13.6456.0674-27.2918.1987-40.9366.1109-3.3244-.0214-6.5748.5561-9.9119.543C576.1323,81.6661,573.9586,78.8405,572.1573,74.0839Z"/><path class="cls-4" d="M512.9321,98.0614c3.708-.2423,7.4272-.8013,11.122-.6707,14.0968.4984,28.1936.4453,42.2937.4617,5.5894.0065,5.662.282,7.69,6.3064-1.4419,1.0658-3.1646.7361-4.7407.7456-11.7842.07-23.5811.3691-35.3493-.0677C526.5187,104.561,519.7126,101.2978,512.9321,98.0614Z"/><path class="cls-7" d="M137.88,108.0277c-19.3047.7168-38.609-.3722-57.9136-.0148,3.8358-2.4633,8.2976.0745,12.7267-1.5946-2.9115-3.476-7.6913-4.4271-9.7273-8.3885l9.9934.0069a3.312,3.312,0,0,0,1.6373,1.7964c12.8,6.1553,25.9027,7.2069,39.292,2.146,2.2334-.8442,4.9282-1.21,6-3.9291l12.9817-.0224a3.118,3.118,0,0,1-1.5114,2.9278c-4.0428,2.3836-7.13,6.5573-12.3776,6.704Z"/><path class="cls-8" d="M242.509,47.5554c3.3564-7.8895,8.9644-10.4318,17.1319-9.6854,8.2466.7536,16.6155.166,25.0015.166-2.972,7.7131-6.2132,9.9625-13.8121,9.9145-8.484-.0537-16.9686-.0051-25.4527-.0405C244.3581,47.9057,243.1652,48.2586,242.509,47.5554Z"/><path class="cls-4" d="M295.2552,26.1418c-2.6739,3.3809-4.6012,5.8212-6.5325,8.2583a3.5574,3.5574,0,0,1-2.97,1.4858c-11.1876-.0275-22.3754-.0159-34.4421-.0159,2.6091-3.3067,4.7265-5.9893,6.8429-8.6728.9657-1.2244,2.3383-1.0518,3.65-1.0524C272.5567,26.1394,283.31,26.1418,295.2552,26.1418Z"/><path class="cls-3" d="M275.7324,49.8085c-1.8143,3.5118-4.0377,5.5367-5.7739,7.9224-1.9049,2.6175-4.9334,1.9211-7.3261,1.9993-9.7539.3189-19.5242.1328-29.3539.1328,2.0658-6.8363,6.0679-10.03,12.5074-10.0476C255.555,49.7888,265.3241,49.8085,275.7324,49.8085Z"/><path class="cls-9" d="M581.3368,187.8658c0,5.1682-.0331,9.0881.0155,13.0069.0211,1.7022-.2329,2.8263-2.3876,2.849-2.1621.0228-2.9332-.7362-2.8956-2.888.0958-5.4835-.039-10.9712.0774-16.4539.0307-1.44-1.0258-3.8209,1.4975-4.0122,2.2541-.171,5.0144-1.306,6.6192,1.7551a44.3049,44.3049,0,0,0,6.19,9.26c0-2.5336.0253-5.0674-.0083-7.6-.0256-1.9247-.1054-3.609,2.7128-3.62,2.6486-.01,2.9294,1.3477,2.9019,3.4462-.0719,5.4842.003,10.97-.0421,16.4549-.0115,1.3893.5535,3.2762-1.6723,3.52-1.93.211-3.9462.5549-5.1381-1.8446-1.622-3.2652-3.4749-6.4163-5.2564-9.6008C583.3329,191.0338,582.6329,189.9766,581.3368,187.8658Z"/><path class="cls-10" d="M160.902,135.1215c-.7-1.2709-1.9245-1.0976-3.0722-1.1012-2.992-.0093-5.9841-.018-8.9761.001a38.3639,38.3639,0,0,0-14.8319,2.5166c-7.6226,3.0885-16.1943,3.2915-24.4228,2.063-3.0506-.4555-6.4345.2155-9.2057-1.5716-7.7158-4.9757-16.3006-2.8052-24.5257-2.93-18.1143-.2747-36.2357-.07-54.3541-.1141-1.6635-.004-3.52.5339-4.9782-.6457l.029-1.3226H35.0491c1.2525,1.6592,3.0543.9474,4.6127.96,8.7789.0689,17.5586.0352,26.338.0366,7.6122-1.2852,15.2944-.9607,22.9607-1.0005a2.2267,2.2267,0,0,0,2.118,1c7.03-.0607,14.0651.0257,21.0865-.2479,2.5257-.0984,5.2634,1.2447,7.62-.7385l.2682.0825c1.24,1.7014,3.04.8458,4.5523.8591,12.4021.1089,24.8053.105,37.2081.1354C161.9465,133.9735,161.8391,134.7354,160.902,135.1215Z"/><path class="cls-3" d="M235.0254,121.3465c4.0105-1.1728,7.7418-.692,11.5011-.5808,6.6265.1959,13.266.124,19.8955-.0306,3.4013-.0793,6.07.6905,7.8837,3.8729a41.75,41.75,0,0,0,4.0013,5.0691c-4.7446,1.5191-9.2127.4662-13.6406.5876-5.79.1588-11.5788.3464-17.3651.5935-3.4048.1455-6.05-.95-7.9515-3.9338C238.123,125,236.5536,123.2937,235.0254,121.3465Z"/><path class="cls-3" d="M244.8219,133.3119c4.6357-1.72,8.7725-.6006,12.8794-.61,6.3-.0145,12.6011-.0357,18.8978-.2033a7.9983,7.9983,0,0,1,7.7275,4.33c.9042,1.5565,2.5831,2.576,3.2292,4.3962-.736,1.4084-2.0488.7832-3.07.797-9.1472.1242-18.3.0357-27.4414.3132-3.6828.1118-6.3859-.9088-8.3693-4.0577C247.6262,136.6125,246.2628,135.1471,244.8219,133.3119Z"/><path class="cls-4" d="M500.0625,21.04c19.0457-9.2144,38.1436-8.8076,57.2861-.1882l.0111,1.2236h-57.114Z"/><path class="cls-6" d="M315.7917,203.112c-4.9127,1.5884-7.8309-.062-10.1186-3.7291-1.063-1.7039-1.9613-3.8477-4.6217-4.4431-.7675,2.0867-.4909,4.0706-.41,5.9707.0985,2.3172-1.0444,2.76-3.0276,2.7994-2.0222.04-3.0372-.4254-2.9888-2.74.1251-5.9863.1146-11.9783.0045-17.9651-.0406-2.2088.7853-2.9349,2.9136-2.8134,2.9808.17,6.017-.172,8.9521.2478,6.2683.8966,8.5611,6.7631,4.2241,11.3193-1.9337,2.0314-1.6676,2.9964-.1569,4.725C312.3,198.4719,313.8475,200.6276,315.7917,203.112ZM300.64,188.2206c.1553.8594-.66,2.788,1.84,2.6266,2.0843-.1345,3.9817-.6407,4.1176-3.1915.133-2.4957-1.68-2.751-3.5892-2.9342C300.5062,184.4811,300.4715,186.0492,300.64,188.2206Z"/><path class="cls-11" d="M34.0337,51.0234H13.938l0-1.0143c4.272,0,8.5443.0259,12.816-.013a19.8639,19.8639,0,0,0,4.934-.3151A7.4663,7.4663,0,0,0,36.741,39.4667c-.4978-1.1455-1.73-.6577-2.6633-1.8275,5.1265-.0173,4.6614-4.1661,5.6711-7.2154.7413-2.2386-.0435-3.2967-2.5775-3.4713-3.0354-.2091-6.2553,1.1031-9.1061-.9189l.0039-.01c1.1618-.0033,2.3238-.018,3.4855-.0079,6.1563.0533,11.6692-.5982,14.1469-7.797.726-2.1093,1.1239-4.43,2.2466-6.4341A31.8987,31.8987,0,0,1,59.007,7.1182c-3.9138,6.791-6.6547,14.42-13.5264,19.2366.572.8629,1.6124.5868,2.5414.6586C45.801,30.3938,46.79,35.3619,42.53,37.85c-.6788.3966.7686.9867,1.498,1.1629-.6586,4.1234.2958,8.9816-4.9944,10.9951-1.6585.33-3.603-.7747-4.9752.9937Z"/><path class="cls-4" d="M439.0969,34.6238c3.5847-8.4208,3.5665-8.369,12.4643-8.06,7.6182.2648,15.2269.2675,22.8416.1431.49-.008.9736-.2284,1.4658-.2589,4.8788-.302,5.8633.4093,5.8364,4.1776-.0247,3.4711-1.3762,4.5459-6.0057,4.0918a65.15,65.15,0,0,0-7.4025-.153C458.596,34.7094,448.8918,34.6238,439.0969,34.6238Z"/><path class="cls-3" d="M663.8643,104.1471c-14.79,0-29.243.2848-43.6756-.1325-6.258-.1809-12.0268-3.2287-17.8657-6.1344q8.4963,0,16.9927.0017c12.1265.0209,24.2576.2522,36.377-.0287C660.0932,97.7512,662.5382,99.2823,663.8643,104.1471Z"/><path class="cls-12" d="M74.9406,2.9052C80.559,1.22,86.2893,2.1958,91.9782,2.1859c1.3448,2.2333-.5494,3-1.8841,3.7421-6.5977,3.6666-11.779,8.9531-16.9375,14.3251a6.65,6.65,0,0,0-2.1676,5.76l-2.9948,0-7.9874,0c-.08-3.0264,1.6088-5.3108,3.1644-7.6676,2.5866-3.9189,6.04-7.0468,9.3287-10.3218C73.9432,6.5868,75.4051,5.2249,74.9406,2.9052Z"/><path class="cls-13" d="M540.9678,191.9181c0-7.5673,3.966-11.9327,10.9115-12.0111,7.1963-.0813,11.4446,4.3921,11.4393,12.0457-.0053,7.6092-4.334,12.1619-11.469,12.0623C544.9979,203.9194,540.9675,199.439,540.9678,191.9181Zm16.38-.2509a21.85,21.85,0,0,0-.4-2.8653c-.7035-2.6178-2.211-4.71-5.1244-4.4868-2.8282.2165-4.2837,2.3262-4.5639,5.0755a22.3925,22.3925,0,0,0-.022,4.9472c.4036,3.3012,2.382,5.3619,4.94,5.215,2.9751-.171,4.2308-2.2827,4.886-4.84A19.1466,19.1466,0,0,0,557.3479,191.6672Z"/><path class="cls-13" d="M415.6646,192.3585c-.112,7.389-4.3106,11.7221-11.2934,11.6551-7.0057-.0672-11.1253-4.7482-10.9963-12.4946.1232-7.3962,4.3-11.6783,11.3251-11.612C411.8125,179.9742,415.784,184.4843,415.6646,192.3585Zm-5.9461-.0231a24.5313,24.5313,0,0,0-.414-3.7224c-.6589-2.4055-2.0685-4.2906-4.7667-4.3049-2.7181-.0144-4.1781,1.89-4.7553,4.2979a13.06,13.06,0,0,0,.189,7.3513,4.701,4.701,0,0,0,4.3022,3.5683c2.4465.1144,4.0487-1.3182,4.7922-3.5619A23.3516,23.3516,0,0,0,409.7185,192.3354Z"/><path class="cls-4" d="M589.7221,21.9629c12.712-9.95,43.8239-9.7044,56.1944-.8057C627.1834,22.5863,608.82,21.6988,589.7221,21.9629Z"/><path class="cls-14" d="M209.9386,132.255c3.481,0,6.9633.0569,10.4426-.02,2.4157-.0531,3.8563.6915,3.43,3.4158a2.77,2.77,0,0,0-.0024.4981c.1855,6.8421.1337,6.8306-6.6738,6.7424q-8.9541-.1161-17.9108.0623c-2.7626.0591-3.6648-.946-3.6794-3.77-.0371-7.1868-.09-7.2585,6.933-7.024,2.4844.083,4.9739.0133,7.461.0133Z"/><path class="cls-15" d="M70.989,26.0128a6.65,6.65,0,0,1,2.1676-5.76c5.1585-5.372,10.34-10.6585,16.9375-14.3251,1.3347-.7417,3.2289-1.5088,1.8841-3.7421,6.264-.59,12.0754,1.5023,17.98,3.0436.5524,1.1061.4751,1.5149-1.0029,1.866-7.608,1.8078-15.0238,4.3769-21.2467,9.1849-3.2332,2.4981-7.4558,4.6806-7.7317,9.7325l-2.9948,0Z"/><path class="cls-9" d="M272.6805,199.0513c-2.7589-.2984-4.5976-.2332-5.2419,2.8038-.5755,2.7123-3.2478,2.1257-4.9747,1.544-1.8114-.61-.54-2.2527-.1672-3.3973,1.8518-5.68,3.8027-11.3287,5.63-17.0167.6428-2,1.6433-2.95,3.926-2.8395,2.166.1053,3.7109.2809,4.4628,2.797,1.71,5.7215,3.7527,11.3425,5.59,17.0271.3914,1.2112,1.9943,3.0164-.4315,3.5376-1.6754.36-4.1554,1.1168-4.8883-1.8143C276.0032,199.3616,274.7711,198.1038,272.6805,199.0513Z"/><path class="cls-9" d="M455.5479,189.0984c-.0045-1.831.0634-3.6653-.0225-5.4923-.0971-2.0643.1344-3.3868,2.8357-3.4808,2.9876-.104,3.2034,1.3615,3.1372,3.6419-.1014,3.4927-.0421,6.9906-.0159,10.4861.02,2.7.5229,5.1721,3.9657,5.1071,3.4686-.0655,3.7669-2.6585,3.7926-5.2892.0358-3.6618.0851-7.3261-.0156-10.9854-.0578-2.0989.6186-3.0129,2.85-2.9144,1.9074.0841,3.2148.3316,3.1531,2.6949-.113,4.3249.1833,8.6747-.1637,12.9758-.4693,5.8176-3.9693,8.397-10.3447,8.1672-5.9066-.213-8.869-3.0666-9.1524-8.9192C455.4713,193.0973,455.5524,191.0959,455.5479,189.0984Z"/><path class="cls-3" d="M210.05,144.1043c3.4868,0,6.98.1305,10.4583-.0422,2.6715-.1328,3.3144.978,3.3558,3.4932.1139,6.9145-.4626,7.5953-7.4153,6.92-5.1582-.5011-10.2727.3292-15.4084.3462-1.723.0057-4.2946.8024-4.9929-1.048-1.04-2.7562-.7046-5.9167-.0945-8.8429.226-1.084,1.68-.7976,2.6407-.8043,3.8187-.0264,7.6376-.0108,11.4564-.0108Z"/><path class="cls-4" d="M596.5132,128.2481H547.5106c3.2821-7.2646,3.2806-7.1888,10.6416-7.0482,5.1429.0982,10.2927.0357,15.4349-.1125,3.2284-.0931,5.6161.4778,4.7692,4.8525,3.679-1.3321,6.9334-2.5319,10.2028-3.6889,4.491-1.5894,4.7871-1.4819,6.7978,2.6861C595.776,125.8061,596.6946,126.4608,596.5132,128.2481Z"/><path class="cls-3" d="M220.85,37.8429c1.3535.2406,2.7769-.1352,3.0231,2.2035.7889,7.4931.4907,7.9468-7.1511,7.9732-4.611.0159-9.2219.0953-13.8328.1462l-7.1213-.0113c-2.0167-2.8422-.9026-6.0469-.7588-9.0292.0958-1.9887,2.484-.7252,3.7218-1.2911C206.1042,38.1837,213.4772,38.1672,220.85,37.8429Z"/><path class="cls-16" d="M173.6349,95.0191c-1.1565,1.8746-2.982.863-4.449.8776-12.0945.12-24.19.1051-36.2857.131-14.6525,1.9188-29.3034-.5932-43.9555-.0159,2.1031-1.9562,4.6815-.5853,7.0043-1.0033h12.1194a76.184,76.184,0,0,0-12.7069-6.0364c-1.5052-.5954-3.2941-.785-3.4022-2.9587l3.1569.0625c.9189,1.686,2.6417.4637,3.8591,1.07,4.2565,2.0531,8.9906,1.14,13.3434,2.0847,7.5342,1.6353,14.4892-.0364,21.5417-2.0124l9.9821-.0185c-7.2066.3044-12.3629,5.8614-19.3177,6.811l.2462.9628h13.1506l9.975-.01,10.0023-.01Z"/><path class="cls-3" d="M446.6848,74.0457c-.6173,1.2219-.95,1.7727-1.1852,2.3627-2.3139,5.8114-6.7967,6.799-12.4445,6.0945a71.9161,71.9161,0,0,0-15.433.2053,44.3507,44.3507,0,0,1-8.4621-.1429c1.4583-6.3365,3.8431-8.6047,9.5028-9.0747a7.0956,7.0956,0,0,1,1.4875-.106C428.7475,74.5373,437.4161,73.2888,446.6848,74.0457Z"/><path class="cls-3" d="M209.1952,130.9308c-3.6594,0-7.3205-.0646-10.9777.0262-1.9464.0483-2.7622-.747-2.5928-2.6477a3.4573,3.4573,0,0,0-.0017-.5c-.4156-7.317.2706-7.8832,7.5816-7.2206a66.478,66.478,0,0,0,13.444-.0608c1.7175-.1939,3.2956.278,4.9356.263,1.7706-.0162,2.3465.8421,2.2169,2.453a8.7,8.7,0,0,0,.004.9993c.241,6.83.2417,6.8167-6.6267,6.71-2.66-.0414-5.3219-.0067-7.983-.0067Z"/><path class="cls-4" d="M555.1366,156.8867c-14.5157,10.1486-42.2841,8.7716-54.3393.0263C518.9264,156.0445,536.6566,156.9932,555.1366,156.8867Z"/><path class="cls-17" d="M88.9447,96.0118c14.6521-.5773,29.303,1.9347,43.9555.0159,1.1259,1.9164,2.9719.9525,4.4524.964,10.9121.0852,21.8251.02,32.7378.0442,3.8955.0087,3.8954.0621,2.8189,4.1112.0854-2.214-.7332-3.2709-3.1869-3.1768-4.6065.1765-9.224.0644-13.8369.0724l-3.0149-.0151-12.9817.0224c-2.0908.1839-4.1822-.4188-6.2645.744-10.8847,6.0779-22.1184,4.8629-33.1388.71a20.9454,20.9454,0,0,0-7.526-1.467L82.9662,98.03l-12.9787-.0086q-.496-.0075-.9919-.0144l-.0005-1.99,3.99-.01,5.9894.0008Z"/><path class="cls-18" d="M195.6128,197.04c2.0641.6138,3.7768,2.0422,5.9328,2.3882a7.9662,7.9662,0,0,0,3.9165-.0741c.9993-.3329,1.9431-.8267,2.0623-1.9231.1258-1.156-.8408-1.8268-1.76-2.1486-1.56-.5463-3.2249-.7865-4.8023-1.2912-3.9406-1.2608-5.6542-3.3257-5.6479-6.6463.0061-3.2129,1.9415-5.5733,5.5567-6.8374a15.5076,15.5076,0,0,1,6.9055-.4131c4.9686.537,5.2345.9745,4.5818,6.3893-2.3567-.76-4.4284-2.4172-7.0263-2.3133-1.4994.06-3.2227.2047-3.627,1.9694-.4856,2.12,1.4955,2.2656,2.8084,2.727,1.558.5475,3.2316.77,4.78,1.3393a6.0606,6.0606,0,0,1,4.3793,5.5054,6.6748,6.6748,0,0,1-3.5461,6.6533c-4.4029,2.4748-8.9909,1.9664-13.4914.3819C194.7822,202.0948,194.8175,201.5638,195.6128,197.04Z"/><path class="cls-4" d="M311.7273,83.3288c-3.637,0-7.276-.0734-10.91.0251-2.5356.0688-3.3437-.9149-3.3673-3.5076-.06-6.6643.0725-6.8675,6.7454-6.7231q8.69.188,17.3862.0422c3.0907-.0517,4.34.9294,4.2024,4.3032-.231,5.6669.0075,5.6852-5.6048,5.7258-1.491.0108-2.9825-.0578-4.4739-.0728-1.3262-.0133-2.6526-.0028-3.9789-.0028Z"/><path class="cls-6" d="M625.9816,186.6132c-2.7462-1.02-4.976-2.7476-7.7806-2.4125-1.3153.1571-2.7777.3952-3.1061,1.9845-.3789,1.8333,1.2131,2.1551,2.4149,2.5587,1.7238.579,3.551.86,5.2554,1.4831a6.0017,6.0017,0,0,1,4.3285,5.5309,6.588,6.588,0,0,1-3.1633,6.3591c-4.4958,2.7926-9.26,2.32-13.8932.59-2.492-.93-1.436-3.3238-1.3483-5.1909,1.4256-.8915,2.1709.4637,3.1511.8314,2.027.76,4.0208,1.6424,6.2415,1.21,1.3043-.254,2.802-.6342,2.8424-2.2822.0331-1.3485-1.2037-1.8723-2.3541-2.1953-1.5958-.4482-3.24-.7423-4.8072-1.2695-2.9118-.98-4.8794-2.8567-4.981-6.1236-.1062-3.4179,1.6962-5.531,4.74-6.87,2.5667-1.1288,5.214-.9915,7.8379-.7016C626.05,180.6341,626.2385,180.9794,625.9816,186.6132Z"/><path class="cls-6" d="M364.1564,196.908c2.3218.81,4.06,2.16,6.2007,2.5192a7.8167,7.8167,0,0,0,3.91-.0857c1-.3341,1.9428-.8346,2.0457-1.9333.1077-1.1506-.8589-1.8244-1.7851-2.1346-1.7246-.5776-3.5542-.84-5.28-1.4151-3.1025-1.0328-5.1193-2.9936-5.0771-6.5359.0415-3.4831,2.0263-5.4033,5.0557-6.6413a14.8084,14.8084,0,0,1,7.3624-.5774c4.9705.5247,5.206.94,4.579,6.4078-2.35-.7779-4.4189-2.42-7.0144-2.3407-1.5016.0459-3.2115.1759-3.66,1.9152-.5489,2.1271,1.4356,2.2994,2.7389,2.7657,1.553.5557,3.2278.7709,4.7784,1.3317,2.5236.9126,4.2292,2.6462,4.4244,5.4566a6.6851,6.6851,0,0,1-3.47,6.6836c-4.3893,2.5263-9.0125,2.1014-13.463.43C362.8092,201.743,363.9081,199.293,364.1564,196.908Z"/><path class="cls-3" d="M223.7167,50.1426c.2714,9.8224.2714,9.8058-9.6837,9.7808-5.1068-.0129-10.2164-.042-15.3194.1113-2.3476.0706-3.3148-.7114-3.1152-3.11.191-2.2944.151-4.6081.2125-6.9133Z"/><path class="cls-19" d="M195.922,26.0467c7.737-.0115,15.4741-.0455,23.211-.026,4.63.0117,4.6412.0492,4.67,4.4617.0117,1.8127-.0394,3.6258-.0619,5.4387q-11.2185.1771-22.437.3549c-5.6108.0908-5.6245.0938-5.5892-5.7483C195.7235,29.0337,195.85,27.54,195.922,26.0467Z"/><path class="cls-4" d="M311.7488,26.0975c3.1536,0,6.3081-.05,9.46.0119,4.5035.0877,4.5027.1224,4.4872,4.8652a11.641,11.641,0,0,0,.0063,1.4958c.3113,2.4464-.9775,3.275-3.1852,3.2779-7.4652.01-14.93.01-22.3952.0814-1.92.0182-2.7662-.7664-2.6038-2.671a8.4925,8.4925,0,0,0-.0017-.9976c-.2023-6.1006-.1524-6.16,5.7658-6.0965,1.4936.0159,2.9865.0972,4.48.121,1.3285.0213,2.6576.0045,3.9863.0045Z"/><path class="cls-3" d="M591.0994,157.0956h53.0439C626.5409,166.5783,608.8709,165.9539,591.0994,157.0956Z"/><path class="cls-20" d="M125.9348,11.89a50.6289,50.6289,0,0,1,18.8387,13.0021l-3.9222-.0282c-1.42-1.4706-3.5777-.996-5.26-2.3313-6.0076-4.7676-13.4966-4.593-20.6388-5.58-2.2763-.3144-3.5115,2.0437-5.4715,1.7272-6.2383-1.0075-10.4555,2.4312-14.5436,6.28l-6.9745.0391c5.2623-7.7283,13.7005-9.7054,21.9139-11.9317,4.2662-1.1564,8.6608-1.7253,13.0607-.1317A2.2867,2.2867,0,0,0,125.9348,11.89Z"/><path class="cls-21" d="M74.9406,2.9052c.4645,2.32-.9974,3.6816-2.4407,5.119-3.2885,3.275-6.7421,6.4029-9.3287,10.3218-1.5556,2.3568-3.2447,4.6412-3.1644,7.6676l-1.9986,0a39.8267,39.8267,0,0,1-9.9862,1c-.929-.0718-1.9694.2043-2.5414-.6586,6.8717-4.817,9.6126-12.4456,13.5264-19.2366C64.01,4.5452,69.507,3.8453,74.9406,2.9052Z"/><path class="cls-4" d="M438.4846,86.0705c-2.9272,7.6118-3.2777,7.8951-9.9164,7.91-8.9.02-17.8.0048-27.0223.0048.5259-2.5743,2.13-4.1107,3.0576-5.9785.7622-1.535,1.9642-1.9729,3.6267-1.9636C418.1505,86.0987,428.0714,86.0705,438.4846,86.0705Z"/><path class="cls-22" d="M125.9348,11.89a2.2867,2.2867,0,0,1-2.9976,1.0458c-4.4-1.5936-8.7945-1.0247-13.0607.1317-8.2134,2.2263-16.6516,4.2034-21.9139,11.9317-1.3526.233-2.97-.5826-3.98,1.008l-4.0063.0055c.2759-5.0519,4.4985-7.2344,7.7317-9.7325,6.2229-4.808,13.6387-7.3771,21.2467-9.1849,1.478-.3511,1.5553-.76,1.0029-1.866C115.61,6.6636,121.1652,8.3324,125.9348,11.89Z"/><path class="cls-23" d="M168.5435,119.0049H134.6094c.19-2.2576,1.9942-2.4333,3.2416-2.8043,2.2664-.6741,4.6553-1.4459,6.2536-2.946,3.85-3.6138,8.3841-3.3048,12.9985-3.2458,3.4907.0445,6.9824.0015,10.4735.0114,1.3151.0037,2.7181-.1829,3.4631,1.3284A16.6525,16.6525,0,0,1,168.5435,119.0049Z"/><path class="cls-4" d="M311.7578,97.1164c3.6364,0,7.277.1074,10.9076-.0375,2.4469-.0976,3.2671.9332,3.045,3.233a23.3908,23.3908,0,0,0-.0128,3.475c.0855,1.607-.4732,2.4491-2.2222,2.4455-1.63-.0034-3.2023.4125-4.9041.2528a64.8047,64.8047,0,0,0-13.8395.0806c-6.44.7774-7.5963-.35-7.26-6.5892.1126-2.0894.731-2.9708,2.8815-2.9117,3.7991.1044,7.6031.0292,11.405.0292Z"/><path class="cls-3" d="M311.53,38.0737c3.6393.0027,7.28.0691,10.9171-.0223,2.1584-.0543,3.2363.4424,3.3141,2.9858.1793,5.8675-.5743,6.939-6.49,6.4905a90.24,90.24,0,0,0-15.8067.1582c-5.3843.5344-8.0481-3.5258-5.8106-8.5037.66-1.4689,1.8958-1.0559,2.9587-1.1032,1.8157-.0807,3.638-.0111,5.4575-.0085S309.71,38.0711,311.53,38.0737Z"/><path class="cls-3" d="M311.6427,130.1417c-2.8235,0-5.647-.011-8.47.0023-5.9681.0281-6.148-.2627-5.6911-6.59.1339-1.854.6482-2.6884,2.5949-2.67q11.7071.1095,23.4152.0551c1.8012-.0064,2.2677.9033,2.2023,2.48a35.92,35.92,0,0,0,.0092,3.9908c.1353,1.931-.6892,2.6587-2.5984,2.6178-3.819-.0818-7.641-.0243-11.4617-.0243Z"/><path class="cls-3" d="M311.662,59.2174c-2.8234,0-5.6468-.0111-8.47.0023-5.8516.0277-6.1291-.3759-5.7119-6.5971.1241-1.8492.6041-2.6854,2.5775-2.6652q11.712.12,23.4256.0454c1.8-.0087,2.2816.8666,2.2119,2.4547a35.0542,35.0542,0,0,0,.0084,3.9913c.1348,1.9159-.6432,2.6677-2.5779,2.6207-3.8191-.0927-7.642-.0273-11.4633-.0273Z"/><path class="cls-3" d="M311.1511,109.0306c3.8214,0,7.6472.1106,11.4626-.04,2.3849-.0944,3.3538.7558,3.0956,3.1414a22.6761,22.6761,0,0,0-.0161,3.4913c.0748,1.59-.4265,2.4691-2.2168,2.4669q-11.7079-.0147-23.4155.1163c-1.987.0254-2.6453-.85-2.5446-2.6936a31.9412,31.9412,0,0,0-.0032-3.9912c-.1421-2.004.83-2.57,2.6727-2.5281,3.6534.0825,7.31.0244,10.9653.0244Z"/><path class="cls-3" d="M311.651,61.8767c3.6388,0,7.28.0832,10.9155-.03,2.2714-.071,3.136.6528,3.1907,3.0883.1313,5.84.0565,6.0545-5.8349,6.0464-6.2858-.0086-12.5746-.1107-18.8561.055-2.8374.0748-3.6393-.9456-3.6105-3.7184.0584-5.6194-.0513-5.6572,5.7645-5.6,2.81.0278,5.6206.0048,8.431.0048Z"/><path class="cls-4" d="M311.9026,85.9748c3.659,0,7.3213.0947,10.9757-.0356,2.1791-.0777,3.204.765,2.7787,2.8783-.422,2.0976,1.683,5.6516-2.5062,5.7912-7.7985.26-15.61.1378-23.4155.1736-1.3756.0064-1.9815-.605-2.2295-2.05-.9994-5.8256-.1289-6.89,5.9159-6.8528,2.8268.0175,5.6539.003,8.4809.003Z"/><path class="cls-3" d="M210.2573,15.9148c3.6561.0019,7.3139.0683,10.9677-.0251,1.9269-.0493,2.9486.7331,2.5252,2.6-.4444,1.96,1.6465,4.6536-1.8118,5.8193-3.3265,1.1213-6.5738-.2085-9.8816.0877-4.4514.3985-8.9489.2765-13.4264.3868-4.3461.1071-2.7081-3.1857-2.99-5.336-.3043-2.3226.252-3.7681,3.1532-3.5918C202.6021,16.0875,206.435,15.9129,210.2573,15.9148Z"/><path class="cls-4" d="M446.6876,22.8388c2.3924-6.8207,2.5236-6.9266,8.5776-6.9293,7.6384-.0034,15.2769.0147,22.9153-.01,1.9176-.0062,3.6867-.1409,3.5629,2.71-.1,2.29.1079,4.304-3.2182,4.27C467.9536,22.77,457.38,22.8388,446.6876,22.8388Z"/><path class="cls-4" d="M467.3306,152.8453c-3.8248,0-7.65-.0415-11.4743.0122-3.5046.0492-2.25-2.5755-2.3725-4.2873-.1228-1.7184-.6044-3.78,2.4218-3.7392,7.6495.1033,15.3027.1408,22.9514.017,3.1664-.0512,2.83,1.9284,2.8635,3.9533.0346,2.1131.12,4.0736-2.9211,3.996-3.8207-.0976-7.6457-.0235-11.4688-.0235Z"/><path class="cls-3" d="M481.4084,74.3388a4.9458,4.9458,0,0,0,.1053.9059c.46,8.3393.4906,6.6372-6.1774,6.847-6.1445.1933-12.3047-.0637-18.4449.1921-3.5442.1477-3.5687-1.798-3.483-4.3506.0745-2.2207-.3167-4.3611,3.1425-4.1417C464.825,74.3163,473.139,73.322,481.4084,74.3388Z"/><path class="cls-24" d="M604.4355,69.0179c-11.1627,0-21.3856-.111-31.6037.0609-3.5278.0593-3.5306-2.1358-3.7362-4.4983-.2748-3.1591,2.232-2.3956,3.7586-2.42,7.1053-.1127,14.2144-.0685,21.321.0134C597.3829,62.2111,597.3818,62.31,604.4355,69.0179Z"/><path class="cls-24" d="M467.22,86.1128c3.8-.0036,7.6033.0774,11.4006-.0332,2.3816-.0693,3.2421.9275,3.1184,3.2437-.1068,1.9992.231,3.7626-2.74,4.2514-2.5287.4161-4.9073-.2-7.3718-.0487-5.1032.3122-10.2353.1131-15.3506.2788-3.5983.1165-2.6915-2.4075-2.852-4.4111-.1712-2.1388.2646-3.4556,2.8923-3.3232C459.9423,86.2533,463.5844,86.1163,467.22,86.1128Z"/><path class="cls-24" d="M543.4405,110.1467c7.3077-1.7442,14.238-.107,21.1422-.361,3.2671-.12,6.5041-.6027,9.8688-.2131,3.5362.41,3.2937,2.8842,3.5748,4.9126.3826,2.76-2.4982,2.132-3.564,2.0615-7.6075-.5034-15.1841.55-22.776.2229-1.424-.0612-2.6011-.3633-3.3514-1.67C547.2429,113.1978,545.2162,112.2078,543.4405,110.1467Z"/><path class="cls-25" d="M334.5815,180.219c2.4958.0041,4.992.0313,7.4873-.0053,1.7067-.0251,2.3111.8133,2.3455,2.4511.0377,1.8-.872,2.14-2.4508,2.2893-4.448.4191-4.4432.4966-4.4494,5.1192-.0044,3.3326-.1029,6.6693.0332,9.9963.0975,2.3827-.3737,3.6791-3.2044,3.6932-2.7586.0137-2.8681-1.4147-2.8291-3.4545.0733-3.831-.1677-7.6767.081-11.4929.1952-2.9949-.6017-4.3673-3.8059-3.9515-1.1462.1487-2.8663.6273-3.0968-1.4338-.1969-1.76-.1772-3.3777,2.4034-3.2432C329.5846,180.3165,332.0857,180.215,334.5815,180.219Z"/><path class="cls-26" d="M97.9516,74.9647l36.9461.0841C126.7983,84.8331,108.22,86.655,97.9516,74.9647Z"/><path class="cls-27" d="M495.8731,180.2189c2.6534.0023,5.3069.0185,7.96-.0033,1.79-.0147,2.2243,1.0369,2.1857,2.5795-.0355,1.4153-.6943,2.3383-2.1109,2.0782-4.7843-.8785-4.9629,1.9127-4.716,5.46.2186,3.14-.0655,6.3129.0805,9.4616.1181,2.5456-.32,4.0348-3.4259,3.9629-3.3954-.0787-2.5247-2.3569-2.5651-4.1629-.0779-3.4859-.1861-6.9848.0264-10.4594.1854-3.0306-.44-4.823-3.9713-4.2386-1.9092.316-3.2305-.1717-3.01-2.5982.13-1.4255.5958-2.122,2.0833-2.0944C490.8973,180.25,493.3855,180.2167,495.8731,180.2189Z"/><path class="cls-28" d="M523.0685,180.2134c1.3306,0,2.6613-.0121,3.9918.0036,1.0463.0123,2.064.17,2.1279,1.5063.0453.9478.3334,2.2667-.9818,2.4719-2.7293.4258-2.2469,2.4055-2.2636,4.1782-.0218,2.3317-.0266,4.6641.0018,6.9957.0213,1.7591-.4883,3.7377,2.2366,4.1921,1.2281.2048,1.06,1.5011,1.0151,2.4874-.06,1.3137-.9968,1.6048-2.0595,1.6149q-4.2408.04-8.4822.0019c-1.0274-.01-2.0544-.1791-2.1516-1.512-.0846-1.16-.2549-2.5268,1.38-2.7042,2.1473-.2331,2.1144-1.6735,2.0951-3.241-.0308-2.4981.0256-4.9975-.0182-7.4952-.0333-1.8958.6351-4.14-2.4539-4.5058-1.321-.1563-1.04-1.4822-1.012-2.438.04-1.354,1.0281-1.5385,2.0837-1.5511C520.0745,180.2,521.5715,180.2136,523.0685,180.2134Z"/><path class="cls-5" d="M73.9866,120.0134c8.8872.04,17.7589.3787,26.64.7583,8.29.3542,16.6543.3618,24.9839.1921a22.4448,22.4448,0,0,0,4.325-.9373c.4461,1.2743,1.5595.9838,2.4736.9822q17.2413-.03,34.4823-.1121c1.1839.748,1.0934,1.5463.0936,2.38-1.658-2.3024-4.0815-.8422-6.125-1.2495l-11.9788.0013-63.9128-.01-12.9834-.0016c-.9925-.0019-1.9888-.0618-2.977.003-14.0048.919-27.9535-2.2225-41.9716-.59-.8444.0983-.9011-.7617-.9757-1.4133l-.0025.002,15.9671-.0136Z"/><path class="cls-24" d="M209.7754,162.8777c-3.82-.0024-7.6434-.11-11.4578.033-2.8311.106-2.6631-1.6632-2.7279-3.5812-.0708-2.0964.204-3.4253,2.8756-3.3711q11.2056.2275,22.4178.0142c2.6124-.0534,3.0056,1.0937,2.9711,3.2858-.035,2.2265-.0715,3.8916-3.122,3.681C217.0959,162.6883,213.429,162.88,209.7754,162.8777Z"/><path class="cls-29" d="M428.44,191.7762c-.0022-2.3325-.061-4.6668.0151-6.9968.0694-2.1239-.9594-4.7476,3.083-4.6565,4.1732.094,2.7383,2.9334,2.8285,4.9116.1669,3.6577.1908,7.3359-.0009,10.9911-.13,2.4738.7768,3.2829,3.1358,3.0368,1.4807-.1545,2.9923.0109,4.4885-.0266,1.53-.0384,2.02.7933,2.0264,2.1732.0056,1.2945-.2765,2.4124-1.813,2.4318-3.9919.05-7.9848.0208-11.9773.01-1.62-.0044-1.7919-1.1178-1.7875-2.3779C428.4489,198.1071,428.4416,194.9417,428.44,191.7762Z"/><path class="cls-30" d="M467.177,162.8867c-3.6424.0041-7.2854-.034-10.927.021-1.6992.0257-2.9959-.2525-2.8111-2.3733.1441-1.6544-.7277-3.7247,2.2665-3.9386a149.8711,149.8711,0,0,1,23.7591.0949c2.5551.2228,2.1865,1.9053,2.2533,3.5412.0761,1.8628-.6864,2.7091-2.6206,2.673C475.125,162.8306,471.1506,162.8825,467.177,162.8867Z"/><path class="cls-4" d="M667.703,115.96c-9.2893,0-18.5266.1728-27.7509-.1-2.9773-.0879-3.7157-3.9175-6.734-5.12,1.3047-1.2,2.4742-.8583,3.4894-.864,8.4377-.0478,16.8759-.1021,25.3134-.051C667.005,109.8554,667.0045,109.94,667.703,115.96Z"/><path class="cls-31" d="M155.8855,98.0427c4.6129-.008,9.23.1041,13.8369-.0724,2.4537-.0941,3.2723.9628,3.1869,3.1768-.0147,2.0173.3662,4.1132-1.1552,5.8312H147.6029C150.41,103.0245,154.3681,101.6738,155.8855,98.0427Z"/><path class="cls-4" d="M597.9952,51.3366c-1.4149,6.0272-1.4149,6.0284-7.1887,5.958a145.2841,145.2841,0,0,0-16.8963.3475c-4.86.5057-6.0747-1.056-5.0541-5.0219.3872-1.5046.8945-2.2262,2.6425-2.1582,5.1179.1991,10.2443.1754,15.3671.2515C590.4667,50.767,594.11,49.3956,597.9952,51.3366Z"/><path class="cls-32" d="M683.1284,12.7518a12.9454,12.9454,0,0,1-12.7293,13.1865,13.3,13.3,0,0,1-13.1738-12.8422,12.9527,12.9527,0,0,1,25.9031-.3443ZM670.3256,23.2285c5.683-.0454,10.6009-4.838,10.5752-10.3056-.0263-5.5855-5.46-10.9872-10.9647-10.6682-5.1692.3-10.3644,4.7509-10.0652,10.8065C660.17,19.1126,664.2423,23.2771,670.3256,23.2285Z"/><path class="cls-33" d="M637.6188,127.9351c2.739-6.9913,3.052-7.1138,9.8775-6.4387a68.5925,68.5925,0,0,0,13.3718-.0176,21.128,21.128,0,0,1,4.9115.1621c1.4933.198,2.5529.4857,2.3456,2.33-.1845,1.6406.0139,3.4615-2.314,3.7374a21.4482,21.4482,0,0,1-2.4719.2174C654.9073,127.9413,646.4753,127.9351,637.6188,127.9351Z"/><path class="cls-34" d="M172.5412,75.9654a21.1589,21.1589,0,0,1,1.243,8.962c-5.6417.28-11.2832.25-16.9246-.0126-.8382-1.4427-1.347-2.7471-.086-4.3875a44.2149,44.2149,0,0,0,3.1076-5.3869C164.1015,75.4112,168.426,74.0783,172.5412,75.9654Z"/><path class="cls-35" d="M156.86,84.9148c5.6414.2626,11.2829.2925,16.9246.0126l-.0152,2.1885-8.9413.0613-8.9907.0133-7.0037.0065-4.9908.0024-9.9821.0185-34.8851-.0723c-1.2174-.606-2.94.6163-3.8591-1.07a2.0754,2.0754,0,0,0,.8267-.1787l5.9709-.0325,6.9921-.0315c3.023-.888,6.1284-.7847,9.2293-.8,3.9479-.0195,7.8955-.0972,11.8433-.15l7.945.0113,5.9914.0054,6.9609.0226A21.8825,21.8825,0,0,0,156.86,84.9148Z"/><path class="cls-36" d="M129.9785,84.8834c-3.9478.0526-7.8954.13-11.8433.15-3.1009.0153-6.2063-.088-9.2293.8.0549-1.9182-1.6313-1.6932-2.7134-2.2026-4.4228-2.0819-8.8628-4.1388-11.152-8.9l2.9111.2345c10.2684,11.69,28.8467,9.8684,36.9461.0841a13.9008,13.9008,0,0,1,4.9912-.0512C137.3288,79.04,133.2659,81.572,129.9785,84.8834Z"/><path class="cls-30" d="M478.4455,128.81c.82-1.132,2.0681-.7,3.1523-.8673,5.5185-.5749,10.3184-3.3729,15.4721-5.0716,6.2824-2.0708,6.2336-2.2166,9.5538,3.6454.3153.5567.6488,1.1031,1.28,2.173C497.794,129.27,488.1173,128.91,478.4455,128.81Z"/><path class="cls-37" d="M47.9481,11.7843c-1.1227,2.0038-1.5206,4.3248-2.2466,6.4341-2.4777,7.1988-7.9906,7.85-14.1469,7.797-1.1617-.01-2.3237.0046-3.4855.0079A66.2668,66.2668,0,0,1,47.9481,11.7843Z"/><path class="cls-38" d="M127.9939,71.9292l-20.1055.0218c-1.92-3.2889-5.8292-5.0492-6.8939-8.9956l2.9218.08c1.9939,2.4012,3.7444,4.9959,6.9466,6.1146,7.6545,2.6741,12.06,1.245,18.0649-6.1l5.9858-.02C133.1449,66.4155,130.1925,68.8785,127.9939,71.9292Z"/><path class="cls-39" d="M167.9105,62.6721c3.7961,1.5853,3.3075,5.2641,3.8418,8.31.3062,1.7454-1.4951,1.3585-2.515,1.3542-3.7894-.0161-7.5783-.1412-11.3673-.2254.3806-3.13,2.4655-5.8892,2-9.2039l2.9038-.2937A8.305,8.305,0,0,0,167.9105,62.6721Z"/><path class="cls-40" d="M144.97,26.8093c5.6987,1.0995,7.92,5.9418,10.8066,10.0683l-9.9138-.0435c-2.5047-3.6537-6.2423-6.165-8.922-9.6565Z"/><path class="cls-12" d="M164.8277,87.1772l8.9413-.0613a38.2749,38.2749,0,0,1-.1341,7.9032l-15.736-.0657C159.2043,91.464,161.9715,89.2808,164.8277,87.1772Z"/><path class="cls-41" d="M129.9785,84.8834c3.2874-3.3114,7.35-5.8432,9.91-9.8858,9.9764-1.1732,20.0012-.613,30.0042-.8241,1.2484-.0264,2.8121-.3506,2.6481,1.7919-4.1152-1.8871-8.44-.5542-12.66-.825l-4.033.0051-4.9923.016c-1.9213-.001-4.263-.951-5.4775,1.1564-1.9473,3.3789-5.4321,5.3253-7.4549,8.5768Z"/><path class="cls-42" d="M160.86,122.0275c2.0435.4073,4.467-1.0529,6.125,1.2495a16.6411,16.6411,0,0,1-3.8369,7.8306l-13.2663-.12c.8394-2.8617,3.4856-3.6233,5.7029-4.8308C157.5861,125.0666,159.8285,124.34,160.86,122.0275Z"/><path class="cls-43" d="M168.0869,58.6764c1.0108.9171.9119,1.7411-.2074,2.48l-19.9767-.3311c-2.1243-.86-3.4829-2.1148-3.0594-4.7355a34.19,34.19,0,0,0,.1118-4.9448l5.9494-.039c-.0774,8.92-.0774,8.92,8.9622,8.8982C162.5989,59.5118,165.6891,61.2446,168.0869,58.6764Z"/><path class="cls-44" d="M153.0371,146.1122l-71.06-.1c1.6578-1.87,4.0526-1.2955,5.97-1.3113,11.102-.091,22.2072.1423,33.31.3257a10.5857,10.5857,0,0,0,4.7718-.9815c1.1873,1.793,2.997.8748,4.4963.9054,7.7345.158,15.472.1673,23.2085.2285C153.8028,145.7156,153.6019,146.05,153.0371,146.1122Z"/><path class="cls-45" d="M155.96,38.7667c4.2756,1.6074,5.5656,5.2292,6.2358,9.269-1.5447,1.81-3.53.8126-5.3537.842-.431-.8053-1.1924-.8556-1.9716-.8653-.3171-3.1926-2.3381-5.8106-2.99-8.89Z"/><path class="cls-46" d="M95.0405,74.73c2.2892,4.7616,6.7292,6.8185,11.152,8.9,1.0821.5094,2.7683.2844,2.7134,2.2026l-6.9921.0315a2.63,2.63,0,0,0-1.18-1.9793c-2.4827-2.1191-5.7789-3.4366-7.4827-6.2526-1.6157-2.67-3.7616-2.7837-6.2842-2.589l-1.0152-1.0282c.9778-.3816,1.8277-1.1338,2.9734-1.0287l1.9947.026,2.8.0058.3028.0013C93.8067,73.9215,94.7509,74.1305,95.0405,74.73Z"/><path class="cls-47" d="M168.0869,58.6764c-2.3978,2.5682-5.488.8354-8.22,1.3274q.0015-4.4806.0028-8.9613l4.9719.0055A27.3383,27.3383,0,0,1,168.0869,58.6764Z"/><path class="cls-48" d="M155.8855,98.0427c-1.5174,3.6311-5.4757,4.9818-8.2826,8.9356h24.1512c-.4618.9331-1.3375.7879-2.1293.7857q-15.3216-.042-30.6432-.1046c5.2476-.1467,8.3348-4.32,12.3776-6.704a3.118,3.118,0,0,0,1.5114-2.9278Z"/><path class="cls-49" d="M156.8424,48.8777c1.824-.0294,3.809.9681,5.3537-.842.6678.4518.6689,1.1666.7309,1.8574-6.4758.04-12.9527.0288-19.4268.158-1.5407.0307-3.3833-.758-4.5477,1.0635a6.6424,6.6424,0,0,1-3.0507,2.8364c-.0122-1.4011.3159-3.0372-1.9731-2.8666-2.3-.1631-1.92,1.5633-2.0568,2.925l-1.9836-1.0112c-.0844-1.7832.2851-3.1045,2.5311-3.0113,1.1959.05,2.5632.3942,3.4576-.8884l4.01-.2506,2.9918.0086,1.9938-.0115,3,.0088Z"/><path class="cls-50" d="M127.9939,71.9292c2.1986-3.0507,5.151-5.5137,6.92-8.9l-.0338-.056,4.047.16a28.86,28.86,0,0,1-4.9939,8.8011Z"/><path class="cls-41" d="M147.8748,72.063c-1.7718.1082-3.6451.8711-5.141-.8l3.1627-7.2007a5.4032,5.4032,0,0,1,4.9841-1.0518C150.8411,66.3488,148.7493,69.0032,147.8748,72.063Z"/><path class="cls-51" d="M159.87,62.9069c.4657,3.3147-1.6192,6.0736-2,9.2039a10.9075,10.9075,0,0,1-5.0089,0,25.47,25.47,0,0,0,2.0207-9.1685A14.5116,14.5116,0,0,1,159.87,62.9069Z"/><path class="cls-52" d="M99.9624,72.0441l-5.94.9759-.3028-.0013c.8411-1.1027,1.4135-2.0712.3076-3.513-1.8948-2.47-2.2494-5.4447-2.0806-8.4883l1.0171-.0059,2.03.03a6.6422,6.6422,0,0,0,.0376.8343C95.0678,66.0467,97.912,68.8524,99.9624,72.0441Z"/><path class="cls-53" d="M149.8815,130.9874l13.2663.12-1.2445.9768-41.85.024-.2682-.0825c2.8623-1.9565,6.0944-.572,9.1245-1.0132Z"/><path class="cls-54" d="M144.97,26.8093l-8.0292.3683-6.9538.0125-7.966.01-11.1776-.0148-6.9824-.0035c-.8163-.1813-1.73-.19-2.09-1.1809l1.0233-.0983,42.0665.0985A3.458,3.458,0,0,1,144.97,26.8093Z"/><path class="cls-55" d="M144.8609,26.0015l-42.0665-.0985c1.4377-1.1944,3.1656-.7412,4.7732-.7657,8.4313-.1282,16.8637-.1858,25.2957-.268l7.988-.0052,3.9222.0282Z"/><path class="cls-56" d="M100.9945,62.9554c1.0647,3.9464,4.9738,5.7067,6.8939,8.9956L102.9361,72c-1.8714-3.18-5.5263-5.4479-5.0233-9.8434C99.04,62.0353,100.2078,61.759,100.9945,62.9554Z"/><path class="cls-57" d="M120.0533,132.1084l41.85-.024-.09,1.0185c-12.4028-.03-24.806-.0265-37.2081-.1354C123.0928,132.9542,121.2935,133.81,120.0533,132.1084Z"/><path class="cls-58" d="M154.8818,62.9426a25.47,25.47,0,0,1-2.0207,9.1685,11.6352,11.6352,0,0,1-4.9863-.0481c.8745-3.06,2.9663-5.7142,3.0058-9.052Z"/><path class="cls-59" d="M166.8911,120.8966q-17.2412.0633-34.4823.1121c-.9141.0016-2.0275.2921-2.4736-.9822l36.9366.0048Q166.887,120.4638,166.8911,120.8966Z"/><path class="cls-60" d="M133.9329,71.9347a28.86,28.86,0,0,0,4.9939-8.8011l2.9835-.0185c.2763,3.3984-2.7749,5.6646-3.0153,8.8872Z"/><path class="cls-61" d="M155.96,38.7667l-4.0795.3554-3.9953.0141-3.9746.0028-3.9431.0625c-.7451-.25-1.77-.0167-1.9966-1.1612a3.7678,3.7678,0,0,0,.9461-.1888l2.9652-1.0138,3.9805-.0036,9.9138.0435Z"/><path class="cls-62" d="M147.9028,60.8249l19.9767.3311.031,1.5161a8.305,8.305,0,0,1-5.1369-.0589c-1.4421-1.2033-3.1527-.6057-4.7335-.6241-6.0658-.0707-12.1329-.0268-18.1995-.0257l.1257-1.0979Z"/><path class="cls-63" d="M138.895,72.0023c.24-3.2226,3.2916-5.4888,3.0153-8.8872a4.1775,4.1775,0,0,1,3.9862.9477l-3.1627,7.2007A4.0863,4.0863,0,0,1,138.895,72.0023Z"/><path class="cls-64" d="M153.7338,145.179c-7.7365-.0612-15.474-.0705-23.2085-.2285-1.4993-.0306-3.309.8876-4.4963-.9054l27.933-.0181Z"/><path class="cls-65" d="M97.9128,62.1562c-.503,4.3955,3.1519,6.6631,5.0233,9.8434l-2.9737.0445c-2.05-3.1917-4.8946-5.9974-4.9309-10.1687Z"/><path class="cls-66" d="M138.9525,51.1146c1.1644-1.8215,3.007-1.0328,4.5477-1.0635,6.4741-.1292,12.951-.1178,19.4268-.158.7582.1855,1.587.2535,1.9145,1.1549l-4.9719-.0055a48.2551,48.2551,0,0,0-8.965.0631l-5.9494.039Z"/><path class="cls-67" d="M58.0089,108.0125a6.3948,6.3948,0,0,0-3.9894,1.0011l-1.9988.0008-3.0049-.0048c-.1931-1.7133,3.1271-2.7065.6614-5.0837-2.3384-2.2546-2.7637-6.293-7.5381-6.0159-6.9648.4042-13.9775-.09-20.9567.1616-5.8208.21-11.408-1.63-17.1963-2.0446h34.08c5.8469,1.8738,12.0322.6807,17.9418,1.9853-.1858,1.8629,1.2139,3.1147,2.1982,4.1823C60.2553,104.4169,59.6875,106.1317,58.0089,108.0125Z"/><path class="cls-68" d="M73.9866,120.0134l-31.9616-.0077q.0068-.4956.009-.9913H62.5225c-1.4889-3.9357-5.9465-5.0482-6.5119-9l9.9835.0042c1.9576,4.04,6.9083,5.0793,8.99,8.9949Z"/><path class="cls-69" d="M34.0522,74.0126l1.984-.0006,3.0012.0016c4.3378.9474,5.27,4.23,6.12,8.0391.5489,2.46-.7813,3.0006-2.133,3.9614l-3.9873.9982a9.9278,9.9278,0,0,1-.4149-2.3388c-.4141-7.8162-2.3871-9.5652-9.97-9.7154-2.5308-.05-5.2751,1.0063-7.5969-.9382Z"/><path class="cls-70" d="M39.0374,74.0136l-3.0012-.0016c-1.14-3.5779-.3782-7.5027-1.9987-10.9931,1.3627-.2172,2.984.5967,3.9994-1.0058l3.9824.001q.0123.4952.0176.9905A49.34,49.34,0,0,1,44.025,74.012Z"/><path class="cls-71" d="M42.0193,62.0141l-3.9824-.001a6.4494,6.4494,0,0,0-3.9987-1.0043l-.0045-9.9854.0251-.0215,7.9681.0206.01,9.9993Q42.0335,61.518,42.0193,62.0141Z"/><path class="cls-68" d="M49.0158,109.01l3.0049.0048c-1.0754,1.5435-2.6991.9719-4.1075.9767q-17.3751.06-34.75-.004c-1.5233-.0059-3.3356.5889-4.6123-1.57C22.2509,106.9065,35.6239,109.0454,49.0158,109.01Z"/><path class="cls-72" d="M39.037,87.0123l3.9873-.9982c.3912.8894,1.1724.9935,2.0032.9979a57.5494,57.5494,0,0,1,4.9706,8.9628l-5.9761.0145C43.119,92.5745,41.1156,89.7724,39.037,87.0123Z"/><path class="cls-73" d="M44.022,95.9893l5.9761-.0145L62,96.0108l6.9948.0059.0005,1.99-12.9874.0055c-5.91-1.3046-12.0949-.1115-17.9418-1.9853Z"/><path class="cls-74" d="M34.0382,61.0088a6.4494,6.4494,0,0,1,3.9987,1.0043c-1.0154,1.6025-2.6367.7886-3.9994,1.0058H11.943A87.0609,87.0609,0,0,1,34.0382,61.0088Z"/><path class="cls-2" d="M42.034,119.0144q-.0022.4956-.009.9913l-15.9671.0136c.0955-2.3334,1.5634-2.7444,3.5947-3.0709C34.069,116.2383,37.9028,118.3964,42.034,119.0144Z"/><path class="cls-75" d="M35.0524,86.7667H5.8949l0-.5048h29.15Z"/><path class="cls-76" d="M34.0522,74.0126,21.0551,74.02H6.8817l.0107-.8937c8.6759,0,17.3519-.0112,26.0275.0375C33.2989,73.1659,33.6748,73.7171,34.0522,74.0126Z"/><path class="cls-77" d="M71.9847,122.0174l12.9834.0016c2.1625,3,5.3987,4.0861,8.7627,4.9895,4.1221,1.1069,8.2259,2.2819,12.3376,3.4274-3.5745.5771-7.0507.4289-10.5065.6307-2.2037.1287-4.6479-1.0151-6.6014.9461-7.6663.04-15.3485-.2847-22.9607,1.0005-3.8473-2.13-8.0154-.4479-11.9945-1.0124,1.4364-1.7338,3.4016-.9251,5.1183-.945,7.746-.09,15.4937-.0393,24.1166-.0393-2.6632-3.588-6.3019-4.1308-8.8221-6.2292C73.4423,123.9748,71.8939,123.7472,71.9847,122.0174Z"/><path class="cls-78" d="M54.0053,132.0008c3.9791.5645,8.1472-1.1178,11.9945,1.0124-8.7794-.0014-17.5591.0323-26.338-.0366-1.5584-.0123-3.36.7-4.6127-.96Z"/><ellipse class="cls-76" cx="37.0102" cy="144.4745" rx="17.0856" ry="0.3369"/><path class="cls-79" d="M74.9837,119.0137c-2.0813-3.9156-7.032-4.9552-8.99-8.9949,3.3074-.0009,6.6153.0345,9.9221-.0116,4.5894-.064,8.9776-.4028,12.6987,3.63,2.3437,2.54,6.8926,1.8612,9.62,5.376Z"/><path class="cls-80" d="M69.9875,98.0212l12.9787.0086c2.036,3.9614,6.8158,4.9125,9.7273,8.3885-4.4291,1.6691-8.8909-.8687-12.7267,1.5946L68.9884,108.01c1.3614-2.16,4.2013.1052,5.8027-2.0249-.5251-1.5633-1.8586-2.5609-3.0078-3.6375A4.8377,4.8377,0,0,1,69.9875,98.0212Z"/><path class="cls-21" d="M69.9875,98.0212a4.8377,4.8377,0,0,0,1.7958,4.3265c1.1492,1.0766,2.4827,2.0742,3.0078,3.6375-1.6014,2.13-4.4413-.1356-5.8027,2.0249l-10.98.0024c1.6786-1.8808,2.2464-3.5956.1975-5.8179-.9843-1.0676-2.384-2.3194-2.1982-4.1823l12.9874-.0055Q69.4915,98.0137,69.9875,98.0212Z"/><path class="cls-73" d="M92.96,98.0367a20.9454,20.9454,0,0,1,7.526,1.467c11.02,4.1532,22.2541,5.3682,33.1388-.71,2.0823-1.1628,4.1737-.56,6.2645-.744-1.0718,2.7195-3.7666,3.0849-6,3.9291-13.3893,5.0609-26.492,4.0093-39.292-2.146A3.312,3.312,0,0,1,92.96,98.0367Z"/><path class="cls-21" d="M88.9605,132.0127c1.9535-1.9612,4.3977-.8174,6.6014-.9461,3.4558-.2018,6.932-.0536,10.5065-.6307-4.1117-1.1455-8.2155-2.3205-12.3376-3.4274-3.364-.9034-6.6-1.9893-8.7627-4.9895l63.9128.01c-2.4393,2.8242-5.8047,3.867-9.1793,5.06-3.6059,1.2746-7.7334,1.1536-10.792,3.9241-3.03.4412-6.2622-.9433-9.1245,1.0132-2.3567,1.9832-5.0944.64-7.62.7385-7.0214.2736-14.0567.1872-21.0865.2479A2.2267,2.2267,0,0,1,88.9605,132.0127Z"/><path class="cls-21" d="M48.022,27.0134a39.8267,39.8267,0,0,0,9.9862-1c-.6358,4.99-1.2415,9.9985-6.9923,12-2.1717,1.4367-4.6236.91-6.9875,1-.7294-.1762-2.1768-.7663-1.498-1.1629C46.79,35.3619,45.801,30.3938,48.022,27.0134Z"/><path class="cls-21" d="M44.0284,39.0131c2.3639-.09,4.8158.4367,6.9875-1,.6773,1.3,1.9108.9294,2.9972,1L52.0149,49.01c-4.3148.4914-8.5956,1.4265-12.9809.998C44.3242,47.9947,43.37,43.1365,44.0284,39.0131Z"/><path class="cls-81" d="M39.034,50.0082c4.3853.4285,8.6661-.5066,12.9809-.998,2.6494.4957,5.5536-1.0564,8.009.9993-1.7415,1.9114-4.0165.6365-6.0155,1.01l-11.9815.0027-7.9681-.0206C35.431,49.2335,37.3755,50.3386,39.034,50.0082Z"/><path class="cls-5" d="M54.0131,39.0136c-1.0864-.0711-2.32.3-2.9972-1,5.7508-2.0015,6.3565-7.01,6.9923-12l1.9986,0,7.9874,0a9.2446,9.2446,0,0,1-1.4978,6,9.2444,9.2444,0,0,0-1.4979,6l-1,0C60.7552,39.2,57.3789,39.0547,54.0131,39.0136Z"/><path class="cls-15" d="M64.9985,38.0131a9.2444,9.2444,0,0,1,1.4979-6,9.2446,9.2446,0,0,0,1.4978-6l2.9948,0,5.9928.0005c.0779,1.28-.95,2.0454-1.3888,3.0635-1.2706,2.9464-4.2708,5.2154-3.6021,8.9372l-1.0024-.0013Z"/><path class="cls-22" d="M71.9909,38.014c-.6687-3.7218,2.3315-5.9908,3.6021-8.9372.439-1.0181,1.4667-1.7839,1.3888-3.0635l2.9948,0,4.0063-.0055.0028-.0039c-.2081,2.059-1.3565,3.5965-2.6011,5.17-1.3928,1.7608-3.0558,3.4249-3.41,5.82-.8116.0226-1.592.1107-2.0107.9592a4.22,4.22,0,0,1-.8337.1084Z"/><path class="cls-82" d="M88.9447,96.0118l-9.97-.0039c1.71-2.1446,4.374-.1228,6.5964-1.6129a22.5832,22.5832,0,0,0-5.14-5.0916c-1.2743-.8579-2.5054-1.5324-2.451-3.29l4.9941-.0005h1.9969c.0419,1.1064.671,1.5338,1.64,2.0983,3.348,1.95,7.087,3.4394,9.3378,6.8975C93.6262,95.4265,91.0478,94.0556,88.9447,96.0118Z"/><path class="cls-83" d="M95.949,95.0085c-2.2508-3.4581-5.99-4.9474-9.3378-6.8975-.9693-.5645-1.5984-.9919-1.64-2.0983l4.991.0007h1.9974c.1081,2.1737,1.897,2.3633,3.4022,2.9587a76.184,76.184,0,0,1,12.7069,6.0364Z"/><path class="cls-84" d="M164.8277,87.1772c-2.8562,2.1036-5.6234,4.2868-6.9288,7.7762l-10.0023.01c.94-4.3393,4.9729-5.51,7.94-7.7726Z"/><path class="cls-85" d="M143.8425,87.1994l4.9908-.0024c-4.0953,1.9475-8.52,3.4318-10.9117,7.7762H124.771l-.2462-.9628C131.48,93.0608,136.6359,87.5038,143.8425,87.1994Z"/><path class="cls-86" d="M98.9753,87.1456l34.8851.0723c-7.0525,1.976-14.0075,3.6477-21.5417,2.0124C107.9659,88.2855,103.2318,89.1987,98.9753,87.1456Z"/><path class="cls-82" d="M137.9216,94.9732c2.3919-4.3444,6.8164-5.8287,10.9117-7.7762l7.0037-.0065c-2.9675,2.2623-7,3.4333-7.94,7.7726Z"/><path class="cls-58" d="M91.9593,86.0134H89.9619c.1058-1.732-1.365-2.5149-2.1575-3.7262-1.7475-2.6707-4.9709-4.5029-4.829-8.2766l2.9764.005,1.0152,1.0282c.9114,1.8226,2.6963,2.87,3.911,4.4135,1.6891,2.1458,4.64,3.3018,5.0649,6.44a2.0754,2.0754,0,0,1-.8267.1787Z"/><path class="cls-80" d="M68.9951,96.0167,62,96.0108c.6823-3.8955-2.0347-6.28-3.9908-9.0024,3.9742-.5731,8.0966.6428,11.9826-.9955-.0425,2.2858,1.8036,3.3542,3.1721,4.6076,2.1692,1.9869,2.3363,3.67-.1789,5.3866Z"/><path class="cls-15" d="M72.9853,96.0071c2.5152-1.7162,2.3481-3.4.1789-5.3866-1.3685-1.2534-3.2146-2.3218-3.1721-4.6076H75.983l1.9969,0c-.0544,1.7578,1.1767,2.4323,2.451,3.29a22.5832,22.5832,0,0,1,5.14,5.0916c-2.2224,1.49-4.8866-.5317-6.5964,1.6129Z"/><path class="cls-87" d="M140.8513,24.8641l-7.988.0052c-3.5536-.98-7.1422-1.85-10.6515-2.9688a19.2774,19.2774,0,0,0-11.5634-.0205c-5.1335,1.4776-10.1081,3.9493-15.7113,3.08,4.0881-3.8488,8.3053-7.2875,14.5436-6.28,1.96.3165,3.1952-2.0416,5.4715-1.7272,7.1422.9867,14.6312.8121,20.6388,5.58C137.2736,23.8681,139.4313,23.3935,140.8513,24.8641Z"/><path class="cls-86" d="M94.9371,24.96c5.6032.869,10.5778-1.6027,15.7113-3.08a19.2774,19.2774,0,0,1,11.5634.0205c3.5093,1.1189,7.0979,1.989,10.6515,2.9688-8.432.0822-16.8644.14-25.2957.268-1.6076.0245-3.3355-.4287-4.7732.7657l-1.0233.0983c-1.3367,1.6332-3.3107.2564-4.83,1.0257l-6.9984.0095c-1.895-.8682-4.1306.2336-5.9567-1.033l-.0028.0039c1.01-1.5906,2.6271-.775,3.98-1.008Z"/><path class="cls-77" d="M128.91,131.0127c3.0586-2.77,7.1861-2.6495,10.792-3.9241,3.3746-1.1928,6.74-2.2356,9.1793-5.06l11.9788-.0013c-1.0312,2.3129-3.2736,3.0391-5.2753,4.1291-2.2173,1.2075-4.8635,1.9691-5.7029,4.8308Z"/><path class="cls-88" d="M155.8482,75.1455l4.033-.0051a44.2149,44.2149,0,0,1-3.1076,5.3869c-1.261,1.64-.7522,2.9448.086,4.3875a21.8825,21.8825,0,0,1-5.9838.0079C151.7637,81.2711,154.9531,78.7934,155.8482,75.1455Z"/><path class="cls-85" d="M155.8482,75.1455c-.8951,3.6479-4.0845,6.1256-4.9724,9.7772L143.9149,84.9l6.941-9.7386Z"/><path class="cls-41" d="M95.9429,85.8972c-.4252-3.1381-3.3758-4.2941-5.0649-6.44-1.2147-1.5431-3-2.5909-3.911-4.4135,2.5226-.1947,4.6685-.0812,6.2842,2.589,1.7038,2.816,5,4.1335,7.4827,6.2526a2.63,2.63,0,0,1,1.18,1.9793Z"/><path class="cls-87" d="M150.8559,75.1615,143.9149,84.9l-5.9914-.0054c2.0228-3.2515,5.5076-5.1979,7.4549-8.5768C146.5929,74.2105,148.9346,75.1605,150.8559,75.1615Z"/><path class="cls-89" d="M139.9663,60.8655l-.1257,1.0979c-1.654.3348-3.5885-.7116-4.9608,1.01l.0338.056-5.9858.02-4.0086-.0246c-5.3308.666-10.6616,1.44-15.9936.0083l-1.9775-.0386c-1.1258-2.0159-3.8332.0447-4.9736-1.9358q1.9768-.0283,3.9548-.0551c1.909-.0188,4.2159.6293,3.1077-2.9194a7.6533,7.6533,0,0,1,.2925-4.8636c1.0371-2.72-1.083-2.0366-2.414-2.1863l-3.9142-.0288c-.0882-2.2128,1.4973-1.989,2.9156-2.0085,7.0121.1553,14.0234-.6135,21.0357-.0158l7.0194-.0831,1.905.2c-.8944,1.2826-2.2617.9381-3.4576.8884-2.246-.0932-2.6155,1.2281-2.5311,3.0113-1.5688-.75-2.8446-2.8425-4.84-1.739-2.1454,1.1861.5151,2.9021-.0874,4.4413a6.8267,6.8267,0,0,0-.0393,2.4728c.0245,1.1579-.1008,2.4957,1.466,2.7185,1.2635.18,2.6284.49,3.5413-.995.5945-.9669.7994-2.2149,1.9015-2.8438.0973,2.0246.2182,4.03,3.07,3.8539,1.1154.054,2.3263.4975,3.1182-.7671C138.7949,60.0392,139.5441,60.0124,139.9663,60.8655Z"/><path class="cls-90" d="M106.9481,62.9944l1.9775.0386c4.77,5.5708,10.2425,5.568,15.9936-.0083l4.0086.0246c-6.0048,7.3455-10.41,8.7746-18.0649,6.1-3.2022-1.1187-4.9527-3.7134-6.9466-6.1146Z"/><path class="cls-91" d="M106.9481,62.9944l-3.0318.0408-2.9218-.08c-.7867-1.1964-1.9543-.92-3.0817-.7992l-2.8813-.2808a6.6422,6.6422,0,0,1-.0376-.8343l.0463.077,1.8845-.2157,1.9935.01,1.9637.0423,1.0931.1047C103.1149,63.0391,105.8223,60.9785,106.9481,62.9944Z"/><path class="cls-92" d="M134.88,62.9736c1.3723-1.7218,3.3068-.6754,4.9608-1.01,6.0666-.0011,12.1337-.045,18.2.0257,1.5808.0184,3.2914-.5792,4.7335.6241l-2.9038.2937a14.5116,14.5116,0,0,0-4.988.0357l-4.0012.0684a5.4032,5.4032,0,0,0-4.9841,1.0518,4.1775,4.1775,0,0,0-3.9862-.9477l-2.9835.0185Z"/><path class="cls-41" d="M145.863,36.8341l-3.9805.0036A67.0279,67.0279,0,0,0,129.9872,27.19l6.9538-.0125C139.6207,30.6691,143.3583,33.18,145.863,36.8341Z"/><path class="cls-93" d="M139.9663,60.8655c-.4222-.8531-1.1714-.8263-1.9479-.7257-3.8871-.9717-1.38-4.1364-2.1166-6.1888a6.6424,6.6424,0,0,0,3.0507-2.8364l6.0027.03a34.19,34.19,0,0,1-.1118,4.9448c-.4235,2.6207.9351,3.8751,3.0594,4.7355Z"/><path class="cls-94" d="M150.9046,51.1056a48.2551,48.2551,0,0,1,8.965-.0631q-.0014,4.4807-.0028,8.9613C150.8272,60.0254,150.8272,60.0254,150.9046,51.1056Z"/><path class="cls-41" d="M143.9109,39.139l3.9746-.0028c1.2341,7.4879,2.0764,8.5581,6.9853,8.8762.7792.01,1.5406.06,1.9716.8653l-8.97-.0239A32.7716,32.7716,0,0,1,143.9109,39.139Z"/><path class="cls-16" d="M154.8708,48.0124c-4.9089-.3181-5.7512-1.3883-6.9853-8.8762l3.9953-.0141C152.5327,42.2018,154.5537,44.82,154.8708,48.0124Z"/><path class="cls-41" d="M85.9518,74.0156l-2.9764-.005v0a7.1808,7.1808,0,0,0,.8358-7.1,9.1019,9.1019,0,0,1-.861-3.7795c.8167-.1133,1.6788-.1443,2.0213-1.1176l.4989-.002.4991.0014c.0676,3.9059,2.0162,7.3037,2.9557,10.9741C87.78,72.8818,86.93,73.634,85.9518,74.0156Z"/><path class="cls-95" d="M91.947,61.0174c-.1688,3.0436.1858,6.0182,2.0806,8.4883,1.1059,1.4418.5335,2.41-.3076,3.513l-2.8-.0058a3.7988,3.7988,0,0,0-.4076-4.5373c-1.6553-2.0249-1.55-4.1894-1.56-6.4565.8226-.0163,1.6114-.101,2.003-.9909Q91.4511,61.0225,91.947,61.0174Z"/><path class="cls-96" d="M88.9522,62.0191c.01,2.2671-.0952,4.4316,1.56,6.4565a3.7988,3.7988,0,0,1,.4076,4.5373l-1.9947-.026c-.94-3.67-2.8881-7.0682-2.9558-10.9741l1.99.0022Q88.456,62.0165,88.9522,62.0191Z"/><path class="cls-97" d="M135.877,49.0985l-1.905-.2a18.2744,18.2744,0,0,0-8.9239-9.76c2.0076-.3813,4.31.7875,6.022-1.1482l2.8138.0295c1.24,4.0324,4.5182,6.9318,6.0032,10.8281Z"/><path class="cls-98" d="M131.83,57.053c-1.1021.6289-1.307,1.8769-1.9015,2.8438-.9129,1.4851-2.2778,1.1746-3.5413.995-1.5668-.2228-1.4415-1.5606-1.466-2.7185a6.8267,6.8267,0,0,1,.0393-2.4728c.6025-1.5392-2.058-3.2552.0874-4.4413,1.9959-1.1035,3.2717.9887,4.84,1.739l1.9836,1.0112Z"/><path class="cls-99" d="M139.8871,48.8479c-1.485-3.8963-4.763-6.7957-6.0032-10.8281l1.0273-.0118,1.9825.0058c1.5622,3.8539,4.0062,7.22,5.9852,10.8427Z"/><path class="cls-100" d="M143.9109,39.139a32.7716,32.7716,0,0,0,3.9614,9.7148l-3-.0088c-1.396-3.3364-2.5161-6.8135-4.9049-9.6435Z"/><path class="cls-63" d="M139.9678,39.2015c2.3888,2.83,3.5089,6.3071,4.9049,9.6435l-1.9938.0115c-1.979-3.6231-4.423-6.9888-5.9851-10.8427l1.0774.0265C138.1975,39.1848,139.2227,38.9516,139.9678,39.2015Z"/><path class="cls-101" d="M135.9018,53.951c.7363,2.0524-1.77,5.2171,2.1166,6.1888-.7919,1.2646-2.0028.8211-3.1182.7671-1.8313-3.1246-.6965-6.5435-.9715-9.8225C136.2177,50.9138,135.89,52.55,135.9018,53.951Z"/><path class="cls-102" d="M133.9287,51.0844c.275,3.279-.86,6.6979.9715,9.8225-2.8521.1764-2.973-1.8293-3.07-3.8539l.042-3.0436C132.0091,52.6477,131.6291,50.9213,133.9287,51.0844Z"/><path class="cls-103" d="M94.9939,61.0411l-2.03-.03-.0051-9.9981q.4965-.0015.993-.0017l1.0173.0062q.0355,5.05.0709,10.1Z"/><path class="cls-104" d="M92.959,51.0134l.0051,9.9981-1.0171.0059q-.4959.0051-.9918.0108l.014-10.0144Z"/><path class="cls-63" d="M137.9712,38.04l-1.0774-.0265-1.9826-.0058a2.5738,2.5738,0,0,0-.7228-1.7716c-6.7636-6.1321-14.9479-7.4849-23.417-5.8468-4.5917.8881-9.5668,2.4915-11.84,7.6143l-2.9547.02-1.026-.0122c-.0133-1.9092,1.4326-2.7523,2.6424-3.8711,3.8081-3.5217,8.681-4.9326,13.25-6.9547l11.1776.0148c.4125.5852,1.0489.6424,1.6818.8364,5.9867,1.8349,11.5321,4.3857,15.2143,9.8146A3.7678,3.7678,0,0,1,137.9712,38.04Z"/><path class="cls-105" d="M96.9408,27.027c1.52-.7693,3.4936.6075,4.83-1.0257.36.9907,1.2738,1,2.09,1.1809-1.0965,1.3134-2.8323,1.55-4.1569,2.4726-3.1873,2.2192-6.5074,4.3247-7.7508,8.356l-1.9768.0074-1.0927.02-4.9107-.02-8.0092-.0642c.4187-.8485,1.1991-.9366,2.0107-.9592l4.9873-.0132c1.9214-.1236,4.2468.7582,5.5654-1.1492C90.8815,32.4266,94.4017,30.2091,96.9408,27.027Z"/><path class="cls-106" d="M138.9173,37.8515c-3.6822-5.4289-9.2276-7.98-15.2143-9.8146-.6329-.194-1.2693-.2512-1.6818-.8364l7.966-.01a67.0279,67.0279,0,0,1,11.8953,9.6476Z"/><path class="cls-100" d="M91.9535,38.0108c1.2434-4.0313,4.5635-6.1368,7.7508-8.356,1.3246-.9222,3.06-1.1592,4.1569-2.4726l6.9824.0035c-4.5691,2.0221-9.442,3.433-13.25,6.9547-1.21,1.1188-2.6557,1.9619-2.6424,3.8711l-1.98.0066Z"/><path class="cls-107" d="M45.0275,87.012c-.8308-.0044-1.612-.1085-2.0032-.9979,1.3517-.9608,2.6819-1.501,2.133-3.9614-.85-3.81-1.7821-7.0917-6.12-8.0391l4.9876-.0016,10.9849.0007c-.2519,4.0078,3.0295,7.05,2.9962,10.9983-1.083.0758-2.3181-.3039-2.99,1.0015Z"/><path class="cls-74" d="M55.01,74.0127,44.025,74.012a49.34,49.34,0,0,0-1.9881-11.0074l11.9682.0209c1.2877,3.5494,1.58,7.2814,2.009,10.9881Z"/><path class="cls-84" d="M54.0051,63.0255l-11.9682-.0209q-.0053-.4953-.0176-.9905.0142-.496.0179-.9923l11.9542-.037,6.0977.0593c2.2739,2.12,5.5924-.0168,7.9049,1.9458.049,3.4114,1.8656,6.4558,2.0377,9.8427q-2.5.1423-5,.2828l-2.0364-.2225c-.09-.8113-.1237-1.6342-.2864-2.4306-.1618-.7922-.53-1.5437-.6757-2.3373C61.1213,63.1649,60.9054,63.0175,54.0051,63.0255Z"/><path class="cls-74" d="M53.9914,60.9848l-11.9542.037-.01-9.9993L54.0084,51.02Q54,56.0022,53.9914,60.9848Z"/><path class="cls-108" d="M45.0275,87.012l9.9882-.9995c.98.386,1.8418,1.1285,2.9938.9959,1.9561,2.7225,4.6731,5.1069,3.9908,9.0024l-12.0022-.036A57.5494,57.5494,0,0,0,45.0275,87.012Z"/><path class="cls-80" d="M54.0131,39.0136c3.3658.0411,6.7421.1865,9.9852-1.0008-.86,3.9677-2.4785,7.8088-1.9977,12L60.0239,50.01c-2.4554-2.0557-5.36-.5036-8.009-.9993Z"/><path class="cls-78" d="M60.0239,50.01l1.9767.0036h3.9959l-.0086,10.9656-5.8988.0654-6.0977-.0593q.0084-4.9825.017-9.965C56.0074,50.646,58.2824,51.9209,60.0239,50.01Z"/><path class="cls-84" d="M65.9965,50.0131H62.0006c-.4808-4.1915,1.1377-8.0326,1.9977-12l1,0,5.99,0c-.82,3.9743-2.1661,7.8609-1.9959,12Z"/><path class="cls-109" d="M68.9926,50.0131c-.17-4.1395,1.1759-8.0261,1.9959-12l1.0024.0013,3.1395.0475c1.2884,1.8023,3.2629.5133,4.8267,1.0745-.3175,3.8108-3.4873,6.8389-2.9764,10.8771l-3.9924,0Z"/><path class="cls-83" d="M82.9621,36.9807l-4.9873.0132c.354-2.3954,2.017-4.0595,3.41-5.82,1.2446-1.5736,2.393-3.1111,2.6011-5.17,1.8261,1.2666,4.0617.1648,5.9567,1.033C87.4718,30.25,84.5988,33.18,82.9621,36.9807Z"/><path class="cls-110" d="M79.9571,39.136c-1.5638-.5612-3.5383.7278-4.8267-1.0745a4.22,4.22,0,0,0,.8337-.1084l8.0092.0642q.0084.4426.04.8843Z"/><path class="cls-111" d="M77.98,86.0132l-1.9969,0a6.1217,6.1217,0,0,0-1.381-4.0712c-1.5091-2.3288-3.0336-4.77-2.6208-7.7966l5.9635-.1814c-.3958,2.6425,1.5882,4.2663,2.7844,6.16,1.1691,1.85,2.4228,3.5661,2.2449,5.8893Z"/><path class="cls-112" d="M82.974,86.0127c.1779-2.3232-1.0758-4.0388-2.2449-5.8893-1.1962-1.8934-3.18-3.5172-2.7844-6.16l-.03.0169,2.0674.0314,2.9936-.0012v0c-.1419,3.7737,3.0815,5.6059,4.829,8.2766.7925,1.2113,2.2633,1.9942,2.1575,3.7262l-4.991-.0007Z"/><path class="cls-84" d="M71.9812,74.1451c-.4128,3.027,1.1117,5.4678,2.6208,7.7966a6.1217,6.1217,0,0,1,1.381,4.0712H69.9921c-3.886,1.6383-8.0084.4224-11.9826.9955-1.152.1326-2.0138-.61-2.9938-.9959.6723-1.3054,1.9074-.9257,2.99-1.0015,2.1178,0,4.2367.0447,6.3531-.01,3.8227-.0994,4.0541-.45,2.6918-3.8528-.9008-2.25-2.11-4.4073-2.0159-6.9457l-.0578-.3111,5.0593-.0439Z"/><path class="cls-113" d="M82.9621,36.9807c1.6367-3.8,4.51-6.7307,6.98-9.9442l6.9984-.0095c-2.5391,3.1821-6.0593,5.4-8.4133,8.8045C87.2089,37.7389,84.8835,36.8571,82.9621,36.9807Z"/><path class="cls-30" d="M675.711,18.7848c-4.23,1.703-3.9088-3.823-6.7407-4.3551a5.2712,5.2712,0,0,0-.6548.7342c-.7283,1.2415.954,3.9909-1.7637,3.7974-2.4653-.1755-1.11-2.626-1.3548-4.0647a20.7535,20.7535,0,0,1-.0384-3.4834c.01-5.1539,2.9947-6.969,7.7805-4.787a3.4028,3.4028,0,0,1,2.1957,3.9852C674.4025,15.2728,674.4471,16.059,675.711,18.7848Z"/><path class="cls-114" d="M125.0481,39.1385a18.2744,18.2744,0,0,1,8.9239,9.76l-7.0194.0831c-6.0637-7.301-14.7189-7.2945-21.0357.0158-1.4183.02-3.0038-.2043-2.9165,2.0086l-1.9921.0265-.1322-.0433a8.6057,8.6057,0,0,1,2.3366-5.7522c2.337-2.8108,5.5686-4.3182,8.5988-6.1286Z"/><path class="cls-91" d="M105.9169,48.9969c6.3168-7.31,14.972-7.3168,21.0357-.0158C119.94,48.3834,112.929,49.1522,105.9169,48.9969Z"/><path class="cls-115" d="M101.0083,51.032,103,51.0055l3.9151.0287c-1.1537,3.2413-1.0127,6.611-.9862,9.9693q-1.9776.0271-3.9548.0551-.5457-.0511-1.0926-.1039Q100.9452,55.9933,101.0083,51.032Z"/><path class="cls-116" d="M124.9192,63.0247c-5.7511,5.5763-11.224,5.5791-15.9936.0083C114.2576,64.4645,119.5884,63.6907,124.9192,63.0247Z"/><path class="cls-91" d="M105.9293,61.0035c-.0265-3.3583-.1675-6.728.9862-9.9693,1.331.15,3.4511-.5339,2.414,2.1863a7.6533,7.6533,0,0,0-.2925,4.8636C110.1452,61.6328,107.8383,60.9847,105.9293,61.0035Z"/><path class="cls-117" d="M101.0083,51.032q-.0632,4.9614-.1264,9.9227l-1.9637-.0423.0349-9.8976,1.923-.0261Z"/><path class="cls-118" d="M98.9531,51.0148l-.0349,9.8976-1.9935-.01.0153-9.8987.02.0134Z"/><path class="cls-119" d="M96.94,51.0037l-.0153,9.8987-1.8845.2157q-.0354-5.05-.0709-10.1Z"/><path class="cls-58" d="M82.9754,74.0108l-2.9936.0012c1.3786-3.8047-1.8035-7.1838-1.0174-10.9332l3.9858.0522a9.1019,9.1019,0,0,0,.861,3.7795A7.1808,7.1808,0,0,1,82.9754,74.0108Z"/><path class="cls-120" d="M82.95,63.131l-3.9858-.0522-5.9793-.0577L67.994,62.99c-2.3125-1.9626-5.631.1739-7.9049-1.9458q2.9493-.0327,5.8989-.0649Q69.4944,60.94,73,60.9l7.9732.1032c1.0126,1.6084,2.6465.7313,3.9938,1.0012l.0041.0093C84.629,62.9867,83.7669,63.0177,82.95,63.131Z"/><path class="cls-121" d="M87.96,62.015l-1.99-.0022-.499-.0014-.4989.002-.0041-.0092q.0066-5.993.0131-11.9859.4942-.0069.9885-.0049l1.995,0Q87.9618,56.0141,87.96,62.015Z"/><path class="cls-122" d="M87.96,62.015q.0021-6.0009.0044-12.002.4956-.001.9911-.0044l2.0021.0035.012,1.0017q-.0069,5.0073-.014,10.0144c-.3916.89-1.18.9746-2.003.9909Q88.4559,62.0164,87.96,62.015Z"/><path class="cls-26" d="M98.9318,38.0039c2.2728-5.1228,7.2479-6.7262,11.84-7.6143,8.4691-1.6381,16.6534-.2853,23.417,5.8468a2.5738,2.5738,0,0,1,.7228,1.7716l-1.0273.0118L131.07,37.99a3.0265,3.0265,0,0,1-.2058-.8548c-5.9125-4.8033-12.7249-5.5346-19.8489-4.0442-3.1241.6535-6.4485,1.4466-8.0926,4.8146l-1.8092.1811-1.1545-.0689Z"/><path class="cls-123" d="M130.8643,37.1355a3.0265,3.0265,0,0,0,.2058.8548c-1.712,1.9357-4.0144.7669-6.022,1.1482l-13.2366-.0306-7.9288-.0047c-.94-.2934-2.2228.3519-2.7691-1.0162l1.8092-.1811C112.2057,36.5222,121.5361,36.8674,130.8643,37.1355Z"/><path class="cls-124" d="M101.1136,38.087c.5463,1.3681,1.8295.7228,2.7691,1.0162-2.5487,3.8308-6.8236,6.6557-6.923,11.9139l-.02-.0134-1.9707.0142-1.0173-.0062c.3569-3.859,1.5264-7.3489,4.5148-10.0212a3.7141,3.7141,0,0,0,1.4923-2.9724Z"/><path class="cls-60" d="M99.9591,38.0181a3.7141,3.7141,0,0,1-1.4923,2.9724c-2.9884,2.6723-4.1579,6.1622-4.5148,10.0212q-.4965,0-.993.0017l-1.99,0-.012-1.0017c.276-4.5829,4.1094-7.6719,5.02-11.9884l2.9547-.02Z"/><path class="cls-125" d="M95.9771,38.0237c-.91,4.3165-4.7439,7.4055-5.02,11.9884l-2.0021-.0035a13.6162,13.6162,0,0,1,.9325-5.3251c.7-2.3943,3.09-3.9724,3.084-6.6654l1.98-.0066Z"/><path class="cls-41" d="M85.969,50.0134q-.4942-.002-.9885.0049l-2.0131-.0065c-.43-4.0136,2.158-7.1952,2.9858-10.862.9827-.3556,2.3819.39,2.9308-1.1121l1.0927-.02C88.8211,42.077,86.4068,45.714,85.969,50.0134Z"/><path class="cls-126" d="M85.969,50.0134c.4378-4.2994,2.8521-7.9364,4.0077-11.9952l1.9768-.0074,1.0181.0073c.006,2.693-2.384,4.2711-3.084,6.6654a13.6162,13.6162,0,0,0-.9325,5.3251q-.4955.0033-.9911.0044Z"/><path class="cls-127" d="M88.884,38.0377c-.5489,1.5019-1.9481.7565-2.9308,1.1121l-1.94-.2482q-.0315-.4416-.04-.8843Z"/><path class="cls-5" d="M65.0351,74.2021c-.094,2.5384,1.1151,4.6958,2.0159,6.9457,1.3623,3.403,1.1309,3.7534-2.6918,3.8528-2.1164.0551-4.2353.01-6.3531.01.0333-3.948-3.2481-6.99-2.9962-10.9983l1.0042.0009,2.1569-.0584Z"/><path class="cls-78" d="M58.171,73.9552l-2.1569.0584c-.4294-3.7067-.7213-7.4387-2.009-10.9881,6.9-.008,7.1162.1394,8.0282,5.0995.1459.7936.5139,1.5451.6757,2.3373.1627.7964.1963,1.6193.2864,2.4306C61.4343,73.4613,59.4675,72.1818,58.171,73.9552Z"/><path class="cls-111" d="M67.994,62.99l4.9911.0312c.755,3.3432,2.6193,6.3474,2.9893,9.8082l-6.0124.3691.07-.3669C69.86,69.4457,68.043,66.4013,67.994,62.99Z"/><path class="cls-128" d="M58.171,73.9552c1.2965-1.7734,3.2633-.4939,4.8244-1.0623q1.0182.1112,2.0361.2215-.0388.3864-.0542.7766l.0578.3111Z"/><path class="cls-129" d="M64.9773,73.891q.0155-.39.0542-.7766,2.5-.1393,5-.2818l-.07.3658q.042.3238.0746.6487Z"/><path class="cls-130" d="M73,60.9q-3.5061.04-7.0124.0794.0041-5.4835.0085-10.9661h2.9961l3.9957,0C73.89,53.6411,74.923,57.2688,73,60.9Z"/><path class="cls-94" d="M73,60.9c1.9226-3.631.8891-7.2587-.0121-10.8865l3.9924,0,2.9983,0c1.3321,3.5724.9656,7.299.9946,10.99Z"/><path class="cls-131" d="M79.979,50.0133l-2.9983,0C76.47,45.9749,79.64,42.9468,79.9571,39.136l4.0561-.2344,1.94.2482c-.8278,3.6668-3.4159,6.8484-2.9858,10.862Z"/><path class="cls-132" d="M70.0366,73.8471q-.0326-.3249-.0746-.6487l6.0124-.3691c.7294.2438,1.754-.011,1.94,1.1513l.03-.0169-5.9635.1814Z"/><path class="cls-133" d="M77.9144,73.9806c-.186-1.1623-1.2106-.9075-1.94-1.1513-.37-3.4608-2.2343-6.465-2.9893-9.8082l5.9793.0577c-.7861,3.7494,2.396,7.1285,1.0174,10.9332Z"/><path class="cls-134" d="M96.96,51.0171c.0994-5.2582,4.3743-8.0831,6.923-11.9139l7.9288.0047c-3.03,1.81-6.2618,3.3178-8.5988,6.1286a8.6057,8.6057,0,0,0-2.3366,5.7522l-1.923.0261Z"/><path class="cls-135" d="M79.979,50.0133l2.9884-.0015,2.0131.0065q-.0066,5.9929-.0131,11.9859c-1.3473-.27-2.9812.6072-3.9938-1.0012C80.9446,57.3123,81.3111,53.5857,79.979,50.0133Z"/><path class="cls-136" d="M130.8643,37.1355c-9.3282-.2681-18.6586-.6133-27.9415.77,1.6441-3.368,4.9685-4.1611,8.0926-4.8146C118.1394,31.6009,124.9518,32.3322,130.8643,37.1355Z"/></g></g></svg>