<svg xmlns="http://www.w3.org/2000/svg" width="201.1407" height="234.6739" viewBox="0 0 201.1407 234.6739"><defs><style>.cls-1{fill:none;}.cls-2{fill:#82bfbe;}.cls-3{fill:#2976bc;}</style></defs><g id="Layer_2" data-name="Layer 2"><g id="Layer_1-2" data-name="Layer 1"><rect class="cls-1" width="201.1407" height="234.6739"/><rect class="cls-2" y="115.5059" width="201.0762" height="29.5937"/><polygon class="cls-3" points="0 145.063 0 174.316 100.368 232.188 201.067 174.225 201.067 145.017 0 145.063"/><path class="cls-3" d="M23.208,68.1143V66.1084A3.7041,3.7041,0,0,0,15.8,66.127v44.63H.1748V57.9L61.9854,22.0855v88.6719H46.2129V52.9126a3.6992,3.6992,0,1,0-7.3984.0186l-.0088,57.8262H23.208Z"/><path class="cls-3" d="M116.4161,9.0738l38.8613,22.6743V59.041h-15.708V39.8643a3.6722,3.6722,0,0,0-3.6905-3.69c-2.0429,0-3.6806,1.2607-3.6806,3.3037V96.5308a3.69,3.69,0,1,0,7.38-.0093l-.0088-16.8125h15.708v31.0484h-38.87Z"/><path class="cls-3" d="M69.66,54.0723,92.6661,40.6094V26.0606a3.7692,3.7692,0,0,0-3.8194-3.3125,3.6914,3.6914,0,0,0-3.69,3.6992V34.03L69.6514,42.8272V18.0181L100.93,0l7.4346,4.2886V110.7574H69.66ZM92.6748,97.0738l.0093-37.1675a3.8041,3.8041,0,0,0-3.8374-3.6807,3.7153,3.7153,0,0,0-3.7178,3.6992V96.9453a3.7735,3.7735,0,0,0,7.5459.1285Z"/><path class="cls-3" d="M163.1358,36.1651l38.0049,21.91v52.6822H163.1358Zm22.876,61.4882V66.5869a3.83,3.83,0,0,0-3.8731-3.6806,3.5948,3.5948,0,0,0-3.6074,3.6806V97.6533a3.5985,3.5985,0,0,0,3.5976,3.6812,3.8388,3.8388,0,0,0,3.8829-3.6812Z"/></g></g></svg>