<?xml version="1.0" encoding="utf-8"?>
<!-- Generator: Adobe Illustrator 25.1.0, SVG Export Plug-In . SVG Version: 6.00 Build 0)  -->
<svg version="1.1" id="Layer_1" xmlns="http://www.w3.org/2000/svg" xmlns:xlink="http://www.w3.org/1999/xlink" x="0px" y="0px"
	 viewBox="0 0 201.1 234.7" style="enable-background:new 0 0 201.1 234.7;" xml:space="preserve">
<style type="text/css">
	.st0{fill:none;}
	.st1{fill:#525252;}
	.st2{fill:#989898;}
</style>
<g id="Layer_2_1_">
	<g id="Layer_1-2">
		<rect class="st0" width="201.1" height="234.7"/>
		<rect y="115.5" class="st1" width="201.1" height="29.6"/>
		<polygon class="st2" points="0,145.1 0,174.3 100.4,232.2 201.1,174.2 201.1,145 		"/>
		<path class="st2" d="M23.2,68.1v-2c0-2-1.7-3.7-3.7-3.7c-2,0-3.7,1.7-3.7,3.7v44.6H0.2V57.9L62,22.1v88.7H46.2V52.9
			c0-2-1.7-3.7-3.7-3.7s-3.7,1.7-3.7,3.7l0,57.8H23.2V68.1z"/>
		<path class="st2" d="M116.4,9.1l38.9,22.7V59h-15.7V39.9c0-2-1.6-3.7-3.7-3.7c0,0,0,0,0,0c-2,0-3.7,1.3-3.7,3.3v57.1
			c0,2,1.7,3.7,3.7,3.7c2,0,3.7-1.7,3.7-3.7l0-16.8h15.7v31h-38.9L116.4,9.1z"/>
		<path class="st2" d="M69.7,54.1l23-13.5V26.1c-0.2-1.9-1.9-3.4-3.8-3.3c-2,0-3.7,1.7-3.7,3.7c0,0,0,0,0,0V34l-15.5,8.8V18l31.3-18
			l7.4,4.3v106.5H69.7V54.1z M92.7,97.1l0-37.2c-0.1-2.1-1.8-3.7-3.8-3.7c-2,0-3.7,1.7-3.7,3.7v37c0,2.1,1.6,3.8,3.7,3.8
			C90.9,100.8,92.6,99.2,92.7,97.1z"/>
		<path class="st2" d="M163.1,36.2l38,21.9v52.7h-38V36.2z M186,97.7V66.6c-0.1-2.1-1.8-3.7-3.9-3.7c-2,0-3.6,1.6-3.6,3.6
			c0,0,0,0.1,0,0.1v31.1c0,2,1.5,3.6,3.5,3.7c0,0,0.1,0,0.1,0C184.2,101.4,185.9,99.7,186,97.7z"/>
	</g>
</g>
</svg>
