<svg xmlns="http://www.w3.org/2000/svg" xmlns:xlink="http://www.w3.org/1999/xlink" viewBox="0 0 747.08997 390.08101">
  <defs>
    <style>
      .cls-1 {
        fill: url(#linear-gradient);
      }

      .cls-2 {
        fill: url(#linear-gradient-2);
      }

      .cls-3 {
        fill: #ccc;
      }

      .cls-4 {
        fill: #959495;
      }

      .cls-5 {
        fill: url(#linear-gradient-3);
      }

      .cls-6 {
        fill: #fff;
      }

      .cls-7 {
        fill: url(#linear-gradient-4);
      }

      .cls-8 {
        fill: #58595b;
      }
    </style>
    <linearGradient id="linear-gradient" x1="0.48437" y1="189.33667" x2="490.25439" y2="223.38667" gradientTransform="matrix(1, 0, 0, -1, 0, 391.9871)" gradientUnits="userSpaceOnUse">
      <stop offset="0" stop-color="#4ca5b3"/>
      <stop offset="0.53" stop-color="#268390"/>
      <stop offset="1" stop-color="#01636e"/>
    </linearGradient>
    <linearGradient id="linear-gradient-2" x1="278.95001" y1="199.57357" x2="799.75995" y2="199.57357" gradientTransform="matrix(1, 0, 0, -1, 0, 391.9871)" gradientUnits="userSpaceOnUse">
      <stop offset="0" stop-color="#fcdb58"/>
      <stop offset="0.56" stop-color="#fcc232"/>
      <stop offset="0.92" stop-color="#fcb118"/>
    </linearGradient>
    <linearGradient id="linear-gradient-3" x1="80.92307" y1="14.58818" x2="621.31304" y2="324.4282" gradientTransform="matrix(1, 0, 0, -1, 0, 391.9871)" gradientUnits="userSpaceOnUse">
      <stop offset="0" stop-color="#e6e6e6"/>
      <stop offset="0.07" stop-color="#c6c6c6"/>
      <stop offset="0.25" stop-color="#8a8a8a"/>
      <stop offset="0.44" stop-color="#595959"/>
      <stop offset="0.61" stop-color="#323232"/>
      <stop offset="0.76" stop-color="#161616"/>
      <stop offset="0.9" stop-color="#050505"/>
      <stop offset="1"/>
    </linearGradient>
    <linearGradient id="linear-gradient-4" x1="440.42629" y1="348.48875" x2="471.50631" y2="310.74875" gradientTransform="matrix(1, 0, 0, -1, 0, 391.9871)" gradientUnits="userSpaceOnUse">
      <stop offset="0" stop-color="#e6e6e6"/>
      <stop offset="0.16" stop-color="#aaa"/>
      <stop offset="0.31" stop-color="#777"/>
      <stop offset="0.47" stop-color="#4c4c4c"/>
      <stop offset="0.62" stop-color="#2b2b2b"/>
      <stop offset="0.76" stop-color="#131313"/>
      <stop offset="0.89" stop-color="#040404"/>
      <stop offset="1"/>
    </linearGradient>
  </defs>
  <g id="Layer_2" data-name="Layer 2">
    <g id="a">
      <g>
        <path d="M383.6,331.93355l-.2-.18v-1.26l.2-.18q4.335.195,6.69.2.885,0,7.02-.2c1.32-.03,2.27-.05,2.87-.05a17.574,17.574,0,0,1,5.43.68,6.28784,6.28784,0,0,1,3.22,2.4,6.6224,6.6224,0,0,1,1.22,3.91,7.85858,7.85858,0,0,1-2.03,5.18q-2.02506,2.385-6.59,3.42a27.381,27.381,0,0,1,4.51.73,8.75662,8.75662,0,0,1,3.07,1.47,6.89434,6.89434,0,0,1,2.04,2.58,8.50069,8.50069,0,0,1,.75,3.67,11.40266,11.40266,0,0,1-.51,3.32,9.96623,9.96623,0,0,1-1.86,3.35,13.04957,13.04957,0,0,1-3.28,2.84,14.59034,14.59034,0,0,1-3.94,1.71,20.17175,20.17175,0,0,1-5.01.53c-.41,0-1.62-.04-3.65-.13-2.25-.05-3.47-.08-3.65-.08-1.15,0-2.56.07-4.24.2l-.2-.2v-.83l.2-.25a7.20146,7.20146,0,0,0,1.7-.91,20.09879,20.09879,0,0,0,.37-4.45q.135-4.2.14-6.41v-9.23l-.03-5.71c0-1.24-.02-2.25-.05-3.03a13.33671,13.33671,0,0,0-.14-1.67,1.34976,1.34976,0,0,0-.29-.7,1.72257,1.72257,0,0,0-.57-.34,6.20233,6.20233,0,0,0-1.26-.24l-1.93-.15Zm9.1,13.2c.85.07,1.8.1,2.87.1q5.25,0,7.3-1.86a6.5364,6.5364,0,0,0,2.05-5.11,6.11276,6.11276,0,0,0-.79-3.21,4.98759,4.98759,0,0,0-2.47-2.02,12.13335,12.13335,0,0,0-4.58-.7,20.5546,20.5546,0,0,0-4.16.38q-.225,2.265-.23,7.9v4.53Zm.05,18.33a17.798,17.798,0,0,0,4.01.45,11.6515,11.6515,0,0,0,5.68-1.16,7.11817,7.11817,0,0,0,3.03-3.21,10.25271,10.25271,0,0,0,.98-4.46,8.07535,8.07535,0,0,0-2.07-5.8q-2.07-2.175-8.94-2.18c-.76,0-1.67.03-2.74.1v8.58l.05,7.67Z"/>
        <path d="M423.19,341.89355l.48.33q-.285,3.3-.28,8.38v5.86a13.77451,13.77451,0,0,0,.5,4.48,3.64571,3.64571,0,0,0,1.71,1.92,5.85149,5.85149,0,0,0,2.89.67,7.77264,7.77264,0,0,0,3.37-.72,7.08823,7.08823,0,0,0,2.55-2.02,8.00745,8.00745,0,0,0,1.18-1.76,12.55881,12.55881,0,0,0,.2-2.54l.08-2.82v-2.72c0-.67-.03-1.58-.1-2.74-.07-1.16-.12-1.87-.16-2.14a.75908.75908,0,0,0-.39-.59,3.124,3.124,0,0,0-1.32-.19l-2.13-.03-.23-.2v-1.08l.2-.2a33.17833,33.17833,0,0,0,8.17-1.89l.48.33q-.285,3.3-.28,8.38v4.43c0,.25.04,2.31.13,6.16a8.83158,8.83158,0,0,0,.27,2.6,1.23982,1.23982,0,0,0,.6.65,7.18781,7.18781,0,0,0,2.26.19h.71l.23.2v1.01l-.2.23c-2.38-.13-3.98-.2-4.79-.2-1.03,0-2.22.06-3.58.18l-.23-.2c.1-1.71.18-3.16.23-4.35a38.48024,38.48024,0,0,0-3.65,3.29,6.04522,6.04522,0,0,1-2.26,1.31,9.93652,9.93652,0,0,1-3.35.53,9.12221,9.12221,0,0,1-4.42-.89,4.98714,4.98714,0,0,1-2.24-2.46,15.50039,15.50039,0,0,1-.66-5.42l.03-1.99v-4.9c0-.67-.03-1.58-.1-2.74-.07-1.16-.12-1.87-.17-2.14a.75905.75905,0,0,0-.39-.59,3.124,3.124,0,0,0-1.32-.19l-2.13-.03-.23-.2v-1.08l.2-.2a33.17833,33.17833,0,0,0,8.17-1.89Z"/>
        <path d="M448.29,358.46355h1.09l.23.23a34.076,34.076,0,0,0,.25,3.62,5.45055,5.45055,0,0,0,2.71,1.92,10.59536,10.59536,0,0,0,3.8.74,6.27107,6.27107,0,0,0,4.3-1.43,4.4548,4.4548,0,0,0,1.61-3.42,3.103,3.103,0,0,0-.58-1.87,4.30373,4.30373,0,0,0-1.76-1.31,26.55705,26.55705,0,0,0-4.22-1.22c-1.74-.4-2.96-.72-3.65-.94a6.236,6.236,0,0,1-2-1.14,5.39834,5.39834,0,0,1-1.47-1.97,6.74437,6.74437,0,0,1,2.19-7.97,10.89129,10.89129,0,0,1,6.73-2.02,16.986,16.986,0,0,1,3.7.46,21.68647,21.68647,0,0,1,3.04.89l.23.35a39.62541,39.62541,0,0,0-.25,5.28l-.23.23h-1.01l-.23-.23a11.70581,11.70581,0,0,0-.28-2.15,3.25744,3.25744,0,0,0-.91-1.33,5.76762,5.76762,0,0,0-2.08-1.21,8.15449,8.15449,0,0,0-2.84-.49,6.72557,6.72557,0,0,0-2.6.45,3.94488,3.94488,0,0,0-1.7,1.37,3.76716,3.76716,0,0,0-.65,2.23,3.65187,3.65187,0,0,0,.39,1.71,2.99283,2.99283,0,0,0,1.2,1.22,6.33974,6.33974,0,0,0,1.7.67l2.76.7a40.20651,40.20651,0,0,1,5.08,1.48,5.04947,5.04947,0,0,1,2.37,1.9,5.458,5.458,0,0,1,.84,3.08,7.6124,7.6124,0,0,1-2.89,5.96,10.9776,10.9776,0,0,1-7.43,2.49,28.47275,28.47275,0,0,1-3.97-.35c-1.58-.24-2.93-.5-4.04-.78l-.13-.33.25-1.69a11.75171,11.75171,0,0,0,.15-1.57c.02-.53.03-1.64.05-3.33l.23-.23Z"/>
        <path d="M477.2,341.89355l.48.33q-.285,3.3-.28,8.38v5.68c0,.37.03,1.55.1,3.56a31.50477,31.50477,0,0,0,.22,3.51,1.55326,1.55326,0,0,0,.34.73,1.04523,1.04523,0,0,0,.56.29c.22.04,1.13.11,2.74.21l.23.2v1.06l-.2.23q-3.165-.195-6.11-.2c-1.96,0-3.97.07-6.09.2l-.23-.23v-1.06l.23-.2c1.64-.1,2.57-.18,2.78-.23a1.24327,1.24327,0,0,0,.56-.31,1.34351,1.34351,0,0,0,.33-.73c.06-.33.13-1.41.2-3.24s.11-3.22.11-4.16v-4.95c0-.67-.03-1.58-.1-2.74-.07-1.16-.12-1.87-.17-2.14a.75905.75905,0,0,0-.39-.59,3.124,3.124,0,0,0-1.32-.19l-2.13-.03-.23-.2v-1.08l.2-.2a33.17833,33.17833,0,0,0,8.17-1.89Zm-2.16-11.24a2.80142,2.80142,0,0,1,2.03.83,2.71077,2.71077,0,0,1,.84,2.01,2.68257,2.68257,0,0,1-.84,1.99,2.89782,2.89782,0,0,1-4.05.01,2.78977,2.78977,0,0,1,0-4.01,2.81153,2.81153,0,0,1,2.02-.83Z"/>
        <path d="M491.53,341.89355l.48.33c-.1,1.12-.17,2.6-.2,4.43,1.35-1.11,2.64-2.23,3.85-3.37a4.47953,4.47953,0,0,1,1-.7,8.22983,8.22983,0,0,1,1.56-.48,9.77314,9.77314,0,0,1,2.23-.25,9.35889,9.35889,0,0,1,3.74.78,7.50783,7.50783,0,0,1,2.74,1.85,5.95558,5.95558,0,0,1,1.28,2.53,15.26293,15.26293,0,0,1,.36,3.6v4.43c0,.29.04,2.37.13,6.26.03,1.59.21,2.54.53,2.84s1.37.45,3.14.45l.2.2v1.08l-.2.2c-2.15-.13-3.6-.2-4.36-.2-.44,0-1.67.07-3.7.2l-.3-.28q.33-3.27.33-8.53v-3.29c0-1.98-.05-3.4-.14-4.28a5.29125,5.29125,0,0,0-.85-2.38,4.78358,4.78358,0,0,0-1.9-1.66,6.36639,6.36639,0,0,0-2.84-.59,8.72325,8.72325,0,0,0-2.26.26,7.41066,7.41066,0,0,0-2.11,1.08,7.95742,7.95742,0,0,0-1.72,1.53,3.14117,3.14117,0,0,0-.67,1.33,18.11293,18.11293,0,0,0-.11,2.63v4.38c0,.37.03,1.55.1,3.56a31.502,31.502,0,0,0,.22,3.51,1.55326,1.55326,0,0,0,.34.73,1.0453,1.0453,0,0,0,.56.29c.22.04,1.13.11,2.74.21l.23.2v1.06l-.2.23q-3.165-.195-6.11-.2c-1.96,0-3.97.07-6.09.2l-.23-.23v-1.06l.23-.2c1.64-.1,2.57-.18,2.78-.23a1.24318,1.24318,0,0,0,.56-.31,1.34352,1.34352,0,0,0,.33-.73c.06-.33.13-1.41.2-3.24s.11-3.22.11-4.16v-4.95c0-.67-.03-1.58-.1-2.74s-.12-1.87-.17-2.14a.75907.75907,0,0,0-.39-.59,3.12409,3.12409,0,0,0-1.32-.19l-2.13-.03-.23-.2v-1.08l.2-.2a33.17833,33.17833,0,0,0,8.17-1.89Z"/>
        <path d="M535.5,362.16356l-.81,1.81a16.46841,16.46841,0,0,1-4.7,2.19,15.4976,15.4976,0,0,1-3.69.5,14.32071,14.32071,0,0,1-5.77-1.18,9.64081,9.64081,0,0,1-4.44-4,12.846,12.846,0,0,1-1.71-6.79,16.082,16.082,0,0,1,.66-4.77,11.87554,11.87554,0,0,1,1.38-3.16,10.65291,10.65291,0,0,1,2.45-2.29,16.11949,16.11949,0,0,1,3.65-2.01,11.34649,11.34649,0,0,1,4.16-.75,10.0048,10.0048,0,0,1,5.36,1.42,7.92892,7.92892,0,0,1,3.26,3.63,11.84775,11.84775,0,0,1,.94,4.7,14.80482,14.80482,0,0,1-.08,1.51l-.28.28a28.23248,28.23248,0,0,1-4.64.5c-1.94.08-3.23.13-3.85.13h-8.14q.045,5.205,2.64,7.67a8.84967,8.84967,0,0,0,6.34,2.46,9.83383,9.83383,0,0,0,3.41-.6,20.63332,20.63332,0,0,0,3.46-1.69l.41.43Zm-16.25-10.29q.45.075,3.51.18c2.04.07,3.54.1,4.53.1a37.83785,37.83785,0,0,0,4.29-.13q.03-.6.03-.93,0-3.9-1.6-5.8a5.38064,5.38064,0,0,0-4.36-1.9,5.63092,5.63092,0,0,0-4.7,2.14c-1.12,1.42-1.69,3.54-1.69,6.34Z"/>
        <path d="M540.52,358.46355h1.09l.23.23a34.0787,34.0787,0,0,0,.25,3.62,5.45059,5.45059,0,0,0,2.71,1.92,10.59542,10.59542,0,0,0,3.8.74,6.27126,6.27126,0,0,0,4.30005-1.43,4.455,4.455,0,0,0,1.61-3.42,3.103,3.103,0,0,0-.58-1.87,4.3038,4.3038,0,0,0-1.76-1.31,26.55537,26.55537,0,0,0-4.22-1.22c-1.74-.4-2.96-.72-3.65-.94a6.23625,6.23625,0,0,1-2-1.14,5.39856,5.39856,0,0,1-1.47-1.97,6.74437,6.74437,0,0,1,2.19-7.97,10.89135,10.89135,0,0,1,6.73-2.02,16.98506,16.98506,0,0,1,3.7.46,21.693,21.693,0,0,1,3.04.89l.23.35a39.62726,39.62726,0,0,0-.25,5.28l-.23.23h-1.01l-.23-.23a11.70491,11.70491,0,0,0-.28-2.15,3.25757,3.25757,0,0,0-.91-1.33,5.76828,5.76828,0,0,0-2.08-1.21,8.15357,8.15357,0,0,0-2.84-.49,6.72562,6.72562,0,0,0-2.6.45,3.94485,3.94485,0,0,0-1.7,1.37,3.76716,3.76716,0,0,0-.65,2.23,3.65187,3.65187,0,0,0,.39,1.71,2.9928,2.9928,0,0,0,1.2,1.22,6.33981,6.33981,0,0,0,1.7.67l2.75994.7a40.19805,40.19805,0,0,1,5.08,1.48,5.04921,5.04921,0,0,1,2.37,1.9,5.45853,5.45853,0,0,1,.84,3.08,7.61224,7.61224,0,0,1-2.89,5.96,10.97781,10.97781,0,0,1-7.43006,2.49,28.47288,28.47288,0,0,1-3.97-.35c-1.58-.24-2.93-.5-4.04-.78l-.13-.33.25-1.69a11.75006,11.75006,0,0,0,.15-1.57c.02-.53.03-1.64.05-3.33l.23-.23Z"/>
        <path d="M562.53,358.46355h1.09l.23.23a34.076,34.076,0,0,0,.25,3.62,5.451,5.451,0,0,0,2.71,1.92,10.59514,10.59514,0,0,0,3.80005.74,6.27123,6.27123,0,0,0,4.3-1.43,4.455,4.455,0,0,0,1.61-3.42,3.103,3.103,0,0,0-.58-1.87,4.30373,4.30373,0,0,0-1.76-1.31,26.555,26.555,0,0,0-4.22-1.22c-1.74-.4-2.96-.72-3.65-.94a6.23678,6.23678,0,0,1-2-1.14,5.39834,5.39834,0,0,1-1.47-1.97,6.74443,6.74443,0,0,1,2.18994-7.97,10.89153,10.89153,0,0,1,6.73-2.02,16.985,16.985,0,0,1,3.7.46,21.69276,21.69276,0,0,1,3.04.89l.23.35a39.62726,39.62726,0,0,0-.25,5.28l-.23.23h-1.01l-.23-.23a11.70581,11.70581,0,0,0-.28-2.15,3.25757,3.25757,0,0,0-.91-1.33,5.76836,5.76836,0,0,0-2.08-1.21,8.15363,8.15363,0,0,0-2.84-.49,6.72557,6.72557,0,0,0-2.6.45,3.94468,3.94468,0,0,0-1.7,1.37,3.76667,3.76667,0,0,0-.65,2.23,3.65188,3.65188,0,0,0,.39,1.71,2.99339,2.99339,0,0,0,1.19995,1.22,6.33858,6.33858,0,0,0,1.7.67l2.76.7a40.19805,40.19805,0,0,1,5.08,1.48,5.04918,5.04918,0,0,1,2.37,1.9,5.45846,5.45846,0,0,1,.84,3.08,7.61222,7.61222,0,0,1-2.89,5.96,10.97776,10.97776,0,0,1-7.43005,2.49,28.47338,28.47338,0,0,1-3.97-.35c-1.58-.24-2.93006-.5-4.04-.78l-.13-.33.25-1.69a11.76,11.76,0,0,0,.15-1.57c.02-.53.03-1.64.05-3.33l.23-.23Z"/>
        <path d="M625.56995,330.32354l.23.23q-.225,2.265-.23,7.9l-.19995.2h-1.18995l-.2-.23-.28-2.31a21.58538,21.58538,0,0,0-.31994-2.28,1.05239,1.05239,0,0,0-.37-.6,4.70108,4.70108,0,0,0-1.65-.31c-.93006-.08-1.97-.13-3.12-.13h-4.79c-.14,3.79-.19995,5.98-.19995,6.56v14.66l.05,4.9c.02,1.89.06006,3.12.14,3.68a2.17548,2.17548,0,0,0,.36,1.11,1.90322,1.90322,0,0,0,.93005.45,21.57462,21.57462,0,0,0,3.4.29l.18.15v1.26l-.18.2q-6.49494-.195-7.25-.2-.81006,0-7.23.2l-.19995-.2v-1.26l.19995-.15a27.47042,27.47042,0,0,0,3.16-.25,2.284,2.284,0,0,0,1.04-.39,1.94681,1.94681,0,0,0,.43994-1.02,21.24749,21.24749,0,0,0,.18006-3.47l.05005-5.31v-14.66q0-.405-.2-6.56h-3.78c-1.56006,0-2.9.03-4.03.1s-1.79.24-1.97.52a8.95753,8.95753,0,0,0-.49,2.7l-.25,2.31-.23.23h-1.17l-.2-.2q-.045-6.06-.23-7.9l.23-.23q4.40991.195,14.68005.2c6.84009,0,11.88-.07,14.71-.2Z"/>
        <path d="M645.53,362.16356l-.81006,1.81a16.46828,16.46828,0,0,1-4.69995,2.19,15.4976,15.4976,0,0,1-3.68994.5,14.32092,14.32092,0,0,1-5.77-1.18,9.63981,9.63981,0,0,1-4.43994-4,12.846,12.846,0,0,1-1.71-6.79,16.08036,16.08036,0,0,1,.66-4.77,11.87713,11.87713,0,0,1,1.38-3.16,10.65473,10.65473,0,0,1,2.45-2.29,16.11921,16.11921,0,0,1,3.65-2.01,11.34683,11.34683,0,0,1,4.16-.75,10.00493,10.00493,0,0,1,5.36,1.42,7.92854,7.92854,0,0,1,3.26,3.63,11.84753,11.84753,0,0,1,.93994,4.7,14.8252,14.8252,0,0,1-.07995,1.51l-.28.28a28.23184,28.23184,0,0,1-4.64.5c-1.93994.08-3.23.13-3.85.13h-8.14q.045,5.205,2.64,7.67a8.8495,8.8495,0,0,0,6.34,2.46,9.83446,9.83446,0,0,0,3.41-.6,20.62656,20.62656,0,0,0,3.46-1.69l.41.43Zm-16.25-10.29q.45007.075,3.51.18c2.04.07,3.54.1,4.53.1a37.84,37.84,0,0,0,4.29-.13q.03-.6.03-.93,0-3.9-1.6-5.8a5.38072,5.38072,0,0,0-4.36-1.9,5.6308,5.6308,0,0,0-4.7,2.14c-1.12,1.42-1.68994,3.54-1.68994,6.34Z"/>
        <path d="M653.37,348.81356l-.99-.25-.19995-.25v-3.12a14.905,14.905,0,0,1,8.77-3.32,9.79191,9.79191,0,0,1,4.84,1.08,6.86483,6.86483,0,0,1,2.79,2.7,7.88215,7.88215,0,0,1,.86,3.79l-.13,5.05v7.5a4.65733,4.65733,0,0,0,.21,1.86,1.0931,1.0931,0,0,0,.5.44,4.09277,4.09277,0,0,0,1.04.19l1.44995.12.2.23v1.01l-.2.2q-1.845-.15-3.44995-.15c-1.07,0-2.23.05-3.65.15l-.38-.35.1-4.05-5.53,4.28a7.95236,7.95236,0,0,1-3.04.58,7.71161,7.71161,0,0,1-3.49-.73,5.262,5.262,0,0,1-2.23-2.04,6.17672,6.17672,0,0,1-.77-3.17,7.33774,7.33774,0,0,1,2.33-5.77q2.34009-2.07,12.73-3.53,0-3.72-1.67-5.24a6.44211,6.44211,0,0,0-4.49-1.52,7.89054,7.89054,0,0,0-2.68006.43,3.5692,3.5692,0,0,0-1.38.69c-.12.17-.58,1.2-1.37,3.08l-.18005.13Zm11.77,3.97c-4.73.79-7.68,1.63-8.85,2.54a4.986,4.986,0,0,0-1.75,4.2c0,2.62,1.31006,3.92,3.93005,3.92q3.375,0,6.67-3.87v-6.79Z"/>
        <path d="M683.29,341.89355l.48.33c-.1,1.11-.17,2.43-.2,3.97l2.41-2.19c.68006-.62,1.12-1.02,1.34-1.2a5.34616,5.34616,0,0,1,1.55005-.62,9.36543,9.36543,0,0,1,2.56006-.35,7.93448,7.93448,0,0,1,4.43994,1.25,7.3145,7.3145,0,0,1,2.81006,3.43,50.017,50.017,0,0,1,3.99-3.57,8.35893,8.35893,0,0,1,1.81005-.72,8.91031,8.91031,0,0,1,2.48-.36,8.09911,8.09911,0,0,1,3.68005.85,7.2483,7.2483,0,0,1,2.66,2.24,6.13629,6.13629,0,0,1,1.15,2.99c.11,1.07.17,2.55.17,4.43v2.64c0,.29.05,2.37.15,6.26.03,1.59.21,2.54.53,2.84q.47991.45,3.12.45l.2.2v1.08l-.2.2c-2.15-.13-3.6-.2-4.36-.2-.42,0-1.65.07-3.68005.2l-.32995-.28q.33-3.27.32995-8.53v-3.02a28.12015,28.12015,0,0,0-.38-5.6,4.45379,4.45379,0,0,0-1.78-2.62,5.47836,5.47836,0,0,0-3.31995-1.02,6.122,6.122,0,0,0-2.56006.54,6.427,6.427,0,0,0-2.14,1.61,3.726,3.726,0,0,0-1.05005,1.99c-.06995.61-.1,1.74-.1,3.38v3.14c0,.74.03,2.12.1,4.15s.14,3.21.21,3.55a1.28233,1.28233,0,0,0,.36.72,1.1897,1.1897,0,0,0,.56006.28q.31494.06,2.73.21l.23.2v1.06l-.19995.23q-3.165-.195-6.11-.2-2.71509,0-6.09.2l-.23-.23v-1.06l.23-.2c1.64-.1,2.56995-.18,2.78-.23a1.244,1.244,0,0,0,.56006-.31,1.34271,1.34271,0,0,0,.33-.73c.06-.33.13-1.41.19995-3.24s.11-3.22.11-4.16v-2.87a18.90208,18.90208,0,0,0-.39-4.38,4.77658,4.77658,0,0,0-1.68994-2.59,4.92563,4.92563,0,0,0-3.25-1.06,6.53469,6.53469,0,0,0-2.78.59,6.363,6.363,0,0,0-2.05005,1.46,4.01947,4.01947,0,0,0-.99,1.62,16.78939,16.78939,0,0,0-.18994,3.27v3.72c0,.74.03,2.12.1,4.15s.14,3.21.21,3.55a1.28228,1.28228,0,0,0,.36.72,1.18961,1.18961,0,0,0,.56006.28q.31494.06,2.73.21l.23.2v1.06l-.2.23q-3.165-.195-6.11-.2c-1.96,0-3.97.07-6.09.2l-.23-.23v-1.06l.23-.2c1.64-.1,2.56994-.18,2.78-.23a1.244,1.244,0,0,0,.56-.31,1.34264,1.34264,0,0,0,.33-.73c.06006-.33.13-1.41.2-3.24s.11-3.22.11-4.16v-4.95c0-.67-.03-1.58-.1-2.74s-.12-1.87-.16-2.14a.75937.75937,0,0,0-.39-.59,3.12406,3.12406,0,0,0-1.31994-.19l-2.13-.03-.23-.2v-1.08l.2-.2a33.18037,33.18037,0,0,0,8.17-1.89Z"/>
      </g>
      <g>
        <path class="cls-1" d="M313.09,237.32355c15.03-5.59,30.46-10.42,45.38-15.09,37.34-11.68,72.61-22.72,104.2-45.15,39.25-27.88,59.72-45.46,78.98-77.29H92.62A92.62332,92.62332,0,0,0,0,192.41355H0a92.62333,92.62333,0,0,0,92.62,92.62H206.11c12.97-6.61,60.75-30.5,107-47.71Z"/>
        <path class="cls-2" d="M654.46,99.80355H552.11c-20.91,36.2-42.03,54.66-84.22,84.63-32.75,23.26-70.35,35.02-106.72,46.4-14.81,4.63-30.12,9.42-44.93,14.93-34.08,12.68-69.02,29.03-89.96,39.27H654.47a92.62333,92.62333,0,0,0,92.62-92.62h0a92.62333,92.62333,0,0,0-92.62-92.62Z"/>
      </g>
      <g>
        <path class="cls-3" d="M411.19,265.07354c-159.75,76.87-305.35,113.5-345.99,84.25,42.96,23.72,187.98-12.52,342.3-86.44,174.27-83.47,296.59-186.74,276.73-227.6-5.18-10.64-19.68-16.17-41.39-17.04,24.68994.15,41.18005,5.7,46.78,17.27,19.91,41.13-103.77,145.54-278.42,229.56Z"/>
        <path class="cls-4" d="M434.15,280.33355c-186.88,95.86-373.69,140.69-385.46,86.24,28.08,48.3,201.65,3.27,383.92005-89.63,173.01-88.18,300.23-191.31,303.67-243.43,1.17,51.35-126.80005,156.89-302.13,246.81Z"/>
        <path class="cls-5" d="M734.79,19.03355c-19.62-38.42-142.15-16.68-291.65,47.25a5.61028,5.61028,0,0,1,.25.56c127.52-48.95,228.71-63.77,244.37-31.32,19.84,41.12-102.83,145.53-276.96,229.56-174.13,84.02-332.5,119.65-353.61,74.72a22.18317,22.18317,0,0,1-2.04-9.95c-8.84,15.82-10.77,28.47-5.62,38.57,23.61,46.24,193.73,5.23,383.08-91.46,189.35-96.69,325.79-211.68,302.17993-257.92Z"/>
      </g>
      <g>
        <path class="cls-6" d="M97.75,164.41355a27.20334,27.20334,0,0,0-9.67-2.97,88.71337,88.71337,0,0,0-12.05-.61H46.47v63.88h9.55v-26.38H76.96c11.09,0,18.85-1.89,23.05-5.61a17.39885,17.39885,0,0,0,6.3-13.63,16.408,16.408,0,0,0-2.35-8.59,16.75756,16.75756,0,0,0-6.21-6.08Zm-5.82,24.07c-2.98,2.15-7.82,3.19-14.81,3.19H56.02v-24.19H76.91a54.43346,54.43346,0,0,1,9.95.59,12.59537,12.59537,0,0,1,6.93,3.99,10.77223,10.77223,0,0,1,2.65,7.3,10.62125,10.62125,0,0,1-4.5,9.12Z"/>
        <path class="cls-6" d="M167.73,199.32355a26.09358,26.09358,0,0,0-5.35-2.81.751.751,0,0,1-.45-.81.74263.74263,0,0,1,.64-.63c7.03-.9,12.32-2.84,15.73-5.79a14.19633,14.19633,0,0,0,5.32-11.26,15.492,15.492,0,0,0-3.22-9.48,16.84532,16.84532,0,0,0-8.61-6c-3.63-1.14-9.03-1.73-16.05-1.73H120.9v63.88h9.55v-28.81h12.73a38.22431,38.22431,0,0,1,5.97.32,18.62,18.62,0,0,1,4.95,1.77,22.73952,22.73952,0,0,1,5.48,4.43c2,2.07,4.57,5.09,7.65,8.98l10.4,13.31h11.99l-13.23-16.85a47.72139,47.72139,0,0,0-8.66-8.54Zm3.79-15.16a12.47045,12.47045,0,0,1-6.45,4.06,41.9404,41.9404,0,0,1-11.45,1.24H130.45v-22.47h25.73c5.99,0,10.45,1.03,13.26,3.06a9.50277,9.50277,0,0,1,4.31,7.97,9.71018,9.71018,0,0,1-2.23,6.13Z"/>
        <path class="cls-6" d="M255.28,163.92354a44.68189,44.68189,0,0,0-19.68-4.24c-11.06,0-20.21,3.03-27.18,9.02-6.95,5.97-10.48,14.35-10.48,24.92a30.69423,30.69423,0,0,0,4.5,15.94,31.18592,31.18592,0,0,0,13.22,11.89,44.133,44.133,0,0,0,19.89,4.37,46.62859,46.62859,0,0,0,19.15-3.96,30.2809,30.2809,0,0,0,13.64-11.61,34.10261,34.10261,0,0,0,.24-34.55,30.83264,30.83264,0,0,0-13.3-11.78Zm8,28.89c0,8.46-2.65,15.09-7.86,19.72-5.2,4.61-11.9,6.94-19.93,6.94s-14.53-2.31-19.76-6.87c-5.25-4.58-7.92-10.92-7.92-18.86,0-9.88,2.78-17.05,8.27-21.31a33.24388,33.24388,0,0,1,34.03-3.06,22.993,22.993,0,0,1,9.83,9.36,28.648,28.648,0,0,1,3.35,14.07Z"/>
        <path class="cls-6" d="M330.17,205.66355c-1.91,4.54-3.33,8.04-4.23,10.39l-.47,1.23-.46-1.23c-.79-2.1-2.07-5.32-3.8-9.59l-18.74-45.63h-15.04v63.88h9.17v-54.33l1.12-.22,22.77,54.55h8.85l22.87-53.63,1.12.23v53.4h9.17v-63.88H349.14l-18.95,44.84Z"/>
        <path class="cls-6" d="M434.63,163.92354a44.68186,44.68186,0,0,0-19.68-4.24c-11.06,0-20.21,3.03-27.18,9.02-6.96,5.96-10.48,14.35-10.48,24.91a30.69423,30.69423,0,0,0,4.5,15.94,31.18587,31.18587,0,0,0,13.22,11.89,44.13314,44.13314,0,0,0,19.89,4.37,46.62883,46.62883,0,0,0,19.15-3.96,30.281,30.281,0,0,0,13.64-11.61,34.10257,34.10257,0,0,0,.24-34.55,30.89589,30.89589,0,0,0-13.3-11.78Zm8,28.89c0,8.46-2.64,15.09-7.86,19.72-5.2,4.61-11.91,6.94-19.93,6.94s-14.53-2.31-19.76-6.87c-5.25-4.58-7.92-10.92-7.92-18.86,0-9.88,2.78-17.05,8.27-21.31a33.24388,33.24388,0,0,1,34.03-3.06,22.993,22.993,0,0,1,9.83,9.36,28.648,28.648,0,0,1,3.35,14.07Z"/>
        <polygon class="cls-6" points="461.12 167.484 487.38 167.484 487.38 224.714 496.93 224.714 496.93 167.484 523.29 167.484 523.29 160.834 461.12 160.834 461.12 167.484"/>
        <rect class="cls-6" x="536.90997" y="160.83355" width="9.54999" height="63.88"/>
        <path class="cls-6" d="M620.18994,163.92354a44.68234,44.68234,0,0,0-19.68-4.24c-11.06006,0-20.21,3.03-27.18006,9.02-6.96,5.96-10.48,14.35-10.48,24.91a30.69423,30.69423,0,0,0,4.5,15.94,31.18628,31.18628,0,0,0,13.22,11.89,44.13333,44.13333,0,0,0,19.89,4.37,46.629,46.629,0,0,0,19.15-3.96,30.28134,30.28134,0,0,0,13.64-11.61,34.103,34.103,0,0,0,.24-34.55,30.89569,30.89569,0,0,0-13.3-11.78Zm8,28.89c0,8.46-2.64,15.09-7.86,19.72-5.2,4.61-11.91,6.94-19.93006,6.94s-14.53-2.31-19.76-6.87c-5.25-4.58-7.92-10.92-7.92-18.86,0-9.88,2.78-17.05,8.27-21.31a33.24366,33.24366,0,0,1,34.02991-3.06,22.99216,22.99216,0,0,1,9.83,9.36,28.648,28.648,0,0,1,3.35,14.07Z"/>
        <polygon class="cls-6" points="705.23 160.834 705.23 212.664 662.78 161.014 662.63 160.834 652.54 160.834 652.54 224.714 661.66 224.714 661.66 172.834 704.1 224.534 704.25 224.714 714.34 224.714 714.34 160.834 705.23 160.834"/>
      </g>
      <g>
        <circle class="cls-7" cx="455.17999" cy="61.41355" r="20.44"/>
        <circle class="cls-8" cx="455.17999" cy="61.41355" r="16"/>
      </g>
    </g>
  </g>
</svg>
