<?xml version="1.0" encoding="utf-8"?>
<!-- Generator: Adobe Illustrator 25.1.0, SVG Export Plug-In . SVG Version: 6.00 Build 0)  -->
<svg version="1.1" id="Layer_1" xmlns="http://www.w3.org/2000/svg" xmlns:xlink="http://www.w3.org/1999/xlink" x="0px" y="0px"
	 viewBox="0 0 747.1 390.1" style="enable-background:new 0 0 747.1 390.1;" xml:space="preserve">
<style type="text/css">
	.st0{fill:#FFFFFF;}
	.st1{fill:url(#SVGID_1_);}
	.st2{fill:url(#SVGID_2_);}
	.st3{fill:#333333;}
	.st4{fill:#6B6B6B;}
	.st5{fill:url(#SVGID_3_);}
	.st6{fill:url(#SVGID_4_);}
	.st7{fill:#A6A6A6;}
</style>
<g id="Layer_2_1_">
	<g id="a">
		<g>
			<path class="st0" d="M383.6,331.9l-0.2-0.2v-1.3l0.2-0.2c2.9,0.1,5.1,0.2,6.7,0.2c0.6,0,2.9-0.1,7-0.2c1.3,0,2.3,0,2.9,0
				c1.8-0.1,3.7,0.2,5.4,0.7c1.3,0.4,2.4,1.3,3.2,2.4c0.8,1.1,1.2,2.5,1.2,3.9c0,1.9-0.7,3.8-2,5.2c-1.4,1.6-3.5,2.7-6.6,3.4
				c1.5,0.1,3,0.4,4.5,0.7c1.1,0.3,2.2,0.8,3.1,1.5c0.9,0.7,1.6,1.6,2,2.6c0.5,1.2,0.8,2.4,0.8,3.7c0,1.1-0.2,2.2-0.5,3.3
				c-0.4,1.2-1,2.4-1.9,3.4c-0.9,1.1-2,2.1-3.3,2.8c-1.2,0.8-2.5,1.3-3.9,1.7c-1.6,0.4-3.3,0.6-5,0.5c-0.4,0-1.6,0-3.6-0.1
				c-2.2,0-3.5-0.1-3.6-0.1c-1.1,0-2.6,0.1-4.2,0.2l-0.2-0.2V365l0.2-0.2c0.6-0.2,1.2-0.5,1.7-0.9c0.3-1.5,0.4-3,0.4-4.5
				c0.1-2.8,0.1-4.9,0.1-6.4v-9.2l0-5.7c0-1.2,0-2.2,0-3c0-0.6-0.1-1.1-0.1-1.7c0-0.3-0.1-0.5-0.3-0.7c-0.2-0.1-0.4-0.3-0.6-0.3
				c-0.4-0.1-0.8-0.2-1.3-0.2L383.6,331.9L383.6,331.9z M392.7,345.1c0.9,0.1,1.8,0.1,2.9,0.1c3.5,0,5.9-0.6,7.3-1.9
				c1.4-1.3,2.2-3.2,2-5.1c0-1.1-0.2-2.2-0.8-3.2c-0.6-0.9-1.4-1.6-2.5-2c-1.5-0.5-3-0.8-4.6-0.7c-1.4,0-2.8,0.1-4.2,0.4
				c-0.1,1.5-0.2,4.1-0.2,7.9L392.7,345.1L392.7,345.1z M392.8,363.5c1.3,0.3,2.7,0.5,4,0.5c2,0.1,3.9-0.3,5.7-1.2
				c1.3-0.7,2.4-1.8,3-3.2c0.7-1.4,1-2.9,1-4.5c0.1-2.1-0.6-4.2-2.1-5.8c-1.4-1.4-4.4-2.2-8.9-2.2c-0.8,0-1.7,0-2.7,0.1v8.6
				L392.8,363.5L392.8,363.5z"/>
			<path class="st0" d="M423.2,341.9l0.5,0.3c-0.2,2.2-0.3,5-0.3,8.4v5.9c-0.1,1.5,0.1,3,0.5,4.5c0.3,0.8,0.9,1.5,1.7,1.9
				c0.9,0.5,1.9,0.7,2.9,0.7c1.2,0,2.3-0.2,3.4-0.7c1-0.5,1.9-1.2,2.5-2c0.5-0.5,0.9-1.1,1.2-1.8c0.2-0.8,0.2-1.7,0.2-2.5l0.1-2.8
				V351c0-0.7,0-1.6-0.1-2.7s-0.1-1.9-0.2-2.1c0-0.2-0.2-0.5-0.4-0.6c-0.4-0.2-0.9-0.2-1.3-0.2l-2.1,0l-0.2-0.2V344l0.2-0.2
				c2.8-0.3,5.5-0.9,8.2-1.9l0.5,0.3c-0.2,2.2-0.3,5-0.3,8.4v4.4c0,0.2,0,2.3,0.1,6.2c0,0.9,0.1,1.8,0.3,2.6
				c0.1,0.3,0.3,0.5,0.6,0.6c0.7,0.2,1.5,0.2,2.3,0.2h0.7l0.2,0.2v1l-0.2,0.2c-2.4-0.1-4-0.2-4.8-0.2c-1,0-2.2,0.1-3.6,0.2l-0.2-0.2
				c0.1-1.7,0.2-3.2,0.2-4.4c-1.3,1-2.5,2.1-3.6,3.3c-0.6,0.6-1.4,1-2.3,1.3c-1.1,0.4-2.2,0.5-3.4,0.5c-1.5,0.1-3-0.2-4.4-0.9
				c-1-0.5-1.8-1.4-2.2-2.5c-0.5-1.8-0.8-3.6-0.7-5.4l0-2V351c0-0.7,0-1.6-0.1-2.7s-0.1-1.9-0.2-2.1c0-0.2-0.2-0.5-0.4-0.6
				c-0.4-0.2-0.9-0.2-1.3-0.2l-2.1,0l-0.2-0.2V344l0.2-0.2C417.8,343.5,420.6,342.9,423.2,341.9L423.2,341.9z"/>
			<path class="st0" d="M448.3,358.5h1.1l0.2,0.2c0,1.2,0.1,2.4,0.2,3.6c0.7,0.9,1.6,1.6,2.7,1.9c1.2,0.5,2.5,0.7,3.8,0.7
				c1.6,0.1,3.1-0.4,4.3-1.4c1-0.8,1.6-2.1,1.6-3.4c0-0.7-0.2-1.3-0.6-1.9c-0.5-0.6-1.1-1-1.8-1.3c-1.4-0.5-2.8-0.9-4.2-1.2
				c-1.7-0.4-3-0.7-3.6-0.9c-0.7-0.3-1.4-0.6-2-1.1c-0.6-0.5-1.1-1.2-1.5-2c-1.2-2.8-0.3-6.1,2.2-8c2-1.4,4.3-2.1,6.7-2
				c1.2,0,2.5,0.2,3.7,0.5c1,0.2,2,0.5,3,0.9l0.2,0.4c-0.2,1.8-0.3,3.5-0.2,5.3l-0.2,0.2h-1l-0.2-0.2c0-0.7-0.1-1.4-0.3-2.1
				c-0.2-0.5-0.5-1-0.9-1.3c-0.6-0.5-1.3-1-2.1-1.2c-0.9-0.3-1.9-0.5-2.8-0.5c-0.9,0-1.8,0.1-2.6,0.5c-0.7,0.3-1.3,0.8-1.7,1.4
				c-0.4,0.7-0.7,1.4-0.6,2.2c0,0.6,0.1,1.2,0.4,1.7c0.3,0.5,0.7,0.9,1.2,1.2c0.5,0.3,1.1,0.5,1.7,0.7l2.8,0.7
				c1.7,0.4,3.4,0.9,5.1,1.5c1,0.4,1.8,1,2.4,1.9c0.6,0.9,0.9,2,0.8,3.1c0,2.3-1.1,4.5-2.9,6c-2.1,1.7-4.7,2.6-7.4,2.5
				c-1.3,0-2.7-0.1-4-0.4c-1.6-0.2-2.9-0.5-4-0.8l-0.1-0.3l0.2-1.7c0.1-0.5,0.1-1,0.1-1.6c0-0.5,0-1.6,0-3.3L448.3,358.5
				L448.3,358.5z"/>
			<path class="st0" d="M477.2,341.9l0.5,0.3c-0.2,2.2-0.3,5-0.3,8.4v5.7c0,0.4,0,1.5,0.1,3.6c0,1.2,0.1,2.3,0.2,3.5
				c0,0.3,0.2,0.5,0.3,0.7c0.2,0.2,0.3,0.3,0.6,0.3c0.2,0,1.1,0.1,2.7,0.2l0.2,0.2v1.1l-0.2,0.2c-2.1-0.1-4.1-0.2-6.1-0.2
				c-2,0-4,0.1-6.1,0.2l-0.2-0.2v-1.1l0.2-0.2c1.6-0.1,2.6-0.2,2.8-0.2c0.2-0.1,0.4-0.2,0.6-0.3c0.2-0.2,0.3-0.5,0.3-0.7
				c0.1-0.3,0.1-1.4,0.2-3.2s0.1-3.2,0.1-4.2v-5c0-0.7,0-1.6-0.1-2.7s-0.1-1.9-0.2-2.1c0-0.2-0.2-0.5-0.4-0.6
				c-0.4-0.2-0.9-0.2-1.3-0.2l-2.1,0l-0.2-0.2V344l0.2-0.2C471.8,343.5,474.6,342.9,477.2,341.9L477.2,341.9z M475,330.7
				c0.8,0,1.5,0.3,2,0.8c0.5,0.5,0.9,1.3,0.8,2c0,0.8-0.3,1.5-0.8,2c-1.1,1.1-2.9,1.1-4,0c-1.1-1.1-1.1-2.8-0.1-3.9c0,0,0,0,0.1-0.1
				C473.6,330.9,474.3,330.6,475,330.7z"/>
			<path class="st0" d="M491.5,341.9l0.5,0.3c-0.1,1.1-0.2,2.6-0.2,4.4c1.4-1.1,2.6-2.2,3.9-3.4c0.3-0.3,0.6-0.5,1-0.7
				c0.5-0.2,1-0.4,1.6-0.5c0.7-0.2,1.5-0.3,2.2-0.2c1.3,0,2.6,0.3,3.7,0.8c1,0.4,2,1,2.7,1.9c0.6,0.7,1.1,1.6,1.3,2.5
				c0.3,1.2,0.4,2.4,0.4,3.6v4.4c0,0.3,0,2.4,0.1,6.3c0,1.6,0.2,2.5,0.5,2.8s1.4,0.5,3.1,0.5l0.2,0.2v1.1l-0.2,0.2
				c-2.1-0.1-3.6-0.2-4.4-0.2c-0.4,0-1.7,0.1-3.7,0.2l-0.3-0.3c0.2-2.2,0.3-5,0.3-8.5V354c0-2,0-3.4-0.1-4.3
				c-0.1-0.9-0.4-1.7-0.9-2.4c-0.5-0.7-1.1-1.3-1.9-1.7c-0.9-0.4-1.9-0.6-2.8-0.6c-0.8,0-1.5,0.1-2.3,0.3c-0.8,0.2-1.5,0.6-2.1,1.1
				c-0.6,0.4-1.2,0.9-1.7,1.5c-0.3,0.4-0.6,0.8-0.7,1.3c-0.1,0.9-0.1,1.8-0.1,2.6v4.4c0,0.4,0,1.5,0.1,3.6c0,1.2,0.1,2.3,0.2,3.5
				c0,0.3,0.2,0.5,0.3,0.7c0.2,0.2,0.3,0.3,0.6,0.3c0.2,0,1.1,0.1,2.7,0.2l0.2,0.2v1.1l-0.2,0.2c-2.1-0.1-4.1-0.2-6.1-0.2
				c-2,0-4,0.1-6.1,0.2l-0.2-0.2v-1.1l0.2-0.2c1.6-0.1,2.6-0.2,2.8-0.2c0.2-0.1,0.4-0.2,0.6-0.3c0.2-0.2,0.3-0.5,0.3-0.7
				c0.1-0.3,0.1-1.4,0.2-3.2s0.1-3.2,0.1-4.2v-5c0-0.7,0-1.6-0.1-2.7s-0.1-1.9-0.2-2.1c0-0.2-0.2-0.5-0.4-0.6
				c-0.4-0.2-0.9-0.2-1.3-0.2l-2.1,0l-0.2-0.2V344l0.2-0.2C486.2,343.5,488.9,342.9,491.5,341.9L491.5,341.9z"/>
			<path class="st0" d="M535.5,362.2l-0.8,1.8c-1.4,1-3,1.7-4.7,2.2c-1.2,0.3-2.4,0.5-3.7,0.5c-2,0-3.9-0.4-5.8-1.2
				c-1.9-0.8-3.4-2.2-4.4-4c-1.2-2.1-1.8-4.4-1.7-6.8c0-1.6,0.2-3.2,0.7-4.8c0.3-1.1,0.8-2.2,1.4-3.2c0.7-0.9,1.5-1.7,2.5-2.3
				c1.1-0.8,2.4-1.5,3.7-2c1.3-0.5,2.7-0.8,4.2-0.8c1.9,0,3.7,0.5,5.4,1.4c1.4,0.8,2.6,2.1,3.3,3.6c0.6,1.5,1,3.1,0.9,4.7
				c0,0.5,0,1-0.1,1.5l-0.3,0.3c-1.5,0.3-3.1,0.5-4.6,0.5c-1.9,0.1-3.2,0.1-3.8,0.1h-8.1c0,3.5,0.9,6,2.6,7.7c1.7,1.6,4,2.5,6.3,2.5
				c1.2,0,2.3-0.2,3.4-0.6c1.2-0.5,2.4-1,3.5-1.7L535.5,362.2L535.5,362.2z M519.2,351.9c0.3,0.1,1.5,0.1,3.5,0.2s3.5,0.1,4.5,0.1
				c1.4,0,2.9,0,4.3-0.1c0-0.4,0-0.7,0-0.9c0-2.6-0.5-4.5-1.6-5.8c-1.1-1.3-2.7-2-4.4-1.9c-1.8-0.1-3.6,0.7-4.7,2.1
				C519.8,347,519.3,349.1,519.2,351.9L519.2,351.9z"/>
			<path class="st0" d="M540.5,358.5h1.1l0.2,0.2c0,1.2,0.1,2.4,0.2,3.6c0.7,0.9,1.6,1.6,2.7,1.9c1.2,0.5,2.5,0.7,3.8,0.7
				c1.6,0.1,3.1-0.4,4.3-1.4c1-0.8,1.6-2.1,1.6-3.4c0-0.7-0.2-1.3-0.6-1.9c-0.5-0.6-1.1-1-1.8-1.3c-1.4-0.5-2.8-0.9-4.2-1.2
				c-1.7-0.4-3-0.7-3.7-0.9c-0.7-0.3-1.4-0.6-2-1.1c-0.6-0.5-1.1-1.2-1.5-2c-1.2-2.8-0.3-6.1,2.2-8c2-1.4,4.3-2.1,6.7-2
				c1.2,0,2.5,0.2,3.7,0.5c1,0.2,2,0.5,3,0.9l0.2,0.4c-0.2,1.8-0.3,3.5-0.2,5.3l-0.2,0.2h-1l-0.2-0.2c0-0.7-0.1-1.4-0.3-2.1
				c-0.2-0.5-0.5-1-0.9-1.3c-0.6-0.5-1.3-1-2.1-1.2c-0.9-0.3-1.9-0.5-2.8-0.5c-0.9,0-1.8,0.1-2.6,0.5c-0.7,0.3-1.3,0.8-1.7,1.4
				c-0.4,0.7-0.7,1.4-0.7,2.2c0,0.6,0.1,1.2,0.4,1.7c0.3,0.5,0.7,0.9,1.2,1.2c0.5,0.3,1.1,0.5,1.7,0.7l2.8,0.7
				c1.7,0.4,3.4,0.9,5.1,1.5c1,0.4,1.8,1,2.4,1.9c0.6,0.9,0.9,2,0.8,3.1c0,2.3-1.1,4.5-2.9,6c-2.1,1.7-4.7,2.6-7.4,2.5
				c-1.3,0-2.7-0.1-4-0.4c-1.6-0.2-2.9-0.5-4-0.8l-0.1-0.3l0.2-1.7c0.1-0.5,0.1-1,0.2-1.6c0-0.5,0-1.6,0-3.3L540.5,358.5
				L540.5,358.5z"/>
			<path class="st0" d="M562.5,358.5h1.1l0.2,0.2c0,1.2,0.1,2.4,0.2,3.6c0.7,0.9,1.6,1.6,2.7,1.9c1.2,0.5,2.5,0.7,3.8,0.7
				c1.6,0.1,3.1-0.4,4.3-1.4c1-0.8,1.6-2.1,1.6-3.4c0-0.7-0.2-1.3-0.6-1.9c-0.5-0.6-1.1-1-1.8-1.3c-1.4-0.5-2.8-0.9-4.2-1.2
				c-1.7-0.4-3-0.7-3.7-0.9c-0.7-0.3-1.4-0.6-2-1.1c-0.6-0.5-1.1-1.2-1.5-2c-1.2-2.8-0.3-6.1,2.2-8c2-1.4,4.3-2.1,6.7-2
				c1.2,0,2.5,0.2,3.7,0.5c1,0.2,2,0.5,3,0.9l0.2,0.4c-0.2,1.8-0.3,3.5-0.2,5.3l-0.2,0.2h-1l-0.2-0.2c0-0.7-0.1-1.4-0.3-2.1
				c-0.2-0.5-0.5-1-0.9-1.3c-0.6-0.5-1.3-1-2.1-1.2c-0.9-0.3-1.9-0.5-2.8-0.5c-0.9,0-1.8,0.1-2.6,0.5c-0.7,0.3-1.3,0.8-1.7,1.4
				c-0.4,0.7-0.7,1.4-0.7,2.2c0,0.6,0.1,1.2,0.4,1.7c0.3,0.5,0.7,0.9,1.2,1.2c0.5,0.3,1.1,0.5,1.7,0.7l2.8,0.7
				c1.7,0.4,3.4,0.9,5.1,1.5c1,0.4,1.8,1,2.4,1.9c0.6,0.9,0.9,2,0.8,3.1c0,2.3-1.1,4.5-2.9,6c-2.1,1.7-4.7,2.6-7.4,2.5
				c-1.3,0-2.7-0.1-4-0.4c-1.6-0.2-2.9-0.5-4-0.8l-0.1-0.3l0.2-1.7c0.1-0.5,0.1-1,0.2-1.6c0-0.5,0-1.6,0-3.3L562.5,358.5
				L562.5,358.5z"/>
			<path class="st0" d="M625.6,330.3l0.2,0.2c-0.1,1.5-0.2,4.1-0.2,7.9l-0.2,0.2h-1.2l-0.2-0.2l-0.3-2.3c-0.1-0.8-0.2-1.5-0.3-2.3
				c-0.1-0.2-0.2-0.4-0.4-0.6c-0.5-0.2-1.1-0.3-1.7-0.3c-0.9-0.1-2-0.1-3.1-0.1h-4.8c-0.1,3.8-0.2,6-0.2,6.6V354l0,4.9
				c0,1.9,0.1,3.1,0.1,3.7c0,0.4,0.1,0.8,0.4,1.1c0.3,0.2,0.6,0.4,0.9,0.5c1.1,0.2,2.3,0.3,3.4,0.3l0.2,0.1v1.3l-0.2,0.2
				c-4.3-0.1-6.7-0.2-7.2-0.2c-0.5,0-3,0.1-7.2,0.2l-0.2-0.2v-1.3l0.2-0.1c1.1,0,2.1-0.1,3.2-0.2c0.4,0,0.7-0.2,1-0.4
				c0.2-0.3,0.4-0.6,0.4-1c0.2-1.1,0.2-2.3,0.2-3.5l0.1-5.3v-14.7c0-0.3-0.1-2.5-0.2-6.6h-3.8c-1.6,0-2.9,0-4,0.1s-1.8,0.2-2,0.5
				c-0.3,0.9-0.5,1.8-0.5,2.7l-0.2,2.3l-0.2,0.2h-1.2l-0.2-0.2c0-4-0.1-6.7-0.2-7.9l0.2-0.2c2.9,0.1,7.8,0.2,14.7,0.2
				C617.7,330.5,622.8,330.4,625.6,330.3L625.6,330.3z"/>
			<path class="st0" d="M645.5,362.2l-0.8,1.8c-1.4,1-3,1.7-4.7,2.2c-1.2,0.3-2.4,0.5-3.7,0.5c-2,0-3.9-0.4-5.8-1.2
				c-1.9-0.8-3.4-2.2-4.4-4c-1.2-2.1-1.8-4.4-1.7-6.8c0-1.6,0.2-3.2,0.7-4.8c0.3-1.1,0.8-2.2,1.4-3.2c0.7-0.9,1.5-1.7,2.5-2.3
				c1.1-0.8,2.4-1.5,3.7-2c1.3-0.5,2.7-0.8,4.2-0.8c1.9,0,3.7,0.5,5.4,1.4c1.4,0.8,2.6,2.1,3.3,3.6c0.6,1.5,1,3.1,0.9,4.7
				c0,0.5,0,1-0.1,1.5l-0.3,0.3c-1.5,0.3-3.1,0.5-4.6,0.5c-1.9,0.1-3.2,0.1-3.8,0.1h-8.1c0,3.5,0.9,6,2.6,7.7c1.7,1.6,4,2.5,6.3,2.5
				c1.2,0,2.3-0.2,3.4-0.6c1.2-0.5,2.4-1,3.5-1.7L645.5,362.2L645.5,362.2z M629.3,351.9c0.3,0.1,1.5,0.1,3.5,0.2s3.5,0.1,4.5,0.1
				c1.4,0,2.9,0,4.3-0.1c0-0.4,0-0.7,0-0.9c0-2.6-0.5-4.5-1.6-5.8c-1.1-1.3-2.7-2-4.4-1.9c-1.8-0.1-3.6,0.7-4.7,2.1
				C629.9,347,629.3,349.1,629.3,351.9L629.3,351.9z"/>
			<path class="st0" d="M653.4,348.8l-1-0.2l-0.2-0.2v-3.1c2.5-2,5.6-3.2,8.8-3.3c1.7-0.1,3.3,0.3,4.8,1.1c1.2,0.6,2.1,1.6,2.8,2.7
				c0.6,1.2,0.9,2.5,0.9,3.8l-0.1,5v7.5c-0.1,0.6,0,1.3,0.2,1.9c0.1,0.2,0.3,0.3,0.5,0.4c0.3,0.1,0.7,0.2,1,0.2l1.4,0.1l0.2,0.2v1
				l-0.2,0.2c-1.2-0.1-2.4-0.1-3.4-0.1s-2.2,0-3.7,0.1l-0.4-0.4l0.1-4l-5.5,4.3c-1,0.4-2,0.6-3,0.6c-1.2,0-2.4-0.2-3.5-0.7
				c-0.9-0.4-1.7-1.2-2.2-2c-0.5-1-0.8-2.1-0.8-3.2c-0.1-2.2,0.7-4.3,2.3-5.8c1.6-1.4,5.8-2.6,12.7-3.5c0-2.5-0.6-4.2-1.7-5.2
				c-1.2-1.1-2.9-1.6-4.5-1.5c-0.9,0-1.8,0.1-2.7,0.4c-0.5,0.1-1,0.4-1.4,0.7c-0.1,0.2-0.6,1.2-1.4,3.1L653.4,348.8L653.4,348.8z
				 M665.1,352.8c-4.7,0.8-7.7,1.6-8.8,2.5c-1.2,1-1.9,2.6-1.8,4.2c0,2.6,1.3,3.9,3.9,3.9c2.2,0,4.5-1.3,6.7-3.9L665.1,352.8
				L665.1,352.8z"/>
			<path class="st0" d="M683.3,341.9l0.5,0.3c-0.1,1.1-0.2,2.4-0.2,4l2.4-2.2c0.7-0.6,1.1-1,1.3-1.2c0.5-0.3,1-0.5,1.6-0.6
				c0.8-0.2,1.7-0.4,2.6-0.4c1.6,0,3.1,0.4,4.4,1.2c1.3,0.8,2.3,2,2.8,3.4c1.3-1.3,2.6-2.5,4-3.6c0.6-0.3,1.2-0.6,1.8-0.7
				c0.8-0.2,1.6-0.4,2.5-0.4c1.3,0,2.5,0.3,3.7,0.9c1.1,0.5,2,1.3,2.7,2.2c0.6,0.9,1,1.9,1.2,3c0.1,1.1,0.2,2.5,0.2,4.4v2.6
				c0,0.3,0,2.4,0.2,6.3c0,1.6,0.2,2.5,0.5,2.8c0.3,0.3,1.4,0.5,3.1,0.5l0.2,0.2v1.1l-0.2,0.2c-2.2-0.1-3.6-0.2-4.4-0.2
				c-0.4,0-1.7,0.1-3.7,0.2l-0.3-0.3c0.2-2.2,0.3-5,0.3-8.5v-3c0.1-1.9-0.1-3.8-0.4-5.6c-0.3-1.1-0.9-2-1.8-2.6c-1-0.7-2.1-1-3.3-1
				c-0.9,0-1.8,0.2-2.6,0.5c-0.8,0.4-1.5,0.9-2.1,1.6c-0.5,0.5-0.9,1.2-1.1,2c-0.1,0.6-0.1,1.7-0.1,3.4v3.1c0,0.7,0,2.1,0.1,4.1
				s0.1,3.2,0.2,3.5c0,0.3,0.2,0.5,0.4,0.7c0.2,0.1,0.4,0.2,0.6,0.3c0.2,0,1.1,0.1,2.7,0.2l0.2,0.2v1.1L703,366
				c-2.1-0.1-4.1-0.2-6.1-0.2c-1.8,0-3.8,0.1-6.1,0.2l-0.2-0.2v-1.1l0.2-0.2c1.6-0.1,2.6-0.2,2.8-0.2c0.2-0.1,0.4-0.2,0.6-0.3
				c0.2-0.2,0.3-0.5,0.3-0.7c0.1-0.3,0.1-1.4,0.2-3.2s0.1-3.2,0.1-4.2V353c0-1.5-0.1-2.9-0.4-4.4c-0.3-1-0.9-1.9-1.7-2.6
				c-0.9-0.7-2.1-1.1-3.2-1.1c-1,0-1.9,0.2-2.8,0.6c-0.8,0.3-1.5,0.8-2.1,1.5c-0.5,0.5-0.8,1-1,1.6c-0.2,1.1-0.2,2.2-0.2,3.3v3.7
				c0,0.7,0,2.1,0.1,4.1s0.1,3.2,0.2,3.5c0,0.3,0.2,0.5,0.4,0.7c0.2,0.1,0.4,0.2,0.6,0.3c0.2,0,1.1,0.1,2.7,0.2l0.2,0.2v1.1
				l-0.2,0.2c-2.1-0.1-4.1-0.2-6.1-0.2c-2,0-4,0.1-6.1,0.2l-0.2-0.2v-1.1l0.2-0.2c1.6-0.1,2.6-0.2,2.8-0.2c0.2-0.1,0.4-0.2,0.6-0.3
				c0.2-0.2,0.3-0.5,0.3-0.7c0.1-0.3,0.1-1.4,0.2-3.2s0.1-3.2,0.1-4.2v-5c0-0.7,0-1.6-0.1-2.7s-0.1-1.9-0.2-2.1
				c0-0.2-0.2-0.5-0.4-0.6c-0.4-0.2-0.9-0.2-1.3-0.2l-2.1,0l-0.2-0.2V344l0.2-0.2C677.9,343.5,680.7,342.8,683.3,341.9L683.3,341.9z
				"/>
		</g>
		<g>
			
				<linearGradient id="SVGID_1_" gradientUnits="userSpaceOnUse" x1="0.4846" y1="450.6634" x2="490.2546" y2="416.6134" gradientTransform="matrix(1 0 0 1 0 -248.0129)">
				<stop  offset="0" style="stop-color:#737373"/>
				<stop  offset="0.53" style="stop-color:#969696"/>
				<stop  offset="1" style="stop-color:#B8B8B8"/>
			</linearGradient>
			<path class="st1" d="M313.1,237.3c15-5.6,30.5-10.4,45.4-15.1c37.3-11.7,72.6-22.7,104.2-45.1c39.2-27.9,59.7-45.5,79-77.3h-449
				C41.5,99.8,0,141.3,0,192.4l0,0C0,243.6,41.5,285,92.6,285h113.5C219.1,278.4,266.9,254.5,313.1,237.3L313.1,237.3z"/>
			
				<linearGradient id="SVGID_2_" gradientUnits="userSpaceOnUse" x1="278.95" y1="440.4265" x2="799.76" y2="440.4265" gradientTransform="matrix(1 0 0 1 0 -248.0129)">
				<stop  offset="0" style="stop-color:#292929"/>
				<stop  offset="0.56" style="stop-color:#3B3B3B"/>
				<stop  offset="0.92" style="stop-color:#484848"/>
			</linearGradient>
			<path class="st2" d="M654.5,99.8H552.1c-20.9,36.2-42,54.7-84.2,84.6c-32.8,23.3-70.4,35-106.7,46.4
				c-14.8,4.6-30.1,9.4-44.9,14.9c-34.1,12.7-69,29-90,39.3h428.2c51.2,0,92.6-41.5,92.6-92.6l0,0
				C747.1,141.3,705.6,99.8,654.5,99.8L654.5,99.8z"/>
		</g>
		<g>
			<path class="st3" d="M411.2,265.1c-159.8,76.9-305.4,113.5-346,84.2c43,23.7,188-12.5,342.3-86.4
				C581.8,179.4,704.1,76.1,684.2,35.3c-5.2-10.6-19.7-16.2-41.4-17c24.7,0.1,41.2,5.7,46.8,17.3
				C709.5,76.6,585.8,181.1,411.2,265.1L411.2,265.1z"/>
			<path class="st4" d="M434.1,280.3C247.3,376.2,60.5,421,48.7,366.6c28.1,48.3,201.6,3.3,383.9-89.6
				c173-88.2,300.2-191.3,303.7-243.4C737.5,84.9,609.5,190.4,434.1,280.3L434.1,280.3z"/>
			
				<linearGradient id="SVGID_3_" gradientUnits="userSpaceOnUse" x1="80.9231" y1="625.4118" x2="621.313" y2="315.5718" gradientTransform="matrix(1 0 0 1 0 -248.0129)">
				<stop  offset="0" style="stop-color:#191919"/>
				<stop  offset="7.000000e-02" style="stop-color:#393939"/>
				<stop  offset="0.25" style="stop-color:#757575"/>
				<stop  offset="0.44" style="stop-color:#A6A6A6"/>
				<stop  offset="0.61" style="stop-color:#CDCDCD"/>
				<stop  offset="0.76" style="stop-color:#E9E9E9"/>
				<stop  offset="0.9" style="stop-color:#FAFAFA"/>
				<stop  offset="1" style="stop-color:#FFFFFF"/>
			</linearGradient>
			<path class="st5" d="M734.8,19C715.2-19.4,592.6,2.4,443.1,66.3c0.1,0.2,0.2,0.4,0.2,0.6c127.5-49,228.7-63.8,244.4-31.3
				c19.8,41.1-102.8,145.5-277,229.6c-174.1,84-332.5,119.6-353.6,74.7c-1.4-3.1-2.1-6.5-2-10c-8.8,15.8-10.8,28.5-5.6,38.6
				c23.6,46.2,193.7,5.2,383.1-91.5S758.4,65.3,734.8,19L734.8,19z"/>
		</g>
		<g>
			<path d="M97.8,164.4c-3-1.6-6.3-2.6-9.7-3c-4-0.5-8-0.7-12.1-0.6H46.5v63.9H56v-26.4H77c11.1,0,18.8-1.9,23-5.6
				c4.1-3.4,6.4-8.4,6.3-13.6c0-3-0.8-6-2.3-8.6C102.5,168,100.3,165.9,97.8,164.4L97.8,164.4z M91.9,188.5c-3,2.1-7.8,3.2-14.8,3.2
				H56v-24.2h20.9c3.3-0.1,6.7,0.1,9.9,0.6c2.7,0.5,5.1,1.9,6.9,4c1.8,2,2.7,4.6,2.7,7.3C96.6,183,94.9,186.4,91.9,188.5L91.9,188.5
				z"/>
			<path d="M167.7,199.3c-1.7-1.1-3.5-2.1-5.4-2.8c-0.3-0.1-0.5-0.5-0.4-0.8c0-0.3,0.3-0.6,0.6-0.6c7-0.9,12.3-2.8,15.7-5.8
				c3.4-2.7,5.4-6.9,5.3-11.3c0-3.4-1.1-6.8-3.2-9.5c-2.2-2.9-5.2-5-8.6-6c-3.6-1.1-9-1.7-16.1-1.7h-34.8v63.9h9.5v-28.8h12.7
				c2,0,4,0.1,6,0.3c1.7,0.4,3.4,0.9,4.9,1.8c2,1.2,3.9,2.7,5.5,4.4c2,2.1,4.6,5.1,7.6,9l10.4,13.3h12l-13.2-16.9
				C173.9,204.6,171,201.8,167.7,199.3L167.7,199.3z M171.5,184.2c-1.7,2-3.9,3.4-6.4,4.1c-3.7,0.9-7.6,1.4-11.4,1.2h-23.2V167h25.7
				c6,0,10.4,1,13.3,3.1c2.7,1.8,4.3,4.8,4.3,8C173.7,180.3,172.9,182.4,171.5,184.2L171.5,184.2z"/>
			<path d="M255.3,163.9c-6.2-2.9-12.9-4.3-19.7-4.2c-11.1,0-20.2,3-27.2,9c-6.9,6-10.5,14.4-10.5,24.9c0,5.6,1.6,11.1,4.5,15.9
				c3.2,5.2,7.8,9.3,13.2,11.9c6.2,3,13,4.5,19.9,4.4c6.6,0,13.1-1.3,19.1-4c5.6-2.4,10.4-6.5,13.6-11.6c6.3-10.6,6.4-23.8,0.2-34.6
				C265.4,170.6,260.8,166.5,255.3,163.9L255.3,163.9z M263.3,192.8c0,8.5-2.6,15.1-7.9,19.7c-5.2,4.6-11.9,6.9-19.9,6.9
				s-14.5-2.3-19.8-6.9c-5.2-4.6-7.9-10.9-7.9-18.9c0-9.9,2.8-17.1,8.3-21.3c9.9-7.2,23-8.4,34-3.1c4.1,2.1,7.6,5.3,9.8,9.4
				C262.2,183.1,263.4,187.9,263.3,192.8L263.3,192.8z"/>
			<path d="M330.2,205.7c-1.9,4.5-3.3,8-4.2,10.4l-0.5,1.2l-0.5-1.2c-0.8-2.1-2.1-5.3-3.8-9.6l-18.7-45.6h-15v63.9h9.2v-54.3
				l1.1-0.2l22.8,54.6h8.9l22.9-53.6l1.1,0.2v53.4h9.2v-63.9h-13.4L330.2,205.7L330.2,205.7z"/>
			<path d="M434.6,163.9c-6.2-2.9-12.9-4.3-19.7-4.2c-11.1,0-20.2,3-27.2,9c-7,6-10.5,14.4-10.5,24.9c0,5.6,1.6,11.1,4.5,15.9
				c3.2,5.2,7.8,9.3,13.2,11.9c6.2,3,13,4.5,19.9,4.4c6.6,0,13.1-1.3,19.1-4c5.6-2.4,10.4-6.5,13.6-11.6c6.3-10.6,6.4-23.8,0.2-34.6
				C444.7,170.5,440.1,166.5,434.6,163.9L434.6,163.9z M442.6,192.8c0,8.5-2.6,15.1-7.9,19.7c-5.2,4.6-11.9,6.9-19.9,6.9
				s-14.5-2.3-19.8-6.9c-5.2-4.6-7.9-10.9-7.9-18.9c0-9.9,2.8-17.1,8.3-21.3c9.9-7.2,23-8.4,34-3.1c4.1,2.1,7.6,5.3,9.8,9.4
				C441.6,183.1,442.7,187.9,442.6,192.8L442.6,192.8z"/>
			<polygon points="461.1,167.5 487.4,167.5 487.4,224.7 496.9,224.7 496.9,167.5 523.3,167.5 523.3,160.8 461.1,160.8 			"/>
			<rect x="536.9" y="160.8" width="9.5" height="63.9"/>
			<path d="M620.2,163.9c-6.2-2.9-12.9-4.3-19.7-4.2c-11.1,0-20.2,3-27.2,9c-7,6-10.5,14.4-10.5,24.9c0,5.6,1.6,11.1,4.5,15.9
				c3.2,5.2,7.8,9.3,13.2,11.9c6.2,3,13,4.5,19.9,4.4c6.6,0,13.1-1.3,19.2-4c5.6-2.4,10.4-6.5,13.6-11.6c6.3-10.6,6.4-23.8,0.2-34.6
				C630.3,170.5,625.7,166.5,620.2,163.9L620.2,163.9z M628.2,192.8c0,8.5-2.6,15.1-7.9,19.7c-5.2,4.6-11.9,6.9-19.9,6.9
				s-14.5-2.3-19.8-6.9c-5.2-4.6-7.9-10.9-7.9-18.9c0-9.9,2.8-17.1,8.3-21.3c9.9-7.2,23-8.4,34-3.1c4.1,2.1,7.6,5.3,9.8,9.4
				C627.2,183.1,628.3,187.9,628.2,192.8L628.2,192.8z"/>
			<polygon points="705.2,160.8 705.2,212.7 662.8,161 662.6,160.8 652.5,160.8 652.5,224.7 661.7,224.7 661.7,172.8 704.1,224.5 
				704.2,224.7 714.3,224.7 714.3,160.8 			"/>
		</g>
		<g>
			
				<linearGradient id="SVGID_4_" gradientUnits="userSpaceOnUse" x1="440.4263" y1="291.5113" x2="471.5063" y2="329.2513" gradientTransform="matrix(1 0 0 1 0 -248.0129)">
				<stop  offset="0" style="stop-color:#191919"/>
				<stop  offset="0.16" style="stop-color:#555555"/>
				<stop  offset="0.31" style="stop-color:#888888"/>
				<stop  offset="0.47" style="stop-color:#B3B3B3"/>
				<stop  offset="0.62" style="stop-color:#D4D4D4"/>
				<stop  offset="0.76" style="stop-color:#ECECEC"/>
				<stop  offset="0.89" style="stop-color:#FBFBFB"/>
				<stop  offset="1" style="stop-color:#FFFFFF"/>
			</linearGradient>
			<circle class="st6" cx="455.2" cy="61.4" r="20.4"/>
			<circle class="st7" cx="455.2" cy="61.4" r="16"/>
		</g>
	</g>
</g>
</svg>
