<?xml version="1.0" encoding="utf-8"?>
<!-- Generator: Adobe Illustrator 25.1.0, SVG Export Plug-In . SVG Version: 6.00 Build 0)  -->
<svg version="1.1" id="Layer_1" xmlns="http://www.w3.org/2000/svg" xmlns:xlink="http://www.w3.org/1999/xlink" x="0px" y="0px"
	 viewBox="0 0 110 56.3" style="enable-background:new 0 0 110 56.3;" xml:space="preserve">
<style type="text/css">
	.st0{fill:#919191;}
	.st1{fill-rule:evenodd;clip-rule:evenodd;fill:#FFFFFF;}
	.st2{fill-rule:evenodd;clip-rule:evenodd;fill:#919191;}
</style>
<g id="Layer_2_1_">
	<g id="Layer_1-2">
		<rect x="28.6" class="st0" width="43.6" height="41.8"/>
		<path class="st1" d="M59.4,6.5l3.4,3.6c-3.2-0.5-6.2,0.1-7.4,1.6c-1.7,2.1-0.7,5.4,3.8,9.3c1.9,1.6,4,4.3,4.3,6.9
			c0.5,4.9-2.2,8.6-8.3,9.3H41.6L37.4,33h16.4c3.3-0.1,6-2,5.4-4.8c-1.3-5.4-9.6-7.1-8.8-14.9c0.4-4.3,4.3-7.4,8.5-7
			C59.1,6.4,59.2,6.4,59.4,6.5z M33.7,28.2l4.2-4.3h12.6l4.3,4.3L33.7,28.2z"/>
		<path class="st2" d="M89.3,55.8h1.8v-4.7h-3.9v1.8h1.3c-0.2,0.7-0.9,1.1-1.6,1.1c-1.4,0-1.7-1.1-1.7-2.3c0-1.1,0.2-2.6,1.7-2.6
			c0.8,0,1.1,0.3,1.4,1H91c-0.4-2.2-1.9-3.2-4.1-3.2c-2.3-0.2-4.3,1.5-4.5,3.8c0,0.2,0,0.5,0,0.7c0,2.7,1.3,4.6,4.1,4.6
			c1,0.1,2-0.4,2.6-1.1L89.3,55.8z M76.3,53.8v-1.6h1.3c0.6,0,1.2,0.1,1.2,0.8c0,0.7-0.6,0.8-1.2,0.8H76.3z M76.3,50.5V49h1.3
			c0.5,0,0.9,0.2,0.9,0.7c0,0.7-0.5,0.8-1.1,0.8H76.3z M73.6,55.8h3.9c1.9,0,4-0.2,4-2.6c0.1-1-0.7-2-1.7-2.1c0,0-0.1,0-0.1,0
			c0.6-0.2,1-0.3,1.3-1c0.1-0.3,0.2-0.6,0.2-0.9c0-2.1-2.2-2.2-3.8-2.2h-3.8V55.8z M59.9,51.4c0-1.2,0.3-2.5,1.8-2.5
			c1.4,0,1.7,1.3,1.7,2.4c0,1.2-0.2,2.5-1.7,2.5C60.2,53.8,59.9,52.6,59.9,51.4z M57,51.5c0,2.5,2,4.6,4.5,4.6c2.5,0,4.6-2,4.6-4.5
			c0,0,0-0.1,0-0.1c0-2.5-2-4.6-4.5-4.6c-2.5,0-4.6,2-4.6,4.5C57,51.3,57,51.4,57,51.5z M53.5,52.4c-0.2,0.9-0.5,1.5-1.5,1.5
			c-1.3,0-1.7-1.3-1.7-2.4c0-1.1,0.3-2.5,1.7-2.5c0.9,0,1.3,0.5,1.5,1.4h2.7c0-0.5-0.2-1-0.4-1.5c-0.7-1.4-2.2-2.2-3.8-2
			c-2.4-0.1-4.4,1.7-4.5,4c0,0.2,0,0.4,0,0.6c0,2.8,1.7,4.6,4.5,4.6c1.7,0.2,3.3-0.8,4-2.4c0.1-0.4,0.2-0.8,0.2-1.2L53.5,52.4z
			 M40.6,55.8h6.3v-2.3h-3.5V47h-2.8L40.6,55.8z M36.1,55.8h2.8V47h-2.8L36.1,55.8z M28.4,55.8h2.8v-3.1h3v-2.1h-3v-1.4H35V47h-6.6
			L28.4,55.8z M20.8,51.4c0-1.2,0.3-2.5,1.8-2.5c1.4,0,1.7,1.3,1.7,2.4c0,1.2-0.2,2.5-1.7,2.5C21.1,53.8,20.8,52.6,20.8,51.4z
			 M17.9,51.5c-0.2,2.4,1.6,4.4,4,4.6c0.2,0,0.4,0,0.6,0c2.4,0.2,4.4-1.6,4.6-4c0-0.2,0-0.4,0-0.6c0.2-2.4-1.6-4.4-3.9-4.6
			c-0.2,0-0.4,0-0.6,0c-2.4-0.1-4.4,1.7-4.6,4.1C17.9,51.1,17.9,51.3,17.9,51.5L17.9,51.5z M11.8,50.8v-1.6h1.4c0.5,0,1,0.2,1,0.8
			c0,0.8-0.5,0.9-1.2,0.9H11.8z M9,55.8h2.8v-3h1.4c0.7,0,1,0.5,1,1.2c0,0.6,0,1.3,0.1,1.9h2.8v-0.3c-0.3-0.1-0.2-0.3-0.3-0.6
			c-0.1-1.9,0.2-3-2.1-3.2c1.3-0.3,2-0.8,2-2.2c0-2.2-1.9-2.5-3.6-2.5H9L9,55.8z M2.8,51v-1.8h1.4c0.6,0,1,0.3,1,0.9
			c0,0.5-0.4,0.9-0.8,0.9c0,0,0,0,0,0L2.8,51z M0,55.8h2.8v-2.7h1.7c1.9,0,3.4-0.9,3.4-3c0-2.6-2.1-3.1-4.3-3.1H0V55.8z"/>
		<path class="st2" d="M108.7,56.1h1.3v-1.3h-1.3V56.1z M104.2,53.8c0-0.6,0.2-1.4,1-1.4c0.8,0,1.1,0.7,1.1,1.4c0,0.7-0.3,1.4-1,1.4
			C104.5,55.2,104.2,54.5,104.2,53.8L104.2,53.8z M106.4,55.5v0.6h1.2v-6.4h-1.2V52c-0.3-0.5-0.8-0.8-1.4-0.7
			c-1.4,0-1.9,1.3-1.9,2.5c0,1.2,0.6,2.5,2,2.5C105.5,56.3,106.1,56,106.4,55.5L106.4,55.5z M102.6,56.1v-0.9
			c-0.3,0-0.7,0.1-0.7-0.3v-2.6h0.7v-0.9h-0.7v-1.3h-1.2v1.3H100v0.9h0.6v2.5c0,0.9,0.2,1.3,1.2,1.3C102,56.2,102.3,56.2,102.6,56.1
			L102.6,56.1z M95.6,49.7v6.4h4.3v-1.2h-3v-5.2L95.6,49.7z"/>
	</g>
</g>
</svg>
