<svg xmlns="http://www.w3.org/2000/svg" width="109.9809" height="56.2619" viewBox="0 0 109.9809 56.2619"><defs><style>.cls-1,.cls-3{fill:#f07c00;}.cls-2{fill:#fff;}.cls-2,.cls-3{fill-rule:evenodd;}</style></defs><g id="Layer_2" data-name="Layer 2"><g id="Layer_1-2" data-name="Layer 1"><rect class="cls-1" x="28.614" width="43.6172" height="41.7809"/><path class="cls-2" d="M59.43,6.4729l3.422,3.641c-3.235-.5-6.172.062-7.387,1.601-1.684,2.137-.672,5.399,3.813,9.25,1.886,1.621,4.015,4.34,4.265,6.903.477,4.851-2.207,8.562-8.293,9.273H41.567l-4.157-4.156H53.785c3.293-.071,6.032-2.028,5.36-4.75-1.336-5.418-9.586-7.086-8.824-14.852A7.8038,7.8038,0,0,1,59.43,6.4729Zm-25.684,21.75,4.153-4.277h12.59l4.312,4.316Z"/><path class="cls-3" d="M89.344,55.8089h1.809v-4.684h-3.86v1.754h1.27a1.5292,1.5292,0,0,1-1.574,1.063c-1.352,0-1.719-1.145-1.719-2.293,0-1.137.219-2.649,1.672-2.649.793,0,1.062.34,1.425.977h2.672c-.437-2.195-1.89-3.16-4.074-3.16a4.2068,4.2068,0,0,0-4.539,4.527c0,2.672,1.27,4.641,4.125,4.641a3.1954,3.1954,0,0,0,2.648-1.125Zm-13.059-2.051v-1.621h1.282c.586,0,1.222.11,1.222.828,0,.696-.636.793-1.195.793Zm0-3.219v-1.515h1.309c.488,0,.914.195.914.746,0,.684-.512.769-1.074.769Zm-2.73,5.27h3.879c1.918,0,4.004-.184,4.004-2.621a1.8842,1.8842,0,0,0-1.77-2.063c.633-.207,1.012-.332,1.281-1.003a2.3074,2.3074,0,0,0,.172-.864c0-2.101-2.199-2.234-3.785-2.234H73.555ZM59.887,51.43c0-1.183.328-2.453,1.754-2.453,1.367,0,1.672,1.258,1.672,2.379,0,1.195-.219,2.488-1.707,2.488C60.164,53.8439,59.887,52.6139,59.887,51.43Zm-2.844.024a4.5567,4.5567,0,1,0,9.113-.012,4.5575,4.5575,0,1,0-9.113.012Zm-3.527.953c-.16.879-.539,1.465-1.516,1.465-1.34,0-1.707-1.282-1.707-2.395,0-1.121.27-2.488,1.672-2.488.914,0,1.328.511,1.477,1.367h2.695a4.88,4.88,0,0,0-.391-1.516,3.8472,3.8472,0,0,0-3.769-2.047,4.2818,4.2818,0,0,0-4.528,4.61c0,2.808,1.684,4.629,4.528,4.629a3.9124,3.9124,0,0,0,3.965-2.407,5.1742,5.1742,0,0,0,.246-1.218Zm-12.949,3.402h6.308v-2.328H43.387v-6.457h-2.82Zm-4.504,0h2.843V47.0237H36.063Zm-7.711,0h2.816v-3.086h3.039v-2.125H31.168v-1.351h3.821v-2.223H28.352ZM20.785,51.43c0-1.183.329-2.453,1.758-2.453,1.363,0,1.672,1.258,1.672,2.379,0,1.195-.223,2.488-1.711,2.488C21.067,53.8439,20.785,52.6139,20.785,51.43Zm-2.843.024a4.2952,4.2952,0,0,0,4.55,4.589,4.2792,4.2792,0,0,0,4.567-4.601,4.3011,4.3011,0,0,0-4.531-4.649A4.3366,4.3366,0,0,0,17.942,51.4539Zm-6.153-.649v-1.644h1.442c.523,0,1.023.156,1.023.765,0,.821-.5.879-1.183.879Zm-2.781,5.004h2.781v-3.023h1.379c.735,0,1.028.484,1.028,1.156a8.1031,8.1031,0,0,0,.144,1.867h2.844v-.328c-.305-.074-.242-.344-.258-.574-.059-1.868.184-2.953-2.062-3.235,1.296-.281,1.992-.769,1.992-2.183,0-2.196-1.895-2.465-3.649-2.465H9.008Zm-6.187-4.832v-1.793h1.39c.563,0,.988.281.988.879a.8781.8781,0,0,1-.867.914ZM0,55.8089H2.821v-2.684H4.504c1.942,0,3.379-.925,3.379-3.015,0-2.649-2.086-3.086-4.269-3.086H0Z"/><path class="cls-3" d="M108.668,56.11h1.3129V54.84H108.668Zm-4.418-2.328c0-.629.25-1.403,1.004-1.403.781,0,1.074.746,1.074,1.422,0,.664-.254,1.395-1.039,1.395C104.492,55.1959,104.25,54.4569,104.25,53.7819Zm2.106,1.699v.629h1.211v-6.399h-1.239v2.328a1.6122,1.6122,0,0,0-1.402-.746c-1.359,0-1.937,1.336-1.937,2.516,0,1.211.605,2.453,1.964,2.453A1.5892,1.5892,0,0,0,106.356,55.4809Zm-3.793.66v-.926c-.266-.011-.731.106-.731-.304v-2.567h.731v-.89h-.731v-1.27h-1.25v1.27h-.625v.89h.625v2.504c0,.941.211,1.316,1.207,1.316C102.039,56.1639,102.313,56.1639,102.563,56.1409Zm-6.957-6.43V56.11H99.93V54.93H96.918v-5.219Z"/></g></g></svg>