<?xml version="1.0" encoding="utf-8"?>
<!-- Generator: Adobe Illustrator 25.1.0, SVG Export Plug-In . SVG Version: 6.00 Build 0)  -->
<svg version="1.1" id="Layer_1" xmlns="http://www.w3.org/2000/svg" xmlns:xlink="http://www.w3.org/1999/xlink" x="0px" y="0px"
	 viewBox="0 0 175.7 101.4" style="enable-background:new 0 0 175.7 101.4;" xml:space="preserve">
<style type="text/css">
	.st0{clip-path:url(#SVGID_2_);}
	.st1{clip-path:url(#SVGID_4_);}
	.st2{clip-path:url(#SVGID_6_);}
	.st3{fill-rule:evenodd;clip-rule:evenodd;fill:#FFFFFF;stroke:#202020;stroke-width:0.2491;stroke-miterlimit:2.6131;}
	.st4{fill-rule:evenodd;clip-rule:evenodd;fill:#949494;}
	.st5{fill-rule:evenodd;clip-rule:evenodd;fill:#202020;}
	.st6{fill-rule:evenodd;clip-rule:evenodd;fill:#6B6B6B;}
	.st7{fill-rule:evenodd;clip-rule:evenodd;fill:#FFFFFF;}
	.st8{fill-rule:evenodd;clip-rule:evenodd;fill:#DFDFDF;}
</style>
<g id="Layer_2_1_">
	<g id="Layer_1-2">
		<g>
			<defs>
				<polygon id="SVGID_1_" points="116.1,10 58.6,10 62.5,48.2 116.1,48.2 116.1,10 				"/>
			</defs>
			<clipPath id="SVGID_2_">
				<use xlink:href="#SVGID_1_"  style="overflow:visible;"/>
			</clipPath>
			<g class="st0">
				<g>
					<defs>
						<rect id="SVGID_3_" x="58.6" y="10" width="57.5" height="38.2"/>
					</defs>
					<clipPath id="SVGID_4_">
						<use xlink:href="#SVGID_3_"  style="overflow:visible;"/>
					</clipPath>
					<g class="st1">
						
							<image style="overflow:visible;" width="128" height="83" xlink:href="C8A498EA.png"  transform="matrix(0.48 0 0 -0.48 57.1896 49.2374)">
						</image>
					</g>
				</g>
				<g>
					<defs>
						<rect id="SVGID_5_" x="58.6" y="10" width="57.5" height="38.2"/>
					</defs>
					<clipPath id="SVGID_6_">
						<use xlink:href="#SVGID_5_"  style="overflow:visible;"/>
					</clipPath>
					<g class="st2">
						
							<image style="overflow:visible;" width="128" height="83" xlink:href="C8A498ED.png"  transform="matrix(0.48 0 0 -0.48 57.1896 49.2374)">
						</image>
					</g>
				</g>
			</g>
		</g>
		<path class="st3" d="M83.9,16.9c3.8,0,6.9,3,7.1,6.9h0v17.7H76.8V24.7c-0.3-4,2.6-7.4,6.5-7.8C83.6,17,83.7,16.9,83.9,16.9z
			 M84.7,26.4H90v6.7h-5.2V26.4z M83.1,26.4h-5.2v6.7h5.2V26.4z M83.1,40.8h-5.2V34h5.2V40.8z M84.7,40.8H90V34h-5.2V40.8z
			 M83.9,18.1c3.3,0.1,6,2.8,6,6.2h0v1.1H77.9v-0.2c-0.4-3.5,2.1-6.6,5.6-7C83.6,18.2,83.8,18.2,83.9,18.1L83.9,18.1z"/>
		<path class="st3" d="M100.8,14.1c3.8,0,6.9,3,7.1,6.9h0v16.2H93.7V21.9c-0.3-4,2.6-7.4,6.5-7.8C100.4,14.1,100.6,14.1,100.8,14.1
			L100.8,14.1z M94.7,22.6h5.3v3.9h-5.3V22.6z M106.8,22.6h-5.3v3.9h5.3V22.6z M94.7,31.3h5.3v-3.9h-5.3V31.3z M106.8,31.3h-5.3
			v-3.9h5.3V31.3z M94.7,32.2h5.3v3.9h-5.3V32.2L94.7,32.2z M106.8,32.2h-5.3v3.9h5.3V32.2L106.8,32.2z M95.9,17.8l4.1,3.8h-5.3
			C94.7,20.2,95.1,18.9,95.9,17.8L95.9,17.8z M105.7,17.8l-4.1,3.8h5.3C106.9,20.2,106.5,18.9,105.7,17.8L105.7,17.8z M100.1,15.4v5
			c-1.2-1.2-2.3-2.3-3.5-3.5C97.5,16,98.8,15.5,100.1,15.4z M101.6,15.4v5c1.2-1.2,2.3-2.3,3.5-3.5C104.1,16,102.9,15.5,101.6,15.4
			L101.6,15.4z"/>
		<path class="st3" d="M80.7,32.4H64.8V48h15.9V32.4z M73.3,33.7h6.1v5.7h-6.1L73.3,33.7L73.3,33.7z M73.3,46.6h6.1v-5.7h-6.1
			L73.3,46.6L73.3,46.6z M65.9,46.6H72v-5.7h-6.1L65.9,46.6L65.9,46.6z M65.9,39.4H72v-5.7h-6.1L65.9,39.4L65.9,39.4z"/>
		<path class="st3" d="M73.3,30c4.4,0,7.9-3.5,7.9-7.9s-3.5-7.9-7.9-7.9s-7.9,3.5-7.9,7.9l0,0C65.4,26.4,69,30,73.3,30z M73.3,28.5
			c3.5,0,6.4-2.9,6.4-6.4s-2.9-6.4-6.4-6.4s-6.4,2.9-6.4,6.4C66.9,25.6,69.8,28.5,73.3,28.5z"/>
		<path class="st3" d="M86.6,50.4H111V34.5H86.6V50.4z M109.6,35.7h-6.1v13.5h6.1L109.6,35.7L109.6,35.7z M95.8,35.7h6.1v13.5h-6.1
			L95.8,35.7L95.8,35.7z M94.2,35.7h-6.1v13.5h6.1L94.2,35.7L94.2,35.7z"/>
		<path class="st4" d="M62.4,28.9l0.1,0.2c1.5-2,2.7,1.7,3,2.3c0.1-1-0.1-2-0.4-2.9l1,1l0.4-1.7l0.2,1.8l1-1.6l-0.4,2.3l1.2-0.8
			c-0.3,0.5-0.6,0.9-0.9,1.4c2,0.1,0.3,0.6-0.4,0.7c-2.7,7.1-3.7,1.4-3.7,1.4l0,0c2.8,11.9,2.8,19-7.9,29.7l-0.2,0
			c8.3-11.7,8-18.8,2.6-27.3l0,0c-0.9-0.1-0.7,2.7-1.2,3.7c-0.2,0.7-0.9,1.2-1.7,1c-0.3-0.1-0.6-0.3-0.8-0.6
			c-0.9-0.7-0.9-2.1-1.9-3.5c-0.5-0.1-1-0.1-1.4,0l0.6-0.6L50.3,34l1.3,0l-1-2l1.5,1.1l0.5-1.1l0.3,1.7l0.5-0.8L53.3,34
			c0.5,0.9,0.7,1.4,1.3,2.5c0-1.2-1.8-5.8,0.8-5.8l0,0l0,0c-4-7.3-6.8-14.5,1.5-21.9l0-0.1c-0.9,0.1-1.2-0.4-2.3-0.5
			c-0.9-0.2-1.5-1-1.3-1.9c0-0.3,0.2-0.5,0.3-0.7c0.4-1.1,1.6-1.5,2.6-2.9c0-0.5-0.2-1-0.3-1.5l0.7,0.5l0.6-1.6l0.3,1.4L59.1,0
			l-0.5,1.9l1.1,0.2l-1.4,0.8l0.8,0.4l-1.1,0.1c-0.7,0.7-1,1.1-1.8,2c1-0.3,3.8-1.4,5-0.7l0,0c0.3,0.1,0.6,0.1,0.9,0.1
			c2.6-2.8,3-3.9,7.4-3.4c2.8,0.2,5.3,1.5,2.8,4c-2.8,5.2-0.9,3.1-4.3,4.6c0.4,0.1,1.3-0.4,1.8,0.6c0.4,1-1,3-1.2,3.6
			c0.7,0.8,0.9-0.5,1.3-1.7l0.2,1.1l1.2-1.6l-0.8,2.4l1,0.2l-0.7,0.6l0.6,0.6c0.1,0-1.8,0.2-2.4,0.2c-4.8,3.1-4-0.8-4-1.1
			c-1.3,1-1.7,0.7-3,3.2C60.9,21.3,60.7,23.7,62.4,28.9L62.4,28.9z M63.5,5.8L63.5,5.8c2.7-4.8,4.5-2.7,6.8-4v0
			C68.1,3.2,66.3,1.8,63.5,5.8z M55.4,62.4l-0.2,0L55.4,62.4c10.3-8.8,10.5-18.4,7.8-29.6l0,0c0,0,1,5.7,3.7-1.4
			c0.7-0.1,2.5-0.6,0.4-0.7c0.3-0.4,0.6-0.9,0.9-1.4l-1.2,0.8l0.4-2.3l-0.9,1.6l-0.2-1.8l-0.4,1.7l-1-1c0.4,0.9,0.5,1.9,0.4,2.9
			c-0.3-0.6-1.5-4.4-3-2.3l-0.1-0.2c-1.6-5.2-1.5-7.6-0.5-10.9c1.4-2.5,1.7-2.2,3-3.2c0,0.3-0.8,4.2,4,1.1c0.6,0,2.5-0.2,2.4-0.2
			l-0.6-0.6l0.7-0.6l-1-0.2l0.8-2.4l-1.2,1.6L70,12.5c-0.5,1.1-0.6,2.5-1.3,1.7c0.2-0.6,1.6-2.6,1.2-3.6c-0.6-1-1.4-0.5-1.8-0.6
			c3.4-1.5,1.5,0.7,4.3-4.6c1.8-1.8,1-3-0.6-3.6l0,0c1.2,0.5,1.6,1.4,0.1,2.2c-0.7,0.1-1.4,0.1-2,0.3c-0.5-0.9-0.7-0.5-0.7,0.3
			c-0.3,0.1-0.5,0.3-0.6,0.6c-1.2,0-0.9-0.7-0.4,0.7c-0.2,0.6-0.2,1.2-0.1,1.8c-0.4,0.6-1.1,1-1.8,1.2c-0.5-0.4-0.9-0.8-1.4-1.1
			c-0.6-0.1-1.2,0.1-1.5,0.6c-0.5,0.5-1.1,1.1-1.6,1.6C42.4,22.9,77.3,38.1,55.4,62.4L55.4,62.4z M63.6,43.8
			c0.6-0.2,0.6,0.7,0.4,0.8c-0.2,0-0.4-0.2-0.6-0.3C63.4,44.2,63.5,43.9,63.6,43.8z M63.2,39.8c0.8-0.4,1.1,0.9,0.8,1.1
			c-0.3,0.1-0.7-0.1-0.9-0.3C62.9,40.5,63,40,63.2,39.8L63.2,39.8z M62.3,35.6c1-0.7,1.6,1,1.2,1.4c-0.3,0.2-0.9,0-1.3-0.3
			C62,36.4,62.1,35.8,62.3,35.6z M63.3,31.5c0.7-0.5,1.1,0.7,0.8,1c-0.2,0.1-0.7,0-0.9-0.2C63,32.1,63.1,31.7,63.3,31.5L63.3,31.5z
			 M61.1,32.3c1-1,1.9,0.8,1.6,1.2c-0.4,0.3-1,0.2-1.4,0C60.9,33.3,60.9,32.6,61.1,32.3z M62.9,29.3c1-0.6,1.5,1,1.1,1.3
			c-0.3,0.2-0.9,0-1.2-0.3C62.6,30.1,62.7,29.6,62.9,29.3L62.9,29.3z M60.1,29.4c1.1-1.1,2,0.9,1.6,1.4c-0.3,0.4-1.1,0.2-1.5,0
			C59.9,30.6,59.9,29.8,60.1,29.4z M58.6,25.8c1.3-1.4,2.5,1.1,2.1,1.8c-0.4,0.5-1.3,0.3-1.9-0.1C58.3,27.3,58.3,26.3,58.6,25.8
			L58.6,25.8z M57.5,21.7c1.7-1.9,3.2,1.5,2.7,2.4c-0.6,0.6-1.7,0.4-2.4-0.1C57.1,23.7,57.1,22.4,57.5,21.7z M56.7,16.7
			c2.5-2.7,4.6,2.2,3.9,3.4C59.7,21,58,20.6,57,20C56.1,19.6,56.1,17.7,56.7,16.7L56.7,16.7z M58.2,13.7c2.7-2.8,4,2.6,3.1,3.9
			c-0.9,0-1.3-1-1.4-2C58.6,14.9,57.9,14.3,58.2,13.7L58.2,13.7z M60.9,11.3c2.7-1.4,2.6,3,1.5,3.8c-0.7-0.2-0.8-1.1-0.7-1.9
			C61,12.3,60.6,11.7,60.9,11.3z M64.3,8.9c0.8,0.5,1.3,1.3,1.4,2.2c0,1.8-0.8,2.2-1.4,2.4c-0.3-0.2-0.5-0.4-0.7-0.7
			c-0.1-0.6-0.1-1.2,0-1.7C63.5,10,63.1,9.4,64.3,8.9z M66.4,14.3c-1.3-1.3,1.3-3.8,2-3.4c-0.1,0.7-0.4,1.3-1,1.6
			C67,13.6,66.7,14.3,66.4,14.3L66.4,14.3z M67.8,14.9c0.5,1.3-1.9,2-2.2,1.6c0.2-0.4,0.6-0.7,1.1-0.7
			C67.3,15.2,67.6,14.8,67.8,14.9z M69.2,5.7c-0.4,0.7-0.4,1.5,0,2.2c0.6,0.1,1.2-0.2,1.6-0.7c0.3-0.4,0.4-0.9,0.4-1.3
			c-0.3,0.2-0.6,0.3-1,0.6c0.1-0.5,0.3-0.9,0.4-1.4C69.9,5,69.5,5.3,69.2,5.7z M62.1,44.7c-0.4-0.6,0.3-1,0.5-0.8
			c0.1,0.3,0.1,0.6,0,0.8C62.5,44.9,62.2,44.9,62.1,44.7z M61.4,41.2c-0.5-0.8,0.4-1.3,0.7-1.1c0.1,0.3,0.1,0.7-0.1,1
			C62,41.5,61.6,41.4,61.4,41.2z M60.7,37.8c-1-0.4-0.4-1.6-0.1-1.5c0.3,0.2,0.6,0.6,0.6,1C61.3,37.6,60.9,37.8,60.7,37.8z M55.2,36
			c-0.6-0.7,0.1-1.7,0.4-1.5c0.2,0.4,0.3,0.8,0.2,1.2c0,0.2-0.1,0.3-0.3,0.4C55.3,36.1,55.3,36.1,55.2,36z M59.5,35.1
			c-1.1-0.3-0.7-2-0.2-2c0.4,0.1,0.7,0.8,0.8,1.2c0.1,0.3-0.1,0.7-0.4,0.7C59.6,35.1,59.6,35.1,59.5,35.1z M54.9,33.6
			c-0.9-1.1,0.2-2.7,0.5-2.3c0.3,0.6,0.4,1.2,0.3,1.9c0,0.3-0.2,0.5-0.4,0.5C55.1,33.8,55,33.7,54.9,33.6L54.9,33.6z M57.8,32.2
			c-1.2-0.8-0.1-2.1,0.4-1.9c0.4,0.4,0.6,0.9,0.6,1.5C58.7,32.1,58.1,32.3,57.8,32.2L57.8,32.2z M56,28.8c-1.7-1-0.2-2.9,0.5-2.6
			c0.5,0.5,0.8,1.2,0.8,2C57.3,28.7,56.5,29,56,28.8z M54.3,24.2c-1.8-1.1-0.2-3,0.5-2.8c0.6,0.5,0.9,1.3,0.8,2.1
			C55.7,24.1,54.8,24.4,54.3,24.2z M53.3,19.5c-1.2-1.9,1-3.6,1.6-3c0.3,0.9,0.3,1.9,0,2.7c-0.2,0.5-0.7,0.7-1.1,0.5
			C53.6,19.7,53.4,19.6,53.3,19.5L53.3,19.5z M54.7,15.3c-2-2.4,1.8-3.6,2.8-2.7c0,0.8-0.7,1.1-1.4,1.3
			C55.6,14.9,55.2,15.5,54.7,15.3z M57,11.5c-1.3-3,2.7-2.8,3.4-1.7c-0.2,0.8-1,0.8-1.7,0.8C57.9,11.4,57.4,11.8,57,11.5L57,11.5z
			 M54.5,7.4c-1-0.4-0.4-1.6-0.1-1.5c0.3,0.1,0.5,0.6,0.6,1C55.1,7.2,54.8,7.5,54.5,7.4L54.5,7.4z M58,6.3c-0.2-1.6,2.7-1.7,2.9-1.1
			c-0.4,0.4-0.9,0.6-1.4,0.5C58.7,6.2,58.2,6.5,58,6.3z M59.5,8.4c0.3-0.5,0.9-0.9,1.6-0.9c1.3,0,1.5,0.5,1.7,0.9
			c-0.1,0.2-0.3,0.4-0.5,0.5c-0.4,0.1-0.8,0.1-1.2,0C60.2,8.9,59.8,9.2,59.5,8.4L59.5,8.4z"/>
		<path class="st5" d="M55.4,62.4l-0.2,0L55.4,62.4c10.3-8.8,10.5-18.4,7.8-29.6l0,0c0,0,1,5.7,3.7-1.4c0.7-0.1,2.5-0.6,0.4-0.7
			c0.3-0.4,0.6-0.9,0.9-1.4l-1.2,0.8l0.4-2.3l-0.9,1.6l-0.2-1.8l-0.4,1.7l-1-1c0.4,0.9,0.5,1.9,0.4,2.9c-0.3-0.6-1.5-4.4-3-2.3
			l-0.1-0.2c-1.6-5.2-1.5-7.6-0.5-10.9c1.4-2.5,1.7-2.2,3-3.2c0,0.3-0.8,4.2,4,1.1c0.6,0,2.5-0.2,2.4-0.2l-0.6-0.6l0.7-0.6l-1-0.2
			l0.8-2.4l-1.2,1.6L70,12.5c-0.5,1.1-0.6,2.5-1.3,1.7c0.2-0.6,1.6-2.6,1.2-3.6c-0.6-1-1.4-0.5-1.8-0.6c3.4-1.5,1.5,0.7,4.3-4.6
			c1.8-1.8,1-3-0.6-3.6l0,0c1.2,0.5,1.6,1.4,0.1,2.2c-0.7,0.1-1.4,0.1-2,0.3c-0.5-0.9-0.7-0.5-0.7,0.3c-0.3,0.1-0.5,0.3-0.6,0.6
			c-1.2,0-0.9-0.7-0.4,0.7c-0.2,0.6-0.2,1.2-0.1,1.8c-0.4,0.6-1.1,1-1.8,1.2c-0.5-0.4-0.9-0.8-1.4-1.1c-0.6-0.1-1.2,0.1-1.5,0.6
			c-0.5,0.5-1.1,1.1-1.6,1.6C42.4,22.9,77.3,38.1,55.4,62.4L55.4,62.4z"/>
		<path class="st6" d="M66.4,14.3c-1.3-1.3,1.3-3.8,2-3.4c-0.1,0.7-0.4,1.3-1,1.6C67,13.6,66.7,14.3,66.4,14.3L66.4,14.3z"/>
		<path class="st6" d="M64.3,8.9c0.8,0.5,1.3,1.3,1.4,2.2c0,1.8-0.8,2.2-1.4,2.4c-0.3-0.2-0.5-0.4-0.7-0.7c-0.1-0.6-0.1-1.2,0-1.7
			C63.5,10,63.1,9.4,64.3,8.9L64.3,8.9z"/>
		<path class="st6" d="M60.9,11.3c2.7-1.4,2.6,3,1.5,3.8c-0.7-0.2-0.8-1.1-0.7-1.9C61,12.3,60.6,11.7,60.9,11.3z"/>
		<path class="st6" d="M58.2,13.7c2.7-2.8,4,2.6,3.1,3.9c-0.9,0-1.3-1-1.4-2C58.6,14.9,57.9,14.3,58.2,13.7L58.2,13.7z"/>
		<path class="st6" d="M56.7,16.7c2.5-2.7,4.6,2.2,3.9,3.4C59.7,21,58,20.6,57,20C56.1,19.6,56.1,17.7,56.7,16.7L56.7,16.7z"/>
		<path class="st6" d="M57.5,21.7c1.7-1.9,3.2,1.5,2.7,2.4c-0.6,0.6-1.7,0.4-2.4-0.1C57.1,23.7,57.1,22.4,57.5,21.7z"/>
		<path class="st6" d="M67.8,14.9c0.5,1.3-1.9,2-2.2,1.6c0.2-0.4,0.6-0.7,1.1-0.7C67.3,15.2,67.6,14.8,67.8,14.9z"/>
		<path class="st6" d="M58.6,25.8c1.3-1.4,2.5,1.1,2.1,1.8c-0.4,0.5-1.3,0.3-1.9-0.1C58.3,27.3,58.3,26.3,58.6,25.8L58.6,25.8z"/>
		<path class="st6" d="M60.1,29.4c1.1-1.1,2,0.9,1.6,1.4c-0.3,0.4-1.1,0.2-1.5,0C59.9,30.6,59.9,29.8,60.1,29.4z"/>
		<path class="st6" d="M61.2,32.3c1-1,1.9,0.8,1.6,1.2c-0.4,0.3-1,0.2-1.4,0C60.9,33.3,60.9,32.6,61.2,32.3z"/>
		<path class="st6" d="M62.3,35.6c1-0.7,1.6,1,1.2,1.4c-0.3,0.2-0.9,0-1.3-0.3C62,36.4,62.1,35.8,62.3,35.6z"/>
		<path class="st6" d="M62.9,29.3c1-0.6,1.5,1,1.1,1.3c-0.3,0.2-0.9,0-1.2-0.3C62.6,30.1,62.7,29.6,62.9,29.3L62.9,29.3z"/>
		<path class="st6" d="M63.3,31.5c0.7-0.5,1.1,0.7,0.8,1c-0.2,0.1-0.7,0-0.9-0.2C63,32.1,63.1,31.7,63.3,31.5L63.3,31.5z"/>
		<path class="st6" d="M63.2,39.8c0.8-0.4,1.1,0.9,0.8,1.1c-0.3,0.1-0.7-0.1-0.9-0.3C62.9,40.5,63,40,63.2,39.8L63.2,39.8z"/>
		<path class="st6" d="M63.6,43.8c0.6-0.2,0.6,0.7,0.4,0.8c-0.2,0-0.4-0.2-0.6-0.3C63.4,44.2,63.5,43.9,63.6,43.8z"/>
		<path class="st7" d="M69.2,5.7c-0.4,0.7-0.4,1.5,0,2.2c0.6,0.1,1.2-0.2,1.6-0.7c0.3-0.4,0.4-0.9,0.4-1.3c-0.3,0.2-0.6,0.3-1,0.6
			c0.1-0.5,0.3-0.9,0.4-1.4C69.9,5,69.5,5.3,69.2,5.7z"/>
		<path class="st4" d="M11.1,65.6l-0.3,3.4c-1.2-0.6-2.4-0.9-3.7-0.9c-0.7,0-1.4,0.2-1.9,0.6c-0.7,0.5-1,1.4-1,2.3
			c0,0.9,0.7,1.7,2.1,2.3c1.3,0.6,2.6,1.2,3.9,2c1.4,1.1,2.2,2.8,2.1,4.6c0.1,1.8-0.6,3.6-2,4.8c-1.4,1-3.1,1.5-4.8,1.4
			c-1,0-2-0.1-2.9-0.3c-0.2-0.1-0.8-0.2-1.8-0.5l0.3-3.7c0.6,0.4,1.3,0.7,2,0.9c0.7,0.2,1.4,0.3,2.1,0.3c0.8,0,1.5-0.2,2.1-0.6
			c0.7-0.4,1.1-1.2,1.1-2c0-1-0.7-1.9-2.1-2.6c-2.4-1.2-3.6-1.8-3.8-2c-1.4-1.1-2.2-2.7-2.1-4.5c-0.1-1.8,0.6-3.6,2-4.8
			c1.3-1,2.8-1.5,4.4-1.4C8.2,64.8,9.7,65.1,11.1,65.6L11.1,65.6z M25.4,77.7l-2.6-8.4L20,77.7H25.4z M13.6,85.6l7.1-20.4h4.1
			L32,85.6H28l-1.6-4.7H19l-1.6,4.7L13.6,85.6z M34.4,85.6V65.2H38v17.2h7.1v3.2L34.4,85.6z M57.4,77.7l-2.6-8.4L52,77.7H57.4z
			 M45.6,85.6l7.1-20.4h4.1L64,85.6H60l-1.6-4.7H51l-1.6,4.7H45.6z M66.4,85.6V65.2h5.9l4.3,15.5L81,65.2h5.9v20.4h-3.5V68.8
			l-5,16.9h-3.5l-4.9-16.9l-0.1,0.1v16.8H66.4z M101,77.7l-2.6-8.4l-2.7,8.4H101z M89.2,85.6l7.1-20.4h4.1l7.2,20.4h-4.1l-1.6-4.7
			h-7.4L93,85.6L89.2,85.6z M109.8,85.6V65.2h4.5l7,15.3l0.1-15.3h3.5v20.4h-4.5l-7-15.3l-0.1,15.3L109.8,85.6z M128.9,85.6V65.2h5
			c3.2,0,5.7,0.7,7.4,2.1c2.1,1.7,3.2,4.4,3.2,8.2c0,3.8-1.1,6.5-3.2,8.1c-1.7,1.4-4.2,2.1-7.4,2.1L128.9,85.6z M132.6,68.4v14h2
			c1.6,0,3.1-0.6,4.2-1.8c2.5-3,2.5-7.3,0-10.3c-1.1-1.2-2.6-1.9-4.2-1.8L132.6,68.4z M147.8,85.6V65.2h10.8v3.2h-7.1v5h6.5v3.2
			h-6.5v5.7h7.2v3.2H147.8z M165.7,68.4v5.5h1.2c1.1,0.1,2.2-0.2,3.1-0.8c0.5-0.5,0.8-1.3,0.7-2.1c0.1-0.9-0.4-1.8-1.2-2.3
			c-0.8-0.3-1.7-0.5-2.6-0.4L165.7,68.4z M162.1,85.6V65.2h4c1.3,0,2.7,0,4,0.1c1.2,0.1,2.4,0.6,3.3,1.4c1,1.1,1.5,2.5,1.4,4
			c0,1.1-0.3,2.3-1,3.2c-0.7,0.9-1.7,1.4-2.8,1.6c0.5,0.1,0.9,0.3,1.2,0.8c0.3,0.4,0.6,0.9,0.7,1.4l2.9,8h-4.1l-2.2-6.4
			c-0.2-0.6-0.5-1.1-0.9-1.6c-0.5-0.4-1.1-0.5-1.7-0.5h-1.2v8.5H162.1z"/>
		<path class="st8" d="M0,101.2v-9.6h1.2v9.6H0z M3.7,101.2v-9.6h1.5l5.9,8.5l0-8.5h1.2v9.6l-1.6,0l-5.8-8.3l0,8.3H3.7z M16.1,92.4
			v8h1c1.4,0.1,2.8-0.2,4-0.9c1.7-1.4,2-4,0.6-5.7c-0.1-0.2-0.3-0.3-0.5-0.5c-1-0.6-2.2-0.9-3.4-0.9H16.1z M14.9,101.2v-9.6h2.9
			c1.6-0.1,3.2,0.4,4.5,1.3c0.9,0.9,1.4,2.2,1.4,3.5c0.1,1.5-0.6,2.9-1.9,3.7c-1.5,0.8-3.1,1.2-4.8,1.1L14.9,101.2z M34.6,91.6v6.3
			c0.1,1.1-0.5,2.2-1.5,2.8c-0.8,0.5-1.8,0.7-2.8,0.7c-1,0-1.9-0.2-2.7-0.7c-1-0.6-1.6-1.7-1.5-2.8v-6.3h1.2v6.3
			c0,0.7,0.3,1.5,0.8,2c0.6,0.5,1.5,0.8,2.3,0.7c0.8,0.1,1.6-0.2,2.3-0.7c0.5-0.5,0.8-1.2,0.8-2v-6.3L34.6,91.6z M36.9,101l0.2-1
			c0.4,0.2,0.8,0.3,1.2,0.4c0.5,0.1,0.9,0.1,1.4,0.1c0.7,0,1.3-0.1,1.9-0.5c0.5-0.3,0.8-0.9,0.8-1.5c0-0.5-0.5-1-1.4-1.5
			c-0.9-0.4-1.7-0.8-2.6-1.3c-0.8-0.3-1.3-1.1-1.4-1.9c0-0.8,0.4-1.4,1.1-1.8c0.8-0.5,1.7-0.7,2.6-0.7c0.4,0,0.9,0,1.3,0.1
			c0.3,0.1,0.7,0.1,1,0.2l-0.2,0.9c-0.3-0.1-0.6-0.2-0.9-0.3c-0.4-0.1-0.8-0.1-1.2-0.1c-0.6,0-1.2,0.1-1.7,0.4
			c-0.5,0.2-0.8,0.7-0.8,1.3c0,0.5,0.5,1,1.4,1.5c0.9,0.4,1.7,0.8,2.6,1.2c0.8,0.4,1.3,1.2,1.4,2.1c0,0.9-0.5,1.7-1.2,2.1
			c-0.8,0.4-1.7,0.7-2.6,0.6c-0.5,0-1,0-1.5-0.1C37.7,101.2,37.3,101.1,36.9,101L36.9,101z M48,101.2v-8.8h-3.5v-0.8h8.1v0.8h-3.5
			v8.8L48,101.2z M55.3,92.4v3.4h1.2c0.7,0,1.3-0.1,2-0.4c0.6-0.2,1-0.8,1-1.4c0.1-0.6-0.3-1.2-0.9-1.4c-0.7-0.2-1.4-0.3-2.1-0.2
			H55.3z M54.2,101.2v-9.6h3c0.9-0.1,1.7,0.1,2.5,0.6c0.6,0.4,1,1.2,0.9,1.9c0,0.6-0.3,1.1-0.7,1.5c-0.5,0.4-1.2,0.7-1.9,0.7
			c0.3,0,0.6,0.1,0.8,0.3c0.3,0.3,0.5,0.6,0.7,0.9l2,3.7l-1.3,0L58.6,98c-0.2-0.5-0.5-0.8-1-1.1c-0.4-0.1-0.9-0.2-1.3-0.2h-1v4.5
			L54.2,101.2z M63.3,101.2v-9.6h1.2v9.6H63.3z M67.2,101.2v-9.6h5.7v0.8h-4.6v3.4h4.3v0.8h-4.3v3.7h4.8v0.8L67.2,101.2z
			 M78.3,101.4l4.5-10H84l-4.5,10H78.3z M82.9,101.4l4.5-10h1.2l-4.5,10H82.9z M87.6,101.4l4.5-10h1.2l-4.5,10L87.6,101.4z
			 M98.9,101.2v-9.6h2.9c0.9-0.1,1.9,0.2,2.7,0.7c1.1,0.9,1.3,2.5,0.4,3.6c-0.1,0.2-0.3,0.4-0.5,0.5c-0.8,0.5-1.7,0.7-2.7,0.7H100
			v4.2L98.9,101.2z M100,92.4v3.8h0.8c1,0.1,1.9-0.1,2.8-0.5c0.4-0.3,0.6-0.8,0.6-1.4c0-0.5-0.2-1.1-0.6-1.4
			c-0.5-0.4-1.1-0.5-1.7-0.5H100z M108.4,92.4v3.4h1.2c0.7,0,1.3-0.1,2-0.4c0.6-0.2,1-0.8,1-1.4c0.1-0.6-0.3-1.2-0.9-1.4
			c-0.7-0.2-1.4-0.3-2.1-0.2L108.4,92.4z M107.3,101.2v-9.6h3c0.9-0.1,1.7,0.1,2.5,0.6c0.6,0.4,1,1.2,0.9,1.9c0,0.6-0.3,1.1-0.7,1.5
			c-0.5,0.4-1.2,0.7-1.9,0.7c0.3,0,0.6,0.1,0.8,0.3c0.3,0.3,0.5,0.6,0.7,0.9l2,3.7l-1.3,0l-1.7-3.3c-0.2-0.5-0.5-0.8-1-1.1
			c-0.4-0.1-0.9-0.2-1.3-0.2h-1v4.5L107.3,101.2z M116,96.4c0-1.3,0.4-2.5,1.2-3.5c2.2-2,5.6-2,7.8,0c1.7,2.1,1.7,5-0.1,7.1
			c-2.2,1.8-5.4,1.8-7.6,0C116.4,99.1,115.9,97.7,116,96.4L116,96.4z M121.2,92.2c-1.2-0.1-2.3,0.4-3,1.3c-1.3,1.7-1.3,4,0,5.7
			c1.6,1.7,4.2,1.8,5.9,0.2c0.1-0.1,0.1-0.1,0.2-0.2c1.3-1.7,1.3-4,0-5.7C123.4,92.7,122.3,92.2,121.2,92.2z M129.7,92.4v8h1
			c1.4,0.1,2.8-0.2,4-0.9c1.7-1.4,2-4,0.6-5.7c-0.1-0.2-0.3-0.3-0.5-0.5c-1-0.6-2.2-0.9-3.4-0.9H129.7z M128.5,101.2v-9.6h2.9
			c1.6-0.1,3.2,0.4,4.5,1.3c0.9,0.9,1.4,2.2,1.4,3.5c0.1,1.5-0.6,2.9-1.9,3.7c-1.5,0.8-3.1,1.2-4.8,1.1L128.5,101.2z M148.2,91.6
			v6.3c0.1,1.1-0.5,2.2-1.5,2.8c-1.7,0.9-3.8,0.9-5.5,0c-1-0.6-1.6-1.7-1.5-2.8v-6.3h1.2v6.3c0,0.7,0.3,1.5,0.8,2c1.4,1,3.2,1,4.6,0
			c0.5-0.5,0.8-1.2,0.8-2v-6.3L148.2,91.6z M151.1,101.2v-9.6h1.2v4.3l5.3-4.3h1.5l-5.7,4.5l6.1,5.1l-1.6,0l-5.7-4.8v4.8
			L151.1,101.2z M163.4,101.2v-8.8H160v-0.8h8.1v0.8h-3.5v8.8L163.4,101.2z M169.6,101.2v-9.6h5.7v0.8h-4.6v3.4h4.3v0.8h-4.3v3.7
			h4.8v0.8L169.6,101.2z"/>
	</g>
</g>
</svg>
