<?xml version="1.0" encoding="utf-8"?>
<!-- Generator: Adobe Illustrator 25.1.0, SVG Export Plug-In . SVG Version: 6.00 Build 0)  -->
<svg version="1.1" id="Layer_1" xmlns="http://www.w3.org/2000/svg" xmlns:xlink="http://www.w3.org/1999/xlink" x="0px" y="0px"
	 viewBox="0 0 152.6 75.6" style="enable-background:new 0 0 152.6 75.6;" xml:space="preserve">
<style type="text/css">
	.st0{fill-rule:evenodd;clip-rule:evenodd;fill:#8F8F8F;}
	.st1{fill:#8F8F8F;}
</style>
<g id="Layer_2_1_">
	<g id="Layer_1-2">
		<path class="st0" d="M76.2,0.1L76.5,0l76.2,18.7V57L76.5,75.6h-0.2v-4.9h0.1l71.4-17.5V22.5L76.4,5L76.2,5V0.1z M0.1,18.4
			L76.2,0.1v5L5,22.2L4.8,53.4l71.4,17.4v4.9L0,57.2L0.1,18.4z"/>
		<path class="st1" d="M152.6,9.9c0-2.2-1.7-3.9-3.9-4v0.6c1.8,0,3.3,1.5,3.2,3.3c0,1.8-1.5,3.2-3.2,3.2v0.6
			C150.9,13.7,152.6,12,152.6,9.9z M148.8,10.2V9.7h0.3c0.4,0,0.7-0.3,0.7-0.7c0-0.3-0.2-0.7-0.6-0.7h-0.4V7.8h0.4
			c0.6,0,1.1,0.4,1.1,1c0,0.1,0,0.1,0,0.2c0,0.4-0.2,0.7-0.5,0.9c0.8,0.2,0.2,1.6,0.6,1.9V12h-0.6c-0.3-0.6,0.2-1.8-0.8-1.8
			L148.8,10.2z M148.8,5.9L148.8,5.9c-2.2,0-3.9,1.8-3.9,4c0,2.1,1.7,3.9,3.9,3.9l0,0v-0.6l0,0c-1.8,0-3.3-1.5-3.2-3.3
			c0-1.8,1.5-3.2,3.2-3.2l0,0C148.8,6.6,148.8,5.9,148.8,5.9z M148.8,7.8v0.4h-0.9v1.4h0.9v0.4h-0.9V12h-0.6V7.8L148.8,7.8z"/>
		<polygon class="st0" points="9.8,26.3 9.8,49.1 18.9,51.2 37.3,19.8 30,21.6 16.1,45.7 14.8,45.4 14.6,25 		"/>
		<path class="st0" d="M43.8,52.6l7,1.7l0.4,0.1l0.4,0.1l0.4,0.1l0.4,0.1h1.5l0.1-0.1h0.1l0.1-0.1h0.1l0.1-0.1h0.1v-0.1h0.1v-0.1
			h0.1v-0.1l0.1-0.1l0.1-0.1l0.1-0.2l0.1-0.1l0.1-0.2L55,53l0.1-0.3v-0.4l0.1-0.1l0.1-28.6l-0.1-0.4l-0.1-0.6l-0.1-0.5l-0.2-0.4
			l-0.1-0.3l-0.1-0.1l-0.1-0.1l-0.1-0.1l0,0L54.1,21h-0.1L53.9,21h-0.3l-0.4-0.1L52.7,21L52.2,21l-4.1,1.1l-0.3,0.1h-0.1v0.1h-0.1
			l-0.1,0.1l-0.1,0.1l-0.1,0.1l-0.1,0.2L46.9,23l-0.1,0.2l-0.2,0.3l-0.2,0.3l-0.2,0.4l-0.2,0.2l-2,3.6v-8.8c0.8-0.9,1.9-1.6,3.1-1.8
			l4.3-1.2c5.1-0.9,8.1,1.4,8.9,6.9L60,52.5c-0.6,6-4.4,7.7-10.2,6.5l-6-1.4L43.8,52.6z M33,46.7l-0.1,0.2l-0.1,0.1l-0.1,0.2
			l-0.1,0.1l-0.1,0.1l-0.1,0.1v0.1L32.4,48v0.6l0.1,0.1v0.1l0.1,0.1V49l0.1,0.1l0.1,0.1l0.1,0.1l0.1,0.1l0.1,0.1l0.1,0.1l0.1,0.1
			l0.2,0.1l0.1,0.1l0.2,0.1l0.2,0.1l0.1,0.1l9.7,2.2v5l-11.2-2.6c-5.1-2.1-6.6-7.2-3.2-11.4l12.4-21.6c0.6-0.9,1.3-1.8,2.1-2.7V28
			L33.4,46.2L33,46.7z"/>
		<polygon class="st0" points="142.5,49.5 120.5,54.8 120.5,21.1 142.5,26.6 142.6,31.8 125,27.7 125,35.3 137.5,35.3 137.7,40.2 
			125.1,40.2 125.1,48.5 142.5,44.3 		"/>
		<polygon class="st0" points="92.5,14.2 92.5,61.5 97.5,60.4 97.5,27.6 109.5,57.2 115.2,55.9 115.2,20 110,18.7 110.4,45.3 
			98.3,15.8 		"/>
		<path class="st0" d="M76.2,44.6l6.3,19.2l5-1.2L80,39.8c4.6-2,7.7-5.2,7.2-10.9l0.4-7.4c-1.4-7.3-5.2-10.9-11.3-10.9v4.8h0.9
			l0.4,0.1l0.4,0.1l0.3,0.1l0.3,0.1l0.3,0.1l0.3,0.1l0.2,0.1l0.2,0.1l0.2,0.1l0.2,0.1l0.1,0.2l0.2,0.1l0.2,0.2l0.2,0.2l0.1,0.2
			l0.2,0.2l0.1,0.3l0.2,0.4l0.2,0.3l0.1,0.4l0.1,0.4l0.2,0.4l0.1,0.4l0.1,0.5l0.1,0.6l0.1,0.5v0.1l-0.3,7.1l0.1,0.7v0.9l-0.1,0.3
			v0.3l-0.1,0.2l-0.1,0.2v0.2L82.2,32l-0.1,0.1L82,32.3l-0.1,0.1l-0.1,0.1l-0.1,0.1l-0.1,0.1L81.5,33l-0.1,0.1l-0.1,0.2l-0.1,0.1
			l-0.1,0.1l-0.2,0.1L80.6,34l-0.2,0.1l-0.2,0.1l-0.3,0.1l-0.2,0.2l-0.3,0.1l-0.3,0.1l-0.3,0.1l-0.3,0.1L77,35.5h-0.7L76.2,44.6z
			 M65.1,12.9v49.6l4.8,1.3V40.1l5,0.1l1.4,4.4v-9.1l-5.7-0.2l-0.7-0.1V16.7l5.4-1.3h1v-4.8c-0.6,0-1.2,0-1.7,0.1L65.1,12.9z"/>
	</g>
</g>
</svg>
