<svg xmlns="http://www.w3.org/2000/svg" width="152.64" height="75.6" viewBox="0 0 152.64 75.6"><defs><style>.cls-1,.cls-2{fill:#0095da;}.cls-1{fill-rule:evenodd;}</style></defs><g id="Layer_2" data-name="Layer 2"><g id="Layer_1-2" data-name="Layer 1"><path class="cls-1" d="M76.248.072,76.464,0,152.64,18.72V57.024L76.464,75.6h-.216V70.704h.144l71.424-17.496V22.464L76.392,4.968l-.144.072ZM.144,18.36,76.248.072V5.04L4.968,22.176,4.824,53.352,76.248,70.704V75.6L0,57.168Z"/><path class="cls-2" d="M152.64,9.864a3.9336,3.9336,0,0,0-3.888-3.96v.648a3.2762,3.2762,0,0,1,0,6.552v.648a3.9181,3.9181,0,0,0,3.888-3.888Zm-3.888.288V9.72h.288a.7215.7215,0,0,0,.72-.72c0-.288-.216-.72-.576-.72h-.432V7.848h.432A1.0413,1.0413,0,0,1,150.264,9a1.0493,1.0493,0,0,1-.504.936c.792.216.216,1.584.648,1.944v.072h-.648c-.288-.576.216-1.8-.792-1.8Zm0-4.248h0a3.9242,3.9242,0,0,0,0,7.848h0v-.648h0a3.2762,3.2762,0,0,1,0-6.552h0V5.904Zm0,1.944V8.28h-.864V9.72h.864v.432h-.864v1.8h-.576V7.848Z"/><polygon class="cls-1" points="9.792 26.28 9.792 49.104 18.936 51.192 37.296 19.8 30.024 21.6 16.056 45.72 14.76 45.432 14.616 24.984 9.792 26.28"/><path class="cls-1" d="M43.848,52.56l6.984,1.656.432.072.36.072.36.072.36.072h1.512L54,54.432h.072l.144-.072h.072l.072-.072h.072v-.072h.072v-.072h.072v-.072l.072-.144.072-.072.072-.216.072-.144.072-.216.072-.288.072-.288v-.36l.072-.144.144-28.584-.072-.432-.144-.576-.144-.504-.216-.36-.144-.288-.072-.144-.144-.144-.072-.072h0l-.144-.072h-.072l-.216-.072h-.288l-.36-.072-.504.072-.504.072-4.104,1.08-.288.072h-.072v.072h-.144l-.072.144-.144.072-.144.144-.144.216-.216.216-.144.216-.216.288-.216.288-.216.36-.216.216-2.016,3.6V19.224a5.4714,5.4714,0,0,1,3.096-1.8l4.32-1.152c5.112-.936,8.064,1.44,8.856,6.912l-.144,29.304c-.648,6.048-4.392,7.704-10.152,6.48l-5.976-1.44ZM32.976,46.728l-.072.216-.144.144-.072.216-.072.144-.072.144-.072.144v.144l-.072.072V48.6l.072.072v.072l.072.144v.072l.072.072.072.144.072.072.072.144.144.144.144.072.072.144.216.144.144.072.216.144.216.144.144.072,9.72,2.232v4.968L32.616,54.936c-5.112-2.088-6.624-7.2-3.24-11.448l12.384-21.6a26.268,26.268,0,0,1,2.088-2.664v8.784L33.408,46.152Z"/><polygon class="cls-1" points="142.488 49.464 120.456 54.792 120.456 21.096 142.488 26.568 142.632 31.752 124.992 27.72 124.992 35.28 137.52 35.28 137.664 40.248 125.136 40.248 125.136 48.456 142.488 44.28 142.488 49.464"/><polygon class="cls-1" points="92.52 14.184 92.52 61.488 97.488 60.408 97.488 27.576 109.512 57.168 115.2 55.872 115.2 20.016 110.016 18.72 110.376 45.288 98.28 15.768 92.52 14.184"/><path class="cls-1" d="M76.248,44.64l6.264,19.152,5.04-1.152-7.56-22.824c4.608-2.016,7.704-5.184,7.2-10.944l.36-7.416c-1.44-7.272-5.184-10.872-11.304-10.872v4.824h.864l.36.072.36.072.288.072.288.072.288.072.288.144.216.072.216.144.216.072.216.144.144.216.216.144.216.216.216.216.144.216.216.216.144.288.216.36.216.288.144.36.144.432.216.432.144.432.144.504.144.576.144.504v.072l-.288,7.056.072.72v.936l-.072.288v.288l-.072.216-.072.216v.216l-.072.216-.072.144-.072.216-.072.144-.144.144-.072.144-.072.144-.144.144-.144.144-.144.216-.144.144-.144.144-.216.144-.144.144-.216.144-.216.144-.288.144-.216.216-.288.144-.288.144-.288.144-.288.144-1.512.288h-.72ZM65.088,12.888V62.496l4.752,1.296V40.104l4.968.144,1.44,4.392V35.496L70.56,35.28l-.72-.144V16.704l5.4-1.296h1.008V10.584a13.8735,13.8735,0,0,0-1.728.072Z"/></g></g></svg>