<?xml version="1.0" standalone="no"?>
<!DOCTYPE svg PUBLIC "-//W3C//DTD SVG 20010904//EN"
 "http://www.w3.org/TR/2001/REC-SVG-20010904/DTD/svg10.dtd">
<svg version="1.0" xmlns="http://www.w3.org/2000/svg"
 width="1192.000000pt" height="1192.000000pt" viewBox="0 0 1192.000000 1192.000000"
 preserveAspectRatio="xMidYMid meet">
<metadata>
Created by potrace 1.14, written by Peter Selinger 2001-2017
</metadata>
<g transform="translate(0.000000,1192.000000) scale(0.100000,-0.100000)"
fill="#000000" stroke="none">
<path d="M5207 9479 l-878 -879 78 -79 c43 -43 115 -116 160 -161 l82 -83 717
717 c394 394 720 716 724 716 4 0 468 -461 1032 -1025 563 -564 1028 -1025
1031 -1025 8 0 317 308 317 316 0 6 -2347 2353 -2370 2370 -12 9 -173 -147
-893 -867z"/>
<path d="M3112 6898 c0 -1272 -1 -2324 -1 -2338 l-1 -25 -822 0 -823 0 -1
-227 -1 -227 46 -1 c47 -1 52 -1 136 -1 28 0 77 0 110 0 33 0 122 0 197 1 76
1 142 -2 148 -5 5 -3 10 -1 10 5 0 6 4 9 10 5 5 -3 85 -5 177 -5 92 1 174 1
181 1 14 0 96 0 115 0 6 0 50 0 97 -1 47 -1 147 -1 222 0 76 1 142 -2 148 -5
5 -3 10 -1 10 5 0 6 4 9 10 5 5 -3 85 -5 177 -5 200 2 179 2 228 1 22 0 49 -1
61 -1 l20 1 0 2005 c-1 1103 1 2010 4 2014 3 5 75 -61 160 -146 l154 -154 2
-1873 c0 -1029 2 -1877 2 -1882 1 -7 79 -10 220 -9 119 1 220 2 224 3 4 0 7
733 7 1629 0 895 0 1638 1 1651 0 21 61 -36 333 -308 l332 -332 0 -1290 c0
-710 2 -1294 5 -1299 5 -7 221 -15 255 -9 6 1 14 1 18 0 12 -2 290 -2 302 0 6
1 14 1 18 0 12 -2 290 -2 302 0 6 1 14 1 18 0 12 -2 290 -2 302 0 6 1 14 1 18
0 12 -2 290 -2 302 0 6 1 14 1 18 0 12 -2 290 -2 302 0 6 1 14 1 18 0 7 -1
277 -3 304 -1 8 0 12 12 10 33 -2 17 1 38 6 45 5 6 6 12 1 12 -5 0 -9 29 -9
65 0 36 4 65 8 65 5 0 5 6 1 12 -11 17 -11 148 -1 148 4 0 4 8 0 18 -10 21
-10 53 0 70 5 6 5 17 1 24 -11 17 -11 88 0 88 5 0 4 6 -1 13 -5 6 -8 23 -6 37
2 14 3 30 3 35 0 6 -1 56 -3 113 -1 56 2 102 7 102 5 0 4 6 -1 13 -10 14 -10
107 1 125 4 7 4 12 -1 12 -4 0 -8 38 -8 85 0 47 4 85 9 85 5 0 4 6 -1 13 -5 6
-8 38 -7 70 l1 59 350 350 350 350 1 -1019 c0 -560 1 -1029 1 -1043 l1 -25
223 1 c122 1 224 2 227 3 3 0 4 571 4 1269 l-2 1267 137 138 c74 75 138 137
141 137 3 0 5 -622 5 -1382 l0 -1383 80 -2 c44 -1 88 -4 98 -7 9 -2 17 0 17 6
0 5 4 7 10 3 5 -3 85 -5 177 -5 92 1 174 1 181 1 14 0 96 0 115 0 6 0 50 0 97
-1 47 -1 147 -1 222 0 76 1 142 -2 148 -5 5 -3 10 -1 10 5 0 6 4 9 10 5 5 -3
85 -5 177 -5 92 1 174 1 181 1 10 0 51 0 120 0 9 0 43 -1 76 -1 32 -1 60 1 63
4 4 3 7 378 4 436 -1 13 -80 15 -663 15 l-663 0 -5 1709 -5 1709 -1170 -1171
-1171 -1170 1 -539 0 -538 -638 0 c-352 0 -641 4 -644 8 -3 5 -5 530 -5 1167
l0 1158 -1169 1168 c-643 643 -1171 1170 -1173 1172 -2 1 -4 -1038 -4 -2310z"/>
<path d="M5565 8590 c-1 -3 -2 -94 -3 -202 l0 -196 201 1 202 2 0 193 c0 107
-2 197 -5 200 -6 8 -390 10 -395 2z"/>
<path d="M6240 8590 c-8 -5 -12 -125 -11 -322 l1 -77 200 0 200 0 1 99 c1 125
1 153 0 238 l-1 67 -191 0 c-105 0 -195 -2 -199 -5z"/>
<path d="M5589 7962 l-26 -3 1 -196 1 -197 27 -7 c16 -4 30 -3 33 1 3 5 18 5
34 0 16 -4 32 -6 35 -3 2 3 31 4 63 3 67 -2 70 -2 103 3 14 2 32 0 40 -3 8 -4
26 -4 40 -1 l25 7 0 193 c0 106 -4 195 -9 198 -9 6 -322 10 -367 5z"/>
<path d="M6233 7957 c-4 -7 -5 -389 0 -393 2 -3 32 -4 115 -4 17 0 42 -1 55
-1 28 0 128 0 145 0 74 2 82 4 83 20 2 86 -2 375 -6 379 -8 8 -386 8 -392 -1z"/>
<path d="M5058 3534 c-2 -1 -19 -5 -39 -8 -197 -31 -281 -206 -193 -403 8 -17
14 -33 14 -35 0 -3 -22 -20 -48 -38 -79 -54 -122 -138 -122 -240 0 -166 119
-292 308 -325 63 -11 244 -7 260 5 1 2 7 4 12 5 6 1 12 4 15 5 3 1 8 3 13 4
16 4 58 29 79 49 l23 20 49 -27 c28 -14 69 -32 93 -40 56 -16 183 -22 173 -7
-3 6 -15 11 -26 11 -11 0 -34 7 -52 16 -36 18 -167 115 -167 123 0 4 10 31 21
61 23 59 33 194 19 255 -9 41 6 67 41 70 13 1 23 5 21 10 -2 7 -160 10 -257 5
l-30 -2 35 -10 c44 -12 77 -43 97 -88 19 -45 21 -174 2 -217 l-14 -33 -35 31
c-147 128 -202 179 -288 263 -46 45 -99 104 -117 132 -104 156 -38 345 125
359 115 10 220 -82 220 -193 0 -26 20 -40 21 -15 0 10 2 27 5 38 2 11 6 43 10
71 5 48 4 51 -28 75 -45 34 -108 58 -179 68 -32 4 -60 7 -61 5z m-65 -615 c87
-85 232 -214 311 -277 l29 -22 -22 -23 c-83 -90 -274 -100 -405 -23 -42 25
-76 59 -76 76 0 6 -4 10 -8 10 -30 0 -57 159 -39 230 15 60 23 79 46 110 38
51 40 51 75 12 17 -19 57 -61 89 -93z"/>
<path d="M6389 3512 c-137 -42 -254 -137 -308 -252 -94 -198 -70 -452 56 -608
49 -60 159 -139 186 -134 4 1 7 -2 7 -6 0 -5 6 -9 13 -9 6 -1 37 -8 67 -16 68
-19 218 -20 278 -2 25 8 48 13 51 12 6 -1 49 20 115 56 15 8 48 36 72 60 l44
45 -1 129 c0 71 3 136 6 144 7 19 43 37 68 33 9 -1 17 2 17 7 0 5 -62 9 -140
9 -78 0 -140 -4 -140 -9 0 -5 8 -8 18 -6 25 4 69 -21 74 -42 2 -10 4 -78 3
-151 -2 -146 3 -134 -79 -188 -21 -14 -45 -27 -55 -29 -9 -2 -36 -11 -60 -20
-24 -9 -74 -17 -110 -19 -301 -14 -488 258 -426 619 15 89 73 195 140 257 33
31 142 86 171 88 165 7 214 1 294 -40 69 -35 140 -119 155 -182 4 -16 11 -28
16 -28 9 0 7 27 -11 129 -6 29 -8 57 -5 61 6 10 -89 61 -155 83 -80 27 -285
32 -361 9z"/>
<path d="M5 3500 c4 -6 12 -10 18 -8 23 4 55 -13 72 -39 16 -24 18 -66 18
-453 0 -386 -2 -429 -17 -452 -17 -27 -71 -52 -87 -42 -5 3 -9 0 -9 -5 0 -7
54 -11 161 -11 104 0 158 3 154 10 -3 6 -17 10 -31 10 -40 0 -74 45 -75 99 -1
45 -1 295 0 339 l1 22 298 0 298 0 -1 -197 c-1 -136 -5 -205 -13 -220 -13 -24
-41 -42 -74 -48 -55 -11 -18 -15 130 -15 101 0 162 4 162 10 0 5 -3 9 -7 9
-45 -7 -89 23 -98 66 -11 57 -7 837 5 865 12 30 56 59 83 55 9 -2 17 1 17 6 0
5 -71 9 -161 9 -106 0 -158 -3 -154 -10 4 -6 10 -8 15 -5 5 3 26 -3 47 -14 21
-11 35 -20 31 -21 -4 0 -1 -11 5 -23 9 -16 12 -86 12 -223 l0 -198 -298 -1
-297 0 -1 30 c0 16 -1 109 -1 207 0 147 3 180 17 201 17 26 70 51 86 41 5 -3
9 0 9 5 0 7 -54 11 -161 11 -107 0 -158 -3 -154 -10z"/>
<path d="M1550 3378 c-19 -5 -45 -10 -58 -12 -33 -5 -100 -36 -152 -69 -184
-120 -248 -369 -149 -571 34 -70 56 -96 120 -148 39 -32 122 -77 154 -84 6 -1
24 -5 40 -10 55 -13 214 -13 260 1 25 7 45 11 45 8 0 -2 32 13 71 33 121 64
211 178 238 301 8 40 8 169 -1 203 -22 83 -71 171 -125 221 -64 60 -174 112
-261 126 -62 9 -145 9 -182 1z m238 -68 c28 -13 52 -27 52 -31 0 -5 6 -9 13
-9 22 0 91 -81 120 -140 53 -108 59 -243 17 -364 -53 -156 -197 -256 -360
-250 -82 3 -124 14 -183 48 -128 76 -202 222 -193 387 10 183 106 318 264 370
75 25 195 20 270 -11z"/>
<path d="M2436 3382 c-3 -5 -8 -27 -11 -48 -3 -22 -8 -50 -10 -64 -3 -14 -7
-47 -10 -75 -6 -50 -10 -76 -21 -137 -3 -18 -7 -49 -9 -68 -2 -19 -6 -53 -10
-75 -12 -75 -14 -90 -20 -140 -3 -27 -9 -63 -12 -80 -3 -16 -7 -43 -9 -60 -11
-92 -30 -118 -98 -129 -59 -10 -34 -15 94 -18 73 -2 134 0 137 5 4 6 -11 11
-29 8 -15 -2 -36 45 -33 74 8 78 17 163 20 190 3 17 7 59 11 95 11 107 12 113
19 175 4 33 7 68 7 78 -2 38 18 11 85 -120 39 -76 101 -194 137 -263 36 -69
80 -155 98 -192 17 -38 35 -68 39 -68 4 0 15 21 24 48 19 55 286 594 298 603
5 3 8 9 8 13 -1 3 2 5 6 4 4 -2 8 -12 9 -23 1 -11 5 -42 9 -70 4 -27 8 -63 10
-80 1 -16 4 -30 4 -30 1 0 4 -20 6 -45 5 -50 13 -112 19 -150 3 -14 7 -47 10
-75 4 -27 8 -66 11 -85 5 -40 -12 -69 -45 -75 -56 -11 -22 -15 125 -15 151 0
187 5 113 17 -58 9 -84 45 -94 133 -1 14 -5 43 -9 65 -3 22 -8 54 -10 70 -2
17 -4 30 -5 30 -1 0 -3 18 -5 40 -3 21 -7 55 -10 75 -4 19 -8 49 -10 65 -3 17
-7 46 -9 65 -3 19 -8 55 -12 80 -3 25 -8 56 -10 70 -2 14 -6 36 -8 50 -2 14
-7 49 -11 77 -6 48 -25 84 -25 49 0 -8 -3 -16 -7 -18 -10 -4 -73 -130 -73
-145 0 -6 -3 -13 -7 -15 -10 -4 -93 -170 -93 -185 0 -6 -3 -13 -8 -15 -4 -1
-45 -80 -92 -175 -46 -94 -87 -170 -91 -168 -3 3 -28 46 -54 97 -58 114 -145
279 -153 293 -4 6 -7 16 -8 23 -1 7 -8 20 -15 28 -7 9 -38 66 -70 127 -81 161
-86 170 -93 159z"/>
<path d="M4075 3376 c-35 -6 -157 -11 -292 -11 -222 0 -275 -5 -198 -19 66
-13 66 -10 63 -430 -3 -423 4 -386 -78 -412 -28 -10 25 -12 266 -13 l301 -1
15 38 c9 20 27 65 41 99 14 35 22 65 17 68 -4 3 -13 -9 -20 -25 -19 -45 -71
-97 -115 -116 -48 -20 -322 -28 -328 -10 -2 6 -3 90 -3 186 l1 175 139 -1
c133 0 139 -1 156 -24 9 -12 15 -31 13 -41 -3 -11 -1 -19 4 -19 6 0 11 46 12
105 1 73 -2 105 -10 105 -6 0 -9 -6 -6 -14 3 -8 -3 -26 -14 -40 -20 -26 -23
-26 -154 -26 -97 0 -134 3 -137 13 -2 6 -4 89 -4 182 l1 170 120 2 c66 1 134
3 150 4 61 4 105 -30 105 -82 0 -12 3 -19 8 -15 4 4 7 43 7 87 0 43 0 79 0 78
0 -1 -27 -6 -60 -13z"/>
<path d="M10665 3378 c-16 -5 -143 -10 -282 -11 -138 -2 -255 -6 -259 -10 -4
-4 4 -7 19 -7 14 0 38 -10 53 -23 l27 -24 0 -359 c0 -197 -3 -372 -7 -387 -5
-20 -18 -33 -42 -43 -19 -8 -39 -12 -44 -9 -6 4 -10 1 -10 -4 0 -8 94 -11 294
-11 297 0 305 1 313 35 1 6 16 45 33 89 17 43 29 81 26 83 -2 3 -16 -15 -30
-39 -59 -101 -104 -120 -289 -123 -76 0 -141 3 -144 8 -7 12 -7 342 0 354 3 5
64 8 136 8 140 -1 157 -6 164 -52 5 -35 17 -39 18 -7 0 16 2 41 3 57 1 15 -2
27 -7 27 -4 0 -5 5 -1 11 11 18 7 70 -6 83 -9 8 -11 7 -10 -4 4 -26 0 -38 -16
-54 -12 -13 -41 -16 -150 -16 l-134 0 -1 40 c0 22 -1 96 -1 165 0 69 1 134 1
145 1 18 9 19 161 18 143 0 163 -2 185 -20 17 -13 25 -29 25 -49 0 -17 4 -28
10 -24 10 6 11 153 1 159 -3 2 -19 -1 -36 -6z"/>
<path d="M10988 2972 c4 -411 3 -417 -17 -441 -12 -13 -21 -21 -21 -16 0 4 -6
2 -14 -4 -7 -6 -21 -9 -30 -5 -9 3 -16 1 -16 -5 0 -7 43 -11 135 -11 88 0 135
4 135 11 0 5 -4 8 -10 4 -17 -10 -78 22 -86 47 -9 29 -12 629 -2 626 6 -3 166
-151 319 -298 316 -302 432 -410 441 -410 4 0 4 30 0 68 -6 74 -8 738 -1 762
7 24 45 50 73 50 14 0 26 3 26 8 0 9 -266 9 -276 -1 -4 -4 7 -7 25 -7 43 0 81
-38 81 -82 2 -175 -1 -583 -4 -586 -3 -2 -29 20 -59 50 -30 29 -106 101 -169
159 -62 59 -136 129 -164 155 -55 52 -310 292 -328 309 -43 39 -41 59 -38
-383z"/>
<path d="M7545 3371 c3 -5 1 -12 -4 -15 -5 -3 -12 -18 -15 -32 -4 -14 -31 -78
-61 -141 -30 -64 -55 -117 -55 -118 0 -2 -31 -69 -70 -150 -38 -81 -70 -149
-70 -151 0 -2 -23 -51 -51 -109 -50 -104 -82 -141 -128 -148 -11 -2 -24 -6
-27 -10 -4 -4 57 -7 135 -7 92 0 140 4 136 10 -3 6 -14 10 -24 10 -10 0 -24
11 -31 25 -12 23 -9 36 32 137 l45 113 182 0 c115 0 185 -3 189 -10 18 -27 74
-174 79 -203 5 -37 -10 -62 -38 -62 -11 0 -19 -4 -19 -10 0 -6 57 -10 152 -10
83 0 148 3 144 7 -3 4 -17 8 -29 10 -53 8 -83 49 -165 230 -19 40 -33 75 -33
77 0 3 -18 42 -39 86 -22 44 -40 82 -40 85 0 3 -16 41 -36 83 -41 86 -73 160
-74 167 0 3 -14 31 -30 64 -17 32 -30 64 -30 70 0 6 -7 11 -16 11 -8 0 -13 -4
-9 -9z m48 -257 c3 -11 28 -74 56 -142 28 -67 51 -128 51 -135 0 -9 -37 -11
-160 -9 -88 2 -160 4 -160 6 0 5 111 262 120 278 6 10 10 22 10 27 0 5 7 25
16 46 l15 38 23 -45 c13 -25 26 -54 29 -64z"/>
<path d="M8120 3358 c0 -4 10 -8 23 -8 12 0 33 -9 47 -20 l25 -19 3 -376 3
-376 -31 -29 c-17 -16 -37 -27 -44 -24 -8 3 -17 1 -21 -5 -4 -8 39 -11 139
-11 80 0 146 4 146 9 0 5 -12 9 -26 9 -14 0 -36 9 -47 21 -22 21 -22 26 -23
406 l-1 384 81 0 c204 -1 277 -53 279 -194 0 -47 -5 -71 -23 -104 -41 -71 -80
-87 -222 -90 -61 -1 -78 -15 -30 -24 44 -9 97 -62 181 -181 134 -189 186 -226
325 -234 75 -4 99 3 45 13 -46 9 -86 35 -132 87 -26 29 -56 62 -65 73 -10 11
-49 59 -86 107 -37 48 -77 93 -89 99 -20 11 -18 13 29 29 74 24 120 64 157
136 26 50 18 159 -16 211 -31 49 -84 86 -148 104 -49 14 -479 20 -479 7z"/>
<path d="M9037 3358 c-7 -5 -1 -8 16 -8 34 0 73 -39 78 -78 2 -15 4 -179 3
-365 0 -258 -4 -343 -14 -362 -13 -24 -65 -49 -81 -39 -5 3 -9 0 -9 -6 0 -12
596 -14 615 -2 6 4 19 8 30 9 78 12 231 124 250 182 3 12 11 21 17 21 6 0 9 3
6 6 -4 3 0 20 8 39 45 109 37 272 -21 390 -30 63 -96 130 -158 161 -98 50
-151 57 -450 59 -152 0 -283 -3 -290 -7z m343 -41 c36 5 42 5 78 4 17 -1 47
-1 65 -1 30 -1 49 -3 106 -15 67 -13 191 -105 191 -141 0 -8 3 -14 8 -14 19 0
47 -128 47 -220 -1 -112 -5 -140 -34 -204 -25 -53 -96 -136 -117 -136 -8 0
-14 -3 -14 -8 0 -4 -24 -16 -52 -27 -44 -15 -84 -19 -240 -21 l-188 -2 0 74
c-1 41 -1 184 -1 319 0 135 0 278 1 319 l0 75 30 -1 c17 -1 33 1 36 5 3 3 18
2 32 -2 15 -4 38 -6 52 -4z"/>
<path d="M5865 1967 c-9 -5 -25 -22 -34 -39 -31 -50 -14 -91 68 -168 38 -36
74 -76 79 -89 19 -52 -42 -110 -101 -96 -28 7 -57 44 -57 71 0 28 -10 10 -14
-24 -2 -21 3 -37 15 -48 11 -10 19 -14 19 -9 0 4 6 3 13 -3 17 -14 92 -7 118
11 28 20 47 58 43 88 -1 13 -3 29 -3 34 -1 12 -42 56 -114 123 -49 46 -59 80
-34 113 28 37 97 34 114 -4 9 -20 10 -20 15 11 4 27 1 32 -16 33 -12 1 -38 2
-58 3 -20 1 -44 -2 -53 -7z"/>
<path d="M3053 1952 c12 -14 14 -51 13 -190 -1 -160 -3 -175 -20 -188 -19 -14
-19 -14 5 -13 13 1 29 1 34 -1 6 -1 20 -2 33 -1 21 1 21 2 5 19 -16 15 -18 39
-18 192 l0 175 46 3 c67 4 93 -20 94 -86 0 -63 -25 -94 -78 -96 -25 -1 -32 -4
-26 -12 9 -11 54 -10 91 2 21 6 53 50 61 83 3 13 -1 41 -10 63 -20 51 -57 66
-162 66 -76 0 -82 -1 -68 -16z"/>
<path d="M3832 1913 c-94 -3 -103 -5 -90 -20 18 -22 20 -302 2 -320 -6 -7 -14
-10 -18 -8 -3 3 -4 2 -2 -1 3 -3 52 -6 111 -6 101 1 143 11 130 32 -3 5 -1 11
5 15 13 8 13 25 0 25 -5 0 -9 -5 -7 -12 4 -19 -52 -40 -112 -42 l-57 -1 2 70
c1 39 2 73 3 76 2 11 99 3 113 -9 11 -9 14 -6 14 13 0 23 -3 24 -54 20 -30 -2
-60 -1 -66 1 -10 4 -14 95 -7 137 0 4 30 7 66 7 50 0 66 -4 74 -17 9 -15 10
-12 11 15 0 17 -3 31 -7 30 -5 -1 -55 -4 -111 -5z"/>
<path d="M4099 1920 c0 -3 -2 -21 -4 -40 -2 -19 -6 -51 -9 -70 -10 -66 -14
-95 -20 -140 -9 -70 -11 -77 -24 -93 -10 -12 -10 -16 0 -19 32 -11 48 4 49 46
0 22 3 52 5 66 4 24 11 85 13 123 1 20 21 24 21 4 0 -18 23 -67 32 -67 3 0 9
-13 13 -30 4 -16 10 -32 15 -35 5 -3 21 -31 36 -62 26 -53 28 -55 37 -32 18
44 120 249 123 247 1 -2 5 -24 8 -49 3 -25 7 -52 10 -60 2 -7 7 -42 11 -76 5
-56 3 -63 -12 -64 -10 -1 0 -5 22 -8 22 -3 51 -4 65 -2 l25 4 -26 9 c-23 8
-26 16 -37 96 -7 48 -14 96 -16 107 -9 46 -20 131 -18 138 2 5 -2 6 -8 2 -5
-3 -10 -12 -10 -20 0 -7 -3 -15 -7 -17 -5 -1 -15 -19 -24 -38 -9 -19 -31 -64
-50 -100 -18 -36 -38 -75 -44 -87 -5 -13 -13 -23 -16 -23 -3 0 -21 33 -40 73
-19 39 -36 74 -39 77 -3 3 -16 28 -29 55 -25 51 -50 93 -52 85z"/>
<path d="M5458 1791 c-37 -73 -62 -134 -56 -137 5 -3 10 -4 11 -3 1 2 21 42
44 88 44 88 49 89 57 6 3 -27 8 -78 12 -112 5 -50 4 -63 -7 -63 -10 0 -11 -2
-2 -8 6 -4 33 -6 58 -4 43 4 45 5 24 16 -12 6 -24 22 -26 36 -1 14 -7 54 -13
90 -5 36 -12 85 -15 110 -17 125 -13 125 -87 -19z"/>
<path d="M6210 1903 c-25 -7 -52 -19 -60 -26 -22 -17 -60 -74 -65 -94 -2 -10
-4 -22 -6 -28 -2 -5 0 -28 5 -50 22 -115 143 -181 266 -144 41 12 106 79 116
119 37 157 -95 272 -256 223z m147 -27 c18 -9 40 -33 52 -59 58 -120 -17 -251
-140 -246 -89 4 -149 80 -142 180 8 117 124 181 230 125z"/>
<path d="M7208 1888 c-4 -25 -3 -26 11 -14 14 12 78 22 119 17 18 -2 17 -289
-2 -316 -13 -19 -12 -20 43 -16 44 3 51 5 34 12 -13 5 -23 14 -24 21 -2 72 1
291 5 295 3 3 29 6 57 6 39 0 56 -5 66 -19 12 -16 13 -15 13 12 l0 29 -159 0
-159 0 -4 -27z"/>
<path d="M7888 1906 c-50 -13 -110 -64 -122 -104 -12 -38 -14 -97 -4 -109 6
-7 8 -13 4 -13 -11 0 21 -54 46 -77 73 -68 213 -67 282 1 62 62 69 178 14 247
-23 28 -90 61 -132 64 -23 2 -62 -3 -88 -9z m114 -14 c28 -3 85 -69 95 -111
11 -41 4 -98 -16 -141 -28 -59 -129 -87 -196 -56 -124 59 -110 270 20 305 27
7 45 7 97 3z"/>
<path d="M8235 1753 c1 -120 -2 -169 -12 -178 -17 -18 -9 -22 31 -17 30 3 33
6 22 18 -20 19 -20 257 -1 246 12 -6 86 -76 241 -224 l50 -49 -1 168 c-1 159
1 169 20 180 17 11 14 12 -30 12 -37 0 -46 -2 -34 -9 14 -8 17 -30 18 -137 l2
-127 -22 20 c-42 36 -121 109 -178 164 -32 30 -68 65 -82 77 l-24 22 0 -166z"/>
<path d="M8723 1909 c-13 -4 -31 -22 -42 -40 -29 -47 -13 -80 71 -142 70 -53
85 -78 74 -121 -6 -24 -30 -36 -79 -36 -35 0 -79 41 -71 67 5 15 4 16 -5 3
-45 -63 52 -114 143 -76 36 15 56 53 49 95 -4 31 -17 45 -92 101 -81 60 -94
108 -35 131 37 14 83 2 94 -24 10 -24 10 -23 14 11 2 13 -2 25 -7 29 -16 10
-91 11 -114 2z"/>
<path d="M3373 1899 c15 -9 17 -28 17 -165 0 -151 0 -155 -22 -163 -19 -7 -14
-9 25 -12 51 -4 65 2 44 19 -9 7 -12 52 -11 159 l1 148 49 3 c39 2 54 -2 72
-18 24 -22 29 -68 12 -100 -11 -21 -72 -42 -98 -34 -9 3 -6 -2 8 -11 14 -9 42
-42 63 -72 44 -62 89 -93 132 -92 20 1 23 3 11 6 -22 6 -36 19 -99 94 -49 58
-56 72 -34 63 7 -2 26 9 42 25 39 42 38 95 -3 132 -28 25 -37 27 -128 28 -73
1 -94 -2 -81 -10z"/>
<path d="M4568 1900 c26 -11 24 1 26 -178 1 -142 1 -143 -22 -149 -36 -9 -9
-19 37 -15 36 4 39 6 31 22 -6 10 -10 82 -10 159 0 133 1 141 22 155 21 15 19
16 -42 15 -49 0 -60 -2 -42 -9z"/>
<path d="M4753 1898 c13 -11 17 -37 21 -138 5 -153 4 -147 35 -168 54 -37 81
-42 170 -30 27 3 81 65 82 94 0 16 1 75 2 132 2 79 5 105 17 112 11 7 5 10
-23 10 -33 0 -37 -2 -29 -17 13 -27 8 -244 -6 -270 -25 -45 -102 -66 -155 -42
-43 19 -57 59 -58 161 -2 149 -1 156 19 161 9 3 -7 5 -37 6 -46 1 -52 -1 -38
-11z"/>
<path d="M5209 1888 c0 -13 -2 -32 -4 -43 -3 -11 -6 -36 -9 -56 -2 -20 -7 -51
-10 -70 -7 -36 -17 -106 -18 -126 -1 -7 -8 -15 -17 -18 -25 -10 4 -22 39 -17
22 3 28 8 21 16 -12 14 0 180 13 194 3 3 1 11 -5 19 -9 10 -8 13 0 13 7 0 9 6
5 13 -5 8 -4 9 4 2 6 -5 38 -65 72 -132 59 -118 80 -146 80 -104 0 11 5 23 10
26 13 8 13 45 1 45 -5 0 -11 -5 -13 -12 -3 -7 -18 14 -35 47 -119 231 -132
251 -134 203z"/>
<path d="M6546 1900 c20 -8 21 -16 22 -164 2 -138 0 -156 -15 -165 -24 -14
-25 -14 141 -12 69 1 74 2 80 25 3 13 8 32 12 43 3 10 -2 6 -10 -9 -17 -28
-40 -36 -123 -42 -38 -3 -43 -1 -44 18 -6 134 -2 274 8 293 12 23 11 23 -40
22 -39 0 -47 -2 -31 -9z"/>
<path d="M6833 1899 c15 -9 17 -26 17 -124 0 -112 8 -154 33 -179 59 -59 167
-59 224 -1 18 19 33 44 34 57 0 13 1 72 2 131 2 84 5 110 17 117 11 7 3 10
-28 10 -38 0 -42 -2 -29 -14 18 -18 17 -239 -1 -272 -30 -57 -128 -72 -176
-27 -32 30 -39 66 -34 202 l3 111 -40 0 c-32 -1 -37 -3 -22 -11z"/>
<path d="M7608 1893 c5 -10 9 -84 10 -165 l0 -147 -26 -10 c-22 -8 -14 -9 43
-10 52 0 64 3 48 9 -13 5 -24 13 -24 17 -4 26 -5 280 -1 291 3 8 14 18 26 22
16 7 8 9 -32 9 -47 1 -52 -1 -44 -16z"/>
</g>
</svg>
