<svg id="Layer_1" data-name="Layer 1" xmlns="http://www.w3.org/2000/svg" viewBox="0 0 300 300"><defs><style>.cls-1{fill:#231f20;}</style></defs><title>tamplarie aluminiu</title><path class="cls-1" d="M294.19,0H5.81a3,3,0,0,0-3,3V297a3,3,0,0,0,3,3H294.19a3,3,0,0,0,3-3V3A3,3,0,0,0,294.19,0ZM199.1,41.83h63.36V278.35H199.1ZM100.23,278.35H36.88V41.83h63.35Zm12-103.36h-6v-29.8h6Zm-6,106.37V181h6V281.36a3,3,0,0,0,3,3h69.37a3,3,0,0,0,3-3V181h5.41V294H106.25Zm12-3V41.83h63.35V278.35Zm69.37-133.16h5.41V175h-5.41Zm5.41-106.37V139.17h-5.41V38.82a3,3,0,0,0-3-3H115.29a3,3,0,0,0-3,3V139.17h-6V26.2h86.83Zm-92.85-3H33.87a3,3,0,0,0-3,3V281.36a3,3,0,0,0,3,3h66.36V294H22.31V26.2h77.92ZM199.1,294v-9.61h66.37a3,3,0,0,0,3-3V38.82a3,3,0,0,0-3-3H199.1V26.2h78.59V294Zm92.08,0h-7.47V23.19a3,3,0,0,0-3-3H19.3a3,3,0,0,0-3,3V294H8.82V6H291.18Z"/></svg>