<svg id="Layer_1" data-name="Layer 1" xmlns="http://www.w3.org/2000/svg" viewBox="0 0 300 300"><defs><style>.cls-1{fill:#231f20;}</style></defs><title>copertina</title><path id="copertina" class="cls-1" d="M299.48,136.91l-.41-.61-.48-.7L261.18,80.41a3,3,0,0,0-2.48-1.31H41.36a3,3,0,0,0-2.49,1.31L1.41,135.6h0l0,.1-.82,1.21c-.63.92-.25,4.92-.25,5.79,0,11.05,8.65,20.05,19.3,20.05a19.17,19.17,0,0,0,16.48-9.66,18.87,18.87,0,0,0,32.77.3,18.87,18.87,0,0,0,32.6,0,18.86,18.86,0,0,0,32.59,0,18.87,18.87,0,0,0,32.6,0,18.87,18.87,0,0,0,32.6,0,18.87,18.87,0,0,0,32.6,0,18.86,18.86,0,0,0,32.59,0,19.14,19.14,0,0,0,16.3,9.36c10.64,0,19.3-9,19.3-20.05C300,141.68,300,137.73,299.48,136.91Zm-65.1-1.32L215.93,85.1h18.29L260,135.59Zm-6.4,0H201.17L190.39,85.1h19.15Zm-33,0H169.87L166.09,85.1h18.15Zm-31.18,0H137.69l3.4-50.49h19Zm-32.17,0H105.6L116.38,85.1h18.68Zm-32.21,0H73.58L91.86,85.1h18.38Zm-32.28,0H41.56L66.88,85.1H85.47Zm224.15,0H266.7L241,85.1H257.1ZM43,85.1H60.16L34.84,135.59H8.68ZM19.57,156.74c-7.33,0-13.29-6.3-13.29-14,0-.37,0-.73,0-1.1H32.83c0,.37,0,.73,0,1.1C32.87,150.44,26.9,156.74,19.57,156.74Zm33,0c-7.34,0-13.3-6.3-13.3-14,0-.37,0-.73,0-1.1H65.78c0,.37,0,.73,0,1.1C65.82,150.44,59.85,156.74,52.53,156.74Zm32.58,0c-7.32,0-13.29-6.3-13.29-14,0-.37,0-.73,0-1.1H98.38c0,.37,0,.73,0,1.1C98.42,150.44,92.45,156.74,85.11,156.74Zm32.6,0c-7.32,0-13.29-6.3-13.29-14,0-.37,0-.73,0-1.1H131c0,.37,0,.73,0,1.1C131,150.44,125,156.74,117.71,156.74Zm32.6,0c-7.33,0-13.3-6.3-13.3-14,0-.37,0-.73,0-1.1h26.51c0,.37,0,.73,0,1.1C163.6,150.44,157.64,156.74,150.31,156.74Zm32.59,0c-7.33,0-13.29-6.3-13.29-14,0-.37,0-.73,0-1.1h26.51c0,.37,0,.73,0,1.1C196.2,150.44,190.24,156.74,182.9,156.74Zm32.6,0c-7.33,0-13.29-6.3-13.29-14,0-.37,0-.73,0-1.1h26.51c0,.37,0,.73,0,1.1C228.8,150.44,222.84,156.74,215.5,156.74Zm32.6,0c-7.33,0-13.29-6.3-13.29-14,0-.37,0-.73,0-1.1h26.5c0,.37,0,.73,0,1.1C261.39,150.44,255.43,156.74,248.1,156.74Zm32.6,0c-7.33,0-13.3-6.3-13.3-14,0-.37,0-.73,0-1.1H294c0,.37,0,.73,0,1.1C294,150.44,288,156.74,280.7,156.74Z"/></svg>