<svg id="Layer_1" data-name="Layer 1" xmlns="http://www.w3.org/2000/svg" viewBox="0 0 300 300"><defs><style>.cls-1{fill:#231f20;}</style></defs><title>perete copertina</title><path id="perete_copertina" data-name="perete copertina" class="cls-1" d="M105,285.46H47.24a3,3,0,0,1-3-3V157a3,3,0,0,1,3-3H105a3,3,0,0,1,3,3V282.45A3,3,0,0,1,105,285.46Zm-54.77-6H102V160H50.24Zm128.55,6H121a3,3,0,0,1-3-3V157a3,3,0,0,1,3-3h57.76a3,3,0,0,1,3,3V282.45A3,3,0,0,1,178.79,285.46Zm-54.76-6h51.76V160H124Zm128.73,6H195a3,3,0,0,1-3-3V157a3,3,0,0,1,3-3h57.77a3,3,0,0,1,3,3V282.45A3,3,0,0,1,252.76,285.46Zm-54.76-6h51.76V160H198ZM105,146H47.24a3,3,0,0,1-3-3V17.55a3,3,0,0,1,3-3H105a3,3,0,0,1,3,3V143A3,3,0,0,1,105,146Zm-54.77-6H102V20.55H50.24Zm128.55,6H121a3,3,0,0,1-3-3V17.55a3,3,0,0,1,3-3h57.76a3,3,0,0,1,3,3V143A3,3,0,0,1,178.79,146ZM124,140h51.76V20.55H124Zm128.73,6H195a3,3,0,0,1-3-3V17.55a3,3,0,0,1,3-3h57.77a3,3,0,0,1,3,3V143A3,3,0,0,1,252.76,146ZM198,140h51.76V20.55H198Zm69.66,160H32.34a3,3,0,0,1-3-3V3a3,3,0,0,1,3-3H267.66a3,3,0,0,1,3,3V297A3,3,0,0,1,267.66,300ZM35.34,294H264.66V6H35.34Z"/></svg>