<svg id="Layer_1" data-name="Layer 1" xmlns="http://www.w3.org/2000/svg" viewBox="0 0 300 300"><defs><style>.cls-1{fill:#231f20;}</style></defs><title>rulou exterior</title><path class="cls-1" d="M244.2,48.35l0-.05.07-.12.19-.35.06-.14a2.77,2.77,0,0,0,.15-.49.17.17,0,0,0,0-.07,2.5,2.5,0,0,0,0-.47s0,0,0-.08V11.36a3,3,0,0,0-3-3H58.23a3,3,0,0,0-3,3V46.58s0,.05,0,.08a2.5,2.5,0,0,0,0,.47.17.17,0,0,0,0,.07,2.77,2.77,0,0,0,.15.49l.06.14a3.9,3.9,0,0,0,.19.35l.07.11,0,.06L66,62.3V268H58.23a3,3,0,0,0-3,3v17.61a3,3,0,0,0,3,3H241.77a3,3,0,0,0,3-3V271a3,3,0,0,0-3-3h-8.35V63.15Zm-183-34H238.77V43.58H61.23ZM235.88,49.58l-6.64,9.13H70.76l-6.64-9.13ZM213.3,99.14H86.07V85.2H213.3Zm0,19.94H86.07V105.14H213.3Zm0,19.71H86.07V125.08H213.3ZM86.07,164.73H94.3V257.2a3,3,0,0,0,3,3H202.08a3,3,0,0,0,3-3V164.73h8.22V268H86.07Zm14.23,0h98.78V254.2H100.3Zm101.78-6h-116V145H213.3v13.71ZM213.3,78.65H86.07V64.71H213.3ZM72,64.71h8.12V268H72ZM238.77,274v11.61H61.23V274H238.77Zm-19.47-6V64.71h8.12V268Z"/></svg>