<svg id="Layer_1" data-name="Layer 1" xmlns="http://www.w3.org/2000/svg" viewBox="0 0 300 300"><defs><style>.cls-1{fill:#231f20;}</style></defs><title>usa antifoc</title><path class="cls-1" d="M227.82,0H72.18a3,3,0,0,0-3,3V297a3,3,0,0,0,3,3H227.82a3,3,0,0,0,3-3V3A3,3,0,0,0,227.82,0ZM206.14,182H93.86v-8.27H206.14Zm0-14.28H93.86V26H206.14ZM93.86,294V188H206.14V294Zm131,0H212.14V23a3,3,0,0,0-3-3H90.86a3,3,0,0,0-3,3V294H75.18V6H224.82ZM150,147.66A38.65,38.65,0,1,0,111.35,109,38.7,38.7,0,0,0,150,147.66Zm0-6a32.43,32.43,0,0,1-20.13-7l7.43-7.43a18,18,0,0,0,10,5.9l.2,0a1,1,0,0,0,.94-.65,1,1,0,0,0-.45-1.23A6.1,6.1,0,0,1,144.8,126c0-2.55,3.95-6.7,6.11-8.69,2.17,2,6.11,6.14,6.11,8.69a6.08,6.08,0,0,1-3,5.25,1,1,0,0,0,.74,1.83,17.63,17.63,0,0,0,11.49-8.49A18.23,18.23,0,0,0,168.31,111h0a18.5,18.5,0,0,0-3.55-7.86,7.49,7.49,0,0,0-.87-.9,1,1,0,0,0-1.68.85,8.6,8.6,0,0,1,0,2,3,3,0,0,1-3,2.51,2.73,2.73,0,0,1-1.72-.56l18.16-18.16A32.62,32.62,0,0,1,150,141.66Zm0-65.3a32.52,32.52,0,0,1,21.55,8.16L156.92,99.14a13.63,13.63,0,0,0-.21-2.86,16,16,0,0,0-5.07-9,18.47,18.47,0,0,0-2-1.54l-1-.67-.65-.38a1,1,0,0,0-1,0,1,1,0,0,0-.54.81,4.06,4.06,0,0,0,.1,1l0,.18a9.67,9.67,0,0,1-1,6.24,23.94,23.94,0,0,1-3.6,4.79L140.86,99c-1.27,1.4-2.58,2.84-3.75,4.39a19.26,19.26,0,0,0-3.61,16.18,17.84,17.84,0,0,0,.67,2.33l-8.66,8.67A32.62,32.62,0,0,1,150,76.36Z"/></svg>