<svg id="Layer_1" data-name="Layer 1" xmlns="http://www.w3.org/2000/svg" viewBox="0 0 300 300"><defs><style>.cls-1{fill:#231f20;}</style></defs><title>usa de garaj</title><path class="cls-1" d="M289,0H11A3,3,0,0,0,8,3V296.92a3,3,0,0,0,3,3H25.37a3,3,0,0,0,3-3v-.78H271.63v.7a3,3,0,0,0,3,3L289,300h0a3,3,0,0,0,3-3V3A3,3,0,0,0,289,0ZM271.63,68.89H28.37V19.66H271.63Zm-243.26,6H271.63v49.23H28.37Zm0,55.23H271.63v49.23H28.37Zm0,55.23H271.63v49.23H28.37Zm0,104.78V240.59H271.63v49.54ZM286,294l-8.37-.09V16.66a3,3,0,0,0-3-3H25.37a3,3,0,0,0-3,3V293.92H14V6H286Z"/></svg>