<svg id="Layer_1" data-name="Layer 1" xmlns="http://www.w3.org/2000/svg" viewBox="0 0 300 300"><defs><style>.cls-1{fill:#231f20;}</style></defs><title>plasa</title><path class="cls-1" d="M262.1,0H37.9a3,3,0,0,0-3,3V297a3,3,0,0,0,3,3H262.1a3,3,0,0,0,3-3V3A3,3,0,0,0,262.1,0Zm-3,294H40.9V6H259.1Zm-200-18.19a3,3,0,0,0,1.67.51H239.24a3,3,0,0,0,2.76-1.83,3.06,3.06,0,0,0,.24-1.17V26.68a3,3,0,0,0-3-3H60.76a3,3,0,0,0-3,3V273.32A3,3,0,0,0,59.09,275.81ZM235,68.35,223.92,83.64l-11-15.25L224,53.1ZM227.65,48l8.59-11.86V59.85ZM91.05,236.76l11,15.25L91,267.31,80,252.06Zm3.7-5.11,11.07-15.3,11,15.24L105.78,246.9Zm11-137.72,11.06,15.29-11,15.26L94.75,109.19ZM91,104.07,80,88.77,91,73.51l11.07,15.3Zm114.41,5.11-11.07,15.29-11-15.25,11.06-15.29ZM235,150l-11.06,15.3L212.86,150l11.06-15.29Zm-7.37-20.41,8.62-11.9v23.8Zm-92.29,5.15L146.4,150l-11,15.26L124.28,150Zm-14.75,10.15L109.52,129.6l11-15.26,11.06,15.29Zm59,40.82L168.54,170.4l11.07-15.29,11.07,15.31ZM183.31,150l11.07-15.3L205.46,150l-11.08,15.3Zm-3.7-5.11-11-15.25,11.07-15.3,11,15.25Zm-3.7,5.11-11.07,15.3L153.8,150l11.07-15.3ZM161.14,170.4l-11,15.27-11-15.25,11-15.26Zm-11-25.47L139,129.63l11.07-15.3,11.07,15.3Zm-18.44,25.49-11.07,15.29-11.07-15.3,11.06-15.3Zm3.7,5.11,11,15.25-11.06,15.29-11-15.24Zm14.73,20.36,11.08,15.31L150.1,226.49,139,211.19Zm3.7-5.11,11.05-15.26,11.08,15.31-11,15.26ZM179.62,196l11.06,15.29-11,15.26-11.07-15.29Zm3.7-5.12,11.06-15.3,11.07,15.3-11.06,15.29ZM209.15,196l11.07,15.3-11.06,15.29-11.07-15.3Zm3.7-5.12,11.08-15.3L235,190.83l-11.07,15.3Zm-3.7-5.12-11.07-15.29,11.08-15.31,11.07,15.3Zm0-40.83-11.08-15.3,11.07-15.29,11.07,15.3ZM179.65,104.1,168.57,88.8l11.07-15.29,11.07,15.3Zm-3.7,5.12-11.08,15.3-11.07-15.3,11.07-15.31ZM150.1,104.1,139,88.81l11.08-15.3L161.17,88.8Zm-3.7,5.12-11.07,15.29-11.07-15.28,11.07-15.3Zm-25.85-5.12L109.48,88.81l11.08-15.3,11.07,15.3Zm-18.44,25.49L91,144.88,80,129.59,91.05,114.3Zm3.71,5.12L116.88,150l-11.07,15.29L94.75,150Zm-3.71,35.7L91,185.71,80,170.42l11.07-15.3Zm3.71,5.11,11.07,15.3-11.07,15.3-11.08-15.3Zm14.77,20.42,11,15.25-11.07,15.29-11-15.24Zm0,40.77L131.63,252l-11.07,15.31L109.48,252Zm3.7-5.11,11.07-15.3,11.07,15.31L135.33,246.9Zm25.85,5.12L161.17,252l-11.07,15.3L139,252Zm3.7-5.11,11.06-15.29,11.07,15.29L164.87,246.9Zm25.83,5.11L190.71,252l-11.06,15.3L168.57,252Zm3.7-5.11,11-15.26,11.08,15.3-11.05,15.26Zm25.82,5.16,11.06,15.28-11,15.27L198.12,252Zm3.7-5.12,11.06-15.29L235,231.65l-11.07,15.29Zm23.38,8.5V264l-8.62-11.91Zm-8.61-28.9,8.61-11.9v23.8Zm0-40.84,8.61-11.89v23.79Zm-3.71-45.93-11.07-15.3,11.07-15.31L235,109.17Zm-14.77-20.42-11-15.25L209.19,73.5l11,15.26Zm0-40.79L198.12,48l11.06-15.29L220.25,48Zm-3.7,5.11L194.41,83.69l-11.07-15.3,11.08-15.3Zm-25.84-5.11L168.57,48l11.08-15.3L190.71,48Zm-3.7,5.12-11.07,15.3L153.81,68.4l11.06-15.3ZM150.1,63.28,139,48,150.1,32.69,161.17,48Zm-3.7,5.11-11.07,15.3L124.26,68.4l11.07-15.31Zm-25.84-5.11L109.49,48l11.07-15.3L131.63,48Zm-3.7,5.12L105.79,83.69,94.72,68.39,105.78,53.1ZM91,63.28,80,48,91,32.69,102.08,48Zm-3.71,5.11-11,15.27L65.2,68.35l11-15.26ZM72.57,88.77l-8.81,12.17V76.6Zm3.7,5.12,11.07,15.29L76.27,124.47,65.21,109.18ZM87.34,150,76.27,165.3,65.21,150l11.07-15.29Zm0,40.81L76.27,206.12,65.21,190.83l11.07-15.3Zm3.7,5.12,11.07,15.3-11.07,15.3L80,211.23Zm-3.69,35.72L76.28,247,65.2,231.65l11.08-15.31ZM76.28,257.17l9.51,13.15h-19Zm29.5-.05,9.55,13.2H96.23Zm29.56,0,9.54,13.19H125.79Zm29.53,0,9.55,13.19h-19.1Zm29.55,0L204,270.32H184.88Zm29.5,0,9.52,13.15h-19Zm3.7-168.41,8.62-11.91v23.81ZM224,42.87l-9.54-13.19h19.08Zm-29.54,0-9.53-13.18H204Zm-29.54,0-9.54-13.19h19.08Zm-29.54,0-9.54-13.19h19.09Zm-29.55,0L96.24,29.68h19.09Zm-29.53,0L66.71,29.68H85.79ZM72.54,48,63.76,60.11V35.84Zm0,81.6-8.81,12.19V117.41Zm0,40.83L63.76,182.6V158.23Zm0,40.82L63.76,223.4V199.05Zm0,40.83-8.82,12.17V239.89Z"/></svg>