<?xml version="1.0" encoding="utf-8"?>
<!-- Generator: Adobe Illustrator 25.1.0, SVG Export Plug-In . SVG Version: 6.00 Build 0)  -->
<svg version="1.1" id="Layer_1" xmlns="http://www.w3.org/2000/svg" xmlns:xlink="http://www.w3.org/1999/xlink" x="0px" y="0px"
	 viewBox="0 0 300 300" style="enable-background:new 0 0 300 300;" xml:space="preserve">
<style type="text/css">
	.st0{fill:#231F20;}
</style>
<path class="st0" d="M227.8,0H72.2c-1.7,0-3,1.3-3,3v294c0,1.7,1.3,3,3,3h155.6c1.7,0,3-1.3,3-3V3C230.8,1.3,229.5,0,227.8,0z
	 M206.1,188H93.9v-14.3h112.3V188z M206.1,173.7H93.9V26h112.3V173.7z M93.9,294V188h112.3v106H93.9z M224.9,294h-12.7V23
	c0-1.7-1.3-3-3-3H90.9c-1.7,0-3,1.3-3,3v271H75.2V6h149.6L224.9,294z"/>
</svg>
