<svg id="Layer_1" data-name="Layer 1" xmlns="http://www.w3.org/2000/svg" viewBox="0 0 300 300"><defs><style>.cls-1{fill:#231f20;}</style></defs><title>panel ornamental</title><path id="panel_ornamental" data-name="panel ornamental" class="cls-1" d="M224.63,300H75.37a3,3,0,0,1-3-3V3a3,3,0,0,1,3-3H224.63a3,3,0,0,1,3,3V297A3,3,0,0,1,224.63,300ZM78.37,294H221.63V6H78.37Zm61.68-80.5H92.86a3,3,0,0,1-3-3V163.31a3,3,0,0,1,3-3h47.19a3,3,0,0,1,3,3V210.5A3,3,0,0,1,140.05,213.5Zm-44.19-6h41.19V166.31H95.86ZM140.05,149H92.86a3,3,0,0,1-3-3V43.24a3,3,0,0,1,3-3c8.11-.13,13.24-4.65,19.19-9.88,6.82-6,14.55-12.8,27.94-13.29a2.92,2.92,0,0,1,2.19.84,3,3,0,0,1,.92,2.16V146A3,3,0,0,1,140.05,149Zm-44.19-6h41.19V23.32C127.69,24.54,122,29.57,116,34.86,110.32,39.83,104.5,45,95.86,46Zm44.19,135H92.86a3,3,0,0,1-3-3V227.86a3,3,0,0,1,3-3h47.19a3,3,0,0,1,3,3v47.19A3,3,0,0,1,140.05,278.05Zm-44.19-6h41.19V230.86H95.86ZM207.4,213.5H160.21a3,3,0,0,1-3-3V163.31a3,3,0,0,1,3-3H207.4a3,3,0,0,1,3,3V210.5A3,3,0,0,1,207.4,213.5Zm-44.19-6H204.4V166.31H163.21ZM207.4,149H160.21a3,3,0,0,1-3-3v-126a3,3,0,0,1,.92-2.16,2.92,2.92,0,0,1,2.19-.84c13.39.49,21.12,7.29,27.94,13.29,5.94,5.23,11.08,9.75,19.19,9.88a3,3,0,0,1,3,3V146A3,3,0,0,1,207.4,149Zm-44.19-6H204.4V46c-8.65-1.09-14.46-6.21-20.11-11.18-6-5.29-11.73-10.32-21.08-11.54Zm44.19,135H160.21a3,3,0,0,1-3-3V227.86a3,3,0,0,1,3-3H207.4a3,3,0,0,1,3,3v47.19A3,3,0,0,1,207.4,278.05Zm-44.19-6H204.4V230.86H163.21Z"/></svg>