<svg id="Layer_1" data-name="Layer 1" xmlns="http://www.w3.org/2000/svg" viewBox="0 0 300 300"><defs><style>.cls-1{fill:#231f20;}</style></defs><title>tamplarie pvc</title><path id="tamplarie_pvc" data-name="tamplarie pvc" class="cls-1" d="M262.1,0H37.9a3,3,0,0,0-3,3V297a3,3,0,0,0,3,3H262.1a3,3,0,0,0,3-3V3A3,3,0,0,0,262.1,0Zm-3,294H40.9V6H259.1ZM60.76,276.32H239.24a3,3,0,0,0,3-3V26.68a3,3,0,0,0-3-3H60.76a3,3,0,0,0-3,3V273.32A3,3,0,0,0,60.76,276.32Zm175.48-6H153.1V167.84h7.2v91.41a3,3,0,0,0,3,3H226a3,3,0,0,0,3-3V40.75a3,3,0,0,0-3-3H163.3a3,3,0,0,0-3,3V161.84h-7.2V29.68h83.14ZM171.09,161.84H166.3V43.75H223v212.5H166.3V167.84h4.79a3,3,0,0,0,0-6ZM63.76,29.68H147.1V270.32H63.76Z"/></svg>