<svg id="Layer_1" data-name="Layer 1" xmlns="http://www.w3.org/2000/svg" viewBox="0 0 300 300"><defs><style>.cls-1{fill:#231f20;}</style></defs><title>balustrada</title><path class="cls-1" d="M300,46.59c0-.51-1.07-1-2.71-1.23l2.44-2.24c0-2.64-2.81-4.79-6.29-4.79h0c-3.47,0-6.29,2.15-6.29,4.79l2.44,2.24c-1.64.27-2.7.72-2.7,1.23s1.44,1.11,3.55,1.37v7.69H9.59V48c2.09-.25,3.52-.77,3.52-1.36s-1.06-1-2.7-1.23l2.44-2.24c0-2.64-2.82-4.79-6.29-4.79h0c-3.48,0-6.29,2.15-6.29,4.79l2.44,2.24C1.07,45.63,0,46.08,0,46.59S1.46,47.71,3.59,48V261.67h6V242.79H290.44v17.4h6V48C298.55,47.7,300,47.19,300,46.59ZM91.54,61.65h35V236.79h-35Zm-6,175.14h-35V61.65h35Zm47-175.14h35V236.79h-35Zm41,0h35V236.79h-35Zm41,0h35V236.79h-35Zm-204.89,0h35V236.79h-35ZM255.46,236.79V61.65h35V236.79Z"/></svg>