<svg id="Layer_1" data-name="Layer 1" xmlns="http://www.w3.org/2000/svg" viewBox="0 0 300 300"><defs><style>.cls-1{fill:#231f20;}</style></defs><title>roleta textila</title><path id="roleta_textila" data-name="roleta textila" class="cls-1" d="M281.46,55.56V23.82A2.82,2.82,0,0,0,278.64,21H21.36a2.82,2.82,0,0,0-2.82,2.82V55.56a2.82,2.82,0,0,0,2.82,2.82h33V72.69H43.88a3.06,3.06,0,0,0-3.05,2.41,3,3,0,0,0,2.94,3.59H54.38V97.92H43.88a3.06,3.06,0,0,0-3.05,2.41,3,3,0,0,0,2.94,3.59H54.38v19.23H43.88a3.06,3.06,0,0,0-3.05,2.41,3,3,0,0,0,2.94,3.59H54.38v19.23H43.94a3.12,3.12,0,0,0-3.17,2.84,3,3,0,0,0,3,3.16H54.38v19.24H43.94a3.11,3.11,0,0,0-3.17,2.83,3,3,0,0,0,3,3.17H54.38v19.23H43.94a3.11,3.11,0,0,0-3.17,2.84,3,3,0,0,0,3,3.16H54.38v19.23H43.94a3.11,3.11,0,0,0-3.17,2.84,3,3,0,0,0,3,3.16H54.38v19.23H43.94a3.11,3.11,0,0,0-3.17,2.84,3,3,0,0,0,3,3.16H54.38v10.54A13.16,13.16,0,0,0,67.54,279H232.46a13.15,13.15,0,0,0,13.15-13.15V255.31h10.45a3.12,3.12,0,0,0,3.17-2.84,3,3,0,0,0-3-3.16H245.61V230.08h10.45a3.12,3.12,0,0,0,3.17-2.84,3,3,0,0,0-3-3.16H245.61V204.85h10.45a3.12,3.12,0,0,0,3.17-2.84,3,3,0,0,0-3-3.16H245.61V179.62h10.45a3.12,3.12,0,0,0,3.17-2.84,3,3,0,0,0-3-3.16H245.61V154.38h10.45a3.12,3.12,0,0,0,3.17-2.83,3,3,0,0,0-3-3.17H245.61V129.15h10.45a3.12,3.12,0,0,0,3.17-2.83,3,3,0,0,0-3-3.17H245.61V103.92h10.45a3.12,3.12,0,0,0,3.17-2.84,3,3,0,0,0-3-3.16H245.61V78.69h10.45a3.12,3.12,0,0,0,3.17-2.84,3,3,0,0,0-3-3.16H245.61V58.38h23.24V151.5a7.06,7.06,0,0,0-6.31,7v17.34a7.05,7.05,0,0,0,7,7.05h4.82a7.05,7.05,0,0,0,7-7.05V158.51a7,7,0,0,0-6.61-7V58.38h3.79A2.82,2.82,0,0,0,281.46,55.56Zm-6,103v17.34a1,1,0,0,1-1,1.05h-4.82a1,1,0,0,1-1-1.05V158.51a1,1,0,0,1,1-1h4.82A1,1,0,0,1,275.46,158.51ZM239.61,265.85a7.15,7.15,0,0,1-7.15,7.15H67.54a7.16,7.16,0,0,1-7.16-7.15V255.31H239.61Zm0-16.54H60.38V230.08H239.61Zm0-25.23H60.38V204.85H239.61Zm0-25.23H60.38V179.62H239.61Zm0-25.23H60.38V154.38H239.61Zm0-25.24H60.38V129.15H239.61Zm0-25.23H60.38V103.92H239.61Zm0-25.23H60.38V78.69H239.61Zm0-25.23H60.38V58.38H239.61ZM54.38,52.38H24.54V27H275.46V52.38H54.38Z"/></svg>