<svg id="Layer_1" data-name="Layer 1" xmlns="http://www.w3.org/2000/svg" viewBox="0 0 300 300"><defs><style>.cls-1{fill:#231f20;}</style></defs><title>tamplarie lemn str</title><path id="tamplarie_lemn_str" data-name="tamplarie lemn str" class="cls-1" d="M284.15,0H15.85a3,3,0,0,0-3,3V297a3,3,0,0,0,3,3h268.3a3,3,0,0,0,3-3V3A3,3,0,0,0,284.15,0ZM18.85,6H147V294H18.85Zm262.3,288H153V6H281.15ZM124.92,27.85H42.15a3,3,0,0,0-3,3V72.28a3,3,0,0,0,3,3h82.77a3,3,0,0,0,3-3V30.85A3,3,0,0,0,124.92,27.85Zm-3,41.43H45.15V33.85h76.77Zm3,23.69H42.15a3,3,0,0,0-3,3V269.51a3,3,0,0,0,3,3h82.77a3,3,0,0,0,3-3V96A3,3,0,0,0,124.92,93ZM45.15,266.51V99h76.77v80.77H105a3,3,0,0,0,0,6h17v80.77ZM175.71,75.28h82.77a3,3,0,0,0,3-3V30.85a3,3,0,0,0-3-3H175.71a3,3,0,0,0-3,3V72.28A3,3,0,0,0,175.71,75.28Zm3-41.43h76.77V69.28H178.71Zm-3,238.66h82.77a3,3,0,0,0,3-3V96a3,3,0,0,0-3-3H175.71a3,3,0,0,0-3,3V269.51A3,3,0,0,0,175.71,272.51ZM255.48,99V266.51H178.71V185.74h16.95a3,3,0,0,0,0-6H178.71V99Z"/></svg>